<?xml version="1.0" encoding="utf-8"?>
<!-- Generator: Adobe Illustrator 24.1.0, SVG Export Plug-In . SVG Version: 6.00 Build 0)  -->
<svg version="1.1" xmlns="http://www.w3.org/2000/svg" xmlns:xlink="http://www.w3.org/1999/xlink" x="0px" y="0px"
	 viewBox="0 0 500 500" style="enable-background:new 0 0 500 500;" xml:space="preserve">
<g id="Background_Complete">
	<g>
		<rect x="416.78" y="398.49" style="fill:#EBEBEB;" width="33.12" height="0.25"/>
		<rect x="322.53" y="401.21" style="fill:#EBEBEB;" width="8.69" height="0.25"/>
		<rect x="396.59" y="389.21" style="fill:#EBEBEB;" width="19.19" height="0.25"/>
		<rect x="52.46" y="390.89" style="fill:#EBEBEB;" width="43.19" height="0.25"/>
		<rect x="104.56" y="390.89" style="fill:#EBEBEB;" width="6.33" height="0.25"/>
		<rect x="131.47" y="395.11" style="fill:#EBEBEB;" width="93.68" height="0.25"/>
		<path style="fill:#EBEBEB;" d="M237.01,337.8H43.92c-3.15,0-5.71-2.56-5.71-5.71V60.66c0-3.15,2.56-5.71,5.71-5.71h193.1
			c3.15,0,5.71,2.56,5.71,5.71v271.43C242.72,335.24,240.16,337.8,237.01,337.8z M43.92,55.2c-3.01,0-5.46,2.45-5.46,5.46v271.43
			c0,3.01,2.45,5.46,5.46,5.46h193.1c3.01,0,5.46-2.45,5.46-5.46V60.66c0-3.01-2.45-5.46-5.46-5.46H43.92z"/>
		<path style="fill:#EBEBEB;" d="M453.31,337.8h-193.1c-3.15,0-5.71-2.56-5.71-5.71V60.66c0-3.15,2.56-5.71,5.71-5.71h193.1
			c3.15,0,5.71,2.56,5.71,5.71v271.43C459.02,335.24,456.46,337.8,453.31,337.8z M260.21,55.2c-3.01,0-5.46,2.45-5.46,5.46v271.43
			c0,3.01,2.45,5.46,5.46,5.46h193.1c3.01,0,5.46-2.45,5.46-5.46V60.66c0-3.01-2.45-5.46-5.46-5.46H260.21z"/>
		<rect y="382.4" style="fill:#EBEBEB;" width="500" height="0.25"/>
	</g>
	<g>
		<g>
			<rect x="291.96" y="94.67" style="fill:#EBEBEB;" width="124.79" height="132.89"/>
			<rect x="299.46" y="102.17" style="fill:#F5F5F5;" width="109.79" height="117.89"/>
			<g>
				<polygon style="fill:#FAFAFA;" points="342.55,220.06 375.55,220.06 406.53,102.17 373.53,102.17 				"/>
				<polygon style="fill:#FAFAFA;" points="358.2,102.17 327.22,220.06 335.22,220.06 366.2,102.17 				"/>
			</g>
			<g>
				<polygon style="fill:#F5F5F5;" points="418.33,100.92 290.38,100.92 287.68,94.62 421.03,94.62 				"/>
				<polygon style="fill:#F0F0F0;" points="418.33,104.57 290.38,104.57 287.68,98.27 421.03,98.27 				"/>
				<polygon style="fill:#E6E6E6;" points="418.33,108.22 290.38,108.22 287.68,101.92 421.03,101.92 				"/>
				<polygon style="fill:#E0E0E0;" points="418.33,111.87 290.38,111.87 287.68,105.57 421.03,105.57 				"/>
				<rect x="283.03" y="86.73" style="fill:#E0E0E0;" width="142.65" height="8.4"/>
				<path style="fill:#E0E0E0;" d="M284.49,171.29L284.49,171.29c-0.8,0-1.45-0.65-1.45-1.45v-48.99c0-0.8,0.65-1.45,1.45-1.45l0,0
					c0.8,0,1.45,0.65,1.45,1.45v48.99C285.94,170.64,285.29,171.29,284.49,171.29z"/>
				<rect x="283.96" y="93.45" style="fill:#E0E0E0;" width="1.05" height="29.1"/>
			</g>
		</g>
		<g>
			<g>
				<rect x="88.72" y="92.1" style="fill:#E0E0E0;" width="1.8" height="140.37"/>
				<rect x="200.77" y="92.1" style="fill:#E0E0E0;" width="1.8" height="140.37"/>
			</g>
			<polygon style="fill:#F5F5F5;" points="209.62,100.92 81.67,100.92 78.97,94.62 212.32,94.62 			"/>
			<polygon style="fill:#F5F5F5;" points="209.62,109.57 81.67,109.57 78.97,103.27 212.32,103.27 			"/>
			<polygon style="fill:#F5F5F5;" points="209.62,118.22 81.67,118.22 78.97,111.92 212.32,111.92 			"/>
			<polygon style="fill:#F5F5F5;" points="209.62,126.87 81.67,126.87 78.97,120.57 212.32,120.57 			"/>
			<polygon style="fill:#F5F5F5;" points="209.62,135.52 81.67,135.52 78.97,129.22 212.32,129.22 			"/>
			<polygon style="fill:#F5F5F5;" points="209.62,144.17 81.67,144.17 78.97,137.87 212.32,137.87 			"/>
			<polygon style="fill:#F5F5F5;" points="209.62,152.82 81.67,152.82 78.97,146.52 212.32,146.52 			"/>
			<polygon style="fill:#F5F5F5;" points="209.62,161.47 81.67,161.47 78.97,155.17 212.32,155.17 			"/>
			<polygon style="fill:#F5F5F5;" points="209.62,170.12 81.67,170.12 78.97,163.82 212.32,163.82 			"/>
			<polygon style="fill:#F5F5F5;" points="209.62,178.77 81.67,178.77 78.97,172.47 212.32,172.47 			"/>
			<polygon style="fill:#F5F5F5;" points="209.62,187.42 81.67,187.42 78.97,181.12 212.32,181.12 			"/>
			<polygon style="fill:#F5F5F5;" points="209.62,196.07 81.67,196.07 78.97,189.77 212.32,189.77 			"/>
			<polygon style="fill:#F5F5F5;" points="209.62,204.71 81.67,204.71 78.97,198.41 212.32,198.41 			"/>
			<polygon style="fill:#F5F5F5;" points="209.62,213.36 81.67,213.36 78.97,207.06 212.32,207.06 			"/>
			<polygon style="fill:#F5F5F5;" points="209.62,222.01 81.67,222.01 78.97,215.71 212.32,215.71 			"/>
			<polygon style="fill:#F5F5F5;" points="209.62,230.66 81.67,230.66 78.97,224.36 212.32,224.36 			"/>
			<rect x="78.97" y="230.66" style="fill:#E0E0E0;" width="133.35" height="3.6"/>
			<rect x="74.32" y="86.73" style="fill:#E0E0E0;" width="142.65" height="8.4"/>
			<path style="fill:#E0E0E0;" d="M75.79,171.29L75.79,171.29c-0.8,0-1.45-0.65-1.45-1.45v-48.99c0-0.8,0.65-1.45,1.45-1.45l0,0
				c0.8,0,1.45,0.65,1.45,1.45v48.99C77.24,170.64,76.59,171.29,75.79,171.29z"/>
			<rect x="75.26" y="93.45" style="fill:#E0E0E0;" width="1.05" height="29.1"/>
		</g>
	</g>
	<g>
		<g>
			<path style="fill:#EBEBEB;" d="M89.32,322.38c-0.12,0.14,0.55,1.08-2.19,0.66c-6.75-1.01-18.5-3.75-21.77-10.69
				c-4.67-9.91,9.81-6.29,9.31-11.36c-0.5-5.07-16.98-4.18-18.73-11.62c-1.75-7.43,9.43-3.89,9.58-7.52
				c0.15-3.62-12.73-1.37-15.29-9.39c-2.56-8.02,7.18-2.12,6.06-5.45c-1.12-3.33-12.01-18.42-6.09-20.17
				c5.93-1.75,15.92,13.73,19.77,15.92c3.85,2.19,7.28-10.44,11.87-5.11c4.59,5.33-2.69,23.99,3.17,27.61
				c4.36,2.7,3.13-4.73,8.89-3.35C101.73,283.81,99.1,311.44,89.32,322.38z"/>
			<path style="fill:#F5F5F5;" d="M68.49,281.9c2.65,0.22,4.61,0.76,5.83,1.2c-2.38-3.48-4.09-5.27-4.15-5.33
				c-0.19-0.2-0.19-0.51,0.01-0.71c0.2-0.19,0.51-0.19,0.71,0.01c0.05,0.05,3.99,4.11,8.31,12.06c2.12-12.79-3.23-23.96-3.29-24.08
				c-0.09-0.19-0.01-0.41,0.17-0.5c0.18-0.09,0.41-0.01,0.5,0.17c0.06,0.12,5.78,12.05,3.18,25.47c0.69,1.32,1.38,2.72,2.07,4.24
				c1.98,4.37,4.06,9.97,5.7,16.71c1.14-2.06,3.75-7.57,3.98-15.26c0.01-0.21,0.18-0.37,0.39-0.36c0.21,0.01,0.37,0.18,0.36,0.39
				c-0.27,8.9-3.68,14.99-4.47,16.29c2.17,9.36,3.47,20.88,2.54,34.46c-0.02,0.28-0.26,0.48-0.53,0.46c-0.02,0-0.04,0-0.06-0.01
				c-0.24-0.05-0.42-0.27-0.4-0.52c1.24-17.97-1.45-32.42-5.17-43.36c-0.94-1.09-3.73-3.89-7.98-4.55
				c-0.19-0.05-0.34-0.22-0.31-0.43c0.03-0.2,0.22-0.34,0.43-0.31c3.36,0.53,5.82,2.27,7.28,3.62c-2.74-7.6-5.94-13.38-8.53-17.33
				c-0.83-0.38-3.11-1.26-6.63-1.56c-0.2-0.03-0.36-0.2-0.34-0.41C68.1,282.03,68.28,281.88,68.49,281.9z"/>
		</g>
		<g>
			<g>
				<path style="fill:#E0E0E0;" d="M97.96,326.21c5.61,0.11,15.19-5.1,18.95-10.17c3.82-5.14-6.92-1.95-5.82-5.99
					c1.1-4.04,14.34-1.05,16.78-6.84c2.44-5.78-7.11-4.45-6.73-7.41c0.38-2.96,10.27-2.36,13.45-8.5c3.18-6.15-5.53-2.7-4.16-5.25
					c1.37-2.55,12.27-13.27,7.71-15.5c-4.56-2.24-14.79,8.93-18.21,10.18c-3.43,1.25-4.23-6.47-8.68-2.78
					c-4.46,3.69-1.12,19.81-6.37,21.94c-3.91,1.58-2.25-5.8-6.74-3.93C90.26,295.22,95.69,326.16,97.96,326.21z"/>
				<g style="opacity:0.3;">
					<path style="fill:#E0E0E0;" d="M97.96,326.21c5.61,0.11,15.19-5.1,18.95-10.17c3.82-5.14-6.92-1.95-5.82-5.99
						c1.1-4.04,14.34-1.05,16.78-6.84c2.44-5.78-7.11-4.45-6.73-7.41c0.38-2.96,10.27-2.36,13.45-8.5c3.18-6.15-5.53-2.7-4.16-5.25
						c1.37-2.55,12.27-13.27,7.71-15.5c-4.56-2.24-14.79,8.93-18.21,10.18c-3.43,1.25-4.23-6.47-8.68-2.78
						c-4.46,3.69-1.12,19.81-6.37,21.94c-3.91,1.58-2.25-5.8-6.74-3.93C90.26,295.22,95.69,326.16,97.96,326.21z"/>
				</g>
			</g>
			<path style="fill:#F5F5F5;" d="M99.82,319.48c-0.08-0.03-0.15-0.08-0.2-0.16c-0.13-0.25-3.2-6.2-2.52-15.03
				c0.02-0.21,0.19-0.36,0.4-0.34c0.21,0.02,0.36,0.2,0.34,0.4c-0.58,7.46,1.65,12.92,2.27,14.29c2.51-6.82,5.52-12.88,8.54-18.07
				c-0.99-12.04,5.18-21.9,5.24-22c0.11-0.17,0.34-0.23,0.52-0.12c0.17,0.11,0.23,0.34,0.12,0.52c-0.06,0.09-5.73,9.16-5.2,20.44
				c7.19-12.04,14.2-19.03,14.34-19.17c0.2-0.19,0.51-0.19,0.71,0.01c0.19,0.2,0.19,0.51-0.01,0.71c-0.12,0.12-5.11,5.1-10.94,13.84
				c3.42-1.27,7.13-1.93,10.6-1.87c0.21,0,0.37,0.17,0.37,0.38c0,0.2-0.17,0.37-0.38,0.37c0,0,0,0-0.01,0
				c-3.71-0.07-7.71,0.71-11.31,2.2c-2.01,3.08-4.09,6.6-6.1,10.49c1.93-1.3,5.67-3.11,10.46-1.84c0.2,0.05,0.32,0.26,0.27,0.46
				c-0.05,0.2-0.26,0.32-0.46,0.27c-6.08-1.6-10.36,2.03-11.06,2.67c-5.5,11.07-10.24,25.07-10.87,41.11
				c-0.01,0.27-0.23,0.48-0.5,0.48c-0.01,0-0.01,0-0.02,0c-0.28-0.01-0.49-0.24-0.48-0.52C94.38,338.14,96.68,328.21,99.82,319.48z"
				/>
		</g>
		<path style="fill:#F0F0F0;" d="M82.19,380.98c-5.35-10.06-8.87-24.61-8.87-30.98c0-5.39,2.53-10.22,6.54-13.61h27.41
			c4.01,3.39,6.54,8.22,6.54,13.61c0,6.37-3.52,20.92-8.87,30.98H82.19z"/>
	</g>
</g>
<g id="Background_Simple" style="display:none;">
	<g style="display:inline;">
		<path style="fill:#407BFF;" d="M223.37,181.62c-16.75,7.14-53.26-12.19-70.93-16.59c-44.59-11.1-96.45,7.63-92.04,69.99
			c6.02,85.25,131.88,178.94,263.45,134.09c66.46-22.66,120.88-85.99,120.75-161.96C444.36,69.1,313.47,64.42,272.34,99.04
			C233.82,131.46,245.45,172.21,223.37,181.62z"/>
		<path style="opacity:0.9;fill:#FFFFFF;" d="M223.37,181.62c-16.75,7.14-53.26-12.19-70.93-16.59
			c-44.59-11.1-96.45,7.63-92.04,69.99c6.02,85.25,131.88,178.94,263.45,134.09c66.46-22.66,120.88-85.99,120.75-161.96
			C444.36,69.1,313.47,64.42,272.34,99.04C233.82,131.46,245.45,172.21,223.37,181.62z"/>
	</g>
</g>
<g id="Shadow">
	<ellipse id="_x3C_Path_x3E__1_" style="fill:#F5F5F5;" cx="245.18" cy="412.39" rx="193.89" ry="11.32"/>
</g>
<g id="Screen">
	<g>
		<g>
			<path style="fill:#407BFF;" d="M292.65,119.64h-23.98c-1.57,0-3,1.17-3.33,2.73l-0.16,0.75c-0.82,3.81-4.31,6.66-8.14,6.66h-22.8
				c-3.84,0-6.82-2.85-6.98-6.66l-0.03-0.75c-0.06-1.56-1.29-2.73-2.86-2.73h-23.98c-8,0-15.05,6.48-15.75,14.48l-19.29,220.54
				c-0.7,8,5.22,14.48,13.22,14.48h92.27c8,0,15.05-6.48,15.75-14.48l19.29-220.54C306.57,126.13,300.65,119.64,292.65,119.64z"/>
			<path style="opacity:0.7;fill:#FFFFFF;" d="M292.65,119.64h-23.98c-1.57,0-3,1.17-3.33,2.73l-0.16,0.75
				c-0.82,3.81-4.31,6.66-8.14,6.66h-22.8c-3.84,0-6.82-2.85-6.98-6.66l-0.03-0.75c-0.06-1.56-1.29-2.73-2.86-2.73h-23.98
				c-8,0-15.05,6.48-15.75,14.48l-19.29,220.54c-0.7,8,5.22,14.48,13.22,14.48h92.27c8,0,15.05-6.48,15.75-14.48l19.29-220.54
				C306.57,126.13,300.65,119.64,292.65,119.64z"/>
		</g>
		<path style="fill:#FFFFFF;" d="M283.3,221.08h-48.99c-1.78,0-3.09-1.44-2.94-3.22l3.69-42.19c0.16-1.78,1.72-3.22,3.5-3.22h48.99
			c1.78,0,3.09,1.44,2.94,3.22l-3.69,42.19C286.64,219.63,285.08,221.08,283.3,221.08z"/>
		<path style="fill:#FFFFFF;" d="M266.98,352.99H185c-4.41,0-7.68-3.58-7.29-7.99l0,0c0.39-4.41,4.28-7.99,8.69-7.99h81.99
			c4.41,0,7.68,3.58,7.29,7.99l0,0C275.29,349.42,271.4,352.99,266.98,352.99z"/>
		<g>
			<path style="fill:#FFFFFF;" d="M273.53,160.85H198.3c-2.48,0-4.31-2.01-4.09-4.49l0.61-7.01c0.22-2.48,2.4-4.49,4.88-4.49h75.23
				c2.48,0,4.31,2.01,4.09,4.49l-0.61,7.01C278.2,158.84,276.01,160.85,273.53,160.85z"/>
			<g>
				<path style="fill:#FFFFFF;" d="M288.83,149.12c-0.06,0.69-0.67,1.25-1.36,1.25s-1.2-0.56-1.14-1.25
					c0.06-0.69,0.67-1.25,1.36-1.25C288.38,147.88,288.89,148.43,288.83,149.12z"/>
				<path style="fill:#FFFFFF;" d="M288.5,152.86c-0.06,0.69-0.67,1.25-1.36,1.25c-0.69,0-1.2-0.56-1.14-1.25
					c0.06-0.69,0.67-1.25,1.36-1.25C288.05,151.61,288.56,152.17,288.5,152.86z"/>
				<path style="fill:#FFFFFF;" d="M288.18,156.59c-0.06,0.69-0.67,1.25-1.36,1.25c-0.69,0-1.2-0.56-1.14-1.25
					c0.06-0.69,0.67-1.25,1.36-1.25C287.73,155.34,288.24,155.9,288.18,156.59z"/>
			</g>
		</g>
		<path style="fill:#FFFFFF;" d="M277.21,290.68h-91.53c-1.78,0-3.09-1.44-2.94-3.22l4.21-48.16c0.16-1.78,1.72-3.22,3.5-3.22h91.53
			c1.78,0,3.09,1.44,2.94,3.22l-4.21,48.16C280.55,289.24,278.99,290.68,277.21,290.68z"/>
		<g>
			<g>
				<path style="fill:#FFFFFF;" d="M210.86,300.74h-28.5c-0.43,0-0.76-0.35-0.72-0.79l0,0c0.04-0.43,0.42-0.79,0.85-0.79H211
					c0.43,0,0.76,0.35,0.72,0.79l0,0C211.68,300.39,211.29,300.74,210.86,300.74z"/>
			</g>
			<g>
				<path style="fill:#FFFFFF;" d="M246.48,300.74h-30.59c-0.43,0-0.76-0.35-0.72-0.79l0,0c0.04-0.43,0.42-0.79,0.85-0.79h30.59
					c0.43,0,0.76,0.35,0.72,0.79l0,0C247.29,300.39,246.91,300.74,246.48,300.74z"/>
			</g>
			<g>
				<path style="fill:#FFFFFF;" d="M201.03,307.69h-19.28c-0.43,0-0.76-0.35-0.72-0.79l0,0c0.04-0.43,0.42-0.79,0.85-0.79h19.28
					c0.43,0,0.76,0.35,0.72,0.79l0,0C201.85,307.34,201.47,307.69,201.03,307.69z"/>
			</g>
			<g>
				<path style="fill:#FFFFFF;" d="M237.64,307.69h-31.58c-0.43,0-0.76-0.35-0.72-0.79l0,0c0.04-0.43,0.42-0.79,0.85-0.79h31.58
					c0.43,0,0.76,0.35,0.72,0.79l0,0C238.45,307.34,238.07,307.69,237.64,307.69z"/>
			</g>
			<g>
				<path style="fill:#FFFFFF;" d="M232.54,314.63h-51.39c-0.43,0-0.76-0.35-0.72-0.79l0,0c0.04-0.43,0.42-0.79,0.85-0.79h51.39
					c0.43,0,0.76,0.35,0.72,0.79l0,0C233.36,314.28,232.97,314.63,232.54,314.63z"/>
			</g>
			<g>
				<path style="fill:#FFFFFF;" d="M240.96,314.63h-3.39c-0.43,0-0.76-0.35-0.72-0.79l0,0c0.04-0.43,0.42-0.79,0.85-0.79h3.39
					c0.43,0,0.76,0.35,0.72,0.79l0,0C241.78,314.28,241.39,314.63,240.96,314.63z"/>
			</g>
			<g>
				<path style="fill:#FFFFFF;" d="M204.53,321.58h-23.99c-0.43,0-0.76-0.35-0.72-0.79l0,0c0.04-0.43,0.42-0.79,0.85-0.79h23.99
					c0.43,0,0.76,0.35,0.72,0.79l0,0C205.35,321.22,204.97,321.58,204.53,321.58z"/>
			</g>
			<g>
				<path style="fill:#FFFFFF;" d="M239.43,321.58h-29.87c-0.43,0-0.76-0.35-0.72-0.79l0,0c0.04-0.43,0.42-0.79,0.86-0.79h29.87
					c0.43,0,0.76,0.35,0.72,0.79l0,0C240.25,321.22,239.87,321.58,239.43,321.58z"/>
			</g>
			<g>
				<path style="fill:#FFFFFF;" d="M209.48,328.52h-29.54c-0.43,0-0.76-0.35-0.72-0.79l0,0c0.04-0.43,0.42-0.79,0.85-0.79h29.54
					c0.43,0,0.76,0.35,0.72,0.79l0,0C210.29,328.17,209.91,328.52,209.48,328.52z"/>
			</g>
			<g>
				<path style="fill:#FFFFFF;" d="M238.3,328.52h-23.8c-0.43,0-0.76-0.35-0.72-0.79l0,0c0.04-0.43,0.42-0.79,0.86-0.79h23.8
					c0.43,0,0.76,0.35,0.72,0.79l0,0C239.12,328.17,238.74,328.52,238.3,328.52z"/>
			</g>
		</g>
		<g>
			<g>
				<path style="fill:#407BFF;" d="M282.14,217.08c-0.4,0.41-1.04,0.45-1.42,0.09l-40.93-39.06c-0.38-0.37-0.37-1,0.03-1.41l0,0
					c0.4-0.41,1.04-0.45,1.42-0.09l40.93,39.06C282.55,216.04,282.54,216.67,282.14,217.08L282.14,217.08z"/>
			</g>
			<g>
				<path style="fill:#407BFF;" d="M236.17,217.07L236.17,217.07c-0.33-0.41-0.23-1.05,0.21-1.41l20.88-17.07
					c0.45-0.37,1.07-0.32,1.4,0.09l0,0c0.33,0.41,0.23,1.05-0.21,1.41l-20.88,17.07C237.13,217.52,236.5,217.48,236.17,217.07z"/>
			</g>
			<g>
				<path style="fill:#407BFF;" d="M263.15,195L263.15,195c-0.33-0.41-0.23-1.05,0.21-1.41l20.92-17.1c0.45-0.37,1.07-0.33,1.4,0.09
					l0,0c0.33,0.41,0.23,1.05-0.21,1.41l-20.92,17.1C264.11,195.46,263.48,195.42,263.15,195z"/>
			</g>
			<g style="opacity:0.7;">
				<path style="fill:#FFFFFF;" d="M282.14,217.08c-0.4,0.41-1.04,0.45-1.42,0.09l-40.93-39.06c-0.38-0.37-0.37-1,0.03-1.41l0,0
					c0.4-0.41,1.04-0.45,1.42-0.09l40.93,39.06C282.55,216.04,282.54,216.67,282.14,217.08L282.14,217.08z"/>
			</g>
			<g style="opacity:0.7;">
				<path style="fill:#FFFFFF;" d="M236.17,217.07L236.17,217.07c-0.33-0.41-0.23-1.05,0.21-1.41l20.88-17.07
					c0.45-0.37,1.07-0.32,1.4,0.09l0,0c0.33,0.41,0.23,1.05-0.21,1.41l-20.88,17.07C237.13,217.52,236.5,217.48,236.17,217.07z"/>
			</g>
			<g style="opacity:0.7;">
				<path style="fill:#FFFFFF;" d="M263.15,195L263.15,195c-0.33-0.41-0.23-1.05,0.21-1.41l20.92-17.1c0.45-0.37,1.07-0.33,1.4,0.09
					l0,0c0.33,0.41,0.23,1.05-0.21,1.41l-20.92,17.1C264.11,195.46,263.48,195.42,263.15,195z"/>
			</g>
		</g>
	</g>
</g>
<g id="Icons">
	<g>
		<path style="fill:#407BFF;" d="M165.74,114.84h-12.95c-2.63,0-4.76,2.13-4.76,4.76v12.95c0,2.63,2.13,4.76,4.76,4.76h12.95
			c2.63,0,4.76-2.13,4.76-4.76V119.6C170.5,116.97,168.37,114.84,165.74,114.84z M159.27,119.44c1.95,0,3.01,1.58,3.01,3.54
			c0,1.95-1.05,3.54-3.01,3.54c-1.95,0-3.01-1.58-3.01-3.54C156.26,121.03,157.31,119.44,159.27,119.44z M167.08,132.71h-15.64
			c-0.13,0-0.25-0.05-0.33-0.14l1-2.74c0.64-1.76,2.32-2.93,4.2-2.93h5.9c1.88,0,3.55,1.17,4.2,2.93l1,2.74
			C167.33,132.66,167.22,132.71,167.08,132.71z"/>
		<path style="opacity:0.7;fill:#FFFFFF;" d="M165.74,114.84h-12.95c-2.63,0-4.76,2.13-4.76,4.76v12.95c0,2.63,2.13,4.76,4.76,4.76
			h12.95c2.63,0,4.76-2.13,4.76-4.76V119.6C170.5,116.97,168.37,114.84,165.74,114.84z M159.27,119.44c1.95,0,3.01,1.58,3.01,3.54
			c0,1.95-1.05,3.54-3.01,3.54c-1.95,0-3.01-1.58-3.01-3.54C156.26,121.03,157.31,119.44,159.27,119.44z M167.08,132.71h-15.64
			c-0.13,0-0.25-0.05-0.33-0.14l1-2.74c0.64-1.76,2.32-2.93,4.2-2.93h5.9c1.88,0,3.55,1.17,4.2,2.93l1,2.74
			C167.33,132.66,167.22,132.71,167.08,132.71z"/>
	</g>
	<g>
		<g>
			<path style="fill:#407BFF;" d="M119.66,168.12h-9.84c-3.54,0-6.41,2.87-6.41,6.41v9.84c0,3.54,2.87,6.41,6.41,6.41h9.84
				c3.54,0,6.41-2.87,6.41-6.41v-9.84C126.06,170.98,123.2,168.12,119.66,168.12z M114.74,184.81c0,0-4.04-4.4-4.04-6.63
				c0-2.23,1.81-4.04,4.04-4.04c2.23,0,4.04,1.81,4.04,4.04C118.78,180.42,114.74,184.81,114.74,184.81z"/>
			<path style="fill:#407BFF;" d="M114.74,176.34c-1.02,0-1.84,0.83-1.84,1.85c0,1.02,0.83,1.84,1.84,1.84
				c1.02,0,1.85-0.83,1.85-1.84C116.58,177.16,115.76,176.34,114.74,176.34z"/>
		</g>
		<g style="opacity:0.7;">
			<path style="fill:#FFFFFF;" d="M119.66,168.12h-9.84c-3.54,0-6.41,2.87-6.41,6.41v9.84c0,3.54,2.87,6.41,6.41,6.41h9.84
				c3.54,0,6.41-2.87,6.41-6.41v-9.84C126.06,170.98,123.2,168.12,119.66,168.12z M114.74,184.81c0,0-4.04-4.4-4.04-6.63
				c0-2.23,1.81-4.04,4.04-4.04c2.23,0,4.04,1.81,4.04,4.04C118.78,180.42,114.74,184.81,114.74,184.81z"/>
			<path style="fill:#FFFFFF;" d="M114.74,176.34c-1.02,0-1.84,0.83-1.84,1.85c0,1.02,0.83,1.84,1.84,1.84
				c1.02,0,1.85-0.83,1.85-1.84C116.58,177.16,115.76,176.34,114.74,176.34z"/>
		</g>
	</g>
	<g>
		<g>
			<polygon style="fill:#407BFF;" points="335.7,140.23 342.29,135.97 335.7,131.7 			"/>
			<path style="fill:#407BFF;" d="M344.19,124.34h-12.56c-2.96,0-5.35,2.4-5.35,5.35v12.56c0,2.96,2.4,5.35,5.35,5.35h12.56
				c2.96,0,5.35-2.4,5.35-5.35v-12.56C349.54,126.73,347.15,124.34,344.19,124.34z M337.91,144.33c-4.62,0-8.36-3.74-8.36-8.36
				c0-4.62,3.74-8.36,8.36-8.36c4.62,0,8.36,3.75,8.36,8.36C346.28,140.59,342.53,144.33,337.91,144.33z"/>
		</g>
		<g style="opacity:0.7;">
			<polygon style="fill:#FFFFFF;" points="335.7,140.23 342.29,135.97 335.7,131.7 			"/>
			<path style="fill:#FFFFFF;" d="M344.19,124.34h-12.56c-2.96,0-5.35,2.4-5.35,5.35v12.56c0,2.96,2.4,5.35,5.35,5.35h12.56
				c2.96,0,5.35-2.4,5.35-5.35v-12.56C349.54,126.73,347.15,124.34,344.19,124.34z M337.91,144.33c-4.62,0-8.36-3.74-8.36-8.36
				c0-4.62,3.74-8.36,8.36-8.36c4.62,0,8.36,3.75,8.36,8.36C346.28,140.59,342.53,144.33,337.91,144.33z"/>
		</g>
	</g>
</g>
<g id="Gears">
	<g>
		<path style="fill:#407BFF;" d="M356.52,172.51c0-0.26-0.01-0.52-0.04-0.77l1.51-0.84c-0.11-0.73-0.3-1.43-0.56-2.09l-1.72,0.03
			c-0.22-0.47-0.48-0.91-0.77-1.33l0.89-1.48c-0.46-0.56-0.97-1.08-1.53-1.53l-1.48,0.89c-0.42-0.29-0.86-0.55-1.33-0.77l0.03-1.72
			c-0.67-0.26-1.37-0.45-2.09-0.56l-0.84,1.51c-0.25-0.02-0.51-0.04-0.77-0.04c-0.26,0-0.52,0.01-0.77,0.04l-0.84-1.51
			c-0.73,0.11-1.43,0.3-2.09,0.56l0.03,1.72c-0.47,0.22-0.91,0.48-1.33,0.77l-1.48-0.89c-0.56,0.46-1.08,0.97-1.53,1.53l0.89,1.48
			c-0.29,0.42-0.55,0.86-0.77,1.33l-1.72-0.03c-0.26,0.67-0.45,1.37-0.56,2.09l1.51,0.84c-0.02,0.25-0.04,0.51-0.04,0.77
			c0,0.26,0.01,0.52,0.04,0.77l-1.51,0.84c0.11,0.73,0.3,1.43,0.56,2.09l1.72-0.03c0.22,0.47,0.48,0.91,0.77,1.33l-0.89,1.48
			c0.46,0.56,0.97,1.08,1.53,1.53l1.48-0.89c0.42,0.29,0.86,0.55,1.33,0.77l-0.03,1.72c0.67,0.26,1.37,0.45,2.09,0.56l0.84-1.51
			c0.25,0.02,0.51,0.04,0.77,0.04c0.26,0,0.52-0.01,0.77-0.04l0.84,1.51c0.73-0.11,1.43-0.3,2.09-0.56l-0.03-1.72
			c0.47-0.22,0.91-0.48,1.33-0.77l1.48,0.89c0.56-0.46,1.08-0.97,1.53-1.53l-0.89-1.48c0.29-0.42,0.55-0.86,0.77-1.33l1.72,0.03
			c0.26-0.67,0.45-1.37,0.56-2.09l-1.51-0.84C356.5,173.03,356.52,172.77,356.52,172.51z M347.8,178.43c-3.27,0-5.92-2.65-5.92-5.92
			c0-3.27,2.65-5.92,5.92-5.92c3.27,0,5.92,2.65,5.92,5.92C353.72,175.78,351.07,178.43,347.8,178.43z"/>
		<path style="opacity:0.7;fill:#FFFFFF;" d="M356.52,172.51c0-0.26-0.01-0.52-0.04-0.77l1.51-0.84c-0.11-0.73-0.3-1.43-0.56-2.09
			l-1.72,0.03c-0.22-0.47-0.48-0.91-0.77-1.33l0.89-1.48c-0.46-0.56-0.97-1.08-1.53-1.53l-1.48,0.89c-0.42-0.29-0.86-0.55-1.33-0.77
			l0.03-1.72c-0.67-0.26-1.37-0.45-2.09-0.56l-0.84,1.51c-0.25-0.02-0.51-0.04-0.77-0.04c-0.26,0-0.52,0.01-0.77,0.04l-0.84-1.51
			c-0.73,0.11-1.43,0.3-2.09,0.56l0.03,1.72c-0.47,0.22-0.91,0.48-1.33,0.77l-1.48-0.89c-0.56,0.46-1.08,0.97-1.53,1.53l0.89,1.48
			c-0.29,0.42-0.55,0.86-0.77,1.33l-1.72-0.03c-0.26,0.67-0.45,1.37-0.56,2.09l1.51,0.84c-0.02,0.25-0.04,0.51-0.04,0.77
			c0,0.26,0.01,0.52,0.04,0.77l-1.51,0.84c0.11,0.73,0.3,1.43,0.56,2.09l1.72-0.03c0.22,0.47,0.48,0.91,0.77,1.33l-0.89,1.48
			c0.46,0.56,0.97,1.08,1.53,1.53l1.48-0.89c0.42,0.29,0.86,0.55,1.33,0.77l-0.03,1.72c0.67,0.26,1.37,0.45,2.09,0.56l0.84-1.51
			c0.25,0.02,0.51,0.04,0.77,0.04c0.26,0,0.52-0.01,0.77-0.04l0.84,1.51c0.73-0.11,1.43-0.3,2.09-0.56l-0.03-1.72
			c0.47-0.22,0.91-0.48,1.33-0.77l1.48,0.89c0.56-0.46,1.08-0.97,1.53-1.53l-0.89-1.48c0.29-0.42,0.55-0.86,0.77-1.33l1.72,0.03
			c0.26-0.67,0.45-1.37,0.56-2.09l-1.51-0.84C356.5,173.03,356.52,172.77,356.52,172.51z M347.8,178.43c-3.27,0-5.92-2.65-5.92-5.92
			c0-3.27,2.65-5.92,5.92-5.92c3.27,0,5.92,2.65,5.92,5.92C353.72,175.78,351.07,178.43,347.8,178.43z"/>
	</g>
	<g>
		<path style="fill:#407BFF;" d="M333.73,202.24c0-0.39-0.02-0.77-0.05-1.15l2.26-1.25c-0.17-1.09-0.46-2.13-0.84-3.13l-2.58,0.04
			c-0.33-0.7-0.71-1.37-1.15-1.99l1.33-2.21c-0.68-0.84-1.45-1.61-2.29-2.29l-2.21,1.33c-0.63-0.44-1.29-0.83-1.99-1.15l0.04-2.58
			c-1-0.38-2.05-0.67-3.13-0.84l-1.25,2.26c-0.38-0.03-0.76-0.05-1.15-0.05s-0.77,0.02-1.15,0.05l-1.25-2.26
			c-1.09,0.17-2.13,0.46-3.13,0.84l0.04,2.58c-0.7,0.33-1.37,0.71-1.99,1.15l-2.21-1.33c-0.84,0.68-1.61,1.45-2.29,2.29l1.33,2.21
			c-0.44,0.63-0.83,1.29-1.15,1.99l-2.58-0.04c-0.38,1-0.67,2.04-0.84,3.13l2.26,1.25c-0.03,0.38-0.05,0.76-0.05,1.15
			c0,0.39,0.02,0.77,0.05,1.15l-2.26,1.25c0.17,1.09,0.46,2.13,0.84,3.13l2.58-0.04c0.33,0.7,0.71,1.37,1.15,1.99l-1.33,2.21
			c0.68,0.84,1.45,1.61,2.29,2.29l2.21-1.33c0.63,0.44,1.29,0.83,1.99,1.15l-0.04,2.58c1,0.38,2.04,0.67,3.13,0.84l1.25-2.26
			c0.38,0.03,0.76,0.05,1.15,0.05s0.77-0.02,1.15-0.05l1.25,2.26c1.09-0.17,2.13-0.46,3.13-0.84l-0.04-2.58
			c0.7-0.33,1.37-0.71,1.99-1.15l2.21,1.33c0.84-0.68,1.61-1.45,2.29-2.29l-1.33-2.21c0.44-0.63,0.83-1.29,1.15-1.99l2.58,0.04
			c0.38-1,0.67-2.04,0.84-3.13l-2.26-1.25C333.71,203.01,333.73,202.63,333.73,202.24z M320.7,207.38c-2.84,0-5.14-2.3-5.14-5.14
			c0-2.84,2.3-5.14,5.14-5.14s5.14,2.3,5.14,5.14C325.84,205.08,323.54,207.38,320.7,207.38z"/>
		<path style="opacity:0.7;fill:#FFFFFF;" d="M333.73,202.24c0-0.39-0.02-0.77-0.05-1.15l2.26-1.25c-0.17-1.09-0.46-2.13-0.84-3.13
			l-2.58,0.04c-0.33-0.7-0.71-1.37-1.15-1.99l1.33-2.21c-0.68-0.84-1.45-1.61-2.29-2.29l-2.21,1.33c-0.63-0.44-1.29-0.83-1.99-1.15
			l0.04-2.58c-1-0.38-2.05-0.67-3.13-0.84l-1.25,2.26c-0.38-0.03-0.76-0.05-1.15-0.05s-0.77,0.02-1.15,0.05l-1.25-2.26
			c-1.09,0.17-2.13,0.46-3.13,0.84l0.04,2.58c-0.7,0.33-1.37,0.71-1.99,1.15l-2.21-1.33c-0.84,0.68-1.61,1.45-2.29,2.29l1.33,2.21
			c-0.44,0.63-0.83,1.29-1.15,1.99l-2.58-0.04c-0.38,1-0.67,2.04-0.84,3.13l2.26,1.25c-0.03,0.38-0.05,0.76-0.05,1.15
			c0,0.39,0.02,0.77,0.05,1.15l-2.26,1.25c0.17,1.09,0.46,2.13,0.84,3.13l2.58-0.04c0.33,0.7,0.71,1.37,1.15,1.99l-1.33,2.21
			c0.68,0.84,1.45,1.61,2.29,2.29l2.21-1.33c0.63,0.44,1.29,0.83,1.99,1.15l-0.04,2.58c1,0.38,2.04,0.67,3.13,0.84l1.25-2.26
			c0.38,0.03,0.76,0.05,1.15,0.05s0.77-0.02,1.15-0.05l1.25,2.26c1.09-0.17,2.13-0.46,3.13-0.84l-0.04-2.58
			c0.7-0.33,1.37-0.71,1.99-1.15l2.21,1.33c0.84-0.68,1.61-1.45,2.29-2.29l-1.33-2.21c0.44-0.63,0.83-1.29,1.15-1.99l2.58,0.04
			c0.38-1,0.67-2.04,0.84-3.13l-2.26-1.25C333.71,203.01,333.73,202.63,333.73,202.24z M320.7,207.38c-2.84,0-5.14-2.3-5.14-5.14
			c0-2.84,2.3-5.14,5.14-5.14s5.14,2.3,5.14,5.14C325.84,205.08,323.54,207.38,320.7,207.38z"/>
	</g>
</g>
<g id="Speech_bubbles">
	<g>
		<path style="fill:#407BFF;" d="M296.97,144.26v5.24l-4.99,2.63c-0.86,0.46-0.86,1.69,0,2.15l4.99,2.63v5.24
			c0,1.17,0.95,2.12,2.12,2.12h17.89c1.17,0,2.12-0.95,2.12-2.12v-17.89c0-1.17-0.95-2.12-2.12-2.12h-17.89
			C297.91,142.14,296.97,143.09,296.97,144.26z"/>
		<g style="opacity:0.9;">
			<path style="fill:#FFFFFF;" d="M303.12,149.72c0.41,0,9.75,0,10.16,0c0.69,0,1.25-0.56,1.25-1.25c0-0.69-0.56-1.25-1.25-1.25
				c-0.51,0-9.66,0-10.16,0c-0.69,0-1.25,0.56-1.25,1.25C301.88,149.16,302.43,149.72,303.12,149.72z"/>
			<path style="fill:#FFFFFF;" d="M313.29,151.95c-0.46,0-9.7,0-10.16,0c-0.69,0-1.25,0.56-1.25,1.25s0.56,1.25,1.25,1.25
				c0.46,0,9.7,0,10.16,0c0.69,0,1.25-0.56,1.25-1.25S313.98,151.95,313.29,151.95z"/>
			<path style="fill:#FFFFFF;" d="M313.29,156.69c-0.53,0-9.63,0-10.16,0c-0.69,0-1.25,0.56-1.25,1.25c0,0.69,0.56,1.25,1.25,1.25
				c0.38,0,9.78,0,10.16,0c0.69,0,1.25-0.56,1.25-1.25C314.54,157.25,313.98,156.69,313.29,156.69z"/>
		</g>
	</g>
	<g>
		<path style="fill:#407BFF;" d="M195.9,136.04h4.27l2.2,4.17c0.64,1.21,2.37,1.21,3,0l2.2-4.17h4.27c1.7,0,3.08-1.38,3.08-3.08V117
			c0-1.7-1.38-3.08-3.08-3.08H195.9c-1.7,0-3.08,1.38-3.08,3.08v15.95C192.82,134.66,194.19,136.04,195.9,136.04z"/>
		<polygon style="opacity:0.9;fill:#FFFFFF;" points="203.88,118.69 198.96,121.57 198.96,129.99 202.62,129.99 202.62,124.34 
			205.15,124.34 205.15,129.99 208.81,129.99 208.81,121.57 		"/>
	</g>
	<g>
		<path style="fill:#407BFF;" d="M243.8,364.79h-3.85l-2.46-4.66c-0.53-1-1.97-1-2.5,0l-2.46,4.66h-3.85
			c-1.94,0-3.51,1.57-3.51,3.51v15.1c0,1.94,1.57,3.51,3.51,3.51h15.1c1.94,0,3.51-1.57,3.51-3.51v-15.1
			C247.31,366.36,245.74,364.79,243.8,364.79z"/>
		<path style="opacity:0.9;fill:#FFFFFF;" d="M238.39,370.56c-2.13-2.13-5.6-2.13-7.72,0c-2.13,2.13-2.13,5.59,0,7.72
			c1.89,1.89,4.83,2.1,6.95,0.64c0.04,0.24,0.15,0.48,0.34,0.67l3.39,3.39c0.48,0.48,1.25,0.48,1.73,0c0.48-0.48,0.48-1.25,0-1.73
			l-3.39-3.39c-0.19-0.19-0.42-0.3-0.67-0.34C240.48,375.38,240.27,372.44,238.39,370.56z M237.23,377.13
			c-1.49,1.49-3.92,1.49-5.41,0c-1.49-1.49-1.49-3.92,0-5.42c1.49-1.49,3.92-1.49,5.42,0C238.72,373.2,238.72,375.63,237.23,377.13z
			"/>
	</g>
</g>
<g id="Character_2_1_">
	<path style="fill:#EEC1BB;" d="M405.29,264.23c0,0-8.15,20.2-16.13,22.39c-7.98,2.19-20.01,0.41-20.01,0.41l-3.72,1.02l-3.65-0.54
		c-0.04-0.01-0.08-0.01-0.13-0.01l-4.12-0.09c-0.7-0.02-1.09-0.7-0.7-1.24l1.48-2.04c0.12-0.16,0.29-0.28,0.49-0.35l3.92-1.26
		c0.15-0.05,0.32-0.06,0.48-0.04l5.99,0.95c0,0,16.65-2.73,18.35-4.27c1.69-1.54,6.71-17.69,6.71-17.69L405.29,264.23z"/>
	<path style="opacity:0.1;" d="M369.57,283.36c-0.25,0.04-0.38,0.06-0.38,0.06l-5.99-0.95c-0.16-0.02-0.32-0.01-0.48,0.04
		l-3.92,1.26c-0.2,0.06-0.37,0.19-0.49,0.35l-1.48,2.04c-0.39,0.54,0,1.22,0.7,1.24l4.12,0.09c0.04,0,0.08,0,0.13,0.01l2.45,0.36
		C366.05,287.07,367.86,285.42,369.57,283.36z"/>
	<path style="fill:#407BFF;" d="M410.21,244.22c-5.92-1.94-14.25,2.51-17.44,21.15l12.29,3.59
		C405.06,268.96,418.67,247,410.21,244.22z"/>
	<g>
		<path style="fill:#263238;" d="M375.77,219.86c0.01,0.61,0.33,1.11,0.73,1.1c0.4,0,0.75-0.53,0.72-1.12
			c-0.02-0.59-0.33-1.11-0.73-1.1C376.09,218.76,375.77,219.25,375.77,219.86z"/>
		<path style="fill:#D4827D;" d="M378.19,220.47l-2.91,4.81c0,0,1.01,1.14,3.19,0.3L378.19,220.47z"/>
		<path style="fill:#263238;" d="M378.74,216.03c-0.07,0.08-0.18,0.12-0.29,0.11c-0.8-0.14-1.61,0.12-2.19,0.68
			c-0.12,0.13-0.32,0.15-0.45,0.03c-0.13-0.12-0.14-0.32-0.03-0.45c0.72-0.74,1.75-1.07,2.76-0.9c0.18,0.02,0.3,0.19,0.27,0.36l0,0
			C378.81,215.92,378.78,215.98,378.74,216.03z"/>
		<path style="fill:#EEC1BB;" d="M399.3,215.5c0.46,8.13,0.82,11.57-2.76,16.19c-5.73,4.95-15.5,5.74-18.37-2.09
			c-2.59-7.05-2.9-19.13,4.63-23.32c5.36-2.98,12.13-1.05,15.12,4.31C398.74,212.1,399.22,213.78,399.3,215.5z"/>
		<polygon style="fill:#EEC1BB;" points="387.97,233.3 390.03,245.34 400.07,243.02 396.56,230.72 		"/>
		<path style="fill:#263238;" d="M380.74,216.1c0.51-5.28-1.3,0.82-3.75-6.15c-2.45-6.97,9.09-12.63,10.94-11.33
			c1.84,1.3,0.79,3.3,6.89,4.42c6.1,1.12,5.84,7.05,5.84,7.05s3.51,1.63,2.26,9.17c-1.25,7.54-6.01,13.24-6.01,13.24
			s-2.31-2.38-5.96-0.18c0,0-1.8-1.01-3.57-3.65c-1.65-2.46-2.15-4.79-4.41-5C378.24,223.24,380.57,217.84,380.74,216.1z"/>
		<path style="fill:#263238;" d="M399.99,211.01c0,0,4.98-3.06,2.78-6.27C400.57,201.53,401.63,208.27,399.99,211.01z"/>
		<path style="fill:#FFC3BD;" d="M382.17,219.17c-1.11,1.24-1.68,2.87-1.59,4.53c0.14,2.2,2.3,2.59,4,1.39
			c1.54-1.09,3.31-3.54,2.33-5.47C385.93,217.68,383.55,217.67,382.17,219.17z"/>
		<path style="opacity:0.1;" d="M388.16,234.43l0.82,4.78c-0.05-4.37,2.26-6.53,2.26-6.53
			C388.89,233.03,388.16,234.43,388.16,234.43z"/>
	</g>
	<g>
		<rect x="314.7" y="265.51" style="fill:#407BFF;" width="2.87" height="16.93"/>
		<rect x="314.7" y="265.51" style="opacity:0.7;fill:#FFFFFF;" width="2.87" height="16.93"/>
	</g>
	<g>
		<path style="fill:#407BFF;" d="M297.85,231.89h-7.15c-2.68,0-4.85,2.17-4.85,4.85v33.12c0,2.68,2.17,4.85,4.85,4.85h7.15V231.89z"
			/>
		<g>
			<path style="fill:#407BFF;" d="M341.57,274.72H293.2c-2.68,0-4.85-2.17-4.85-4.85v-33.12c0-2.68,2.17-4.85,4.85-4.85h48.37
				c2.68,0,4.85,2.17,4.85,4.85v33.12C346.42,272.54,344.25,274.72,341.57,274.72z"/>
			<path style="opacity:0.5;fill:#FFFFFF;" d="M341.57,274.72H293.2c-2.68,0-4.85-2.17-4.85-4.85v-33.12c0-2.68,2.17-4.85,4.85-4.85
				h48.37c2.68,0,4.85,2.17,4.85,4.85v33.12C346.42,272.54,344.25,274.72,341.57,274.72z"/>
		</g>
		<path style="fill:#263238;" d="M293.2,233.89c-1.57,0-2.85,1.28-2.85,2.85v33.12c0,1.57,1.28,2.85,2.85,2.85h48.37
			c1.57,0,2.85-1.28,2.85-2.85v-33.12c0-1.57-1.28-2.85-2.85-2.85H293.2z"/>
	</g>
	<path style="fill:#407BFF;" d="M305.69,289.54c0-5.77,4.68-10.44,10.44-10.44c5.77,0,10.44,4.68,10.44,10.44H305.69z"/>
	<g>
		<polygon style="fill:#407BFF;" points="330.34,285.98 309.46,285.98 309.46,289.37 351.23,289.37 351.23,287.98 		"/>
		<polygon style="opacity:0.8;fill:#FFFFFF;" points="330.34,285.98 309.46,285.98 309.46,289.37 351.23,289.37 351.23,287.98 		"/>
		<polygon style="fill:#407BFF;" points="330.34,289.37 309.46,289.37 309.46,285.98 330.34,287.98 		"/>
		<polygon style="opacity:0.6;fill:#FFFFFF;" points="330.34,289.37 309.46,289.37 309.46,285.98 330.34,287.98 		"/>
	</g>
	<g>
		<g>
			<path style="fill:#263238;" d="M376.4,406.08h-43.1c-3.62,0-6.55-2.93-6.55-6.55v-99.07c0-3.62,2.93-6.55,6.55-6.55h43.1
				c0.97,0,1.75,0.78,1.75,1.75l0,0c0,0.97-0.78,1.75-1.75,1.75h-43.1c-1.68,0-3.05,1.36-3.05,3.05v99.07
				c0,1.68,1.36,3.05,3.05,3.05h43.1c0.97,0,1.75,0.78,1.75,1.75l0,0C378.15,405.3,377.37,406.08,376.4,406.08z"/>
		</g>
		<g style="opacity:0.5;">
			<path style="fill:#FFFFFF;" d="M376.4,406.08h-43.1c-3.62,0-6.55-2.93-6.55-6.55v-99.07c0-3.62,2.93-6.55,6.55-6.55h43.1
				c0.97,0,1.75,0.78,1.75,1.75l0,0c0,0.97-0.78,1.75-1.75,1.75h-43.1c-1.68,0-3.05,1.36-3.05,3.05v99.07
				c0,1.68,1.36,3.05,3.05,3.05h43.1c0.97,0,1.75,0.78,1.75,1.75l0,0C378.15,405.3,377.37,406.08,376.4,406.08z"/>
		</g>
	</g>
	<g>
		<rect x="271.95" y="289.37" style="fill:#407BFF;" width="61.19" height="5.13"/>
		<rect x="271.95" y="289.37" style="opacity:0.2;fill:#FFFFFF;" width="61.19" height="5.13"/>
		<rect x="330.34" y="289.37" style="fill:#407BFF;" width="52.19" height="5.13"/>
		<rect x="330.34" y="289.37" style="opacity:0.5;fill:#FFFFFF;" width="52.19" height="5.13"/>
	</g>
	<g>
		<g>
			<polygon style="fill:#EEC1BB;" points="364.23,369.73 367.12,398.95 360.2,398.95 353.27,370.49 			"/>
			<g>
				<path style="fill:#263238;" d="M359.55,397.04l8.83,0.15c0.33,0.01,0.62,0.24,0.68,0.57l1.47,7.21c0.14,0.64-0.27,1.27-0.91,1.4
					c-0.08,0.02-0.17,0.03-0.25,0.03c-3.18-0.11-6.01-0.33-9.97-0.39c-4.68-0.08-3.5,0.5-9,0.49c-3.31-0.01-3.86-3.79-2.45-3.95
					c6.44-0.7,7.14-2.63,9.66-4.89C358.17,397.22,358.85,397,359.55,397.04z"/>
			</g>
			<polygon style="opacity:0.1;" points="366.37,391.32 364.23,369.73 353.27,370.49 358.34,391.32 			"/>
		</g>
		<path style="fill:#263238;" d="M411.61,302.36l-28.39,1.02c0,0-38.19,13.35-39.27,23.66c-1.1,10.58,11.74,59.18,11.74,59.18h11.41
			c0,0-3.15-35.67-4.35-46.59c-1.21-10.92,39.79-7.3,46.91-16.62C416.22,314.44,411.61,302.36,411.61,302.36z"/>
		<path style="opacity:0.2;" d="M411.61,302.36l-28.39,1.02c0,0-38.19,13.35-39.27,23.66c-1.1,10.58,11.74,59.18,11.74,59.18h11.41
			c0,0-3.15-35.67-4.35-46.59c-1.21-10.92,39.79-7.3,46.91-16.62C416.22,314.44,411.61,302.36,411.61,302.36z"/>
		<polygon style="fill:#407BFF;" points="369.05,384.59 369.3,388.62 355.2,388.62 353.82,384.59 		"/>
	</g>
	<g>
		<g>
			<polygon style="fill:#EEC1BB;" points="337.82,371.12 338.58,398.95 331.78,398.95 327.75,371.12 			"/>
			<g>
				<path style="fill:#263238;" d="M330.84,397.04l8.83,0.15c0.33,0.01,0.62,0.24,0.68,0.57l1.47,7.21c0.14,0.64-0.27,1.27-0.91,1.4
					c-0.08,0.02-0.17,0.03-0.25,0.03c-3.18-0.11-6.01-0.33-9.97-0.39c-4.68-0.08-3.5,0.5-9,0.49c-3.31-0.01-3.86-3.79-2.45-3.95
					c6.44-0.7,7.14-2.63,9.66-4.89C329.45,397.22,330.14,397,330.84,397.04z"/>
			</g>
			<path style="opacity:0.1;" d="M338.37,391.3l-0.55-20.18h-10.07l2.93,20.2C332.87,391.33,335.88,391.31,338.37,391.3z"/>
		</g>
		<path style="fill:#263238;" d="M399.27,304.71c0,0,2.36,21.57-19.6,22.58c-21.96,1.01-39.08,3.53-39.58,11.33
			c-0.5,7.81,0,47.6,0,47.6h-11.93c0,0-4.64-25.15-6.45-40.76c-1.76-15.15-4.97-26.14,10.58-31.27c16.53-5.46,45.91-10.5,45.91-10.5
			l21.16-1.34L399.27,304.71z"/>
		<polygon style="fill:#407BFF;" points="341.85,384.59 341.1,388.62 328,388.62 326.62,384.59 		"/>
	</g>
	<g>
		<path style="fill:#407BFF;" d="M404.04,242.8c0,0,0-4.87-9.83-4.31c-10.43,0.6-8.47,5.26-8.47,5.26L404.04,242.8z"/>
		<path style="opacity:0.3;" d="M404.04,242.8c0,0,0-4.87-9.83-4.31c-10.43,0.6-8.47,5.26-8.47,5.26L404.04,242.8z"/>
	</g>
	<path style="fill:#407BFF;" d="M413.16,264.6c-0.66,9.61-0.43,38.52-0.43,38.52s-20.97,1.38-37.48,0.84l-1.91-55.61
		c0-1.98,1.23-3.78,3.14-4.53c4.66-1.81,15.6-3.86,32.71-1.62C415.09,242.98,413.94,253.24,413.16,264.6z"/>
	<path style="fill:#EEC1BB;" d="M376.71,264.23c0,0-8.15,20.2-16.13,22.39c-7.98,2.19-20.01,0.41-20.01,0.41l-3.72,1.02l-3.65-0.54
		c-0.04-0.01-0.08-0.01-0.13-0.01l-4.12-0.09c-0.7-0.02-1.09-0.7-0.7-1.24l1.48-2.04c0.12-0.16,0.29-0.28,0.49-0.35l3.92-1.26
		c0.15-0.05,0.32-0.06,0.48-0.04l5.99,0.95c0,0,16.65-2.73,18.35-4.27c1.69-1.54,6.71-17.69,6.71-17.69L376.71,264.23z"/>
	<path style="opacity:0.1;" d="M376.5,254.83c0,0-1.26,1.5-2.81,3.69l0.55,16.1c6.13-2.7,8.56-18.49,8.56-18.49l-3.98-2.82
		L376.5,254.83z"/>
	<path style="fill:#407BFF;" d="M381.63,244.22c-5.92-1.94-14.25,2.51-17.44,21.15l12.29,3.59
		C376.48,268.96,390.09,247,381.63,244.22z"/>
	<g>
		<g>
			<rect x="380.21" y="337.77" style="fill:#263238;" width="9.25" height="27.11"/>
			<rect x="380.21" y="337.77" style="opacity:0.6;fill:#FFFFFF;" width="9.25" height="27.11"/>
			<g>
				<polygon style="fill:#263238;" points="390.89,389.44 390.89,354.99 378.77,354.99 378.77,389.44 351.18,393.27 351.18,397.1 
					384.83,394.23 418.48,397.1 418.48,393.27 				"/>
			</g>
			<g>
				<circle style="fill:#407BFF;" cx="350.78" cy="402.84" r="3.65"/>
				<circle style="fill:#407BFF;" cx="418.48" cy="402.84" r="3.65"/>
			</g>
			<circle style="fill:#407BFF;" cx="384.83" cy="402.84" r="3.65"/>
			<rect x="380.21" y="337.77" style="opacity:0.3;" width="9.25" height="6.7"/>
		</g>
		<g>
			<path style="fill:#407BFF;" d="M421.4,276.32h-30.14c-4.91,0-9.01,3.74-9.47,8.62l-2.54,27.23c-0.58,6.2-5.63,11.04-11.85,11.36
				l-29.09,1.47c-3.54,0.18-6.31,3.1-6.31,6.64v0.61c0,3.04,2.47,5.51,5.51,5.51h39.35h7.97h41.27l4.77-51.05
				C431.39,281.14,427,276.32,421.4,276.32z"/>
			<path style="opacity:0.3;fill:#FFFFFF;" d="M421.4,276.32h-30.14c-4.91,0-9.01,3.74-9.47,8.62l-2.54,27.23
				c-0.58,6.2-5.63,11.04-11.85,11.36l-29.09,1.47c-3.54,0.18-6.31,3.1-6.31,6.64v0.61c0,3.04,2.47,5.51,5.51,5.51h39.35h7.97h41.27
				l4.77-51.05C431.39,281.14,427,276.32,421.4,276.32z"/>
			<path style="fill:#263238;" d="M354.36,330.75h-0.15c-1.1,0-2-0.89-2-2v-21.71h4.15v21.71
				C356.36,329.86,355.47,330.75,354.36,330.75z"/>
			<path style="opacity:0.2;fill:#FFFFFF;" d="M354.36,330.75h-0.15c-1.1,0-2-0.89-2-2v-21.71h4.15v21.71
				C356.36,329.86,355.47,330.75,354.36,330.75z"/>
			<g>
				<path style="fill:#407BFF;" d="M372.23,300.77h-9.25v7.66h9.25c2.11,0,3.83-1.71,3.83-3.83
					C376.06,302.48,374.35,300.77,372.23,300.77z"/>
				<path style="opacity:0.5;fill:#FFFFFF;" d="M372.23,300.77h-9.25v7.66h9.25c2.11,0,3.83-1.71,3.83-3.83
					C376.06,302.48,374.35,300.77,372.23,300.77z"/>
				<path style="fill:#407BFF;" d="M368.54,308.42h-32.34c-2.04,0-3.69-1.65-3.69-3.69v-0.28c0-2.04,1.65-3.69,3.69-3.69h32.34
					c2.04,0,3.69,1.65,3.69,3.69v0.28C372.23,306.77,370.58,308.42,368.54,308.42z"/>
				<path style="opacity:0.3;fill:#FFFFFF;" d="M368.54,308.42h-32.34c-2.04,0-3.69-1.65-3.69-3.69v-0.28
					c0-2.04,1.65-3.69,3.69-3.69h32.34c2.04,0,3.69,1.65,3.69,3.69v0.28C372.23,306.77,370.58,308.42,368.54,308.42z"/>
			</g>
			<path style="fill:#407BFF;" d="M428.18,337.77h-44.31l4.94-52.82c0.46-4.89,4.56-8.62,9.47-8.62h30.14
				c5.6,0,9.99,4.82,9.47,10.39l-4.31,46.14C433.31,335.64,430.98,337.77,428.18,337.77z"/>
			<path style="opacity:0.5;fill:#FFFFFF;" d="M428.18,337.77h-44.31l4.94-52.82c0.46-4.89,4.56-8.62,9.47-8.62h30.14
				c5.6,0,9.99,4.82,9.47,10.39l-4.31,46.14C433.31,335.64,430.98,337.77,428.18,337.77z"/>
		</g>
	</g>
	<g>
		<g>
			<path style="fill:#263238;" d="M324.67,406.08h-43.1c-3.62,0-6.55-2.93-6.55-6.55v-99.07c0-3.62,2.93-6.55,6.55-6.55h43.1
				c0.97,0,1.75,0.78,1.75,1.75l0,0c0,0.97-0.78,1.75-1.75,1.75h-43.1c-1.68,0-3.05,1.36-3.05,3.05v99.07
				c0,1.68,1.36,3.05,3.05,3.05h43.1c0.97,0,1.75,0.78,1.75,1.75l0,0C326.42,405.3,325.64,406.08,324.67,406.08z"/>
		</g>
		<g style="opacity:0.5;">
			<path style="fill:#FFFFFF;" d="M324.67,406.08h-43.1c-3.62,0-6.55-2.93-6.55-6.55v-99.07c0-3.62,2.93-6.55,6.55-6.55h43.1
				c0.97,0,1.75,0.78,1.75,1.75l0,0c0,0.97-0.78,1.75-1.75,1.75h-43.1c-1.68,0-3.05,1.36-3.05,3.05v99.07
				c0,1.68,1.36,3.05,3.05,3.05h43.1c0.97,0,1.75,0.78,1.75,1.75l0,0C326.42,405.3,325.64,406.08,324.67,406.08z"/>
		</g>
	</g>
	<g>
		<path style="fill:#FFFFFF;" d="M296.19,241.79l-3.03-2.01c-0.32-0.22-0.32-0.69,0-0.91l3.03-2.01c0.23-0.15,0.53-0.09,0.68,0.14
			l0,0c0.15,0.23,0.09,0.53-0.14,0.68l-2.48,1.65l2.48,1.65c0.23,0.15,0.29,0.46,0.14,0.68l0,0
			C296.73,241.87,296.42,241.94,296.19,241.79z"/>
	</g>
	<g>
		<path style="fill:#FFFFFF;" d="M302.83,241.65L302.83,241.65c-0.15-0.23-0.09-0.53,0.14-0.68l2.48-1.65l-2.48-1.65
			c-0.23-0.15-0.29-0.46-0.14-0.68l0,0c0.15-0.23,0.46-0.29,0.68-0.14l3.03,2.01c0.33,0.22,0.33,0.69,0,0.91l-3.03,2.01
			C303.28,241.94,302.98,241.87,302.83,241.65z"/>
	</g>
	<g>
		<path style="fill:#FFFFFF;" d="M298.72,242.96L298.72,242.96c-0.26-0.08-0.4-0.36-0.32-0.62l2.07-6.54
			c0.08-0.26,0.36-0.4,0.62-0.32l0,0c0.26,0.08,0.4,0.36,0.32,0.62l-2.07,6.54C299.26,242.9,298.98,243.04,298.72,242.96z"/>
	</g>
	<g>
		<g>
			<path style="fill:#FFFFFF;" d="M315.7,248h-22.27c-0.29,0-0.52-0.23-0.52-0.52l0,0c0-0.29,0.23-0.52,0.52-0.52h22.27
				c0.29,0,0.52,0.23,0.52,0.52l0,0C316.22,247.77,315.99,248,315.7,248z"/>
		</g>
		<g>
			<path style="fill:#FFFFFF;" d="M341.28,248h-22.27c-0.29,0-0.52-0.23-0.52-0.52l0,0c0-0.29,0.23-0.52,0.52-0.52h22.27
				c0.29,0,0.52,0.23,0.52,0.52l0,0C341.8,247.77,341.57,248,341.28,248z"/>
		</g>
		<g>
			<path style="fill:#FFFFFF;" d="M306.16,252.58h-12.72c-0.29,0-0.52-0.23-0.52-0.52l0,0c0-0.29,0.23-0.52,0.52-0.52h12.72
				c0.29,0,0.52,0.23,0.52,0.52l0,0C306.68,252.35,306.44,252.58,306.16,252.58z"/>
		</g>
		<g>
			<path style="fill:#FFFFFF;" d="M330.32,252.58h-20.84c-0.29,0-0.52-0.23-0.52-0.52l0,0c0-0.29,0.23-0.52,0.52-0.52h20.84
				c0.29,0,0.52,0.23,0.52,0.52l0,0C330.83,252.35,330.6,252.58,330.32,252.58z"/>
		</g>
		<g>
			<path style="fill:#FFFFFF;" d="M327.35,257.17h-33.92c-0.29,0-0.52-0.23-0.52-0.52l0,0c0-0.29,0.23-0.52,0.52-0.52h33.92
				c0.29,0,0.52,0.23,0.52,0.52l0,0C327.87,256.93,327.64,257.17,327.35,257.17z"/>
		</g>
		<g>
			<path style="fill:#FFFFFF;" d="M337.75,257.17h-7.08c-0.29,0-0.52-0.23-0.52-0.52l0,0c0-0.29,0.23-0.52,0.52-0.52h7.08
				c0.29,0,0.52,0.23,0.52,0.52l0,0C338.27,256.93,338.04,257.17,337.75,257.17z"/>
		</g>
		<g>
			<path style="fill:#FFFFFF;" d="M309.27,261.75h-15.84c-0.29,0-0.52-0.23-0.52-0.52l0,0c0-0.29,0.23-0.52,0.52-0.52h15.84
				c0.29,0,0.52,0.23,0.52,0.52l0,0C309.79,261.52,309.56,261.75,309.27,261.75z"/>
		</g>
		<g>
			<path style="fill:#FFFFFF;" d="M332.3,261.75h-19.72c-0.29,0-0.52-0.23-0.52-0.52l0,0c0-0.29,0.23-0.52,0.52-0.52h19.72
				c0.29,0,0.52,0.23,0.52,0.52l0,0C332.82,261.52,332.59,261.75,332.3,261.75z"/>
		</g>
		<g>
			<path style="fill:#FFFFFF;" d="M315.7,266.33h-22.27c-0.29,0-0.52-0.23-0.52-0.52l0,0c0-0.29,0.23-0.52,0.52-0.52h22.27
				c0.29,0,0.52,0.23,0.52,0.52l0,0C316.22,266.1,315.99,266.33,315.7,266.33z"/>
		</g>
		<g>
			<path style="fill:#FFFFFF;" d="M334.73,266.33h-15.71c-0.29,0-0.52-0.23-0.52-0.52l0,0c0-0.29,0.23-0.52,0.52-0.52h15.71
				c0.29,0,0.52,0.23,0.52,0.52l0,0C335.24,266.1,335.01,266.33,334.73,266.33z"/>
		</g>
	</g>
</g>
<g id="Character_1">
	<g>
		<path style="fill:#B97964;" d="M141.47,176.82c0.4,4.71-0.61,13.24-4.17,15.97c5.8,2.09,11.93,5.69,15.86,10.44
			c3.89-5.66-0.54-8.89-0.54-8.89c-5.01-1.78-4.46-5.57-3.18-9.06L141.47,176.82z"/>
		<path style="fill:#263238;" d="M160.4,172.76c-0.06,0.59,0.22,1.1,0.61,1.14c0.39,0.04,0.75-0.42,0.8-1.01
			c0.06-0.59-0.22-1.11-0.61-1.14C160.82,171.71,160.47,172.17,160.4,172.76z"/>
		<path style="fill:#263238;" d="M161.05,171.77l1.46-0.28C162.5,171.49,161.67,172.56,161.05,171.77z"/>
		<path style="fill:#A24E3F;" d="M160.6,173.39c0.41,1.4,1,2.74,1.77,3.99c-0.65,0.38-1.44,0.46-2.15,0.2L160.6,173.39z"/>
		<path style="fill:#263238;" d="M162.08,169.65c0.09-0.01,0.18-0.05,0.24-0.12c0.12-0.15,0.11-0.37-0.04-0.5
			c-0.83-0.76-1.98-1.07-3.09-0.82c-0.17,0.1-0.22,0.32-0.12,0.48c0.06,0.11,0.18,0.17,0.3,0.17c0.88-0.17,1.78,0.08,2.44,0.69
			C161.89,169.61,161.98,169.65,162.08,169.65z"/>
		<path style="fill:#B97964;" d="M140.97,169.01c-0.23,7.32-0.48,10.43,2.78,14.5c4.91,6.13,13.8,4.79,16.17-2.33
			c2.14-6.41,2.16-17.32-4.56-20.87C148.63,156.76,141.21,161.67,140.97,169.01z"/>
		<path style="fill:#263238;" d="M141.32,182.81c-7.19-1.23-5.13-5.76-5.13-5.76c-7.08-1.43-1.61-4.89-1.61-4.89
			c-5.89-2.54,0-4.81,0-4.81c-5.68-4.71,2.46-6.31,2.46-6.31c-2.01-7.35,4.97-4.33,4.97-4.33c3.81-6.31,7.08-0.28,7.08-0.28
			c6.66-9.05,8.29-1.41,8.29-1.41c6.8-1.79,4.19,5.37,4.19,5.37c5.6,1.5,1.21,4.34,1.21,4.34c2.16,2.73-5.65,3.2-5.65,3.2
			s3.72,5.96-0.03,7.65l-9.46,7.25C147.63,182.81,143.28,181,141.32,182.81z"/>
		<path style="fill:#407BFF;" d="M148.39,176.91c0,0,4.95-11.97,1.09-22.24l3.3-1.13C152.78,153.54,157.09,168.43,148.39,176.91z"/>
		<path style="fill:#B97964;" d="M153.38,175.59c0.83,1.72,1.14,2.46,2.32,3.04c1.04,0.58,2.35,0.21,2.93-0.82
			c0.27-0.47,0.34-1.03,0.22-1.56c-0.31-1.72-1.64-4.25-3.46-4.31C153.55,171.89,152.52,173.89,153.38,175.59z"/>
		<g>
			<path style="fill:#B97964;" d="M148.21,200.57c0,0,6.77,4.97,9.52,6.97l19.59-9.24l0,0c-0.05-2.22,1.26-4.25,3.31-5.12l1.39-0.59
				l2.95-1.31c1.12-0.5,2.42-0.36,3.41,0.36l0,0c1.17,0.85,1.68,2.35,1.27,3.74l0,0c-0.84,2.86-3.12,5.07-6,5.82l-2.86,0.75
				c0,0-16.8,12.75-22.78,13.08c-5.98,0.33-14.79-5.59-14.79-5.59L148.21,200.57z"/>
			<path style="fill:#263238;" d="M131.93,192.14c5.17-0.02,10.95,3.22,20.05,9.12c0,0-1.72,6.47-7.01,11.08
				c0,0-4.99-1.34-11.63-7.6C125.29,197.18,128.76,192.15,131.93,192.14z"/>
		</g>
		<g>
			<g>
				<path style="fill:#407BFF;" d="M230.13,207.12h-48.99c-1.78,0-3.09-1.44-2.94-3.22l3.69-42.19c0.16-1.78,1.72-3.22,3.5-3.22
					h48.99c1.78,0,3.09,1.44,2.94,3.22l-3.69,42.19C233.48,205.68,231.91,207.12,230.13,207.12z"/>
				<path style="opacity:0.4;fill:#FFFFFF;" d="M230.13,207.12h-48.99c-1.78,0-3.09-1.44-2.94-3.22l3.69-42.19
					c0.16-1.78,1.72-3.22,3.5-3.22h48.99c1.78,0,3.09,1.44,2.94,3.22l-3.69,42.19C233.48,205.68,231.91,207.12,230.13,207.12z"/>
			</g>
			<path style="opacity:0.7;fill:#FFFFFF;" d="M230.31,205.12c0.67,0,1.27-0.55,1.33-1.22l3.69-42.19c0.06-0.67-0.44-1.22-1.11-1.22
				h-48.99c-0.67,0-1.27,0.55-1.33,1.22l-3.69,42.19c-0.06,0.67,0.44,1.22,1.11,1.22H230.31z"/>
			<g>
				<path style="fill:#407BFF;" d="M196.26,180.32l-16.02,23.17l-0.04,0.42c-0.06,0.67,0.44,1.22,1.11,1.22h27.76L196.26,180.32z"/>
				<path style="opacity:0.3;fill:#FFFFFF;" d="M196.26,180.32l-16.02,23.17l-0.04,0.42c-0.06,0.67,0.44,1.22,1.11,1.22h27.76
					L196.26,180.32z"/>
			</g>
			<path style="fill:#407BFF;" d="M231.77,202.29l-13.41-25.47l-19.86,28.31h31.81c0.67,0,1.27-0.55,1.33-1.22L231.77,202.29z"/>
			<g>
				<path style="fill:#407BFF;" d="M213.18,172.32c-0.22,2.49-2.41,4.5-4.9,4.5c-2.49,0-4.33-2.02-4.11-4.5
					c0.22-2.49,2.41-4.5,4.9-4.5C211.56,167.81,213.4,169.83,213.18,172.32z"/>
				<path style="opacity:0.4;fill:#FFFFFF;" d="M213.18,172.32c-0.22,2.49-2.41,4.5-4.9,4.5c-2.49,0-4.33-2.02-4.11-4.5
					c0.22-2.49,2.41-4.5,4.9-4.5C211.56,167.81,213.4,169.83,213.18,172.32z"/>
			</g>
		</g>
		<g>
			<polygon style="fill:#B97964;" points="90.9,377.37 85.92,392.13 93.55,395.25 99.52,381.63 			"/>
			<g>
				<path style="fill:#407BFF;" d="M96.29,394.88c-0.08-0.04-0.12-0.13-0.12-0.22c0.01-0.09,0.08-0.17,0.17-0.19
					c0.16-0.04,3.76-0.84,5.1,0.02c0.25,0.16,0.43,0.4,0.5,0.69c0.11,0.33,0.01,0.69-0.26,0.91c-0.51,0.36-1.7,0.21-2.79-0.13
					C98,395.67,97.13,395.31,96.29,394.88z M97.05,394.81c1.57,0.71,3.79,1.38,4.37,0.93c0.08-0.05,0.17-0.16,0.1-0.47
					c-0.04-0.18-0.15-0.33-0.32-0.42c-0.12-0.08-0.25-0.14-0.38-0.17C99.57,394.48,98.29,394.53,97.05,394.81z"/>
				<path style="fill:#407BFF;" d="M96.18,394.83c-0.05-0.06-0.06-0.14-0.04-0.22c0.05-0.11,1.01-2.4,2.41-2.98
					c0.41-0.17,0.86-0.17,1.27,0c0.56,0.23,0.64,0.58,0.59,0.82c-0.12,1.05-2.82,2.3-4.01,2.44c-0.03,0.01-0.06,0-0.09-0.02
					C96.27,394.88,96.22,394.87,96.18,394.83z M99.57,391.99c-0.26-0.08-0.55-0.07-0.8,0.04c-0.89,0.55-1.59,1.37-2,2.33
					c1.29-0.31,3.13-1.37,3.26-1.98c0-0.06,0.02-0.22-0.34-0.36L99.57,391.99L99.57,391.99z"/>
				<path style="fill:#263238;" d="M95.77,393.37l-9.58-2.96c-0.36-0.11-0.75,0.04-0.94,0.37l-4.14,7.26
					c-0.37,0.64-0.15,1.46,0.49,1.83c0.08,0.05,0.17,0.09,0.26,0.12c3.47,1.01,6.6,1.77,10.9,3.1c5.08,1.57,3.6,1.78,9.54,3.71
					c3.58,1.16,5.5-2.73,4.04-3.4c-6.71-3.03-6.78-5.36-8.7-8.69C97.2,394.05,96.54,393.57,95.77,393.37z"/>
			</g>
			<polygon style="opacity:0.2;fill:#263238;" points="88.51,384.45 96.51,388.49 99.52,381.63 90.9,377.37 			"/>
		</g>
		<path style="fill:#407BFF;" d="M124.72,240.85c0,0-10.75,8.21-8.45,33.93c0.21,2.38,0.98,4.87,0.99,7.59
			c0.01,1.81-0.5,3.08-1.09,7.14c-0.86,5.93-2.44,28-4.11,30.87c-1.65,2.84-2.35,2.37-7.04,10.28c-5.05,8.52-11.5,23.46-16.52,48.79
			c0,0,4.37,3.41,11.23,4.7c0,0,27.47-43.32,33.31-59.45c5.23-14.43,11.45-60.48,11.45-60.48l0.5-19.97L124.72,240.85z"/>
		<path style="opacity:0.1;" d="M136.48,274.78h-7.79c0,0-2.56,24.48,5.9,44.9c0.88-3.28,1.78-7.21,2.65-11.46l3.36-21.56
			c-0.48-3.64-0.85-6.42-0.91-6.6C139.53,279.49,136.48,274.78,136.48,274.78z"/>
		<g>
			<polygon style="fill:#B97964;" points="135.2,383.31 135.25,399 144.1,398.41 145.46,383.31 			"/>
			<g>
				<path style="fill:#407BFF;" d="M145.12,398.14c-0.09-0.02-0.16-0.08-0.18-0.17c-0.02-0.09,0.02-0.18,0.1-0.23
					c0.14-0.09,3.28-2.03,4.82-1.66c0.29,0.06,0.54,0.24,0.7,0.48c0.22,0.27,0.24,0.65,0.05,0.95c-0.36,0.5-1.53,0.76-2.67,0.8
					C147,398.33,146.05,398.28,145.12,398.14z M145.82,397.83c1.72,0.15,4.03,0.05,4.44-0.56c0.06-0.08,0.11-0.21-0.06-0.47
					c-0.09-0.16-0.26-0.26-0.44-0.29c-0.14-0.03-0.28-0.05-0.42-0.04C148.09,396.69,146.89,397.15,145.82,397.83z"/>
				<path style="fill:#407BFF;" d="M145.01,398.14c-0.07-0.04-0.11-0.11-0.1-0.19c0.01-0.12,0.16-2.6,1.3-3.6
					c0.33-0.3,0.76-0.45,1.2-0.41c0.6,0.04,0.8,0.33,0.83,0.58c0.23,1.03-1.9,3.1-2.98,3.62c-0.03,0.02-0.06,0.02-0.09,0.01
					C145.11,398.16,145.05,398.16,145.01,398.14z M147.27,394.34c-0.28,0.01-0.54,0.11-0.74,0.3c-0.66,0.82-1.05,1.81-1.12,2.86
					c1.11-0.71,2.51-2.32,2.43-2.94c-0.02-0.06-0.05-0.21-0.44-0.23L147.27,394.34L147.27,394.34z"/>
				<path style="fill:#263238;" d="M144.14,396.89l-10.02,0.36c-0.38,0.01-0.7,0.29-0.77,0.66l-1.52,8.22
					c-0.14,0.73,0.34,1.43,1.06,1.57c0.09,0.02,0.19,0.03,0.28,0.02c3.61-0.19,6.82-0.5,11.32-0.66c5.31-0.19,3.98,0.5,10.23,0.36
					c3.76-0.08,4.3-4.38,2.7-4.54c-7.33-0.66-8.17-2.83-11.08-5.35C145.71,397.06,144.93,396.83,144.14,396.89z"/>
			</g>
			<polygon style="opacity:0.2;fill:#263238;" points="135.23,391.43 144.75,391.23 145.46,383.31 135.2,383.31 			"/>
		</g>
		<path style="fill:#407BFF;" d="M130.71,237.97c0,0-10.73,14.21-2.78,42.03l8.97,40.58c0,0-8.54,18.46-4.03,67.16
			c0,0,6.78,1.09,13.25-0.3c0,0,9.99-51.43,11.51-68.81c1.67-19.13,0.67-76.83,0.67-76.83L130.71,237.97z"/>
		<g>
			<path style="fill:#263238;" d="M137.19,191.94c0,0-1.66-7.1,8.99-4c10.66,3.11,9.77,9.18,9.77,9.18L137.19,191.94z"/>
			<path style="opacity:0.4;" d="M137.19,191.94c0,0-1.66-7.1,8.99-4c10.66,3.11,9.77,9.18,9.77,9.18L137.19,191.94z"/>
		</g>
		<path style="fill:#263238;" d="M163.63,209.7c0,2.49-1.05,6.09-1.99,10.12c-0.46,1.91-0.88,3.9-1.16,5.92
			c-1.51,11.01-2,22.59-2,22.59s-17.42,4.89-34.34-6.81c0,0,4.19-3.55,3.33-28.14c-0.39-11.08-4.39-24.25,13.92-22.18
			c15.46,1.75,20.66,6.55,21.91,14.06c0.01,0.09,0.03,0.19,0.05,0.29c0.03,0.23,0.06,0.46,0.09,0.7
			C163.57,207.34,163.63,208.5,163.63,209.7z"/>
		<path style="opacity:0.4;" d="M163.63,209.7c0,2.49-1.05,6.09-1.99,10.12c-4.18-5.03-8.37-14.45-8.37-14.45l3.45-5.08l6.08,2.83
			c0.21,0.69,0.37,1.4,0.5,2.14c0.01,0.09,0.03,0.19,0.05,0.29c0.03,0.23,0.06,0.46,0.09,0.7
			C163.57,207.34,163.63,208.5,163.63,209.7z"/>
		<path style="fill:#B97964;" d="M169.95,205.36c0,0,5.95,5.92,8.37,8.31l20.74-6.22l0,0c0.28-2.21,1.88-4.02,4.03-4.57l1.47-0.37
			l3.12-0.86c1.18-0.33,2.45,0,3.32,0.86l0,0c1.03,1.02,1.31,2.57,0.7,3.89l0,0c-1.26,2.7-3.84,4.55-6.8,4.87l-2.94,0.32
			c0,0-18.52,10.11-24.48,9.55c-5.96-0.56-13.79-7.73-13.79-7.73L169.95,205.36z"/>
		<path style="fill:#263238;" d="M155.1,194.59c5.12,0.75,10.35,4.82,18.47,12c0,0-2.66,6.14-8.58,9.92c0,0-4.74-2.07-10.37-9.24
			C147.79,198.59,151.96,194.13,155.1,194.59z"/>
	</g>
</g>
</svg>
