<?xml version="1.0" encoding="utf-8"?>
<!-- Generator: Adobe Illustrator 24.1.0, SVG Export Plug-In . SVG Version: 6.00 Build 0)  -->
<svg version="1.1" id="Layer_1" xmlns="http://www.w3.org/2000/svg" xmlns:xlink="http://www.w3.org/1999/xlink" x="0px" y="0px"
	 viewBox="0 0 1366 768" style="enable-background:new 0 0 1366 768;" xml:space="preserve">
<style type="text/css">
	.st0{fill:url(#SVGID_1_);}
	.st1{fill:url(#SVGID_2_);}
	.st2{fill:#ECECEC;}
	.st3{fill:#F5F5F5;}
	.st4{fill:#FAFAFA;}
	.st5{fill:#F0F0F0;}
	.st6{fill:#E7E7E7;}
	.st7{fill:#E1E1E1;}
	.st8{opacity:0.3;}
	.st9{fill:#007CFF;}
	.st10{opacity:0.7;fill:#FFFFFF;}
	.st11{fill:#FFFFFF;}
	.st12{opacity:0.7;}
	.st13{opacity:0.9;}
	.st14{opacity:0.9;fill:#FFFFFF;}
	.st15{fill:#FCC1BB;}
	.st16{opacity:0.1;}
	.st17{fill:#1A2E35;}
	.st18{fill:#EB827E;}
	.st19{fill:#FFC3BD;}
	.st20{opacity:0.5;fill:#FFFFFF;}
	.st21{opacity:0.8;fill:#FFFFFF;}
	.st22{opacity:0.6;fill:#FFFFFF;}
	.st23{opacity:0.5;}
	.st24{opacity:0.2;fill:#FFFFFF;}
	.st25{opacity:0.2;}
	.st26{opacity:0.3;fill:#FFFFFF;}
	.st27{fill:#CC7A63;}
	.st28{fill:#B84D3C;}
	.st29{opacity:0.4;fill:#FFFFFF;}
	.st30{opacity:0.2;fill:#1A2E35;}
	.st31{opacity:0.4;}
	.st32{fill:#263238;}
</style>
<g>
	
		<radialGradient id="SVGID_1_" cx="523" cy="384" r="382.5082" gradientTransform="matrix(1 0 0 -1 0 768)" gradientUnits="userSpaceOnUse">
		<stop  offset="0" style="stop-color:#CCE0F4"/>
		<stop  offset="0" style="stop-color:#C4D7F4;stop-opacity:0.9559"/>
		<stop  offset="0" style="stop-color:#AEBDF3;stop-opacity:0.8824"/>
		<stop  offset="0" style="stop-color:#8B94F2;stop-opacity:0.7894"/>
		<stop  offset="0" style="stop-color:#6366F1;stop-opacity:0.7"/>
		<stop  offset="0.9944" style="stop-color:#4338CA;stop-opacity:0.7"/>
	</radialGradient>
	<path class="st0" d="M523,4C310.4,4,138,174.1,138,384s172.4,380,385,380s385-170.1,385-380S735.6,4,523,4z M524,640.3
		c-145.4,0-263.3-114.7-263.3-256.1S378.6,128,524,128s263.3,114.7,263.3,256.1S669.4,640.3,524,640.3z"/>
</g>
<g>
	
		<radialGradient id="SVGID_2_" cx="524" cy="383.9" r="259.7249" gradientTransform="matrix(1 0 0 -1 0 768)" gradientUnits="userSpaceOnUse">
		<stop  offset="1.118836e-07" style="stop-color:#FFFFFF"/>
		<stop  offset="0.9944" style="stop-color:#FFFFFF"/>
	</radialGradient>
	<path class="st1" d="M787.3,384.1c0,141.5-117.9,256.1-263.3,256.1S260.7,525.5,260.7,384.1S378.6,128,524,128
		S787.3,242.7,787.3,384.1z"/>
</g>
<g>
	<g>
		<rect x="568" y="235" class="st2" width="124.8" height="132.9"/>
		<rect x="575.5" y="242.5" class="st3" width="109.8" height="117.9"/>
		<g>
			<polygon class="st4" points="618.6,360.3 651.6,360.3 682.6,242.5 649.6,242.5 			"/>
			<polygon class="st4" points="634.3,242.5 603.3,360.3 611.3,360.3 642.3,242.5 			"/>
		</g>
		<g>
			<polygon class="st3" points="694.4,241.2 566.4,241.2 563.7,234.9 697.1,234.9 			"/>
			<polygon class="st5" points="694.4,244.9 566.4,244.9 563.7,238.6 697.1,238.6 			"/>
			<polygon class="st6" points="694.4,248.5 566.4,248.5 563.7,242.2 697.1,242.2 			"/>
			<polygon class="st7" points="694.4,252.2 566.4,252.2 563.7,245.9 697.1,245.9 			"/>
			<rect x="559.1" y="227" class="st7" width="142.6" height="8.4"/>
			<path class="st7" d="M560.6,311.6L560.6,311.6c-0.8,0-1.5-0.6-1.5-1.5v-49c0-0.8,0.6-1.5,1.5-1.5l0,0c0.8,0,1.5,0.6,1.5,1.5v49
				C562,310.9,561.4,311.6,560.6,311.6z"/>
			<rect x="560" y="233.7" class="st7" width="1" height="29.1"/>
		</g>
	</g>
	<g>
		<g>
			<rect x="364.8" y="232.4" class="st7" width="1.8" height="140.4"/>
			<rect x="476.8" y="232.4" class="st7" width="1.8" height="140.4"/>
		</g>
		<polygon class="st3" points="485.7,241.2 357.7,241.2 355,234.9 488.4,234.9 		"/>
		<polygon class="st3" points="485.7,249.9 357.7,249.9 355,243.6 488.4,243.6 		"/>
		<polygon class="st3" points="485.7,258.5 357.7,258.5 355,252.2 488.4,252.2 		"/>
		<polygon class="st3" points="485.7,267.2 357.7,267.2 355,260.9 488.4,260.9 		"/>
		<polygon class="st3" points="485.7,275.8 357.7,275.8 355,269.5 488.4,269.5 		"/>
		<polygon class="st3" points="485.7,284.5 357.7,284.5 355,278.2 488.4,278.2 		"/>
		<polygon class="st3" points="485.7,293.1 357.7,293.1 355,286.8 488.4,286.8 		"/>
		<polygon class="st3" points="485.7,301.8 357.7,301.8 355,295.5 488.4,295.5 		"/>
		<polygon class="st3" points="485.7,310.4 357.7,310.4 355,304.1 488.4,304.1 		"/>
		<polygon class="st3" points="485.7,319.1 357.7,319.1 355,312.8 488.4,312.8 		"/>
		<polygon class="st3" points="485.7,327.7 357.7,327.7 355,321.4 488.4,321.4 		"/>
		<polygon class="st3" points="485.7,336.4 357.7,336.4 355,330.1 488.4,330.1 		"/>
		<polygon class="st3" points="485.7,345 357.7,345 355,338.7 488.4,338.7 		"/>
		<polygon class="st3" points="485.7,353.7 357.7,353.7 355,347.4 488.4,347.4 		"/>
		<polygon class="st3" points="485.7,362.3 357.7,362.3 355,356 488.4,356 		"/>
		<polygon class="st3" points="485.7,370.9 357.7,370.9 355,364.6 488.4,364.6 		"/>
		<rect x="355" y="370.9" class="st7" width="133.4" height="3.6"/>
		<rect x="350.4" y="227" class="st7" width="142.6" height="8.4"/>
		<path class="st7" d="M351.9,311.6L351.9,311.6c-0.8,0-1.5-0.6-1.5-1.5v-49c0-0.8,0.6-1.5,1.5-1.5l0,0c0.8,0,1.5,0.6,1.5,1.5v49
			C353.3,310.9,352.7,311.6,351.9,311.6z"/>
		<rect x="351.3" y="233.7" class="st7" width="1" height="29.1"/>
	</g>
</g>
<g>
	<g>
		<path class="st2" d="M365.4,462.7c-0.1,0.1,0.6,1.1-2.2,0.7c-6.7-1-18.5-3.7-21.8-10.7c-4.7-9.9,9.8-6.3,9.3-11.4
			c-0.5-5.1-17-4.2-18.7-11.6c-1.8-7.4,9.4-3.9,9.6-7.5c0.1-3.6-12.7-1.4-15.3-9.4c-2.6-8,7.2-2.1,6.1-5.5
			c-1.1-3.3-12-18.4-6.1-20.2c5.9-1.8,15.9,13.7,19.8,15.9c3.9,2.2,7.3-10.4,11.9-5.1c4.6,5.3-2.7,24,3.2,27.6
			c4.4,2.7,3.1-4.7,8.9-3.3C377.8,424.1,375.2,451.7,365.4,462.7z"/>
		<path class="st3" d="M344.6,422.2c2.7,0.2,4.6,0.8,5.8,1.2c-2.4-3.5-4.1-5.3-4.1-5.3c-0.2-0.2-0.2-0.5,0-0.7
			c0.2-0.2,0.5-0.2,0.7,0c0,0,4,4.1,8.3,12.1c2.1-12.8-3.2-24-3.3-24.1c-0.1-0.2,0-0.4,0.2-0.5c0.2-0.1,0.4,0,0.5,0.2
			c0.1,0.1,5.8,12,3.2,25.5c0.7,1.3,1.4,2.7,2.1,4.2c2,4.4,4.1,10,5.7,16.7c1.1-2.1,3.7-7.6,4-15.3c0-0.2,0.2-0.4,0.4-0.4
			c0.2,0,0.4,0.2,0.4,0.4c-0.3,8.9-3.7,15-4.5,16.3c2.2,9.4,3.5,20.9,2.5,34.5c0,0.3-0.3,0.5-0.5,0.5c0,0,0,0-0.1,0
			c-0.2,0-0.4-0.3-0.4-0.5c1.2-18-1.4-32.4-5.2-43.4c-0.9-1.1-3.7-3.9-8-4.6c-0.2,0-0.3-0.2-0.3-0.4c0-0.2,0.2-0.3,0.4-0.3
			c3.4,0.5,5.8,2.3,7.3,3.6c-2.7-7.6-5.9-13.4-8.5-17.3c-0.8-0.4-3.1-1.3-6.6-1.6c-0.2,0-0.4-0.2-0.3-0.4
			C344.2,422.3,344.3,422.2,344.6,422.2z"/>
	</g>
	<g>
		<g>
			<path class="st7" d="M374,466.5c5.6,0.1,15.2-5.1,18.9-10.2c3.8-5.1-6.9-2-5.8-6c1.1-4,14.3-1.1,16.8-6.8
				c2.4-5.8-7.1-4.5-6.7-7.4c0.4-3,10.3-2.4,13.4-8.5c3.2-6.1-5.5-2.7-4.2-5.3c1.4-2.5,12.3-13.3,7.7-15.5
				c-4.6-2.2-14.8,8.9-18.2,10.2c-3.4,1.2-4.2-6.5-8.7-2.8c-4.5,3.7-1.1,19.8-6.4,21.9c-3.9,1.6-2.2-5.8-6.7-3.9
				C366.3,435.5,371.8,466.4,374,466.5z"/>
			<g class="st8">
				<path class="st7" d="M374,466.5c5.6,0.1,15.2-5.1,18.9-10.2c3.8-5.1-6.9-2-5.8-6c1.1-4,14.3-1.1,16.8-6.8
					c2.4-5.8-7.1-4.5-6.7-7.4c0.4-3,10.3-2.4,13.4-8.5c3.2-6.1-5.5-2.7-4.2-5.3c1.4-2.5,12.3-13.3,7.7-15.5
					c-4.6-2.2-14.8,8.9-18.2,10.2c-3.4,1.2-4.2-6.5-8.7-2.8c-4.5,3.7-1.1,19.8-6.4,21.9c-3.9,1.6-2.2-5.8-6.7-3.9
					C366.3,435.5,371.8,466.4,374,466.5z"/>
			</g>
		</g>
		<path class="st3" d="M375.9,459.8c-0.1,0-0.2-0.1-0.2-0.2c-0.1-0.2-3.2-6.2-2.5-15c0-0.2,0.2-0.4,0.4-0.3c0.2,0,0.4,0.2,0.3,0.4
			c-0.6,7.5,1.6,12.9,2.3,14.3c2.5-6.8,5.5-12.9,8.5-18.1c-1-12,5.2-21.9,5.2-22c0.1-0.2,0.3-0.2,0.5-0.1c0.2,0.1,0.2,0.3,0.1,0.5
			c-0.1,0.1-5.7,9.2-5.2,20.4c7.2-12,14.2-19,14.3-19.2c0.2-0.2,0.5-0.2,0.7,0c0.2,0.2,0.2,0.5,0,0.7c-0.1,0.1-5.1,5.1-10.9,13.8
			c3.4-1.3,7.1-1.9,10.6-1.9c0.2,0,0.4,0.2,0.4,0.4c0,0.2-0.2,0.4-0.4,0.4c0,0,0,0,0,0c-3.7-0.1-7.7,0.7-11.3,2.2
			c-2,3.1-4.1,6.6-6.1,10.5c1.9-1.3,5.7-3.1,10.5-1.8c0.2,0.1,0.3,0.3,0.3,0.5c-0.1,0.2-0.3,0.3-0.5,0.3c-6.1-1.6-10.4,2-11.1,2.7
			c-5.5,11.1-10.2,25.1-10.9,41.1c0,0.3-0.2,0.5-0.5,0.5c0,0,0,0,0,0c-0.3,0-0.5-0.2-0.5-0.5C370.4,478.4,372.7,468.5,375.9,459.8z"
			/>
	</g>
	<path class="st5" d="M358.3,521.3c-5.4-10.1-8.9-24.6-8.9-31c0-5.4,2.5-10.2,6.5-13.6h27.4c4,3.4,6.5,8.2,6.5,13.6
		c0,6.4-3.5,20.9-8.9,31H358.3z"/>
</g>
<ellipse id="_x3C_Path_x3E__1_" class="st3" cx="521.2" cy="552.7" rx="193.9" ry="11.3"/>
<g>
	<g>
		<path class="st9" d="M568.7,259.9h-24c-1.6,0-3,1.2-3.3,2.7l-0.2,0.8c-0.8,3.8-4.3,6.7-8.1,6.7h-22.8c-3.8,0-6.8-2.9-7-6.7l0-0.8
			c-0.1-1.6-1.3-2.7-2.9-2.7h-24c-8,0-15.1,6.5-15.7,14.5l-19.3,220.5c-0.7,8,5.2,14.5,13.2,14.5h92.3c8,0,15.1-6.5,15.8-14.5
			l19.3-220.5C582.6,266.4,576.7,259.9,568.7,259.9z"/>
		<path class="st10" d="M568.7,259.9h-24c-1.6,0-3,1.2-3.3,2.7l-0.2,0.8c-0.8,3.8-4.3,6.7-8.1,6.7h-22.8c-3.8,0-6.8-2.9-7-6.7l0-0.8
			c-0.1-1.6-1.3-2.7-2.9-2.7h-24c-8,0-15.1,6.5-15.7,14.5l-19.3,220.5c-0.7,8,5.2,14.5,13.2,14.5h92.3c8,0,15.1-6.5,15.8-14.5
			l19.3-220.5C582.6,266.4,576.7,259.9,568.7,259.9z"/>
	</g>
	<path class="st11" d="M559.4,361.4h-49c-1.8,0-3.1-1.4-2.9-3.2l3.7-42.2c0.2-1.8,1.7-3.2,3.5-3.2h49c1.8,0,3.1,1.4,2.9,3.2
		l-3.7,42.2C562.7,359.9,561.1,361.4,559.4,361.4z"/>
	<path class="st11" d="M543,493.3h-82c-4.4,0-7.7-3.6-7.3-8l0,0c0.4-4.4,4.3-8,8.7-8h82c4.4,0,7.7,3.6,7.3,8l0,0
		C551.4,489.7,547.5,493.3,543,493.3z"/>
	<g>
		<path class="st11" d="M549.6,301.1h-75.2c-2.5,0-4.3-2-4.1-4.5l0.6-7c0.2-2.5,2.4-4.5,4.9-4.5H551c2.5,0,4.3,2,4.1,4.5l-0.6,7
			C554.3,299.1,552.1,301.1,549.6,301.1z"/>
		<g>
			<path class="st11" d="M564.9,289.4c-0.1,0.7-0.7,1.2-1.4,1.2s-1.2-0.6-1.1-1.2c0.1-0.7,0.7-1.2,1.4-1.2S565,288.7,564.9,289.4z"
				/>
			<path class="st11" d="M564.6,293.1c-0.1,0.7-0.7,1.2-1.4,1.2c-0.7,0-1.2-0.6-1.1-1.2c0.1-0.7,0.7-1.2,1.4-1.2
				C564.1,291.9,564.6,292.5,564.6,293.1z"/>
			<path class="st11" d="M564.2,296.9c-0.1,0.7-0.7,1.2-1.4,1.2c-0.7,0-1.2-0.6-1.1-1.2c0.1-0.7,0.7-1.2,1.4-1.2
				C563.8,295.6,564.3,296.2,564.2,296.9z"/>
		</g>
	</g>
	<path class="st11" d="M553.3,431h-91.5c-1.8,0-3.1-1.4-2.9-3.2l4.2-48.2c0.2-1.8,1.7-3.2,3.5-3.2h91.5c1.8,0,3.1,1.4,2.9,3.2
		l-4.2,48.2C556.6,429.5,555.1,431,553.3,431z"/>
	<g>
		<g>
			<path class="st11" d="M486.9,441h-28.5c-0.4,0-0.8-0.4-0.7-0.8l0,0c0-0.4,0.4-0.8,0.9-0.8h28.5c0.4,0,0.8,0.4,0.7,0.8l0,0
				C487.7,440.7,487.4,441,486.9,441z"/>
		</g>
		<g>
			<path class="st11" d="M522.5,441H492c-0.4,0-0.8-0.4-0.7-0.8l0,0c0-0.4,0.4-0.8,0.9-0.8h30.6c0.4,0,0.8,0.4,0.7,0.8l0,0
				C523.4,440.7,523,441,522.5,441z"/>
		</g>
		<g>
			<path class="st11" d="M477.1,448h-19.3c-0.4,0-0.8-0.4-0.7-0.8l0,0c0-0.4,0.4-0.8,0.9-0.8h19.3c0.4,0,0.8,0.4,0.7,0.8l0,0
				C477.9,447.6,477.5,448,477.1,448z"/>
		</g>
		<g>
			<path class="st11" d="M513.7,448h-31.6c-0.4,0-0.8-0.4-0.7-0.8l0,0c0-0.4,0.4-0.8,0.9-0.8h31.6c0.4,0,0.8,0.4,0.7,0.8l0,0
				C514.5,447.6,514.1,448,513.7,448z"/>
		</g>
		<g>
			<path class="st11" d="M508.6,454.9h-51.4c-0.4,0-0.8-0.4-0.7-0.8l0,0c0-0.4,0.4-0.8,0.9-0.8h51.4c0.4,0,0.8,0.4,0.7,0.8l0,0
				C509.4,454.6,509,454.9,508.6,454.9z"/>
		</g>
		<g>
			<path class="st11" d="M517,454.9h-3.4c-0.4,0-0.8-0.4-0.7-0.8l0,0c0-0.4,0.4-0.8,0.9-0.8h3.4c0.4,0,0.8,0.4,0.7,0.8l0,0
				C517.8,454.6,517.5,454.9,517,454.9z"/>
		</g>
		<g>
			<path class="st11" d="M480.6,461.9h-24c-0.4,0-0.8-0.4-0.7-0.8l0,0c0-0.4,0.4-0.8,0.9-0.8h24c0.4,0,0.8,0.4,0.7,0.8l0,0
				C481.4,461.5,481,461.9,480.6,461.9z"/>
		</g>
		<g>
			<path class="st11" d="M515.5,461.9h-29.9c-0.4,0-0.8-0.4-0.7-0.8l0,0c0-0.4,0.4-0.8,0.9-0.8h29.9c0.4,0,0.8,0.4,0.7,0.8l0,0
				C516.3,461.5,515.9,461.9,515.5,461.9z"/>
		</g>
		<g>
			<path class="st11" d="M485.5,468.8H456c-0.4,0-0.8-0.4-0.7-0.8l0,0c0-0.4,0.4-0.8,0.9-0.8h29.5c0.4,0,0.8,0.4,0.7,0.8l0,0
				C486.4,468.5,486,468.8,485.5,468.8z"/>
		</g>
		<g>
			<path class="st11" d="M514.4,468.8h-23.8c-0.4,0-0.8-0.4-0.7-0.8l0,0c0-0.4,0.4-0.8,0.9-0.8h23.8c0.4,0,0.8,0.4,0.7,0.8l0,0
				C515.2,468.5,514.8,468.8,514.4,468.8z"/>
		</g>
	</g>
	<g>
		<g>
			<path class="st9" d="M558.2,357.4c-0.4,0.4-1,0.5-1.4,0.1l-40.9-39.1c-0.4-0.4-0.4-1,0-1.4l0,0c0.4-0.4,1-0.5,1.4-0.1l40.9,39.1
				C558.6,356.3,558.6,357,558.2,357.4L558.2,357.4z"/>
		</g>
		<g>
			<path class="st9" d="M512.2,357.4L512.2,357.4c-0.3-0.4-0.2-1,0.2-1.4l20.9-17.1c0.4-0.4,1.1-0.3,1.4,0.1l0,0
				c0.3,0.4,0.2,1-0.2,1.4l-20.9,17.1C513.2,357.8,512.6,357.8,512.2,357.4z"/>
		</g>
		<g>
			<path class="st9" d="M539.2,335.3L539.2,335.3c-0.3-0.4-0.2-1,0.2-1.4l20.9-17.1c0.4-0.4,1.1-0.3,1.4,0.1l0,0
				c0.3,0.4,0.2,1-0.2,1.4l-20.9,17.1C540.2,335.7,539.5,335.7,539.2,335.3z"/>
		</g>
		<g class="st12">
			<path class="st11" d="M558.2,357.4c-0.4,0.4-1,0.5-1.4,0.1l-40.9-39.1c-0.4-0.4-0.4-1,0-1.4l0,0c0.4-0.4,1-0.5,1.4-0.1l40.9,39.1
				C558.6,356.3,558.6,357,558.2,357.4L558.2,357.4z"/>
		</g>
		<g class="st12">
			<path class="st11" d="M512.2,357.4L512.2,357.4c-0.3-0.4-0.2-1,0.2-1.4l20.9-17.1c0.4-0.4,1.1-0.3,1.4,0.1l0,0
				c0.3,0.4,0.2,1-0.2,1.4l-20.9,17.1C513.2,357.8,512.6,357.8,512.2,357.4z"/>
		</g>
		<g class="st12">
			<path class="st11" d="M539.2,335.3L539.2,335.3c-0.3-0.4-0.2-1,0.2-1.4l20.9-17.1c0.4-0.4,1.1-0.3,1.4,0.1l0,0
				c0.3,0.4,0.2,1-0.2,1.4l-20.9,17.1C540.2,335.7,539.5,335.7,539.2,335.3z"/>
		</g>
	</g>
</g>
<g>
	<path class="st9" d="M441.8,255.1h-13c-2.6,0-4.8,2.1-4.8,4.8v13c0,2.6,2.1,4.8,4.8,4.8h13c2.6,0,4.8-2.1,4.8-4.8v-13
		C446.6,257.3,444.4,255.1,441.8,255.1z M435.3,259.7c2,0,3,1.6,3,3.5c0,2-1.1,3.5-3,3.5s-3-1.6-3-3.5
		C432.3,261.3,433.4,259.7,435.3,259.7z M443.1,273h-15.6c-0.1,0-0.2-0.1-0.3-0.1l1-2.7c0.6-1.8,2.3-2.9,4.2-2.9h5.9
		c1.9,0,3.6,1.2,4.2,2.9l1,2.7C443.4,272.9,443.3,273,443.1,273z"/>
	<path class="st10" d="M441.8,255.1h-13c-2.6,0-4.8,2.1-4.8,4.8v13c0,2.6,2.1,4.8,4.8,4.8h13c2.6,0,4.8-2.1,4.8-4.8v-13
		C446.6,257.3,444.4,255.1,441.8,255.1z M435.3,259.7c2,0,3,1.6,3,3.5c0,2-1.1,3.5-3,3.5s-3-1.6-3-3.5
		C432.3,261.3,433.4,259.7,435.3,259.7z M443.1,273h-15.6c-0.1,0-0.2-0.1-0.3-0.1l1-2.7c0.6-1.8,2.3-2.9,4.2-2.9h5.9
		c1.9,0,3.6,1.2,4.2,2.9l1,2.7C443.4,272.9,443.3,273,443.1,273z"/>
</g>
<g>
	<g>
		<path class="st9" d="M395.7,308.4h-9.8c-3.5,0-6.4,2.9-6.4,6.4v9.8c0,3.5,2.9,6.4,6.4,6.4h9.8c3.5,0,6.4-2.9,6.4-6.4v-9.8
			C402.1,311.3,399.3,308.4,395.7,308.4z M390.8,325.1c0,0-4-4.4-4-6.6c0-2.2,1.8-4,4-4s4,1.8,4,4
			C394.8,320.7,390.8,325.1,390.8,325.1z"/>
		<path class="st9" d="M390.8,316.6c-1,0-1.8,0.8-1.8,1.8c0,1,0.8,1.8,1.8,1.8s1.8-0.8,1.8-1.8C392.6,317.5,391.8,316.6,390.8,316.6
			z"/>
	</g>
	<g class="st12">
		<path class="st11" d="M395.7,308.4h-9.8c-3.5,0-6.4,2.9-6.4,6.4v9.8c0,3.5,2.9,6.4,6.4,6.4h9.8c3.5,0,6.4-2.9,6.4-6.4v-9.8
			C402.1,311.3,399.3,308.4,395.7,308.4z M390.8,325.1c0,0-4-4.4-4-6.6c0-2.2,1.8-4,4-4s4,1.8,4,4
			C394.8,320.7,390.8,325.1,390.8,325.1z"/>
		<path class="st11" d="M390.8,316.6c-1,0-1.8,0.8-1.8,1.8c0,1,0.8,1.8,1.8,1.8s1.8-0.8,1.8-1.8
			C392.6,317.5,391.8,316.6,390.8,316.6z"/>
	</g>
</g>
<g>
	<g>
		<polygon class="st9" points="611.8,280.5 618.4,276.3 611.8,272 		"/>
		<path class="st9" d="M620.3,264.6h-12.6c-3,0-5.4,2.4-5.4,5.4v12.6c0,3,2.4,5.4,5.4,5.4h12.6c3,0,5.4-2.4,5.4-5.4V270
			C625.6,267,623.2,264.6,620.3,264.6z M614,284.6c-4.6,0-8.4-3.7-8.4-8.4c0-4.6,3.7-8.4,8.4-8.4s8.4,3.7,8.4,8.4
			C622.3,280.9,618.6,284.6,614,284.6z"/>
	</g>
	<g class="st12">
		<polygon class="st11" points="611.8,280.5 618.4,276.3 611.8,272 		"/>
		<path class="st11" d="M620.3,264.6h-12.6c-3,0-5.4,2.4-5.4,5.4v12.6c0,3,2.4,5.4,5.4,5.4h12.6c3,0,5.4-2.4,5.4-5.4V270
			C625.6,267,623.2,264.6,620.3,264.6z M614,284.6c-4.6,0-8.4-3.7-8.4-8.4c0-4.6,3.7-8.4,8.4-8.4s8.4,3.7,8.4,8.4
			C622.3,280.9,618.6,284.6,614,284.6z"/>
	</g>
</g>
<g>
	<path class="st9" d="M632.6,312.8c0-0.3,0-0.5,0-0.8l1.5-0.8c-0.1-0.7-0.3-1.4-0.6-2.1l-1.7,0c-0.2-0.5-0.5-0.9-0.8-1.3l0.9-1.5
		c-0.5-0.6-1-1.1-1.5-1.5l-1.5,0.9c-0.4-0.3-0.9-0.6-1.3-0.8l0-1.7c-0.7-0.3-1.4-0.4-2.1-0.6l-0.8,1.5c-0.3,0-0.5,0-0.8,0
		s-0.5,0-0.8,0l-0.8-1.5c-0.7,0.1-1.4,0.3-2.1,0.6l0,1.7c-0.5,0.2-0.9,0.5-1.3,0.8l-1.5-0.9c-0.6,0.5-1.1,1-1.5,1.5l0.9,1.5
		c-0.3,0.4-0.6,0.9-0.8,1.3l-1.7,0c-0.3,0.7-0.4,1.4-0.6,2.1l1.5,0.8c0,0.3,0,0.5,0,0.8c0,0.3,0,0.5,0,0.8l-1.5,0.8
		c0.1,0.7,0.3,1.4,0.6,2.1l1.7,0c0.2,0.5,0.5,0.9,0.8,1.3l-0.9,1.5c0.5,0.6,1,1.1,1.5,1.5l1.5-0.9c0.4,0.3,0.9,0.6,1.3,0.8l0,1.7
		c0.7,0.3,1.4,0.4,2.1,0.6l0.8-1.5c0.3,0,0.5,0,0.8,0s0.5,0,0.8,0l0.8,1.5c0.7-0.1,1.4-0.3,2.1-0.6l0-1.7c0.5-0.2,0.9-0.5,1.3-0.8
		l1.5,0.9c0.6-0.5,1.1-1,1.5-1.5l-0.9-1.5c0.3-0.4,0.6-0.9,0.8-1.3l1.7,0c0.3-0.7,0.4-1.4,0.6-2.1l-1.5-0.8
		C632.6,313.3,632.6,313.1,632.6,312.8z M623.9,318.7c-3.3,0-5.9-2.6-5.9-5.9c0-3.3,2.6-5.9,5.9-5.9c3.3,0,5.9,2.6,5.9,5.9
		C629.8,316.1,627.1,318.7,623.9,318.7z"/>
	<path class="st10" d="M632.6,312.8c0-0.3,0-0.5,0-0.8l1.5-0.8c-0.1-0.7-0.3-1.4-0.6-2.1l-1.7,0c-0.2-0.5-0.5-0.9-0.8-1.3l0.9-1.5
		c-0.5-0.6-1-1.1-1.5-1.5l-1.5,0.9c-0.4-0.3-0.9-0.6-1.3-0.8l0-1.7c-0.7-0.3-1.4-0.4-2.1-0.6l-0.8,1.5c-0.3,0-0.5,0-0.8,0
		s-0.5,0-0.8,0l-0.8-1.5c-0.7,0.1-1.4,0.3-2.1,0.6l0,1.7c-0.5,0.2-0.9,0.5-1.3,0.8l-1.5-0.9c-0.6,0.5-1.1,1-1.5,1.5l0.9,1.5
		c-0.3,0.4-0.6,0.9-0.8,1.3l-1.7,0c-0.3,0.7-0.4,1.4-0.6,2.1l1.5,0.8c0,0.3,0,0.5,0,0.8c0,0.3,0,0.5,0,0.8l-1.5,0.8
		c0.1,0.7,0.3,1.4,0.6,2.1l1.7,0c0.2,0.5,0.5,0.9,0.8,1.3l-0.9,1.5c0.5,0.6,1,1.1,1.5,1.5l1.5-0.9c0.4,0.3,0.9,0.6,1.3,0.8l0,1.7
		c0.7,0.3,1.4,0.4,2.1,0.6l0.8-1.5c0.3,0,0.5,0,0.8,0s0.5,0,0.8,0l0.8,1.5c0.7-0.1,1.4-0.3,2.1-0.6l0-1.7c0.5-0.2,0.9-0.5,1.3-0.8
		l1.5,0.9c0.6-0.5,1.1-1,1.5-1.5l-0.9-1.5c0.3-0.4,0.6-0.9,0.8-1.3l1.7,0c0.3-0.7,0.4-1.4,0.6-2.1l-1.5-0.8
		C632.6,313.3,632.6,313.1,632.6,312.8z M623.9,318.7c-3.3,0-5.9-2.6-5.9-5.9c0-3.3,2.6-5.9,5.9-5.9c3.3,0,5.9,2.6,5.9,5.9
		C629.8,316.1,627.1,318.7,623.9,318.7z"/>
</g>
<g>
	<path class="st9" d="M609.8,342.5c0-0.4,0-0.8-0.1-1.2l2.3-1.3c-0.2-1.1-0.5-2.1-0.8-3.1l-2.6,0c-0.3-0.7-0.7-1.4-1.2-2l1.3-2.2
		c-0.7-0.8-1.5-1.6-2.3-2.3l-2.2,1.3c-0.6-0.4-1.3-0.8-2-1.2l0-2.6c-1-0.4-2-0.7-3.1-0.8l-1.3,2.3c-0.4,0-0.8-0.1-1.2-0.1
		c-0.4,0-0.8,0-1.2,0.1l-1.3-2.3c-1.1,0.2-2.1,0.5-3.1,0.8l0,2.6c-0.7,0.3-1.4,0.7-2,1.2l-2.2-1.3c-0.8,0.7-1.6,1.5-2.3,2.3l1.3,2.2
		c-0.4,0.6-0.8,1.3-1.2,2l-2.6,0c-0.4,1-0.7,2-0.8,3.1l2.3,1.3c0,0.4-0.1,0.8-0.1,1.2c0,0.4,0,0.8,0.1,1.2l-2.3,1.3
		c0.2,1.1,0.5,2.1,0.8,3.1l2.6,0c0.3,0.7,0.7,1.4,1.2,2l-1.3,2.2c0.7,0.8,1.5,1.6,2.3,2.3l2.2-1.3c0.6,0.4,1.3,0.8,2,1.2l0,2.6
		c1,0.4,2,0.7,3.1,0.8l1.3-2.3c0.4,0,0.8,0.1,1.2,0.1c0.4,0,0.8,0,1.2-0.1l1.3,2.3c1.1-0.2,2.1-0.5,3.1-0.8l0-2.6
		c0.7-0.3,1.4-0.7,2-1.2l2.2,1.3c0.8-0.7,1.6-1.5,2.3-2.3l-1.3-2.2c0.4-0.6,0.8-1.3,1.2-2l2.6,0c0.4-1,0.7-2,0.8-3.1l-2.3-1.3
		C609.8,343.3,609.8,342.9,609.8,342.5z M596.8,347.7c-2.8,0-5.1-2.3-5.1-5.1c0-2.8,2.3-5.1,5.1-5.1c2.8,0,5.1,2.3,5.1,5.1
		C601.9,345.4,599.6,347.7,596.8,347.7z"/>
	<path class="st10" d="M609.8,342.5c0-0.4,0-0.8-0.1-1.2l2.3-1.3c-0.2-1.1-0.5-2.1-0.8-3.1l-2.6,0c-0.3-0.7-0.7-1.4-1.2-2l1.3-2.2
		c-0.7-0.8-1.5-1.6-2.3-2.3l-2.2,1.3c-0.6-0.4-1.3-0.8-2-1.2l0-2.6c-1-0.4-2-0.7-3.1-0.8l-1.3,2.3c-0.4,0-0.8-0.1-1.2-0.1
		c-0.4,0-0.8,0-1.2,0.1l-1.3-2.3c-1.1,0.2-2.1,0.5-3.1,0.8l0,2.6c-0.7,0.3-1.4,0.7-2,1.2l-2.2-1.3c-0.8,0.7-1.6,1.5-2.3,2.3l1.3,2.2
		c-0.4,0.6-0.8,1.3-1.2,2l-2.6,0c-0.4,1-0.7,2-0.8,3.1l2.3,1.3c0,0.4-0.1,0.8-0.1,1.2c0,0.4,0,0.8,0.1,1.2l-2.3,1.3
		c0.2,1.1,0.5,2.1,0.8,3.1l2.6,0c0.3,0.7,0.7,1.4,1.2,2l-1.3,2.2c0.7,0.8,1.5,1.6,2.3,2.3l2.2-1.3c0.6,0.4,1.3,0.8,2,1.2l0,2.6
		c1,0.4,2,0.7,3.1,0.8l1.3-2.3c0.4,0,0.8,0.1,1.2,0.1c0.4,0,0.8,0,1.2-0.1l1.3,2.3c1.1-0.2,2.1-0.5,3.1-0.8l0-2.6
		c0.7-0.3,1.4-0.7,2-1.2l2.2,1.3c0.8-0.7,1.6-1.5,2.3-2.3l-1.3-2.2c0.4-0.6,0.8-1.3,1.2-2l2.6,0c0.4-1,0.7-2,0.8-3.1l-2.3-1.3
		C609.8,343.3,609.8,342.9,609.8,342.5z M596.8,347.7c-2.8,0-5.1-2.3-5.1-5.1c0-2.8,2.3-5.1,5.1-5.1c2.8,0,5.1,2.3,5.1,5.1
		C601.9,345.4,599.6,347.7,596.8,347.7z"/>
</g>
<g>
	<path class="st9" d="M573,284.5v5.2l-5,2.6c-0.9,0.5-0.9,1.7,0,2.1l5,2.6v5.2c0,1.2,0.9,2.1,2.1,2.1H593c1.2,0,2.1-0.9,2.1-2.1
		v-17.9c0-1.2-0.9-2.1-2.1-2.1h-17.9C574,282.4,573,283.4,573,284.5z"/>
	<g class="st13">
		<path class="st11" d="M579.2,290c0.4,0,9.8,0,10.2,0c0.7,0,1.2-0.6,1.2-1.2c0-0.7-0.6-1.2-1.2-1.2c-0.5,0-9.7,0-10.2,0
			c-0.7,0-1.2,0.6-1.2,1.2C577.9,289.4,578.5,290,579.2,290z"/>
		<path class="st11" d="M589.4,292.2c-0.5,0-9.7,0-10.2,0c-0.7,0-1.2,0.6-1.2,1.2c0,0.7,0.6,1.2,1.2,1.2c0.5,0,9.7,0,10.2,0
			c0.7,0,1.2-0.6,1.2-1.2C590.6,292.8,590,292.2,589.4,292.2z"/>
		<path class="st11" d="M589.4,297c-0.5,0-9.6,0-10.2,0c-0.7,0-1.2,0.6-1.2,1.2c0,0.7,0.6,1.2,1.2,1.2c0.4,0,9.8,0,10.2,0
			c0.7,0,1.2-0.6,1.2-1.2C590.6,297.5,590,297,589.4,297z"/>
	</g>
</g>
<g>
	<path class="st9" d="M472,276.3h4.3l2.2,4.2c0.6,1.2,2.4,1.2,3,0l2.2-4.2h4.3c1.7,0,3.1-1.4,3.1-3.1v-16c0-1.7-1.4-3.1-3.1-3.1h-16
		c-1.7,0-3.1,1.4-3.1,3.1v16C468.9,274.9,470.3,276.3,472,276.3z"/>
	<polygon class="st14" points="480,259 475,261.9 475,270.3 478.7,270.3 478.7,264.6 481.2,264.6 481.2,270.3 484.9,270.3 
		484.9,261.9 	"/>
</g>
<g>
	<path class="st9" d="M519.9,505.1H516l-2.5-4.7c-0.5-1-2-1-2.5,0l-2.5,4.7h-3.8c-1.9,0-3.5,1.6-3.5,3.5v15.1c0,1.9,1.6,3.5,3.5,3.5
		h15.1c1.9,0,3.5-1.6,3.5-3.5v-15.1C523.4,506.6,521.8,505.1,519.9,505.1z"/>
	<path class="st14" d="M514.5,510.8c-2.1-2.1-5.6-2.1-7.7,0c-2.1,2.1-2.1,5.6,0,7.7c1.9,1.9,4.8,2.1,7,0.6c0,0.2,0.2,0.5,0.3,0.7
		l3.4,3.4c0.5,0.5,1.3,0.5,1.7,0c0.5-0.5,0.5-1.3,0-1.7l-3.4-3.4c-0.2-0.2-0.4-0.3-0.7-0.3C516.5,515.7,516.3,512.7,514.5,510.8z
		 M513.3,517.4c-1.5,1.5-3.9,1.5-5.4,0c-1.5-1.5-1.5-3.9,0-5.4c1.5-1.5,3.9-1.5,5.4,0C514.8,513.5,514.8,515.9,513.3,517.4z"/>
</g>
<path class="st15" d="M681.4,404.5c0,0-8.2,20.2-16.1,22.4c-8,2.2-20,0.4-20,0.4l-3.7,1l-3.6-0.5c0,0-0.1,0-0.1,0l-4.1-0.1
	c-0.7,0-1.1-0.7-0.7-1.2l1.5-2c0.1-0.2,0.3-0.3,0.5-0.3l3.9-1.3c0.2,0,0.3-0.1,0.5,0l6,0.9c0,0,16.7-2.7,18.3-4.3
	c1.7-1.5,6.7-17.7,6.7-17.7L681.4,404.5z"/>
<path class="st16" d="M645.6,423.6c-0.2,0-0.4,0.1-0.4,0.1l-6-0.9c-0.2,0-0.3,0-0.5,0l-3.9,1.3c-0.2,0.1-0.4,0.2-0.5,0.3l-1.5,2
	c-0.4,0.5,0,1.2,0.7,1.2l4.1,0.1c0,0,0.1,0,0.1,0l2.5,0.4C642.1,427.4,643.9,425.7,645.6,423.6z"/>
<path class="st9" d="M686.3,384.5c-5.9-1.9-14.3,2.5-17.4,21.1l12.3,3.6C681.1,409.2,694.7,387.3,686.3,384.5z"/>
<g>
	<path class="st17" d="M651.8,360.2c0,0.6,0.3,1.1,0.7,1.1c0.4,0,0.7-0.5,0.7-1.1c0-0.6-0.3-1.1-0.7-1.1
		C652.2,359,651.8,359.5,651.8,360.2z"/>
	<path class="st18" d="M654.3,360.8l-2.9,4.8c0,0,1,1.1,3.2,0.3L654.3,360.8z"/>
	<path class="st17" d="M654.8,356.3c-0.1,0.1-0.2,0.1-0.3,0.1c-0.8-0.1-1.6,0.1-2.2,0.7c-0.1,0.1-0.3,0.1-0.4,0
		c-0.1-0.1-0.1-0.3,0-0.5c0.7-0.7,1.7-1.1,2.8-0.9c0.2,0,0.3,0.2,0.3,0.4l0,0C654.9,356.2,654.8,356.3,654.8,356.3z"/>
	<path class="st15" d="M675.4,355.8c0.5,8.1,0.8,11.6-2.8,16.2c-5.7,5-15.5,5.7-18.4-2.1c-2.6-7-2.9-19.1,4.6-23.3
		c5.4-3,12.1-1.1,15.1,4.3C674.8,352.4,675.3,354.1,675.4,355.8z"/>
	<polygon class="st15" points="664,373.6 666.1,385.6 676.1,383.3 672.6,371 	"/>
	<path class="st17" d="M656.8,356.4c0.5-5.3-1.3,0.8-3.8-6.2c-2.4-7,9.1-12.6,10.9-11.3c1.8,1.3,0.8,3.3,6.9,4.4
		c6.1,1.1,5.8,7,5.8,7s3.5,1.6,2.3,9.2c-1.2,7.5-6,13.2-6,13.2s-2.3-2.4-6-0.2c0,0-1.8-1-3.6-3.6c-1.6-2.5-2.2-4.8-4.4-5
		C654.3,363.5,656.6,358.1,656.8,356.4z"/>
	<path class="st17" d="M676.1,351.3c0,0,5-3.1,2.8-6.3C676.6,341.8,677.7,348.6,676.1,351.3z"/>
	<path class="st19" d="M658.2,359.5c-1.1,1.2-1.7,2.9-1.6,4.5c0.1,2.2,2.3,2.6,4,1.4c1.5-1.1,3.3-3.5,2.3-5.5
		C662,358,659.6,358,658.2,359.5z"/>
	<path class="st16" d="M664.2,374.7l0.8,4.8c-0.1-4.4,2.3-6.5,2.3-6.5C665,373.3,664.2,374.7,664.2,374.7z"/>
</g>
<g>
	<rect x="590.8" y="405.8" class="st9" width="2.9" height="16.9"/>
	<rect x="590.8" y="405.8" class="st10" width="2.9" height="16.9"/>
</g>
<g>
	<path class="st9" d="M573.9,372.2h-7.1c-2.7,0-4.9,2.2-4.9,4.9v33.1c0,2.7,2.2,4.9,4.9,4.9h7.1V372.2z"/>
	<g>
		<path class="st9" d="M617.6,415h-48.4c-2.7,0-4.9-2.2-4.9-4.9V377c0-2.7,2.2-4.9,4.9-4.9h48.4c2.7,0,4.9,2.2,4.9,4.9v33.1
			C622.5,412.8,620.3,415,617.6,415z"/>
		<path class="st20" d="M617.6,415h-48.4c-2.7,0-4.9-2.2-4.9-4.9V377c0-2.7,2.2-4.9,4.9-4.9h48.4c2.7,0,4.9,2.2,4.9,4.9v33.1
			C622.5,412.8,620.3,415,617.6,415z"/>
	</g>
	<path class="st17" d="M569.3,374.2c-1.6,0-2.9,1.3-2.9,2.9v33.1c0,1.6,1.3,2.9,2.9,2.9h48.4c1.6,0,2.9-1.3,2.9-2.9V377
		c0-1.6-1.3-2.9-2.9-2.9H569.3z"/>
</g>
<path class="st9" d="M581.8,429.8c0-5.8,4.7-10.4,10.4-10.4c5.8,0,10.4,4.7,10.4,10.4H581.8z"/>
<g>
	<polygon class="st9" points="606.4,426.3 585.5,426.3 585.5,429.7 627.3,429.7 627.3,428.3 	"/>
	<polygon class="st21" points="606.4,426.3 585.5,426.3 585.5,429.7 627.3,429.7 627.3,428.3 	"/>
	<polygon class="st9" points="606.4,429.7 585.5,429.7 585.5,426.3 606.4,428.3 	"/>
	<polygon class="st22" points="606.4,429.7 585.5,429.7 585.5,426.3 606.4,428.3 	"/>
</g>
<g>
	<g>
		<path class="st17" d="M652.5,546.4h-43.1c-3.6,0-6.5-2.9-6.5-6.5v-99.1c0-3.6,2.9-6.5,6.5-6.5h43.1c1,0,1.8,0.8,1.8,1.8l0,0
			c0,1-0.8,1.8-1.8,1.8h-43.1c-1.7,0-3,1.4-3,3v99.1c0,1.7,1.4,3,3,3h43.1c1,0,1.8,0.8,1.8,1.8l0,0
			C654.2,545.6,653.4,546.4,652.5,546.4z"/>
	</g>
	<g class="st23">
		<path class="st11" d="M652.5,546.4h-43.1c-3.6,0-6.5-2.9-6.5-6.5v-99.1c0-3.6,2.9-6.5,6.5-6.5h43.1c1,0,1.8,0.8,1.8,1.8l0,0
			c0,1-0.8,1.8-1.8,1.8h-43.1c-1.7,0-3,1.4-3,3v99.1c0,1.7,1.4,3,3,3h43.1c1,0,1.8,0.8,1.8,1.8l0,0
			C654.2,545.6,653.4,546.4,652.5,546.4z"/>
	</g>
</g>
<g>
	<rect x="548" y="429.7" class="st9" width="61.2" height="5.1"/>
	<rect x="548" y="429.7" class="st24" width="61.2" height="5.1"/>
	<rect x="606.4" y="429.7" class="st9" width="52.2" height="5.1"/>
	<rect x="606.4" y="429.7" class="st20" width="52.2" height="5.1"/>
</g>
<g>
	<g>
		<polygon class="st15" points="640.3,510 643.2,539.2 636.3,539.2 629.3,510.8 		"/>
		<g>
			<path class="st17" d="M635.6,537.3l8.8,0.2c0.3,0,0.6,0.2,0.7,0.6l1.5,7.2c0.1,0.6-0.3,1.3-0.9,1.4c-0.1,0-0.2,0-0.2,0
				c-3.2-0.1-6-0.3-10-0.4c-4.7-0.1-3.5,0.5-9,0.5c-3.3,0-3.9-3.8-2.4-4c6.4-0.7,7.1-2.6,9.7-4.9
				C634.2,537.5,634.9,537.3,635.6,537.3z"/>
		</g>
		<polygon class="st16" points="642.4,531.6 640.3,510 629.3,510.8 634.4,531.6 		"/>
	</g>
	<path class="st17" d="M687.7,442.7l-28.4,1c0,0-38.2,13.4-39.3,23.7c-1.1,10.6,11.7,59.2,11.7,59.2h11.4c0,0-3.1-35.7-4.4-46.6
		c-1.2-10.9,39.8-7.3,46.9-16.6C692.3,454.7,687.7,442.7,687.7,442.7z"/>
	<path class="st25" d="M687.7,442.7l-28.4,1c0,0-38.2,13.4-39.3,23.7c-1.1,10.6,11.7,59.2,11.7,59.2h11.4c0,0-3.1-35.7-4.4-46.6
		c-1.2-10.9,39.8-7.3,46.9-16.6C692.3,454.7,687.7,442.7,687.7,442.7z"/>
	<polygon class="st9" points="645.1,524.9 645.4,528.9 631.3,528.9 629.9,524.9 	"/>
</g>
<g>
	<g>
		<polygon class="st15" points="613.9,511.4 614.6,539.2 607.8,539.2 603.8,511.4 		"/>
		<g>
			<path class="st17" d="M606.9,537.3l8.8,0.2c0.3,0,0.6,0.2,0.7,0.6l1.5,7.2c0.1,0.6-0.3,1.3-0.9,1.4c-0.1,0-0.2,0-0.2,0
				c-3.2-0.1-6-0.3-10-0.4c-4.7-0.1-3.5,0.5-9,0.5c-3.3,0-3.9-3.8-2.4-4c6.4-0.7,7.1-2.6,9.7-4.9
				C605.5,537.5,606.2,537.3,606.9,537.3z"/>
		</g>
		<path class="st16" d="M614.4,531.6l-0.5-20.2h-10.1l2.9,20.2C608.9,531.6,611.9,531.6,614.4,531.6z"/>
	</g>
	<path class="st17" d="M675.3,445c0,0,2.4,21.6-19.6,22.6c-22,1-39.1,3.5-39.6,11.3c-0.5,7.8,0,47.6,0,47.6h-11.9
		c0,0-4.6-25.2-6.5-40.8c-1.8-15.2-5-26.1,10.6-31.3c16.5-5.5,45.9-10.5,45.9-10.5l21.2-1.3L675.3,445z"/>
	<polygon class="st9" points="617.9,524.9 617.2,528.9 604.1,528.9 602.7,524.9 	"/>
</g>
<g>
	<path class="st9" d="M680.1,383.1c0,0,0-4.9-9.8-4.3c-10.4,0.6-8.5,5.3-8.5,5.3L680.1,383.1z"/>
	<path class="st8" d="M680.1,383.1c0,0,0-4.9-9.8-4.3c-10.4,0.6-8.5,5.3-8.5,5.3L680.1,383.1z"/>
</g>
<path class="st9" d="M689.2,404.9c-0.7,9.6-0.4,38.5-0.4,38.5s-21,1.4-37.5,0.8l-1.9-55.6c0-2,1.2-3.8,3.1-4.5
	c4.7-1.8,15.6-3.9,32.7-1.6C691.2,383.3,690,393.5,689.2,404.9z"/>
<path class="st15" d="M652.8,404.5c0,0-8.2,20.2-16.1,22.4c-8,2.2-20,0.4-20,0.4l-3.7,1l-3.6-0.5c0,0-0.1,0-0.1,0l-4.1-0.1
	c-0.7,0-1.1-0.7-0.7-1.2l1.5-2c0.1-0.2,0.3-0.3,0.5-0.3l3.9-1.3c0.2,0,0.3-0.1,0.5,0l6,0.9c0,0,16.7-2.7,18.3-4.3
	c1.7-1.5,6.7-17.7,6.7-17.7L652.8,404.5z"/>
<path class="st16" d="M652.6,395.1c0,0-1.3,1.5-2.8,3.7l0.6,16.1c6.1-2.7,8.6-18.5,8.6-18.5l-4-2.8L652.6,395.1z"/>
<path class="st9" d="M657.7,384.5c-5.9-1.9-14.3,2.5-17.4,21.1l12.3,3.6C652.5,409.2,666.2,387.3,657.7,384.5z"/>
<g>
	<g>
		<rect x="656.3" y="478.1" class="st17" width="9.3" height="27.1"/>
		<rect x="656.3" y="478.1" class="st22" width="9.3" height="27.1"/>
		<g>
			<polygon class="st17" points="667,529.7 667,495.3 654.8,495.3 654.8,529.7 627.2,533.6 627.2,537.4 660.9,534.5 694.5,537.4 
				694.5,533.6 			"/>
		</g>
		<g>
			<circle class="st9" cx="626.8" cy="543.1" r="3.6"/>
			<circle class="st9" cx="694.5" cy="543.1" r="3.6"/>
		</g>
		<circle class="st9" cx="660.9" cy="543.1" r="3.6"/>
		<rect x="656.3" y="478.1" class="st8" width="9.3" height="6.7"/>
	</g>
	<g>
		<path class="st9" d="M697.5,416.6h-30.1c-4.9,0-9,3.7-9.5,8.6l-2.5,27.2c-0.6,6.2-5.6,11-11.8,11.4l-29.1,1.5
			c-3.5,0.2-6.3,3.1-6.3,6.6v0.6c0,3,2.5,5.5,5.5,5.5h39.3h8h41.3l4.8-51.1C707.5,421.4,703.1,416.6,697.5,416.6z"/>
		<path class="st26" d="M697.5,416.6h-30.1c-4.9,0-9,3.7-9.5,8.6l-2.5,27.2c-0.6,6.2-5.6,11-11.8,11.4l-29.1,1.5
			c-3.5,0.2-6.3,3.1-6.3,6.6v0.6c0,3,2.5,5.5,5.5,5.5h39.3h8h41.3l4.8-51.1C707.5,421.4,703.1,416.6,697.5,416.6z"/>
		<path class="st17" d="M630.4,471h-0.2c-1.1,0-2-0.9-2-2v-21.7h4.1V469C632.4,470.1,631.5,471,630.4,471z"/>
		<path class="st24" d="M630.4,471h-0.2c-1.1,0-2-0.9-2-2v-21.7h4.1V469C632.4,470.1,631.5,471,630.4,471z"/>
		<g>
			<path class="st9" d="M648.3,441.1H639v7.7h9.3c2.1,0,3.8-1.7,3.8-3.8C652.1,442.8,650.4,441.1,648.3,441.1z"/>
			<path class="st20" d="M648.3,441.1H639v7.7h9.3c2.1,0,3.8-1.7,3.8-3.8C652.1,442.8,650.4,441.1,648.3,441.1z"/>
			<path class="st9" d="M644.6,448.7h-32.3c-2,0-3.7-1.7-3.7-3.7v-0.3c0-2,1.7-3.7,3.7-3.7h32.3c2,0,3.7,1.7,3.7,3.7v0.3
				C648.3,447.1,646.6,448.7,644.6,448.7z"/>
			<path class="st26" d="M644.6,448.7h-32.3c-2,0-3.7-1.7-3.7-3.7v-0.3c0-2,1.7-3.7,3.7-3.7h32.3c2,0,3.7,1.7,3.7,3.7v0.3
				C648.3,447.1,646.6,448.7,644.6,448.7z"/>
		</g>
		<path class="st9" d="M704.2,478.1h-44.3l4.9-52.8c0.5-4.9,4.6-8.6,9.5-8.6h30.1c5.6,0,10,4.8,9.5,10.4l-4.3,46.1
			C709.4,475.9,707,478.1,704.2,478.1z"/>
		<path class="st20" d="M704.2,478.1h-44.3l4.9-52.8c0.5-4.9,4.6-8.6,9.5-8.6h30.1c5.6,0,10,4.8,9.5,10.4l-4.3,46.1
			C709.4,475.9,707,478.1,704.2,478.1z"/>
	</g>
</g>
<g>
	<g>
		<path class="st17" d="M600.7,546.4h-43.1c-3.6,0-6.5-2.9-6.5-6.5v-99.1c0-3.6,2.9-6.5,6.5-6.5h43.1c1,0,1.8,0.8,1.8,1.8l0,0
			c0,1-0.8,1.8-1.8,1.8h-43.1c-1.7,0-3,1.4-3,3v99.1c0,1.7,1.4,3,3,3h43.1c1,0,1.8,0.8,1.8,1.8l0,0
			C602.5,545.6,601.7,546.4,600.7,546.4z"/>
	</g>
	<g class="st23">
		<path class="st11" d="M600.7,546.4h-43.1c-3.6,0-6.5-2.9-6.5-6.5v-99.1c0-3.6,2.9-6.5,6.5-6.5h43.1c1,0,1.8,0.8,1.8,1.8l0,0
			c0,1-0.8,1.8-1.8,1.8h-43.1c-1.7,0-3,1.4-3,3v99.1c0,1.7,1.4,3,3,3h43.1c1,0,1.8,0.8,1.8,1.8l0,0
			C602.5,545.6,601.7,546.4,600.7,546.4z"/>
	</g>
</g>
<g>
	<path class="st11" d="M572.3,382.1l-3-2c-0.3-0.2-0.3-0.7,0-0.9l3-2c0.2-0.2,0.5-0.1,0.7,0.1l0,0c0.2,0.2,0.1,0.5-0.1,0.7l-2.5,1.6
		l2.5,1.6c0.2,0.2,0.3,0.5,0.1,0.7l0,0C572.8,382.2,572.5,382.2,572.3,382.1z"/>
</g>
<g>
	<path class="st11" d="M578.9,381.9L578.9,381.9c-0.2-0.2-0.1-0.5,0.1-0.7l2.5-1.6L579,378c-0.2-0.2-0.3-0.5-0.1-0.7l0,0
		c0.2-0.2,0.5-0.3,0.7-0.1l3,2c0.3,0.2,0.3,0.7,0,0.9l-3,2C579.3,382.2,579,382.2,578.9,381.9z"/>
</g>
<g>
	<path class="st11" d="M574.8,383.2L574.8,383.2c-0.3-0.1-0.4-0.4-0.3-0.6l2.1-6.5c0.1-0.3,0.4-0.4,0.6-0.3l0,0
		c0.3,0.1,0.4,0.4,0.3,0.6l-2.1,6.5C575.3,383.2,575,383.3,574.8,383.2z"/>
</g>
<g>
	<g>
		<path class="st11" d="M591.8,388.3h-22.3c-0.3,0-0.5-0.2-0.5-0.5l0,0c0-0.3,0.2-0.5,0.5-0.5h22.3c0.3,0,0.5,0.2,0.5,0.5l0,0
			C592.3,388.1,592.1,388.3,591.8,388.3z"/>
	</g>
	<g>
		<path class="st11" d="M617.3,388.3h-22.3c-0.3,0-0.5-0.2-0.5-0.5l0,0c0-0.3,0.2-0.5,0.5-0.5h22.3c0.3,0,0.5,0.2,0.5,0.5l0,0
			C617.9,388.1,617.6,388.3,617.3,388.3z"/>
	</g>
	<g>
		<path class="st11" d="M582.2,392.9h-12.7c-0.3,0-0.5-0.2-0.5-0.5l0,0c0-0.3,0.2-0.5,0.5-0.5h12.7c0.3,0,0.5,0.2,0.5,0.5l0,0
			C582.7,392.6,582.5,392.9,582.2,392.9z"/>
	</g>
	<g>
		<path class="st11" d="M606.4,392.9h-20.8c-0.3,0-0.5-0.2-0.5-0.5l0,0c0-0.3,0.2-0.5,0.5-0.5h20.8c0.3,0,0.5,0.2,0.5,0.5l0,0
			C606.9,392.6,606.7,392.9,606.4,392.9z"/>
	</g>
	<g>
		<path class="st11" d="M603.4,397.5h-33.9c-0.3,0-0.5-0.2-0.5-0.5l0,0c0-0.3,0.2-0.5,0.5-0.5h33.9c0.3,0,0.5,0.2,0.5,0.5l0,0
			C603.9,397.2,603.7,397.5,603.4,397.5z"/>
	</g>
	<g>
		<path class="st11" d="M613.8,397.5h-7.1c-0.3,0-0.5-0.2-0.5-0.5l0,0c0-0.3,0.2-0.5,0.5-0.5h7.1c0.3,0,0.5,0.2,0.5,0.5l0,0
			C614.3,397.2,614.1,397.5,613.8,397.5z"/>
	</g>
	<g>
		<path class="st11" d="M585.3,402h-15.8c-0.3,0-0.5-0.2-0.5-0.5l0,0c0-0.3,0.2-0.5,0.5-0.5h15.8c0.3,0,0.5,0.2,0.5,0.5l0,0
			C585.9,401.8,585.6,402,585.3,402z"/>
	</g>
	<g>
		<path class="st11" d="M608.4,402h-19.7c-0.3,0-0.5-0.2-0.5-0.5l0,0c0-0.3,0.2-0.5,0.5-0.5h19.7c0.3,0,0.5,0.2,0.5,0.5l0,0
			C608.9,401.8,608.7,402,608.4,402z"/>
	</g>
	<g>
		<path class="st11" d="M591.8,406.6h-22.3c-0.3,0-0.5-0.2-0.5-0.5l0,0c0-0.3,0.2-0.5,0.5-0.5h22.3c0.3,0,0.5,0.2,0.5,0.5l0,0
			C592.3,406.4,592.1,406.6,591.8,406.6z"/>
	</g>
	<g>
		<path class="st11" d="M610.8,406.6h-15.7c-0.3,0-0.5-0.2-0.5-0.5l0,0c0-0.3,0.2-0.5,0.5-0.5h15.7c0.3,0,0.5,0.2,0.5,0.5l0,0
			C611.3,406.4,611.1,406.6,610.8,406.6z"/>
	</g>
</g>
<g>
	<path class="st27" d="M417.5,317.1c0.4,4.7-0.6,13.2-4.2,16c5.8,2.1,11.9,5.7,15.9,10.4c3.9-5.7-0.5-8.9-0.5-8.9
		c-5-1.8-4.5-5.6-3.2-9.1L417.5,317.1z"/>
	<path class="st17" d="M436.5,313c-0.1,0.6,0.2,1.1,0.6,1.1c0.4,0,0.7-0.4,0.8-1c0.1-0.6-0.2-1.1-0.6-1.1
		C436.9,312,436.5,312.5,436.5,313z"/>
	<path class="st17" d="M437.1,312.1l1.5-0.3C438.6,311.8,437.7,312.8,437.1,312.1z"/>
	<path class="st28" d="M436.7,313.7c0.4,1.4,1,2.7,1.8,4c-0.7,0.4-1.4,0.5-2.2,0.2L436.7,313.7z"/>
	<path class="st17" d="M438.1,309.9c0.1,0,0.2-0.1,0.2-0.1c0.1-0.1,0.1-0.4,0-0.5c-0.8-0.8-2-1.1-3.1-0.8c-0.2,0.1-0.2,0.3-0.1,0.5
		c0.1,0.1,0.2,0.2,0.3,0.2c0.9-0.2,1.8,0.1,2.4,0.7C438,309.9,438,309.9,438.1,309.9z"/>
	<path class="st27" d="M417,309.3c-0.2,7.3-0.5,10.4,2.8,14.5c4.9,6.1,13.8,4.8,16.2-2.3c2.1-6.4,2.2-17.3-4.6-20.9
		C424.7,297.1,417.3,302,417,309.3z"/>
	<path class="st17" d="M417.4,323.1c-7.2-1.2-5.1-5.8-5.1-5.8c-7.1-1.4-1.6-4.9-1.6-4.9c-5.9-2.5,0-4.8,0-4.8
		c-5.7-4.7,2.5-6.3,2.5-6.3c-2-7.4,5-4.3,5-4.3c3.8-6.3,7.1-0.3,7.1-0.3c6.7-9,8.3-1.4,8.3-1.4c6.8-1.8,4.2,5.4,4.2,5.4
		c5.6,1.5,1.2,4.3,1.2,4.3c2.2,2.7-5.7,3.2-5.7,3.2s3.7,6,0,7.6l-9.5,7.3C423.7,323.1,419.3,321.3,417.4,323.1z"/>
	<path class="st9" d="M424.5,317.2c0,0,5-12,1.1-22.2l3.3-1.1C428.8,293.8,433.2,308.7,424.5,317.2z"/>
	<path class="st27" d="M429.4,315.9c0.8,1.7,1.1,2.5,2.3,3c1,0.6,2.3,0.2,2.9-0.8c0.3-0.5,0.3-1,0.2-1.6c-0.3-1.7-1.6-4.3-3.5-4.3
		C429.6,312.2,428.6,314.2,429.4,315.9z"/>
	<g>
		<path class="st27" d="M424.3,340.9c0,0,6.8,5,9.5,7l19.6-9.2l0,0c-0.1-2.2,1.3-4.3,3.3-5.1l1.4-0.6l3-1.3c1.1-0.5,2.4-0.4,3.4,0.4
			l0,0c1.2,0.9,1.7,2.3,1.3,3.7l0,0c-0.8,2.9-3.1,5.1-6,5.8l-2.9,0.7c0,0-16.8,12.8-22.8,13.1c-6,0.3-14.8-5.6-14.8-5.6L424.3,340.9
			z"/>
		<path class="st17" d="M408,332.4c5.2,0,10.9,3.2,20,9.1c0,0-1.7,6.5-7,11.1c0,0-5-1.3-11.6-7.6C401.4,337.5,404.8,332.4,408,332.4
			z"/>
	</g>
	<g>
		<g>
			<path class="st9" d="M506.2,347.4h-49c-1.8,0-3.1-1.4-2.9-3.2L458,302c0.2-1.8,1.7-3.2,3.5-3.2h49c1.8,0,3.1,1.4,2.9,3.2
				l-3.7,42.2C509.5,346,508,347.4,506.2,347.4z"/>
			<path class="st29" d="M506.2,347.4h-49c-1.8,0-3.1-1.4-2.9-3.2L458,302c0.2-1.8,1.7-3.2,3.5-3.2h49c1.8,0,3.1,1.4,2.9,3.2
				l-3.7,42.2C509.5,346,508,347.4,506.2,347.4z"/>
		</g>
		<path class="st10" d="M506.4,345.4c0.7,0,1.3-0.5,1.3-1.2l3.7-42.2c0.1-0.7-0.4-1.2-1.1-1.2h-49c-0.7,0-1.3,0.5-1.3,1.2l-3.7,42.2
			c-0.1,0.7,0.4,1.2,1.1,1.2H506.4z"/>
		<g>
			<path class="st9" d="M472.3,320.6l-16,23.2l0,0.4c-0.1,0.7,0.4,1.2,1.1,1.2h27.8L472.3,320.6z"/>
			<path class="st26" d="M472.3,320.6l-16,23.2l0,0.4c-0.1,0.7,0.4,1.2,1.1,1.2h27.8L472.3,320.6z"/>
		</g>
		<path class="st9" d="M507.8,342.6l-13.4-25.5l-19.9,28.3h31.8c0.7,0,1.3-0.5,1.3-1.2L507.8,342.6z"/>
		<g>
			<path class="st9" d="M489.2,312.6c-0.2,2.5-2.4,4.5-4.9,4.5s-4.3-2-4.1-4.5c0.2-2.5,2.4-4.5,4.9-4.5
				C487.6,308.1,489.5,310.1,489.2,312.6z"/>
			<path class="st29" d="M489.2,312.6c-0.2,2.5-2.4,4.5-4.9,4.5s-4.3-2-4.1-4.5c0.2-2.5,2.4-4.5,4.9-4.5
				C487.6,308.1,489.5,310.1,489.2,312.6z"/>
		</g>
	</g>
	<g>
		<polygon class="st27" points="367,517.7 362,532.4 369.6,535.5 375.6,521.9 		"/>
		<g>
			<path class="st9" d="M372.4,535.2c-0.1,0-0.1-0.1-0.1-0.2c0-0.1,0.1-0.2,0.2-0.2c0.2,0,3.8-0.8,5.1,0c0.3,0.2,0.4,0.4,0.5,0.7
				c0.1,0.3,0,0.7-0.3,0.9c-0.5,0.4-1.7,0.2-2.8-0.1C374.1,536,373.2,535.6,372.4,535.2z M373.1,535.1c1.6,0.7,3.8,1.4,4.4,0.9
				c0.1-0.1,0.2-0.2,0.1-0.5c0-0.2-0.2-0.3-0.3-0.4c-0.1-0.1-0.2-0.1-0.4-0.2C375.6,534.8,374.4,534.8,373.1,535.1z"/>
			<path class="st9" d="M372.2,535.1c-0.1-0.1-0.1-0.1,0-0.2c0-0.1,1-2.4,2.4-3c0.4-0.2,0.9-0.2,1.3,0c0.6,0.2,0.6,0.6,0.6,0.8
				c-0.1,1-2.8,2.3-4,2.4c0,0-0.1,0-0.1,0C372.3,535.2,372.3,535.2,372.2,535.1z M375.6,532.3c-0.3-0.1-0.5-0.1-0.8,0
				c-0.9,0.6-1.6,1.4-2,2.3c1.3-0.3,3.1-1.4,3.3-2c0-0.1,0-0.2-0.3-0.4L375.6,532.3L375.6,532.3z"/>
			<path class="st17" d="M371.8,533.7l-9.6-3c-0.4-0.1-0.8,0-0.9,0.4l-4.1,7.3c-0.4,0.6-0.2,1.5,0.5,1.8c0.1,0,0.2,0.1,0.3,0.1
				c3.5,1,6.6,1.8,10.9,3.1c5.1,1.6,3.6,1.8,9.5,3.7c3.6,1.2,5.5-2.7,4-3.4c-6.7-3-6.8-5.4-8.7-8.7
				C373.3,534.3,372.6,533.9,371.8,533.7z"/>
		</g>
		<polygon class="st30" points="364.6,524.7 372.6,528.8 375.6,521.9 367,517.7 		"/>
	</g>
	<path class="st9" d="M400.8,381.1c0,0-10.8,8.2-8.4,33.9c0.2,2.4,1,4.9,1,7.6c0,1.8-0.5,3.1-1.1,7.1c-0.9,5.9-2.4,28-4.1,30.9
		c-1.6,2.8-2.3,2.4-7,10.3c-5,8.5-11.5,23.5-16.5,48.8c0,0,4.4,3.4,11.2,4.7c0,0,27.5-43.3,33.3-59.4c5.2-14.4,11.5-60.5,11.5-60.5
		l0.5-20L400.8,381.1z"/>
	<path class="st16" d="M412.5,415.1h-7.8c0,0-2.6,24.5,5.9,44.9c0.9-3.3,1.8-7.2,2.6-11.5l3.4-21.6c-0.5-3.6-0.9-6.4-0.9-6.6
		C415.6,419.8,412.5,415.1,412.5,415.1z"/>
	<g>
		<polygon class="st27" points="411.3,523.6 411.3,539.3 420.2,538.7 421.5,523.6 		"/>
		<g>
			<path class="st9" d="M421.2,538.4c-0.1,0-0.2-0.1-0.2-0.2c0-0.1,0-0.2,0.1-0.2c0.1-0.1,3.3-2,4.8-1.7c0.3,0.1,0.5,0.2,0.7,0.5
				c0.2,0.3,0.2,0.7,0.1,0.9c-0.4,0.5-1.5,0.8-2.7,0.8C423.1,538.6,422.1,538.6,421.2,538.4z M421.9,538.1c1.7,0.2,4,0.1,4.4-0.6
				c0.1-0.1,0.1-0.2-0.1-0.5c-0.1-0.2-0.3-0.3-0.4-0.3c-0.1,0-0.3,0-0.4,0C424.2,537,423,537.4,421.9,538.1z"/>
			<path class="st9" d="M421.1,538.4c-0.1,0-0.1-0.1-0.1-0.2c0-0.1,0.2-2.6,1.3-3.6c0.3-0.3,0.8-0.4,1.2-0.4c0.6,0,0.8,0.3,0.8,0.6
				c0.2,1-1.9,3.1-3,3.6c0,0-0.1,0-0.1,0C421.2,538.4,421.1,538.4,421.1,538.4z M423.3,534.6c-0.3,0-0.5,0.1-0.7,0.3
				c-0.7,0.8-1,1.8-1.1,2.9c1.1-0.7,2.5-2.3,2.4-2.9c0-0.1,0-0.2-0.4-0.2L423.3,534.6L423.3,534.6z"/>
			<path class="st17" d="M420.2,537.2l-10,0.4c-0.4,0-0.7,0.3-0.8,0.7l-1.5,8.2c-0.1,0.7,0.3,1.4,1.1,1.6c0.1,0,0.2,0,0.3,0
				c3.6-0.2,6.8-0.5,11.3-0.7c5.3-0.2,4,0.5,10.2,0.4c3.8-0.1,4.3-4.4,2.7-4.5c-7.3-0.7-8.2-2.8-11.1-5.3
				C421.8,537.3,421,537.1,420.2,537.2z"/>
		</g>
		<polygon class="st30" points="411.3,531.7 420.8,531.5 421.5,523.6 411.3,523.6 		"/>
	</g>
	<path class="st9" d="M406.8,378.3c0,0-10.7,14.2-2.8,42l9,40.6c0,0-8.5,18.5-4,67.2c0,0,6.8,1.1,13.2-0.3c0,0,10-51.4,11.5-68.8
		c1.7-19.1,0.7-76.8,0.7-76.8L406.8,378.3z"/>
	<g>
		<path class="st17" d="M413.3,332.2c0,0-1.7-7.1,9-4c10.7,3.1,9.8,9.2,9.8,9.2L413.3,332.2z"/>
		<path class="st31" d="M413.3,332.2c0,0-1.7-7.1,9-4c10.7,3.1,9.8,9.2,9.8,9.2L413.3,332.2z"/>
	</g>
	<path class="st17" d="M439.7,350c0,2.5-1.1,6.1-2,10.1c-0.5,1.9-0.9,3.9-1.2,5.9c-1.5,11-2,22.6-2,22.6s-17.4,4.9-34.3-6.8
		c0,0,4.2-3.5,3.3-28.1c-0.4-11.1-4.4-24.3,13.9-22.2c15.5,1.8,20.7,6.6,21.9,14.1c0,0.1,0,0.2,0.1,0.3c0,0.2,0.1,0.5,0.1,0.7
		C439.6,347.6,439.7,348.8,439.7,350z"/>
	<path class="st31" d="M439.7,350c0,2.5-1.1,6.1-2,10.1c-4.2-5-8.4-14.5-8.4-14.5l3.5-5.1l6.1,2.8c0.2,0.7,0.4,1.4,0.5,2.1
		c0,0.1,0,0.2,0.1,0.3c0,0.2,0.1,0.5,0.1,0.7C439.6,347.6,439.7,348.8,439.7,350z"/>
	<path class="st27" d="M446,345.6c0,0,5.9,5.9,8.4,8.3l20.7-6.2l0,0c0.3-2.2,1.9-4,4-4.6l1.5-0.4l3.1-0.9c1.2-0.3,2.4,0,3.3,0.9l0,0
		c1,1,1.3,2.6,0.7,3.9l0,0c-1.3,2.7-3.8,4.5-6.8,4.9l-2.9,0.3c0,0-18.5,10.1-24.5,9.5c-6-0.6-13.8-7.7-13.8-7.7L446,345.6z"/>
	<path class="st17" d="M431.2,334.9c5.1,0.7,10.3,4.8,18.5,12c0,0-2.7,6.1-8.6,9.9c0,0-4.7-2.1-10.4-9.2
		C423.9,338.9,428,334.4,431.2,334.9z"/>
</g>
<g id="Floor_1_">
	<g>
		<g>
			<path class="st32" d="M758.7,763.8c0,0.1-105.1,0.2-234.7,0.2c-129.7,0-234.7-0.1-234.7-0.2s105.1-0.2,234.7-0.2
				S758.7,763.7,758.7,763.8z"/>
		</g>
	</g>
</g>
</svg>
