<?xml version="1.0" encoding="utf-8"?>
<!-- Generator: Adobe Illustrator 24.1.0, SVG Export Plug-In . SVG Version: 6.00 Build 0)  -->
<svg version="1.1" id="Layer_1" xmlns="http://www.w3.org/2000/svg" xmlns:xlink="http://www.w3.org/1999/xlink" x="0px" y="0px"
	 viewBox="0 0 1920 1080" style="enable-background:new 0 0 1920 1080;" xml:space="preserve">
<style type="text/css">
	.st0{fill:#F2F2F2;}
</style>
<path class="st0" d="M1059.1,636.4c-6,0.9-11.6-3.2-12.5-9.1c-0.5-3.2,0.4-6.4,2.6-8.9c0.2-1.1,0.3-1.9,0.4-3
	c-0.1-0.2-0.2-0.5-0.4-0.7c-7.9-14.2-25.8-19.3-40-11.4c-6.7,3.8-11.7,10-13.9,17.4c-6.5,22.2-15.4,44.7-15.7,67.5
	c-0.1,10.1,1.5,20.1,4.8,29.6c-25.6-42.9-41.7-90.9-47.2-140.6c-1.4-12.5-2-25-2-37.6c0-10.3,0.5-20.6,1.5-30.8
	c5.2-55.6,23.5-109.1,53.4-156.2c15.8-11,27.8-26.5,34.4-44.5c2.4-6.5,3.9-13.3,4.4-20.2c-1.9,0.5-3.8,0.8-5.6,1.1
	c-0.6,0.1-1.2,0.2-1.8,0.3l-0.2,0c-5.9,0.9-11.5-3.1-12.4-9.1c-0.4-2.6,0.2-5.3,1.6-7.5c0.7-1.1,1.4-2.2,2.1-3.3
	c1.1-1.7,2.2-3.3,3.2-5c0.1-0.2,0.2-0.3,0.4-0.5c1.2-1.9,2.5-3.8,3.7-5.7c-3-3.8-6.9-6.8-11.3-8.8c-15.2-6.8-34.3,1.1-43.2,15.2
	c-8.9,14-8.9,32.4-3.6,48.1c5,13.4,12.3,25.8,21.5,36.7c-0.7,1.1-1.4,2.1-2,3.2c-12.2,19.7-22.4,40.6-30.5,62.4
	c0-23.4-5.5-46.4-16.2-67.2c-10.6-19.3-28.2-34.6-43.9-50.6c-18.9-19.2-52-6.3-52,20.6c0,0.3,0,0.5,0,0.8c2.2,0.9,4.3,1.9,6.4,3
	c7.3,3.8,10.1,12.8,6.3,20c-1.9,3.7-5.3,6.4-9.3,7.5l-0.3,0.1c1.5,7.3,3.6,14.5,6.3,21.5c15.2,39.5,46.3,70.9,85.6,86.6
	c1.3,0.5,2.5,1,3.8,1.4c-7.2,30.6-10.4,62-9.5,93.4c0.6,18.5,2.7,37,6.3,55.2l-0.2-0.6c-6.2-20-19.1-37.2-36.5-48.8
	c-25.8-16.9-60.1-20.4-87.4-33.3c-8.4-4.2-18.7-0.8-22.9,7.7c-1.8,3.6-2.3,7.7-1.3,11.7c0.1,0.2,0.1,0.4,0.2,0.7
	c4,1.1,7.9,2.5,11.7,4.2c2.2,0.9,4.3,1.9,6.4,3c7.3,3.8,10.1,12.8,6.3,20c-1.9,3.7-5.3,6.4-9.3,7.5l-0.3,0.1
	c-0.2,0.1-0.4,0.1-0.6,0.2c8.2,14.9,18.9,28.2,31.7,39.4c31.7,27.4,73.3,40.5,115.1,36.2l0,0c8.2,23.7,18.9,46.5,31.9,68l86.4-9.4
	c0.2-1,0.4-2,0.6-3c-7.9,1.4-16,1.8-24.1,1.2c5.6-8.6,11.1-17.2,16.7-25.8c0.1-0.2,0.2-0.3,0.4-0.5c2.8-4.4,5.7-8.7,8.5-13.1l0,0
	C1066.1,660.2,1063.4,648.1,1059.1,636.4L1059.1,636.4z"/>
</svg>
