<?xml version="1.0" encoding="utf-8"?>
<!-- Generator: Adobe Illustrator 24.1.0, SVG Export Plug-In . SVG Version: 6.00 Build 0)  -->
<svg version="1.1" id="Layer_1" xmlns="http://www.w3.org/2000/svg" xmlns:xlink="http://www.w3.org/1999/xlink" x="0px" y="0px"
	 viewBox="0 0 1920 1080" style="enable-background:new 0 0 1920 1080;" xml:space="preserve">
<style type="text/css">
	.st0{fill:#F2F2F2;}
</style>
<path class="st0" d="M781,637.5c6.4,0.6,12-4.1,12.6-10.5c0.3-3.4-0.9-6.8-3.3-9.2c-0.2-1.2-0.4-2-0.6-3.2c0.1-0.2,0.2-0.5,0.4-0.7
	c7.4-15.5,26.1-22.1,41.6-14.6c7.4,3.5,13.1,9.8,15.9,17.5c8.3,23.1,19.3,46.3,21.1,70.4c0.8,10.6-0.2,21.3-3.1,31.6
	c24.3-47.1,38.2-99,40.8-151.9c0.6-13.3,0.5-26.6-0.4-39.9c-0.7-10.9-1.9-21.7-3.6-32.5c-9.1-58.5-32-114-66.8-161.9
	c-17.4-10.6-31.2-26.2-39.4-44.9c-3-6.7-5-13.8-5.9-21.1c2,0.4,4,0.6,6.1,0.8c0.6,0.1,1.3,0.1,1.9,0.2l0.2,0
	c6.3,0.6,11.9-4.1,12.5-10.4c0.3-2.8-0.5-5.6-2.2-7.9c-0.8-1.1-1.6-2.2-2.5-3.3c-1.2-1.7-2.5-3.4-3.8-5.1c-0.1-0.2-0.3-0.3-0.4-0.5
	c-1.4-2-2.9-3.9-4.3-5.8c3-4.2,6.9-7.6,11.4-10c15.6-8.2,36.4-1.1,46.7,13.2c10.4,14.3,11.6,33.7,6.9,50.7
	c-4.4,14.5-11.3,28.1-20.3,40.2c0.8,1.1,1.6,2.2,2.4,3.3c14.2,20.1,26.4,41.6,36.4,64.1c-1.5-24.7,2.8-49.5,12.7-72.2
	c9.9-21.1,27.5-38.5,43.2-56.5c18.8-21.6,54.7-10.1,56.5,18.4c0,0.3,0,0.6,0.1,0.8c-2.2,1.1-4.5,2.3-6.6,3.6
	c-7.5,4.5-9.9,14.2-5.4,21.6c2.3,3.8,6,6.4,10.4,7.3l0.3,0.1c-1.1,7.9-2.9,15.6-5.2,23.2c-13.5,42.9-44.3,78.1-85,97.3
	c-1.3,0.6-2.6,1.2-3.9,1.8c9.6,31.9,15,64.9,16.1,98.3c0.6,19.7-0.4,39.3-3,58.8l0.1-0.7c5.2-21.6,17.8-40.7,35.5-54.1
	c26.3-19.6,62.3-25.6,90.4-41c8.6-5,19.7-2,24.7,6.6c2.1,3.7,2.9,8,2.1,12.3c0,0.2-0.1,0.5-0.1,0.7c-4.1,1.5-8.2,3.2-12.1,5.2
	c-2.2,1.1-4.5,2.3-6.6,3.6c-7.5,4.5-9.9,14.2-5.4,21.6c2.3,3.8,6,6.4,10.4,7.3l0.3,0.1c0.2,0,0.4,0.1,0.7,0.1
	c-7.7,16.3-18.2,31.1-30.9,43.8c-31.8,31.1-75,47.7-119.4,45.9l0,0c-7.2,25.6-17,50.5-29.3,74.1l-92.1-4.3c-0.3-1-0.5-2.1-0.8-3.1
	c8.5,0.9,17.1,0.8,25.6-0.3c-6.4-8.7-12.9-17.5-19.3-26.2c-0.1-0.2-0.3-0.3-0.4-0.5c-3.3-4.5-6.6-8.9-9.8-13.3l0,0
	C775.1,663.1,777.3,650.1,781,637.5L781,637.5z"/>
</svg>
