<?xml version="1.0" encoding="utf-8"?>
<!-- Generator: Adobe Illustrator 24.1.0, SVG Export Plug-In . SVG Version: 6.00 Build 0)  -->
<svg version="1.1" id="Layer_1" xmlns="http://www.w3.org/2000/svg" xmlns:xlink="http://www.w3.org/1999/xlink" x="0px" y="0px"
	 viewBox="0 0 1920 1080" style="enable-background:new 0 0 1920 1080;" xml:space="preserve">
<style type="text/css">
	.st0{fill:#6366F1;stroke:#6366F1;stroke-miterlimit:10;}
	.st1{fill:#6366F1;stroke:#000000;stroke-miterlimit:10;}
</style>
<path class="st0" d="M729.5,0.5c3.3,19.12,11.65,51.29,36,81c31.91,38.93,74.09,52.65,117,66c34.24,10.65,47.84,10.07,116,21
	c67.8,10.87,101.69,16.31,129,24c97.85,27.56,183.52,86.51,205,137c17.38,40.86,17.26,82.44,17.26,82.44
	c-0.02,4.09-0.16,7.34-0.26,9.56c-4.19,89.4-67.35,122.31-77,231c-1.34,15.04-3.17,37.43,2,66c0,0,3.4,18.79,16.1,46.57
	c3.53,7.31,9.44,18.9,17.79,32.46c23.77,34.33,53.59,69.05,91.11,100.97c192.86,164.05,449.03,134.74,521,124
	c0-340.67,0-681.33,0-1022C1523.5,0.5,1126.5,0.5,729.5,0.5z"/>
<path class="st1" d="M1164.5,781.5"/>
<path class="st0" d="M1745.5,1115.5"/>
<path class="st0" d="M884.5,1105.5"/>
</svg>
