<?xml version="1.0" encoding="utf-8"?>
<!-- Generator: Adobe Illustrator 24.1.0, SVG Export Plug-In . SVG Version: 6.00 Build 0)  -->
<svg version="1.1" id="Layer_1" xmlns="http://www.w3.org/2000/svg" xmlns:xlink="http://www.w3.org/1999/xlink" x="0px" y="0px"
	 viewBox="0 0 1920 1080" style="enable-background:new 0 0 1920 1080;" xml:space="preserve">
<style type="text/css">
	.st0{fill:#E9E9F0;stroke:url(#SVGID_1_);stroke-miterlimit:10;}
</style>
<linearGradient id="SVGID_1_" gradientUnits="userSpaceOnUse" x1="560.8307" y1="540.1269" x2="1358.8312" y2="540.1269">
	<stop  offset="0" style="stop-color:#FFFFFF"/>
	<stop  offset="1" style="stop-color:#FFFFFF"/>
</linearGradient>
<path class="st0" d="M1358.3,617.4c-18.3-9.3-46.5,20.1-46.5,20.1s-48.2,60.9-124.6,1.5s-125.4,0-125.4,0s-46.9,47.8-125,0
	s-125.4,0-125.4,0s-53.6,51.7-125,0s-125,0-125,0l0.1-197.3c0,0,53.6-51.7,125,0s125,0,125,0s47.3-47.8,125.4,0s125,0,125,0
	s49-59.4,125.4,0s124.6-1.5,124.6-1.5s28.2-29.3,46.5-20.1L1358.3,617.4z"/>
</svg>
