<?xml version="1.0" encoding="utf-8"?>
<!-- Generator: Adobe Illustrator 24.1.0, SVG Export Plug-In . SVG Version: 6.00 Build 0)  -->
<svg version="1.1" id="Layer_1" xmlns="http://www.w3.org/2000/svg" xmlns:xlink="http://www.w3.org/1999/xlink" x="0px" y="0px"
	 viewBox="0 0 1366 768" style="enable-background:new 0 0 1366 768;" xml:space="preserve">
<style type="text/css">
	.st0{fill:#FFFFFF;stroke:#000000;stroke-miterlimit:10;}
	.st1{fill:url(#SVGID_1_);stroke:#2545BA;stroke-miterlimit:10;}
	.st2{opacity:0.3;fill:url(#SVGID_2_);stroke:#2545BA;stroke-miterlimit:10;}
	.st3{opacity:0.3;fill:url(#SVGID_3_);stroke:#2545BA;stroke-miterlimit:10;}
	.st4{opacity:0.3;fill:url(#SVGID_4_);stroke:#2545BA;stroke-miterlimit:10;}
</style>
<path class="st0" d="M1247.5,591.5"/>
<linearGradient id="SVGID_1_" gradientUnits="userSpaceOnUse" x1="667.2902" y1="381.6353" x2="1071.4646" y2="381.6353" gradientTransform="matrix(1.0316 1.834508e-02 1.834508e-02 1.0551 -36.1909 -34.347)">
	<stop  offset="0" style="stop-color:#43387A"/>
	<stop  offset="1" style="stop-color:#6366F1"/>
</linearGradient>
<path class="st1" d="M1070.8,526.9L870.2,644.6c-7,4.1-15.7,1.3-19.5-6.1l-191.9-376c-3.8-7.5-1.3-16.8,5.7-20.9l200.6-117.7
	c7-4.1,15.7-1.3,19.5,6.1l191.9,376C1080.3,513.5,1077.8,522.8,1070.8,526.9z"/>
<linearGradient id="SVGID_2_" gradientUnits="userSpaceOnUse" x1="716.6246" y1="241.7784" x2="850.4116" y2="241.7784" gradientTransform="matrix(0.8871 -0.4617 0.4617 0.8871 -30.5881 393.9733)">
	<stop  offset="0" style="stop-color:#FFFFFF"/>
	<stop  offset="1" style="stop-color:#FFFFFF"/>
</linearGradient>
<polygon class="st2" points="819.9,249.9 728.7,300.7 732.2,243.6 823.4,192.7 "/>
<linearGradient id="SVGID_3_" gradientUnits="userSpaceOnUse" x1="682.9099" y1="278.396" x2="816.6968" y2="278.396" gradientTransform="matrix(0.8871 -0.4617 0.4617 0.8871 -30.5881 393.9733)">
	<stop  offset="0" style="stop-color:#FFFFFF"/>
	<stop  offset="1" style="stop-color:#FFFFFF"/>
</linearGradient>
<polygon class="st3" points="806.9,297.9 715.7,348.8 719.2,291.6 810.4,240.8 "/>
<linearGradient id="SVGID_4_" gradientUnits="userSpaceOnUse" x1="731.798" y1="371.2905" x2="865.585" y2="371.2905" gradientTransform="matrix(0.8871 -0.4617 0.4617 0.8871 -30.5881 393.9733)">
	<stop  offset="0" style="stop-color:#FFFFFF"/>
	<stop  offset="1" style="stop-color:#FFFFFF"/>
</linearGradient>
<polygon class="st4" points="893.1,357.7 802,408.6 805.5,351.5 896.6,300.6 "/>
</svg>
