<?xml version="1.0" encoding="utf-8"?>
<!-- Generator: Adobe Illustrator 24.1.0, SVG Export Plug-In . SVG Version: 6.00 Build 0)  -->
<svg version="1.1" id="Layer_1" xmlns="http://www.w3.org/2000/svg" xmlns:xlink="http://www.w3.org/1999/xlink" x="0px" y="0px"
	 viewBox="0 0 750 500" style="enable-background:new 0 0 750 500;" xml:space="preserve">
<style type="text/css">
	.st0{fill:none;stroke:#263238;stroke-linecap:round;stroke-linejoin:round;}
	.st1{fill:none;stroke:#263238;stroke-miterlimit:10;}
	.st2{fill:none;stroke:#263238;stroke-width:0.5;stroke-miterlimit:10;}
	.st3{fill:#FFFFFF;stroke:#263238;stroke-linecap:round;stroke-linejoin:round;}
	.st4{fill:#263238;stroke:#263238;stroke-linecap:round;stroke-linejoin:round;}
	.st5{fill:#6366F1;stroke:#263238;stroke-linecap:round;stroke-linejoin:round;}
	.st6{fill:#263238;}
	.st7{opacity:0.3;fill:#263238;enable-background:new    ;}
	.st8{fill:#FFFFFF;}
</style>
<g id="freepik--Clouds--inject-2">
	<path class="st0" d="M120.1,78.1c-1.4-1.5-3.9-2.8-8.1-2.9c-9.6-0.2-7,6.5-9.6,8.2s-3.3-0.9-5.8,0.7s-1.4,4.9-3.5,5.4
		s-4.9-2.1-7.5-0.5s-2.6,3-3.7,3s-3.5-0.9-4.9,0s-3,2.1-3,2.1h25"/>
	<path class="st0" d="M122.8,82.2l-0.7-0.3c-0.1-0.9-0.4-1.7-0.9-2.5"/>
	<path class="st0" d="M102.3,94H133c0,0,0.7-2.1-1.9-3.5s-3.7-0.2-4.7-1.4s1.9-3.6-2.5-6.2"/>
	<path class="st0" d="M408.6,153.1c-1.4-1.5-3.9-2.8-8.1-2.9c-9.5-0.2-7,6.5-9.5,8.1s-3.3-0.9-5.8,0.7s-1.4,4.9-3.5,5.4
		s-4.9-2.1-7.5-0.5s-2.6,3-3.7,3s-3.5-0.9-4.9,0s-3,2.1-3,2.1h25"/>
	<path class="st0" d="M411.3,157.3l-0.7-0.3c-0.1-0.9-0.4-1.7-0.9-2.5"/>
	<path class="st0" d="M390.8,169.1h30.7c0,0,0.7-2.1-1.9-3.5s-3.7-0.2-4.7-1.4s1.9-3.6-2.5-6.2"/>
	<path class="st0" d="M612.3,49.5c-2.5-2.6-7-5.1-14.6-5.3C580.4,43.8,585,56,580.4,58.9s-5.9-1.7-10.5,1.3s-2.5,8.8-6.3,9.7
		s-8.8-3.8-13.4-0.8s-4.6,5.5-6.7,5.5s-6.3-1.7-8.8,0s-5.5,3.8-5.5,3.8h45.1"/>
	<path class="st0" d="M617,57c-0.4-0.2-0.8-0.4-1.3-0.6c-0.2-1.6-0.7-3.1-1.5-4.4"/>
	<path class="st0" d="M580,78.2h55.4c0,0,1.3-3.8-3.4-6.3s-6.7-0.4-8.4-2.5c-1.5-1.9,3.3-6.4-4.5-11.2"/>
	<path class="st0" d="M278.1,94.1H339c0,0,2.1-6.2-5.5-10.4s-11.1-0.7-13.8-4.2s7.6-12.5-13.1-21.5c0,0-1.4-19.4-29.8-20.1
		c-12.2-0.3-17.8,3.3-20.7,7.8"/>
	<line class="st0" x1="259.5" y1="94.1" x2="269.7" y2="94.1"/>
	<path class="st0" d="M252.3,55.4c-0.9,3-1.8,5.5-3.9,6.8c-7.6,4.8-9.7-2.8-17.3,2.1s-4.1,14.5-10.4,15.9s-14.5-6.2-22.1-1.4
		s-7.6,9-11.1,9s-10.4-2.8-14.5,0s-9,6.2-9,6.2h77.8"/>
</g>
<g id="freepik--Arrows--inject-2">
	<polyline class="st0" points="658.4,267 694,194.9 704.7,200.3 702.2,160.4 669,182.6 679.7,187.9 644,259.9 	"/>
	<polyline class="st0" points="641,157.6 663.4,112.2 670.2,115.5 668.6,90.4 647.7,104.4 654.4,107.7 631.9,153.1 	"/>
</g>
<g id="freepik--Target--inject-2">
	<path class="st1" d="M410.8,79.5C421,56.3,448,45.6,471.3,55.7c23.2,10.1,33.9,37.2,23.8,60.4s-37.2,33.9-60.4,23.8
		c-22.4-9.8-33.3-35.4-24.6-58.3"/>
	<path class="st2" d="M410.3,79.3c10.2-23.5,37.6-34.3,61.1-24.1c23.5,10.2,34.3,37.6,24.1,61.1s-37.6,34.3-61.1,24.1
		c-22.7-9.9-33.7-35.9-24.9-59"/>
	<path class="st1" d="M422.5,83.9c7.8-17.2,28-24.8,45.2-17c17.2,7.8,24.8,28,17,45.2s-28,24.8-45.2,17
		c-16.4-7.4-24.2-26.3-17.9-43.1"/>
	<path class="st2" d="M421.9,83.7c7.9-17.3,28.2-24.9,45.5-17.1c17.3,7.9,24.9,28.2,17.1,45.5c-7.9,17.3-28.2,24.9-45.5,17.1
		c-12.3-5.6-20.2-17.8-20.2-31.3c0-4.2,0.7-8.3,2.2-12.2"/>
	<path class="st1" d="M437.3,89.5L437.3,89.5c4.6-8.7,15.4-12,24.1-7.4c8.7,4.6,12,15.4,7.4,24.1s-15.4,12-24.1,7.4
		c-7.9-4.2-11.5-13.7-8.3-22.1v-0.1"/>
	<path class="st2" d="M436.5,89.7l0.2-0.4l0,0c4.8-9.1,16-12.6,25.1-7.8c9.1,4.8,12.6,16,7.8,25.1c-4.8,9.1-16,12.6-25.1,7.8
		c-6.1-3.2-10-9.6-10-16.5c0-2.2,0.4-4.5,1.2-6.6"/>
	<path class="st1" d="M437.6,89.6h-0.1l-0.1-0.1l-0.5-0.2l0,0l-14.3-5.4l-0.5-0.2l-11.1-4.2l-0.5-0.2l-17.9-6.8l0.9-6.6
		c0-0.2-0.1-0.5-0.3-0.6L378.8,59c-0.3-0.1-0.6,0-0.8,0.3c-0.1,0.1-0.1,0.3,0,0.4l2.9,8.5l-2.1-0.8c-0.6-0.3-1.2,0-1.5,0.6
		c-0.3,0.6,0,1.2,0.6,1.5c0,0,0.1,0,0.1,0l2.2,0.8l-6.6,5.1c-0.2,0.1-0.3,0.4-0.2,0.6c0.1,0.2,0.2,0.4,0.5,0.4l15.9,2.4h0.1
		c0.2,0,0.4-0.1,0.5-0.4l1.5-3.8l17.6,6.7l0.5,0.2l11.1,4.2l0.5,0.2l14.3,5.4l0.5,0.2l0.4,0.2"/>
	<path class="st1" d="M437.3,89.5h0.1h0.1l10.2,3.8l1.1-3.4c0.2-0.5,0.6-0.8,1.1-0.8l0,0c0.5,0,0.9,0.3,1.1,0.8l2,6.6
		c0.2,0.5-0.1,1.1-0.6,1.3l-5.1,2.5c-0.2,0.1-0.3,0.1-0.5,0.1c-0.3,0-0.5-0.1-0.7-0.3c-0.3-0.3-0.5-0.8-0.3-1.2l1.2-3.6l-10.2-3.9
		c-0.1-0.1-0.3-0.1-0.4-0.3"/>
</g>
<g id="freepik--Gears--inject-2">
	<path class="st0" d="M152.4,208.5l9,2l2.1-9.1l-8.6-2c0-0.3,0-0.5,0-0.8c0-2.8-0.6-5.5-1.6-8.1l7-5.6l-5.8-7.3l-6.7,5.4
		c-2.3-2-5.1-3.5-8.1-4.3V170h-9.4v8.4c-3.1,0.6-6,1.9-8.5,3.8l-6.8-5.4l-5.8,7.3l6.6,5.3c-1.4,2.8-2.2,5.8-2.2,8.9l-8.6,2l2.1,9.1
		l8.5-1.9c1.3,2.7,3.2,5.2,5.5,7.1l-4,8.2l8.4,4.1l3.9-8.1c2.9,0.7,5.9,0.8,8.8,0.2l4,8.4l8.4-4.1l-3.9-8.1
		C149,213.4,151,211.1,152.4,208.5z M125,198.6c0-5.1,4.1-9.2,9.2-9.2s9.2,4.1,9.2,9.2s-4.1,9.2-9.2,9.2h0
		C129.1,207.8,125,203.7,125,198.6z"/>
	<path class="st0" d="M698.1,301.6l6.1,1.4l1.4-6.2l-5.8-1.3c0-0.2,0-0.4,0-0.5c0-1.9-0.4-3.7-1.1-5.5l4.7-3.8l-4-5l-4.4,3.7
		c-1.6-1.4-3.5-2.4-5.5-2.9v-5.9h-6.4v5.7c-2.1,0.4-4.1,1.3-5.8,2.6l-4.6-3.7l-4,5l4.5,3.6c-0.9,1.9-1.5,3.9-1.5,6L666,296l1.4,6.2
		l5.8-1.3c0.9,1.9,2.1,3.5,3.7,4.8l-2.7,5.6l5.7,2.8l2.6-5.5c1.1,0.3,2.2,0.4,3.3,0.4c0.9,0,1.8-0.1,2.7-0.3l2.7,5.7l5.7-2.8
		l-2.7-5.5C695.9,304.9,697.2,303.3,698.1,301.6z M679.6,295c0-3.4,2.8-6.2,6.2-6.2c3.4,0,6.2,2.8,6.2,6.2s-2.8,6.2-6.2,6.2l0,0
		C682.4,301.2,679.6,298.4,679.6,295z"/>
	<path class="st0" d="M169.6,163.6l7.4,1.7l1.7-7.5l-7.1-1.6c0-0.2,0-0.4,0-0.6c0-2.3-0.4-4.5-1.3-6.6l5.8-4.6l-4.8-6l-5.5,4.4
		c-1.9-1.7-4.2-2.9-6.7-3.5v-7.1h-7.7v6.9c-2.5,0.5-4.9,1.6-7,3.1l-5.6-4.4l-4.8,6l5.4,4.3c-1.1,2.3-1.8,4.8-1.8,7.3l-7.1,1.6
		l1.7,7.5l7-1.6c1.1,2.2,2.6,4.2,4.5,5.8l-3.3,6.7l6.9,3.3l3.2-6.6c1.3,0.3,2.7,0.5,4,0.5c1.1,0,2.2-0.1,3.2-0.3l3.3,6.9l6.9-3.3
		l-3.2-6.7C166.9,167.7,168.5,165.8,169.6,163.6z M147.2,155.6c0-4.2,3.4-7.5,7.5-7.5c4.2,0,7.5,3.4,7.5,7.5c0,4.2-3.4,7.5-7.5,7.5
		c0,0,0,0,0,0C150.5,163.2,147.2,159.8,147.2,155.6C147.2,155.6,147.2,155.6,147.2,155.6L147.2,155.6z"/>
</g>
<g id="freepik--character-3--inject-2">
	<path class="st3" d="M569.8,419.5c0,0-6.2,4-7.5,5s-7,2.2-6.2,4s7.9,2.7,9.9,2.7s9.7-4,11.7-4.5s2-2.7,1.2-4.5
		c-0.8-1.5-1.8-2.9-3-4.2l-5.2,1.5L569.8,419.5z"/>
	<path class="st3" d="M640.2,418.9c0,0-4.7,5.7-5.5,7s-5,3.2-5,5.2s7.2,1,9.4,0.7c2.7-0.4,5.1-2.1,6.5-4.5c1.3-2.5,2.2-7.7,0.8-9.7
		S640.2,418.9,640.2,418.9z"/>
	<path class="st4" d="M580.7,308.9l-0.2,1.5l-1.5,11.9c0,0-13.8,19.5-18.8,29.6c-2.6,5.2-6.2,11.3-5.7,13.1l15.3,54.5
		c1.2,0.6,2.4,0.9,3.7,1c1.2,0,2.4-0.3,3.5-0.7l-0.7-50.5l21.3-23.4l2.7,3.5c0,0,7.1,25.1,10,29s28.7,41.2,28.7,41.2
		c1.3,0.6,2.8,1,4.2,1c2.2,0,3.2-3,3.2-3s-18.5-45.6-19-47.1s-0.1-38-0.1-38l-3-17.6l-3.5-11.2c0,0-6.5,1.7-17.4,1.2
		s-21.3-1.2-21.3-1.2L580.7,308.9z"/>
	<path class="st4" d="M551.4,189.3c0,0-3.5,5.2-4,8.4c-0.2,2.1,0.4,4.3,1.7,6l-2,4.2c0,0,6.7,13.6,10.7,19.9s10.4,16.6,14.4,18.6
		s11.7,10.2,11.7,10.2l4.5-9.7c0,0-13.1-16.4-21.3-27.8c-5-6.9-9.5-14.1-13.7-21.6c0-2.2,0.2-4.3,0.5-6.4c0.3-1.9,0.5-3.8,0.5-5.7
		L551.4,189.3z"/>
	<path class="st3" d="M591.6,243.2c0,0-10.2,12.2-12.2,20.1c-2,7.9,0.5,32.5,0.5,36s-2,7.2,0.8,9.7s10.9,1.2,13.9,1s17.1,0,21.3-1.3
		s6.2-3,6.2-6s-5.2-26.5-6-30.5s2-17.6-1.7-24.1S598.8,240.7,591.6,243.2z"/>
	<path class="st4" d="M589.8,244.9c0,0-12.4,12.6-14.2,19.4s-7.9,19.6-9.9,25.3c-1.7,4.5-3.7,8.9-6,13.1l2.2,8.9l5.7-6.2
		c0,0,5.7-19.6,8.7-27.8s3.5-15.9,4-18.1S589.8,244.9,589.8,244.9z"/>
	<path class="st5" d="M591.6,244.2c0,0-7.5,20.4-7.2,21.8s3.7,56.6,3.7,56.6s3.5,8.4,19.1,7.2s27.8-3.5,27.8-3.5s-4.7-18.6-8.9-27
		s-6.5-13.4-6.5-17.4s-1.7-30.5-2.7-34.7c-0.4-2.2-1.2-4.3-2.2-6.2l-1.5-1.2L591.6,244.2z"/>
	<path class="st5" d="M585.6,286.4l12.2,29.8c0,0-5,2-6.7,3.7c-1,1-2,1.9-3,2.7L585.6,286.4z"/>
	<path class="st3" d="M601.8,204.2c0,0-7.7,6.2-7.7,7.9s-2,4.2-2,4.2s-4,0.5-4.2,2s1.2,4.5,1.2,4.5s-2.5,8.4-1.5,10.4
		s8.2,2.2,8.2,2.2l0.3,5.5l17.1-2.7l-0.3-4.2c0,0,9.2-9.9,13.7-14.1s-1.2-11.7-6.7-17.4s-18.4-5.7-19.4-2.7
		C599.9,201.4,600.4,203.2,601.8,204.2z"/>
	<path class="st0" d="M595.3,213.1c1.1-0.6,2.4-0.5,3.5,0.3"/>
	<path class="st6" d="M595.6,216.7c-0.2,0.8-0.1,1.5,0.3,1.6s0.8-0.5,1-1.3s0.1-1.5-0.3-1.6S595.8,215.9,595.6,216.7z"/>
	<path class="st4" d="M619.9,202.5c-5.5-5.7-18.4-5.7-19.4-2.7c-0.6,1.6-0.1,3.4,1.2,4.5c0,0,8.4,1,7.2,3.2s-5.5,2.2-4.5,3.7
		s4.5,4.7,3.2,5.5s-2,2.2-1.2,2.7s2-0.8,5-0.3s2.2,7.4-0.5,8.4s-4-0.3,1,4.2c0.6,0.5,1.3,0.9,2,1.2c2.5-2.7,9.1-9.7,12.7-13.1
		C631,215.6,625.3,208.2,619.9,202.5z"/>
	<polyline class="st0" points="609,228.3 604.5,227.3 601.5,229.5 	"/>
	<polygon class="st5" points="614.2,235.2 591.3,241.4 589.8,246.1 616.9,241.2 	"/>
	<path class="st3" d="M556.6,196.8l-0.8-5.2c0,0,2.2-7.2,2.2-8.9s-1.7-5.7-1.7-6.7s-1.5-2.5-2-0.5s-1.5,9.4-1.5,9.4s-3.2,5.5-3,8.2
		s2.7,8.4,2.7,8.4l4.5-2.7L556.6,196.8z"/>
	<polygon class="st3" points="559.8,200.7 556.6,196.8 550.6,201.5 554.1,207.4 	"/>
	<path class="st5" d="M613.9,251.9c-1.6-4.2-4.7-7.6-8.7-9.7c-4.2-2.1-8.6-3.7-13.2-5l-33.8-38.5l-6.7,6.7c0,0,14.2,29.5,16.9,34.5
		s34.2,39,34.2,39"/>
</g>
<g id="freepik--character-2--inject-2">
	<path class="st3" d="M319.7,414.4c0,0-4.8,6.8-5.8,10.5s-0.8,8.8,1.8,8.3s8.3-6.8,8.8-8.5s2.3-9.8,2.3-9.8l-6-0.5H319.7z"/>
	<path class="st3" d="M405.4,418.7c0,0,0,7,1.5,8s11.8,5.3,14.8,5.5s4-0.3,2.3-3.8s-11.8-10.3-11.8-10.3L405.4,418.7z"/>
	<path class="st4" d="M343.9,300.4l-5.8,24.3l-3,45.5c0,0-11,19-12,26s-4.3,21.3-4.3,21.3s4.5,2,5.3,2s9.8-13,14.8-18
		s16.3-26.5,16.8-27.5s8.5-32.8,9-33.8s3.5-2.3,3.5-2.3s15.1,21.6,16.9,23.5c2.9,2.9,7.6,10.3,7.6,10.3s10.3,40.8,11,42.8
		c0.5,1.9,0.9,3.8,1,5.8l9.3,2c0,0,0.8-27.3,0.3-33.8s-2.5-20.5-2.5-20.5s-15.3-41.8-16-42.8s-5.3-11-5.3-11l-1.5-9.5
		c-8.8,2.5-18,2.8-27,1C346.9,302.7,343.9,300.4,343.9,300.4z"/>
	<path class="st3" d="M358.1,232.6c-5.4,3.6-11.1,6.9-16.9,9.8c-7.7,3.7-9.5,7.3-9.5,9.2s-6.7,32.2-6.2,33.8s5,4.2,7.8,4.8
		s6.8-0.2,7.7-0.8s3.5-12,3.5-12s-1.5,20.5-2.2,23.2s5.5,9.5,11.5,10.7s22.2,1.2,26.3-0.2s7-1.7,8.3-4.2s2.2-20.3,2.3-21.5
		s1.5-11.8,1.5-11.8l4.3,14.7l1.7,3c0,0,0.8-1.8,6-4.8s6.8-3.3,6.8-3.3s-3-9.8-4.8-15.5s-3.7-16-6-20.2s-6.5-6-12.2-9.5
		s-14-5.5-15-6S363.3,230.7,358.1,232.6z"/>
	<line class="st0" x1="344.5" y1="277.4" x2="348" y2="265.3"/>
	<line class="st0" x1="394.8" y1="262.2" x2="395.4" y2="259.5"/>
	<line class="st0" x1="392.4" y1="273.6" x2="394.3" y2="264.7"/>
	<polygon class="st5" points="362.4,251.9 365.9,256.9 367.9,261.4 362.9,302.9 369.9,309.4 375.4,302.2 370.4,261.9 373.4,256.2 
		377.4,249.7 370.2,245.4 	"/>
	<path class="st3" d="M360,230.9c0,0-3.5,0.9-4.2,3s0.3,14.8,1.4,17.5c0.9,2,1.9,4,3,5.9c0,0,9.3-5.9,10.9-6.2s11.2,4.7,11.2,4.7
		s0.3-5.9-3-14.2s-11-13-14.4-13.3C362.9,228.1,361,229.1,360,230.9z"/>
	<path class="st3" d="M358.6,229.8c0,0,0.5,5.3,0.9,8.9s6,15.6,8,17.2c2,1.7,6-3.8,7.4-6.2c0.6-1.1,1.3-2.2,2-3.2
		c0,0-9.7-4.7-12.7-10.1s-2.7-8-4.1-8.2S358.6,229.8,358.6,229.8z"/>
	<path class="st4" d="M363.5,242.8l7.4,12c0,0,3.4-3.2,4-5S363.5,242.8,363.5,242.8z"/>
	<path class="st3" d="M355.7,221.3c-0.6,1.7-0.9,3.6-0.7,5.4c0.2,3.3,2.1,5.7,3.1,5.9c0.9,0.2,1.7,0.2,2.6,0.2c0,0,0.2,5.9,2.8,9.9
		s11.3,9.7,13.9,6.9s5.9-14.2,7.1-19.6c0.7-3.5,1.3-7.1,1.6-10.6l-17.5-4l-8.3-1.9L355.7,221.3z"/>
	<path class="st4" d="M365.9,219c0,0,1,3.1-0.9,5s-2.6,1.9-2.6,1.9s0.5,3.1-0.2,3.1c-1.3,0-2.3-1-2.4-2.3c0,0,0-0.1,0-0.1
		c-0.1-1.3-0.5-2.5-1.2-3.5l-2.8-1.6c-0.7-3.4-0.6-7,0.2-10.4c1.4-5.4,11.6-7.6,20.1-7.3s10.6,11.1,10.6,11.1
		c1.8,0.8,3.5,1.8,5.2,2.8c0.7,0.7,1.4,2.4-2.6,4.5s-11.1,2.8-15.4,1.2C371.1,222.1,368.4,220.7,365.9,219z"/>
	<path class="st6" d="M371.6,231.6c-0.3,0.9-0.9,1.5-1.3,1.4s-0.6-1-0.3-1.8s0.9-1.5,1.3-1.3S371.9,230.7,371.6,231.6z"/>
	<path class="st6" d="M381.4,232.3c-0.3,0.9-0.9,1.5-1.3,1.3s-0.6-1-0.3-1.8s0.9-1.5,1.3-1.4S381.7,231.4,381.4,232.3z"/>
	<path class="st0" d="M368,228.6c0,0,1.5-2.3,5-1.4"/>
	<path class="st0" d="M378.7,228.3c1.2-1.2,3.2-1.1,4.4,0.1c0.1,0.1,0.1,0.1,0.2,0.2"/>
	<path class="st4" d="M374,239.2c-1.4,0-2.9,0.3-4.2,0.8c-2.3,0.8-5.6-0.1-4.1,1.8s4.4,2.6,7.4,2.6s5.8-0.1,6.7-1.5s2.3-2.7,1.2-2.9
		s-5.1-0.4-5.6-0.4C374.9,239.4,374.4,239.3,374,239.2z"/>
	<path class="st3" d="M378,230.4c0,0-0.3,8.3-0.6,9.8c-0.1,1.1-1.1,1.9-2.2,1.7c-0.6-0.1-1.1-0.4-1.4-0.8c-1-1.3-1.8-2.6-2.4-4.1"/>
	<path class="st3" d="M410.2,279.4c0,0-7.2,1.2-10.2,3.2s-4,3.7-3.3,5.7c0.6,1.9,1.5,3.7,2.5,5.4c1.3,2,3.5,0.5,3.5,0.5
		c-0.8-0.9-0.8-2.3,0.1-3.1c0,0,0.1-0.1,0.1-0.1c1.8-1.8,8.3-4.3,8.3-4.3h2.3c1,0,0-2.8-0.8-4S411.9,278.9,410.2,279.4z"/>
	<path class="st3" d="M325.4,291.4c0,0,0,7.3,0.5,14.5s6.5,27.5,6.5,27.5l6-1.5c0,0-0.3-19-0.3-25s-0.3-13.3-0.3-13.3L325.4,291.4z"
		/>
	<path class="st3" d="M324.4,286.4c0.1-1,1-1.7,2-1.6c0.3,0,0.6,0.2,0.8,0.3c1.6,1.1,3.5,1.8,5.5,2c2.4,0.4,4.8,0.5,7.3,0.2
		c0.8-0.1,1.5,0.5,1.6,1.3c0,0.2,0,0.4,0,0.6c-0.6,2.1-1.6,4.9-2.3,5.6c-1.3,1.3-7.3,1.3-10.3,0.3s-3.8-1.8-4.5-4.3
		C324.1,289.4,324.1,287.9,324.4,286.4z"/>
	<path class="st3" d="M440.9,310.9c0.6-1.8,1.6-3.5,3-4.8c2.3-2,3.3-2.5,1-2.8s-5,3.3-5,3.3L440.9,310.9z"/>
	<path class="st3" d="M402.7,294.2c1.5,1.5,3.3,2.8,5.3,3.8c3.8,2,22.5,12.3,22.5,12.3l6.8-4c0,0-10.5-4.8-15.3-9.8
		s-8.5-9.8-8.5-9.8S400.9,287.4,402.7,294.2z"/>
	<path class="st3" d="M427.2,307.4c0,0,1,5.3,2.8,5.5s10.3-0.5,11-2s1.3-6.8,0-7S427.2,307.4,427.2,307.4z"/>
	<path class="st3" d="M333.2,339.5c-1.2-1.5-2.7-2.7-4.5-3.4c-2.8-1.1-3.9-1.2-1.9-2.2s5.8,1.3,5.8,1.3L333.2,339.5z"/>
	<path class="st3" d="M344.8,331.4c0,0,0.9,5.3-0.6,6.1s-9.8,3.1-11,2s-3.6-5.9-2.5-6.5S344.8,331.4,344.8,331.4z"/>
</g>
<g id="freepik--Plants--inject-2">
	<path class="st6" d="M92,370.9c0,0,0.9-3.1,0.9-3.4c0.3-2.4-0.4-7.2-2.8-8.4c-1.6-0.7-3.5,0-4.2,1.6c0,0.1-0.1,0.2-0.1,0.3
		c-0.7,1.8,0.2,4,1.2,5.5C88,368.4,92,370.9,92,370.9z"/>
	<path class="st6" d="M44.1,369.9c1.9,0.9,6.7,0.7,6.7,0.7s-1-3.1-1.1-3.3c-1-2.2-4.3-5.8-7-5.4c-1.7,0.3-2.9,1.9-2.6,3.7
		c0,0.1,0,0.2,0.1,0.3C40.6,367.8,42.5,369.1,44.1,369.9z"/>
	<path class="st6" d="M45.8,383.6c2,0.3,6.2-0.9,6.6-1c0.7,2.4,1.5,4.8,2.6,7.1c0.6,1.4,1.2,2.7,1.8,4c-0.4-0.6-0.7-1.1-0.8-1.1
		c-1.6-1.8-5.7-4.4-8.2-3.4c-1.6,0.7-2.3,2.6-1.6,4.2c0,0.1,0.1,0.2,0.2,0.3c0.9,1.7,3.1,2.5,4.9,2.8s5.4-0.7,6.4-1
		c0.3,0.5,0.5,1,0.8,1.5c1.2,2.4,2.5,4.9,3.6,7.3c0.4,0.9,0.8,1.7,1.1,2.6c-0.3-0.5-0.6-0.9-0.7-1c-1.6-1.8-5.7-4.4-8.2-3.4
		c-1.6,0.7-2.3,2.6-1.6,4.2c0,0.1,0.1,0.2,0.1,0.3c0.9,1.7,3.1,2.5,4.9,2.8s5.1-0.6,6.2-0.9c0.3,0.9,0.7,1.8,1,2.6
		c0.2,0.6,0.4,1.2,0.6,1.8s0.3,1.2,0.5,1.8c0.3,1.2,0.6,2.3,0.8,3.5c0.2,0.8,0.3,1.5,0.5,2.3c-0.4-0.9-1.2-2.5-1.3-2.6
		c-1.3-2-5-5.2-7.6-4.6c-1.7,0.5-2.7,2.2-2.2,3.9c0,0.1,0.1,0.2,0.1,0.3c0.7,1.8,2.7,2.9,4.4,3.5c1.9,0.6,6.1,0,6.6,0
		c0.3,1.3,0.5,2.5,0.7,3.6c0.4,2.4,0.8,4.6,1,6.5h1.8c-0.3-1.9-0.7-4.2-1.2-6.8c-0.3-1.3-0.6-2.6-0.9-4c1.3-0.5,2.5-1.1,3.7-1.7
		c1.4,1.5,4.9,3.3,5.4,3.5c-0.5,1.2-1,2.3-1.4,3.4c-0.9,2.1-1.8,4-2.6,5.6h1.9c0.7-1.5,1.4-3.2,2.2-5c0.5-1.2,1-2.5,1.5-3.8
		c0.5,0.1,4.7,1,6.6,0.5c1.8-0.4,3.9-1.4,4.7-3.1c0.8-1.6,0.1-3.5-1.4-4.3c-0.1,0-0.2-0.1-0.3-0.1c-2.6-0.9-6.5,2-7.9,4
		c-0.1,0.1-0.9,1.5-1.3,2.3c0.2-0.5,0.4-1.1,0.6-1.6c0.4-1.1,0.8-2.2,1.2-3.4l0.5-1.8c0.2-0.6,0.3-1.2,0.5-1.9
		c0.3-1.5,0.6-3,0.9-4.5c1,0.4,4.4,1.6,6.3,1.4s4-0.8,5.1-2.4c1-1.4,0.7-3.4-0.8-4.4c-0.1-0.1-0.2-0.1-0.3-0.2
		c-2.4-1.2-6.7,1-8.4,2.7c-0.1,0.1-1.2,1.5-1.8,2.2c0.1-0.9,0.3-1.8,0.4-2.8c0.3-2.7,0.6-5.4,0.8-8.1c0.1-0.8,0.2-1.7,0.3-2.5
		c0.3,0.1,4.4,1.6,6.5,1.5c1.8-0.1,4.1-0.8,5.1-2.4c1-1.4,0.7-3.4-0.8-4.4c-0.1-0.1-0.2-0.1-0.3-0.2c-2.4-1.2-6.7,1-8.4,2.7
		c-0.1,0.1-1.7,2.1-2.1,2.6c0.2-1.8,0.4-3.6,0.7-5.4c0.4-2.4,0.9-4.8,1.5-7.2c0.2,0.1,4.4,1.7,6.5,1.5c1.8-0.1,4-0.8,5.1-2.4
		c1-1.4,0.7-3.4-0.8-4.4c-0.1-0.1-0.2-0.1-0.3-0.2c-2.4-1.2-6.7,1-8.4,2.7c-0.1,0.1-1.3,1.6-1.9,2.3l-0.1-0.1
		c0.7-2.3,1.7-4.6,2.8-6.8c0.6-1.2,1.3-2.3,1.9-3.4c0.8,0.4,4.3,2.1,6.2,2.2s4.1-0.3,5.3-1.8c1.2-1.3,1-3.3-0.3-4.5
		c-0.1-0.1-0.2-0.2-0.3-0.2c-2.2-1.5-6.8,0.3-8.7,1.8c-0.1,0.1-1,1-1.7,1.7c0.3-0.5,0.6-1,0.9-1.4c1.1-1.7,2.3-3.2,3.3-4.5
		c0.6-0.7,1.1-1.4,1.6-2c1,0,4.8-0.1,6.4-0.9s3.5-2.2,3.9-4.1c0.4-1.7-0.6-3.4-2.3-3.9c-0.1,0-0.2,0-0.3-0.1
		c-2.7-0.3-5.9,3.4-6.8,5.6c-0.1,0.2-1.1,3.3-1,3.3h0.1c-0.5,0.6-1.1,1.2-1.6,1.9c-1,1.3-2.2,2.8-3.4,4.4c-1.3,1.8-2.5,3.7-3.5,5.6
		c-1.2,2.2-2.2,4.4-3,6.8c0,0,0,0,0,0.1c0-0.8,0-3,0-3.2c-0.3-2.4-2.3-6.8-5-7.3c-1.7-0.3-3.4,0.9-3.6,2.6c0,0.1,0,0.2,0,0.4
		c-0.2,1.9,1.2,3.8,2.6,5c1.5,1.4,5.7,2.7,6,2.8c-0.7,2.4-1.3,4.8-1.7,7.3c-0.3,1.4-0.5,2.9-0.7,4.4c0-0.7,0-1.3,0-1.4
		c-0.3-2.4-2.3-6.8-5-7.3c-1.7-0.3-3.4,0.9-3.6,2.7c0,0.1,0,0.2,0,0.3c-0.2,1.9,1.2,3.8,2.6,5s4.9,2.4,5.9,2.7l-0.2,1.7
		c-0.3,2.7-0.6,5.4-1,8c-0.1,0.9-0.3,1.8-0.5,2.8c0-0.6,0-1.1,0-1.2c-0.3-2.4-2.3-6.8-5-7.3c-1.7-0.3-3.4,0.9-3.6,2.6
		c0,0.1,0,0.2,0,0.4c-0.2,1.9,1.2,3.8,2.6,5s4.6,2.3,5.7,2.6c-0.2,0.9-0.4,1.9-0.6,2.8c-0.2,0.6-0.3,1.2-0.5,1.8l-0.6,1.8
		c-0.4,1.1-0.8,2.3-1.2,3.3c-0.3,0.8-0.6,1.5-0.9,2.2c0.2-0.9,0.4-2.8,0.4-2.9c0-2.1-0.6-4.2-1.7-6c0-0.2,0-0.5,0-0.7
		c-0.2-1.7-1.8-3-3.6-2.8c-0.1,0-0.2,0-0.3,0.1c-2.6,0.7-4.3,5.3-4.4,7.7c0,0.1,0.1,1.7,0.2,2.7c-0.1-0.6-0.3-1.1-0.4-1.7
		c-0.3-1.2-0.6-2.3-0.9-3.5l-0.5-1.8c-0.2-0.6-0.4-1.2-0.6-1.8c-0.5-1.4-1.1-2.8-1.7-4.2c1-0.2,4.6-1.1,6-2.3s2.9-2.9,2.9-4.8
		c0-1.8-1.3-3.2-3.1-3.3c-0.1,0-0.3,0-0.4,0c-2.7,0.3-5,4.6-5.5,6.9c0,0.1-0.2,1.9-0.3,2.8c-0.4-0.8-0.8-1.7-1.2-2.5
		c-1.2-2.4-2.5-4.8-3.8-7.2c-0.4-0.7-0.8-1.5-1.2-2.2c0.4-0.1,4.6-1.1,6.2-2.3c1.4-1.1,2.9-2.9,2.9-4.8c0-1.8-1.3-3.2-3.1-3.3
		c-0.1,0-0.3,0-0.4,0c-2.7,0.3-5,4.6-5.5,6.9c0,0.2-0.3,2.7-0.3,3.3c-0.8-1.6-1.7-3.3-2.4-4.9c-1-2.2-1.9-4.5-2.6-6.8
		c0.2,0,4.6-1,6.3-2.3c1.4-1.1,2.9-2.9,2.9-4.8c0.1-1.8-1.3-3.2-3.1-3.3c-0.1,0-0.2,0-0.4,0c-2.7,0.3-5,4.6-5.5,6.9
		c0,0.2-0.2,2.1-0.3,3h-0.2c-0.7-2.4-1.1-4.8-1.4-7.2c-0.2-1.3-0.2-2.6-0.3-3.9c0.8-0.1,4.7-0.6,6.3-1.6s3.2-2.5,3.4-4.5
		c0.2-1.7-1-3.4-2.7-3.6c-0.1,0-0.2,0-0.3,0c-2.7,0-5.5,4-6.2,6.3c0,0.1-0.3,1.4-0.5,2.4c0-0.6,0-1.1,0-1.7c0-2,0.1-3.9,0.3-5.6
		c0.1-0.9,0.2-1.8,0.3-2.6c0.8-0.5,3.9-2.7,4.9-4.3s1.7-3.8,1-5.5c-0.6-1.7-2.4-2.5-4.1-1.9c-0.1,0-0.2,0.1-0.3,0.1
		c-2.4,1.2-3,6.1-2.6,8.4c0,0.2,0.9,3.4,1,3.3l0,0c-0.1,0.8-0.2,1.6-0.3,2.5c-0.2,1.6-0.3,3.5-0.4,5.6c-0.1,2.2,0,4.4,0.2,6.6
		c0.2,2.5,0.6,4.9,1.2,7.3v0.1c-0.4-0.7-1.7-2.5-1.8-2.6c-1.6-1.8-5.7-4.4-8.2-3.4c-1.6,0.7-2.3,2.6-1.6,4.2c0,0.1,0.1,0.2,0.2,0.3
		C41.8,382.5,44,383.3,45.8,383.6z"/>
	<path class="st7" d="M44.1,369.9c1.9,0.9,6.7,0.7,6.7,0.7s-1-3.1-1.1-3.3c-1-2.2-4.3-5.8-7-5.4c-1.7,0.3-2.9,1.9-2.6,3.7
		c0,0.1,0,0.2,0.1,0.3C40.6,367.8,42.5,369.1,44.1,369.9z"/>
	<path class="st7" d="M92,370.9c0,0,0.9-3.1,0.9-3.4c0.3-2.4-0.4-7.2-2.8-8.4c-1.6-0.7-3.5,0-4.2,1.6c0,0.1-0.1,0.2-0.1,0.3
		c-0.7,1.8,0.2,4,1.2,5.5C88,368.4,92,370.9,92,370.9z"/>
	<path class="st7" d="M45.8,383.6c2,0.3,6.2-0.9,6.6-1c0.7,2.4,1.5,4.8,2.6,7.1c0.6,1.4,1.2,2.7,1.8,4c-0.4-0.6-0.7-1.1-0.8-1.1
		c-1.6-1.8-5.7-4.4-8.2-3.4c-1.6,0.7-2.3,2.6-1.6,4.2c0,0.1,0.1,0.2,0.2,0.3c0.9,1.7,3.1,2.5,4.9,2.8s5.4-0.7,6.4-1
		c0.3,0.5,0.5,1,0.8,1.5c1.2,2.4,2.5,4.9,3.6,7.3c0.4,0.9,0.8,1.7,1.1,2.6c-0.3-0.5-0.6-0.9-0.7-1c-1.6-1.8-5.7-4.4-8.2-3.4
		c-1.6,0.7-2.3,2.6-1.6,4.2c0,0.1,0.1,0.2,0.1,0.3c0.9,1.7,3.1,2.5,4.9,2.8s5.1-0.6,6.2-0.9c0.3,0.9,0.7,1.8,1,2.6
		c0.2,0.6,0.4,1.2,0.6,1.8s0.3,1.2,0.5,1.8c0.3,1.2,0.6,2.3,0.8,3.5c0.2,0.8,0.3,1.5,0.5,2.3c-0.4-0.9-1.2-2.5-1.3-2.6
		c-1.3-2-5-5.2-7.6-4.6c-1.7,0.5-2.7,2.2-2.2,3.9c0,0.1,0.1,0.2,0.1,0.3c0.7,1.8,2.7,2.9,4.4,3.5c1.9,0.6,6.1,0,6.6,0
		c0.3,1.3,0.5,2.5,0.7,3.6c0.4,2.4,0.8,4.6,1,6.5h1.8c-0.3-1.9-0.7-4.2-1.2-6.8c-0.3-1.3-0.6-2.6-0.9-4c1.3-0.5,2.5-1.1,3.7-1.7
		c1.4,1.5,4.9,3.3,5.4,3.5c-0.5,1.2-1,2.3-1.4,3.4c-0.9,2.1-1.8,4-2.6,5.6h1.9c0.7-1.5,1.4-3.2,2.2-5c0.5-1.2,1-2.5,1.5-3.8
		c0.5,0.1,4.7,1,6.6,0.5c1.8-0.4,3.9-1.4,4.7-3.1c0.8-1.6,0.1-3.5-1.4-4.3c-0.1,0-0.2-0.1-0.3-0.1c-2.6-0.9-6.5,2-7.9,4
		c-0.1,0.1-0.9,1.5-1.3,2.3c0.2-0.5,0.4-1.1,0.6-1.6c0.4-1.1,0.8-2.2,1.2-3.4l0.5-1.8c0.2-0.6,0.3-1.2,0.5-1.9
		c0.3-1.5,0.6-3,0.9-4.5c1,0.4,4.4,1.6,6.3,1.4s4-0.8,5.1-2.4c1-1.4,0.7-3.4-0.8-4.4c-0.1-0.1-0.2-0.1-0.3-0.2
		c-2.4-1.2-6.7,1-8.4,2.7c-0.1,0.1-1.2,1.5-1.8,2.2c0.1-0.9,0.3-1.8,0.4-2.8c0.3-2.7,0.6-5.4,0.8-8.1c0.1-0.8,0.2-1.7,0.3-2.5
		c0.3,0.1,4.4,1.6,6.5,1.5c1.8-0.1,4.1-0.8,5.1-2.4c1-1.4,0.7-3.4-0.8-4.4c-0.1-0.1-0.2-0.1-0.3-0.2c-2.4-1.2-6.7,1-8.4,2.7
		c-0.1,0.1-1.7,2.1-2.1,2.6c0.2-1.8,0.4-3.6,0.7-5.4c0.4-2.4,0.9-4.8,1.5-7.2c0.2,0.1,4.4,1.7,6.5,1.5c1.8-0.1,4-0.8,5.1-2.4
		c1-1.4,0.7-3.4-0.8-4.4c-0.1-0.1-0.2-0.1-0.3-0.2c-2.4-1.2-6.7,1-8.4,2.7c-0.1,0.1-1.3,1.6-1.9,2.3l-0.1-0.1
		c0.7-2.3,1.7-4.6,2.8-6.8c0.6-1.2,1.3-2.3,1.9-3.4c0.8,0.4,4.3,2.1,6.2,2.2s4.1-0.3,5.3-1.8c1.2-1.3,1-3.3-0.3-4.5
		c-0.1-0.1-0.2-0.2-0.3-0.2c-2.2-1.5-6.8,0.3-8.7,1.8c-0.1,0.1-1,1-1.7,1.7c0.3-0.5,0.6-1,0.9-1.4c1.1-1.7,2.3-3.2,3.3-4.5
		c0.6-0.7,1.1-1.4,1.6-2c1,0,4.8-0.1,6.4-0.9s3.5-2.2,3.9-4.1c0.4-1.7-0.6-3.4-2.3-3.9c-0.1,0-0.2,0-0.3-0.1
		c-2.7-0.3-5.9,3.4-6.8,5.6c-0.1,0.2-1.1,3.3-1,3.3h0.1c-0.5,0.6-1.1,1.2-1.6,1.9c-1,1.3-2.2,2.8-3.4,4.4c-1.3,1.8-2.5,3.7-3.5,5.6
		c-1.2,2.2-2.2,4.4-3,6.8c0,0,0,0,0,0.1c0-0.8,0-3,0-3.2c-0.3-2.4-2.3-6.8-5-7.3c-1.7-0.3-3.4,0.9-3.6,2.6c0,0.1,0,0.2,0,0.4
		c-0.2,1.9,1.2,3.8,2.6,5c1.5,1.4,5.7,2.7,6,2.8c-0.7,2.4-1.3,4.8-1.7,7.3c-0.3,1.4-0.5,2.9-0.7,4.4c0-0.7,0-1.3,0-1.4
		c-0.3-2.4-2.3-6.8-5-7.3c-1.7-0.3-3.4,0.9-3.6,2.7c0,0.1,0,0.2,0,0.3c-0.2,1.9,1.2,3.8,2.6,5s4.9,2.4,5.9,2.7l-0.2,1.7
		c-0.3,2.7-0.6,5.4-1,8c-0.1,0.9-0.3,1.8-0.5,2.8c0-0.6,0-1.1,0-1.2c-0.3-2.4-2.3-6.8-5-7.3c-1.7-0.3-3.4,0.9-3.6,2.6
		c0,0.1,0,0.2,0,0.4c-0.2,1.9,1.2,3.8,2.6,5s4.6,2.3,5.7,2.6c-0.2,0.9-0.4,1.9-0.6,2.8c-0.2,0.6-0.3,1.2-0.5,1.8l-0.6,1.8
		c-0.4,1.1-0.8,2.3-1.2,3.3c-0.3,0.8-0.6,1.5-0.9,2.2c0.2-0.9,0.4-2.8,0.4-2.9c0-2.1-0.6-4.2-1.7-6c0-0.2,0-0.5,0-0.7
		c-0.2-1.7-1.8-3-3.6-2.8c-0.1,0-0.2,0-0.3,0.1c-2.6,0.7-4.3,5.3-4.4,7.7c0,0.1,0.1,1.7,0.2,2.7c-0.1-0.6-0.3-1.1-0.4-1.7
		c-0.3-1.2-0.6-2.3-0.9-3.5l-0.5-1.8c-0.2-0.6-0.4-1.2-0.6-1.8c-0.5-1.4-1.1-2.8-1.7-4.2c1-0.2,4.6-1.1,6-2.3s2.9-2.9,2.9-4.8
		c0-1.8-1.3-3.2-3.1-3.3c-0.1,0-0.3,0-0.4,0c-2.7,0.3-5,4.6-5.5,6.9c0,0.1-0.2,1.9-0.3,2.8c-0.4-0.8-0.8-1.7-1.2-2.5
		c-1.2-2.4-2.5-4.8-3.8-7.2c-0.4-0.7-0.8-1.5-1.2-2.2c0.4-0.1,4.6-1.1,6.2-2.3c1.4-1.1,2.9-2.9,2.9-4.8c0-1.8-1.3-3.2-3.1-3.3
		c-0.1,0-0.3,0-0.4,0c-2.7,0.3-5,4.6-5.5,6.9c0,0.2-0.3,2.7-0.3,3.3c-0.8-1.6-1.7-3.3-2.4-4.9c-1-2.2-1.9-4.5-2.6-6.8
		c0.2,0,4.6-1,6.3-2.3c1.4-1.1,2.9-2.9,2.9-4.8c0.1-1.8-1.3-3.2-3.1-3.3c-0.1,0-0.2,0-0.4,0c-2.7,0.3-5,4.6-5.5,6.9
		c0,0.2-0.2,2.1-0.3,3h-0.2c-0.7-2.4-1.1-4.8-1.4-7.2c-0.2-1.3-0.2-2.6-0.3-3.9c0.8-0.1,4.7-0.6,6.3-1.6s3.2-2.5,3.4-4.5
		c0.2-1.7-1-3.4-2.7-3.6c-0.1,0-0.2,0-0.3,0c-2.7,0-5.5,4-6.2,6.3c0,0.1-0.3,1.4-0.5,2.4c0-0.6,0-1.1,0-1.7c0-2,0.1-3.9,0.3-5.6
		c0.1-0.9,0.2-1.8,0.3-2.6c0.8-0.5,3.9-2.7,4.9-4.3s1.7-3.8,1-5.5c-0.6-1.7-2.4-2.5-4.1-1.9c-0.1,0-0.2,0.1-0.3,0.1
		c-2.4,1.2-3,6.1-2.6,8.4c0,0.2,0.9,3.4,1,3.3l0,0c-0.1,0.8-0.2,1.6-0.3,2.5c-0.2,1.6-0.3,3.5-0.4,5.6c-0.1,2.2,0,4.4,0.2,6.6
		c0.2,2.5,0.6,4.9,1.2,7.3v0.1c-0.4-0.7-1.7-2.5-1.8-2.6c-1.6-1.8-5.7-4.4-8.2-3.4c-1.6,0.7-2.3,2.6-1.6,4.2c0,0.1,0.1,0.2,0.2,0.3
		C41.8,382.5,44,383.3,45.8,383.6z"/>
	<path class="st6" d="M699.3,370.9c0,0,0.9-3.1,0.9-3.4c0.3-2.4-0.4-7.2-2.9-8.4c-1.6-0.7-3.5,0-4.2,1.6c0,0.1-0.1,0.2-0.1,0.3
		c-0.7,1.8,0.2,4,1.2,5.5C695.3,368.4,699.3,370.9,699.3,370.9z"/>
	<path class="st6" d="M651.4,369.9c1.9,0.9,6.7,0.7,6.7,0.7s-1-3.1-1.1-3.3c-1-2.2-4.3-5.8-7-5.4c-1.7,0.3-2.9,1.9-2.6,3.7
		c0,0.1,0,0.2,0.1,0.3C647.9,367.8,649.8,369.1,651.4,369.9z"/>
	<path class="st6" d="M653,383.6c2,0.3,6.2-0.9,6.6-1c0.7,2.4,1.6,4.8,2.6,7.1c0.6,1.4,1.2,2.7,1.9,4l-0.8-1.1
		c-1.6-1.8-5.7-4.4-8.2-3.4c-1.6,0.7-2.3,2.7-1.6,4.3c0,0.1,0.1,0.2,0.1,0.3c0.9,1.7,3.1,2.5,4.9,2.8s5.4-0.7,6.4-1l0.8,1.5
		c1.2,2.4,2.5,4.9,3.6,7.3c0.4,0.9,0.8,1.7,1.1,2.6c-0.3-0.5-0.6-0.9-0.7-1c-1.6-1.8-5.7-4.4-8.2-3.4c-1.6,0.7-2.3,2.6-1.6,4.2
		c0,0.1,0.1,0.2,0.2,0.3c0.9,1.7,3.1,2.5,4.9,2.8s5.1-0.6,6.2-0.9c0.3,0.9,0.7,1.8,1,2.6c0.2,0.6,0.4,1.2,0.6,1.8s0.3,1.2,0.5,1.8
		c0.3,1.2,0.6,2.3,0.8,3.5c0.2,0.8,0.3,1.5,0.5,2.3c-0.4-0.9-1.2-2.5-1.3-2.6c-1.3-2-5-5.2-7.6-4.6c-1.7,0.5-2.7,2.2-2.2,3.9
		c0,0.1,0.1,0.2,0.1,0.3c0.7,1.8,2.7,2.9,4.4,3.5c1.9,0.6,6.1,0,6.6,0c0.3,1.3,0.5,2.5,0.7,3.6c0.4,2.4,0.8,4.6,1,6.5h1.8
		c-0.3-1.9-0.7-4.2-1.2-6.8c-0.3-1.3-0.5-2.6-0.9-4c1.3-0.5,2.5-1.1,3.7-1.7c1.4,1.5,4.9,3.3,5.4,3.5c-0.5,1.2-1,2.3-1.4,3.4
		c-0.9,2.1-1.8,4-2.6,5.6h1.9c0.7-1.5,1.4-3.2,2.1-5c0.5-1.2,1-2.5,1.5-3.8c0.5,0.1,4.7,1,6.6,0.5c1.8-0.4,3.9-1.4,4.7-3.1
		c0.8-1.6,0.1-3.5-1.4-4.3c-0.1-0.1-0.2-0.1-0.3-0.1c-2.5-0.9-6.5,2-7.9,4c-0.1,0.1-0.9,1.5-1.3,2.3c0.2-0.5,0.4-1.1,0.6-1.6
		c0.4-1.1,0.8-2.2,1.2-3.4l0.5-1.8c0.2-0.6,0.3-1.2,0.5-1.9c0.3-1.5,0.6-3,0.9-4.5c1,0.4,4.5,1.6,6.3,1.4s4-0.8,5.1-2.4
		c1-1.4,0.7-3.4-0.8-4.4c-0.1-0.1-0.2-0.1-0.3-0.2c-2.4-1.2-6.7,1-8.4,2.7c-0.1,0.1-1.2,1.5-1.8,2.2c0.1-0.9,0.3-1.8,0.4-2.8
		c0.3-2.7,0.6-5.4,0.8-8.1c0.1-0.8,0.2-1.7,0.3-2.5c0.3,0.1,4.5,1.6,6.5,1.5c1.8-0.1,4-0.8,5.1-2.4c1-1.4,0.7-3.4-0.8-4.5
		c-0.1-0.1-0.2-0.1-0.3-0.2c-2.4-1.2-6.7,1-8.4,2.7c-0.1,0.1-1.7,2.1-2.1,2.6c0.2-1.8,0.4-3.6,0.7-5.4c0.4-2.4,0.9-4.8,1.5-7.1
		c0.2,0.1,4.4,1.7,6.5,1.5c1.8-0.1,4-0.8,5.1-2.4c1-1.5,0.7-3.4-0.8-4.5c-0.1-0.1-0.2-0.1-0.3-0.2c-2.4-1.2-6.7,1-8.4,2.7
		c-0.1,0.1-1.3,1.6-1.9,2.3l-0.1-0.1c0.7-2.3,1.7-4.6,2.8-6.8c0.6-1.2,1.3-2.3,1.9-3.4c0.8,0.4,4.3,2.1,6.2,2.2s4.1-0.3,5.3-1.8
		c1.2-1.3,1-3.3-0.3-4.5c-0.1-0.1-0.2-0.1-0.3-0.2c-2.3-1.5-6.8,0.3-8.7,1.8c-0.1,0.1-1,1-1.7,1.7c0.3-0.5,0.6-1,0.9-1.4
		c1.1-1.7,2.3-3.2,3.3-4.5c0.6-0.7,1.1-1.4,1.6-2c1,0,4.8-0.1,6.4-0.9s3.5-2.2,3.9-4.1c0.4-1.7-0.6-3.4-2.3-3.9
		c-0.1,0-0.2,0-0.3-0.1c-2.7-0.3-5.9,3.4-6.8,5.6c-0.1,0.2-1.1,3.3-1,3.3h0.1c-0.5,0.6-1,1.2-1.6,1.9c-1,1.3-2.2,2.8-3.4,4.4
		c-1.3,1.8-2.5,3.7-3.5,5.6c-1.2,2.2-2.2,4.4-3,6.8c0,0,0,0,0,0.1c0-0.8,0-3,0-3.2c-0.3-2.4-2.3-6.8-5-7.3c-1.7-0.3-3.4,0.9-3.6,2.6
		c0,0.1,0,0.2,0,0.4c-0.2,1.9,1.2,3.8,2.6,5c1.5,1.4,5.7,2.7,6,2.8c-0.8,2.4-1.3,4.8-1.8,7.3c-0.3,1.4-0.5,2.9-0.7,4.4
		c0-0.7,0-1.3,0-1.4c-0.3-2.4-2.3-6.8-5-7.3c-1.7-0.3-3.4,0.9-3.7,2.7c0,0.1,0,0.2,0,0.3c-0.2,1.9,1.2,3.8,2.6,5s4.9,2.4,5.9,2.7
		l-0.2,1.7c-0.3,2.7-0.6,5.4-1,8c-0.1,0.9-0.3,1.8-0.5,2.8c0-0.6,0-1.1,0-1.2c-0.3-2.4-2.3-6.8-5-7.3c-1.7-0.3-3.4,0.9-3.6,2.6
		c0,0.1,0,0.2,0,0.4c-0.2,1.9,1.2,3.8,2.6,5s4.6,2.3,5.7,2.6c-0.2,0.9-0.4,1.9-0.6,2.8c-0.2,0.6-0.3,1.2-0.5,1.8l-0.6,1.8
		c-0.4,1.1-0.8,2.3-1.2,3.3c-0.3,0.8-0.6,1.5-0.9,2.2c0.1-0.9,0.4-2.8,0.4-2.9c0-2.1-0.6-4.2-1.7-6c0-0.2,0-0.5,0-0.7
		c-0.2-1.8-1.8-3-3.6-2.8c-0.1,0-0.2,0-0.3,0.1c-2.6,0.7-4.3,5.3-4.4,7.7c0,0.1,0.1,1.7,0.2,2.7c-0.1-0.6-0.3-1.1-0.4-1.7
		c-0.3-1.2-0.6-2.3-0.9-3.5l-0.5-1.8c-0.2-0.6-0.4-1.2-0.6-1.8c-0.5-1.4-1.1-2.8-1.7-4.2c1-0.2,4.6-1.1,6-2.3s2.9-2.9,2.9-4.8
		c0-1.8-1.4-3.2-3.1-3.3c-0.1,0-0.2,0-0.3,0c-2.7,0.3-5,4.6-5.5,6.9c0,0.1-0.2,1.9-0.3,2.8c-0.4-0.8-0.8-1.7-1.2-2.5
		c-1.2-2.4-2.5-4.8-3.8-7.2c-0.4-0.7-0.8-1.5-1.2-2.2c0.4-0.1,4.6-1.1,6.2-2.3c1.4-1.1,2.9-2.9,2.9-4.8c0.1-1.8-1.3-3.2-3.1-3.3
		c-0.1,0-0.2,0-0.4,0c-2.7,0.3-5,4.6-5.5,6.9c0,0.2-0.3,2.7-0.3,3.3c-0.8-1.6-1.7-3.3-2.4-4.9c-1-2.2-1.9-4.5-2.6-6.8
		c0.2,0,4.6-1,6.3-2.3c1.4-1.1,3-2.9,2.9-4.8c0.1-1.8-1.3-3.2-3.1-3.3c-0.1,0-0.2,0-0.4,0c-2.7,0.3-5,4.6-5.5,6.9
		c0,0.2-0.2,2.1-0.3,3h-0.2c-0.7-2.4-1.1-4.8-1.4-7.2c-0.2-1.3-0.2-2.6-0.3-3.9c0.8-0.1,4.7-0.6,6.3-1.6s3.2-2.5,3.4-4.5
		c0.2-1.7-1-3.4-2.7-3.6c-0.1,0-0.2,0-0.3,0c-2.7,0-5.5,4-6.2,6.3c0,0.1-0.3,1.4-0.5,2.4c0-0.6,0-1.1,0-1.7c0-2,0.1-3.9,0.3-5.6
		c0.1-0.9,0.2-1.8,0.3-2.6c0.8-0.5,3.9-2.7,4.9-4.3s1.7-3.8,1-5.5c-0.6-1.7-2.4-2.5-4.1-1.9c-0.1,0-0.2,0.1-0.3,0.1
		c-2.4,1.2-3,6.1-2.6,8.4c0,0.2,0.9,3.4,1,3.3l0,0c-0.1,0.8-0.2,1.6-0.3,2.5c-0.2,1.6-0.3,3.5-0.4,5.6c-0.1,2.2,0,4.4,0.2,6.6
		c0.2,2.5,0.6,4.9,1.2,7.3v0.1c-0.4-0.7-1.7-2.5-1.8-2.6c-1.6-1.8-5.7-4.4-8.2-3.4c-1.6,0.7-2.3,2.6-1.6,4.2c0,0.1,0.1,0.2,0.2,0.3
		C649.1,382.5,651.3,383.3,653,383.6z"/>
	<path class="st7" d="M651.4,369.9c1.9,0.9,6.7,0.7,6.7,0.7s-1-3.1-1.1-3.3c-1-2.2-4.3-5.8-7-5.4c-1.7,0.3-2.9,1.9-2.6,3.7
		c0,0.1,0,0.2,0.1,0.3C647.9,367.8,649.8,369.1,651.4,369.9z"/>
	<path class="st7" d="M699.3,370.9c0,0,0.9-3.1,0.9-3.4c0.3-2.4-0.4-7.2-2.9-8.4c-1.6-0.7-3.5,0-4.2,1.6c0,0.1-0.1,0.2-0.1,0.3
		c-0.7,1.8,0.2,4,1.2,5.5C695.3,368.4,699.3,370.9,699.3,370.9z"/>
	<path class="st7" d="M653,383.6c2,0.3,6.2-0.9,6.6-1c0.7,2.4,1.6,4.8,2.6,7.1c0.6,1.4,1.2,2.7,1.9,4l-0.8-1.1
		c-1.6-1.8-5.7-4.4-8.2-3.4c-1.6,0.7-2.3,2.7-1.6,4.3c0,0.1,0.1,0.2,0.1,0.3c0.9,1.7,3.1,2.5,4.9,2.8s5.4-0.7,6.4-1l0.8,1.5
		c1.2,2.4,2.5,4.9,3.6,7.3c0.4,0.9,0.8,1.7,1.1,2.6c-0.3-0.5-0.6-0.9-0.7-1c-1.6-1.8-5.7-4.4-8.2-3.4c-1.6,0.7-2.3,2.6-1.6,4.2
		c0,0.1,0.1,0.2,0.2,0.3c0.9,1.7,3.1,2.5,4.9,2.8s5.1-0.6,6.2-0.9c0.3,0.9,0.7,1.8,1,2.6c0.2,0.6,0.4,1.2,0.6,1.8s0.3,1.2,0.5,1.8
		c0.3,1.2,0.6,2.3,0.8,3.5c0.2,0.8,0.3,1.5,0.5,2.3c-0.4-0.9-1.2-2.5-1.3-2.6c-1.3-2-5-5.2-7.6-4.6c-1.7,0.5-2.7,2.2-2.2,3.9
		c0,0.1,0.1,0.2,0.1,0.3c0.7,1.8,2.7,2.9,4.4,3.5c1.9,0.6,6.1,0,6.6,0c0.3,1.3,0.5,2.5,0.7,3.6c0.4,2.4,0.8,4.6,1,6.5h1.8
		c-0.3-1.9-0.7-4.2-1.2-6.8c-0.3-1.3-0.5-2.6-0.9-4c1.3-0.5,2.5-1.1,3.7-1.7c1.4,1.5,4.9,3.3,5.4,3.5c-0.5,1.2-1,2.3-1.4,3.4
		c-0.9,2.1-1.8,4-2.6,5.6h1.9c0.7-1.5,1.4-3.2,2.1-5c0.5-1.2,1-2.5,1.5-3.8c0.5,0.1,4.7,1,6.6,0.5c1.8-0.4,3.9-1.4,4.7-3.1
		c0.8-1.6,0.1-3.5-1.4-4.3c-0.1-0.1-0.2-0.1-0.3-0.1c-2.5-0.9-6.5,2-7.9,4c-0.1,0.1-0.9,1.5-1.3,2.3c0.2-0.5,0.4-1.1,0.6-1.6
		c0.4-1.1,0.8-2.2,1.2-3.4l0.5-1.8c0.2-0.6,0.3-1.2,0.5-1.9c0.3-1.5,0.6-3,0.9-4.5c1,0.4,4.5,1.6,6.3,1.4s4-0.8,5.1-2.4
		c1-1.4,0.7-3.4-0.8-4.4c-0.1-0.1-0.2-0.1-0.3-0.2c-2.4-1.2-6.7,1-8.4,2.7c-0.1,0.1-1.2,1.5-1.8,2.2c0.1-0.9,0.3-1.8,0.4-2.8
		c0.3-2.7,0.6-5.4,0.8-8.1c0.1-0.8,0.2-1.7,0.3-2.5c0.3,0.1,4.5,1.6,6.5,1.5c1.8-0.1,4-0.8,5.1-2.4c1-1.4,0.7-3.4-0.8-4.5
		c-0.1-0.1-0.2-0.1-0.3-0.2c-2.4-1.2-6.7,1-8.4,2.7c-0.1,0.1-1.7,2.1-2.1,2.6c0.2-1.8,0.4-3.6,0.7-5.4c0.4-2.4,0.9-4.8,1.5-7.1
		c0.2,0.1,4.4,1.7,6.5,1.5c1.8-0.1,4-0.8,5.1-2.4c1-1.5,0.7-3.4-0.8-4.5c-0.1-0.1-0.2-0.1-0.3-0.2c-2.4-1.2-6.7,1-8.4,2.7
		c-0.1,0.1-1.3,1.6-1.9,2.3l-0.1-0.1c0.7-2.3,1.7-4.6,2.8-6.8c0.6-1.2,1.3-2.3,1.9-3.4c0.8,0.4,4.3,2.1,6.2,2.2s4.1-0.3,5.3-1.8
		c1.2-1.3,1-3.3-0.3-4.5c-0.1-0.1-0.2-0.1-0.3-0.2c-2.3-1.5-6.8,0.3-8.7,1.8c-0.1,0.1-1,1-1.7,1.7c0.3-0.5,0.6-1,0.9-1.4
		c1.1-1.7,2.3-3.2,3.3-4.5c0.6-0.7,1.1-1.4,1.6-2c1,0,4.8-0.1,6.4-0.9s3.5-2.2,3.9-4.1c0.4-1.7-0.6-3.4-2.3-3.9
		c-0.1,0-0.2,0-0.3-0.1c-2.7-0.3-5.9,3.4-6.8,5.6c-0.1,0.2-1.1,3.3-1,3.3h0.1c-0.5,0.6-1,1.2-1.6,1.9c-1,1.3-2.2,2.8-3.4,4.4
		c-1.3,1.8-2.5,3.7-3.5,5.6c-1.2,2.2-2.2,4.4-3,6.8c0,0,0,0,0,0.1c0-0.8,0-3,0-3.2c-0.3-2.4-2.3-6.8-5-7.3c-1.7-0.3-3.4,0.9-3.6,2.6
		c0,0.1,0,0.2,0,0.4c-0.2,1.9,1.2,3.8,2.6,5c1.5,1.4,5.7,2.7,6,2.8c-0.8,2.4-1.3,4.8-1.8,7.3c-0.3,1.4-0.5,2.9-0.7,4.4
		c0-0.7,0-1.3,0-1.4c-0.3-2.4-2.3-6.8-5-7.3c-1.7-0.3-3.4,0.9-3.7,2.7c0,0.1,0,0.2,0,0.3c-0.2,1.9,1.2,3.8,2.6,5s4.9,2.4,5.9,2.7
		l-0.2,1.7c-0.3,2.7-0.6,5.4-1,8c-0.1,0.9-0.3,1.8-0.5,2.8c0-0.6,0-1.1,0-1.2c-0.3-2.4-2.3-6.8-5-7.3c-1.7-0.3-3.4,0.9-3.6,2.6
		c0,0.1,0,0.2,0,0.4c-0.2,1.9,1.2,3.8,2.6,5s4.6,2.3,5.7,2.6c-0.2,0.9-0.4,1.9-0.6,2.8c-0.2,0.6-0.3,1.2-0.5,1.8l-0.6,1.8
		c-0.4,1.1-0.8,2.3-1.2,3.3c-0.3,0.8-0.6,1.5-0.9,2.2c0.1-0.9,0.4-2.8,0.4-2.9c0-2.1-0.6-4.2-1.7-6c0-0.2,0-0.5,0-0.7
		c-0.2-1.8-1.8-3-3.6-2.8c-0.1,0-0.2,0-0.3,0.1c-2.6,0.7-4.3,5.3-4.4,7.7c0,0.1,0.1,1.7,0.2,2.7c-0.1-0.6-0.3-1.1-0.4-1.7
		c-0.3-1.2-0.6-2.3-0.9-3.5l-0.5-1.8c-0.2-0.6-0.4-1.2-0.6-1.8c-0.5-1.4-1.1-2.8-1.7-4.2c1-0.2,4.6-1.1,6-2.3s2.9-2.9,2.9-4.8
		c0-1.8-1.4-3.2-3.1-3.3c-0.1,0-0.2,0-0.3,0c-2.7,0.3-5,4.6-5.5,6.9c0,0.1-0.2,1.9-0.3,2.8c-0.4-0.8-0.8-1.7-1.2-2.5
		c-1.2-2.4-2.5-4.8-3.8-7.2c-0.4-0.7-0.8-1.5-1.2-2.2c0.4-0.1,4.6-1.1,6.2-2.3c1.4-1.1,2.9-2.9,2.9-4.8c0.1-1.8-1.3-3.2-3.1-3.3
		c-0.1,0-0.2,0-0.4,0c-2.7,0.3-5,4.6-5.5,6.9c0,0.2-0.3,2.7-0.3,3.3c-0.8-1.6-1.7-3.3-2.4-4.9c-1-2.2-1.9-4.5-2.6-6.8
		c0.2,0,4.6-1,6.3-2.3c1.4-1.1,3-2.9,2.9-4.8c0.1-1.8-1.3-3.2-3.1-3.3c-0.1,0-0.2,0-0.4,0c-2.7,0.3-5,4.6-5.5,6.9
		c0,0.2-0.2,2.1-0.3,3h-0.2c-0.7-2.4-1.1-4.8-1.4-7.2c-0.2-1.3-0.2-2.6-0.3-3.9c0.8-0.1,4.7-0.6,6.3-1.6s3.2-2.5,3.4-4.5
		c0.2-1.7-1-3.4-2.7-3.6c-0.1,0-0.2,0-0.3,0c-2.7,0-5.5,4-6.2,6.3c0,0.1-0.3,1.4-0.5,2.4c0-0.6,0-1.1,0-1.7c0-2,0.1-3.9,0.3-5.6
		c0.1-0.9,0.2-1.8,0.3-2.6c0.8-0.5,3.9-2.7,4.9-4.3s1.7-3.8,1-5.5c-0.6-1.7-2.4-2.5-4.1-1.9c-0.1,0-0.2,0.1-0.3,0.1
		c-2.4,1.2-3,6.1-2.6,8.4c0,0.2,0.9,3.4,1,3.3l0,0c-0.1,0.8-0.2,1.6-0.3,2.5c-0.2,1.6-0.3,3.5-0.4,5.6c-0.1,2.2,0,4.4,0.2,6.6
		c0.2,2.5,0.6,4.9,1.2,7.3v0.1c-0.4-0.7-1.7-2.5-1.8-2.6c-1.6-1.8-5.7-4.4-8.2-3.4c-1.6,0.7-2.3,2.6-1.6,4.2c0,0.1,0.1,0.2,0.2,0.3
		C649.1,382.5,651.3,383.3,653,383.6z"/>
</g>
<g id="freepik--character-1--inject-2">
	<path class="st5" d="M177.9,341.4c0,0,1.3-0.3,11.5-3.3c6.6-2.1,12.6-5.7,17.5-10.5l-3.3-20.5l-20.8,3L177.9,341.4z"/>
	<path class="st3" d="M126.9,410.9c0,0-3.5,7-4,13.5s3.3,8.8,4.5,7s3.3-8,3.5-10.8l0.8-8.3L126.9,410.9z"/>
	<path class="st3" d="M219,415.4c0,0-1,9-1.3,13.3s5,8.3,5.7,8.5s1.5,0,2.8-3s1.3-10.3,0.5-12.5s-2.2-5.8-2.2-5.8L219,415.4z"/>
	<path class="st4" d="M183.9,283.7c0,0-10.1,12-13.6,22s-6.3,22.4-8.7,29c-2,5.7-3.6,11.4-5,17.3c0,0-6.5,6.5-8.3,12.3
		s-22.3,48.3-22.3,48.3s1.3,1.8,2.3,2s3.3-1,3.3-1s36.3-47.5,38.5-51s9.4-11.6,10.1-12.9s6.4-18.6,8.4-21.1c1.5-2,2.8-4.1,3.9-6.3
		l1.5,1l1.8,0.3c0,0,7.9,15.8,9.9,22.3s7.8,42,9.3,48.5s3.5,23.5,3.5,23.5c0.9,0.3,1.8,0.5,2.8,0.8c1.3,0.3,4.5-0.8,4.5-0.8
		s5.8-26,6-35s-1.5-29-1.5-32s-4.5-44.3-6.8-49.8s-9.8-15.3-9.8-15.3L183.9,283.7z"/>
	<path class="st3" d="M198.7,236.4l-15,4.8c0,0,0,29,0.3,32.8s-1.8,10-0.5,11.5s7.3,7.5,18.3,7.8s14-3.3,14-3.3l2.3-9.8
		c0,0,7.3-19.5,7.3-22.5s-7.3-11.8-11.5-15.3S198.7,236.4,198.7,236.4z"/>
	<path class="st3" d="M159.9,270.7c-3.2,2.1-6.5,4.1-10,5.8l-20,10l2.3,4.8c4.9-0.9,9.8-1.5,14.8-1.8c6.5-0.3,17.5-4.5,18.3-5.8
		s3.3-8,3.3-8L159.9,270.7z"/>
	<path class="st5" d="M196.7,236.7c0,0-10.8,29.5-11.3,33.8s-4.8,15-5,16.5s-7.3,16.8-7.3,16.8s7.5-23.5,8.3-28.3c0.4-3,0.1-6.1-1-9
		c0,0-5.1,10.8-5.8,11.5s-5.8,9.3-5.8,9.3l-8.8-16.6c0,0,9.8-17,11.8-19.8s6.3-10.3,9.3-11.8S196.7,236.7,196.7,236.7z"/>
	<path class="st5" d="M211.4,240.4c0,0-7.8,32.5-7.8,37.8s-0.8,21.5-1.5,30.5s-2.3,37.8-2.3,37.8c4.8,0.7,9.7,0.9,14.5,0.5
		c7-0.8,19-5.5,19-5.5s-6.3-31.5-8.8-39c-2.1-6.5-3.9-13.1-5.3-19.8c0-0.8,6.8-22.8,6.8-25.8S214.2,241.2,211.4,240.4z"/>
	<path class="st3" d="M123.3,288.3c0.1-1.9-0.2-3.8-1-5.5c-1.4-2.7-2.1-3.5,0.1-2.9s3.5,4.9,3.5,4.9L123.3,288.3z"/>
	<path class="st3" d="M137.4,290.1c0,0-2.9,4.5-4.6,4.1s-9.3-4.2-9.5-5.9s1.3-6.7,2.6-6.5S137.4,290.1,137.4,290.1z"/>
	<path class="st3" d="M222,209.8c0.7,1.9,1.1,3.9,1.5,5.9c-0.1,1.2-0.3,2.4-0.7,3.6c0,0,4.1,3.6,4.3,4.6s-2.3,2.3-2.3,2.3
		s0.2,9.5,0.2,10.2s-11.1,1.1-11.1,1.1l-11.6,13.6l-5.4-13.4l2.5-7.5c0,0-7.5-4.3-4.8-10.9s8.9-10.2,15-11.1c4-0.5,8.1-0.4,12,0.4
		L222,209.8z"/>
	<polygon class="st4" points="213.9,237.5 208.2,236.4 207.9,244.1 	"/>
	<path class="st6" d="M220.4,220.2c0,0.8-0.3,1.4-0.7,1.4s-0.7-0.6-0.7-1.4s0.3-1.4,0.7-1.4S220.4,219.4,220.4,220.2z"/>
	<path class="st0" d="M218.2,217.9c0,0,0.7-1.3,3.1-0.7"/>
	<path class="st0" d="M223.7,228.5c0,0-2.9,0.4-4-1.1"/>
	<path class="st4" d="M222.5,212.5c0,0-7.5-1.8-8.9,0.9s-0.2,4.1-1.4,6.6s-5.4,5.7-5.4,5.7s-4.1-4.6-5.5-2.3s-0.9,5.7,0.5,6.8
		s5.2,0.4,5.2,0.4l-5.9,2.7c0,0,0.2,3.4-5.2,4.8s-12-2.3-11.1-6.8s8.4-7.3,8.4-7.3s-8-9.8-1.4-17s19.5-3.9,19.5-3.9s1.8-2,7-2.5
		s7.5,4.8,7.5,7.7S222.5,212.5,222.5,212.5z"/>
	<path class="st4" d="M599.9,137l-2.7-51.6l-44.3,24.1l1,4l16.8,8.6l-78.9,154.7l-250.4,68.1L68.1,226.7c-3.2-2.2-7.6-1.4-9.7,1.8
		c-2.2,3.2-1.4,7.6,1.8,9.7l175.8,120c1.2,0.8,2.6,1.2,4,1.2c0.6,0,1.2-0.1,1.8-0.3l256.5-69.8c1.9-0.5,3.5-1.8,4.4-3.6l80.3-157.4
		L599.9,137z"/>
	<path class="st5" d="M598.9,133l-2.7-51.6l-43.3,28.1l16.8,8.6l-78.9,154.7l-250.4,68.1L67.1,222.7c-3.2-2.2-7.6-1.4-9.7,1.8
		c-2.2,3.2-1.4,7.6,1.8,9.7l0,0l175.8,120c1.2,0.8,2.6,1.2,4,1.2c0.6,0,1.2-0.1,1.8-0.3l256.5-69.8c1.9-0.5,3.5-1.8,4.4-3.6
		l80.3-157.4L598.9,133z"/>
	<path class="st8" d="M591.7,90.3L562.8,109l13.5,6.9L494.2,277l-254.8,69.3l-175-119.5c-0.9-0.6-2.2-0.4-2.8,0.5c0,0,0,0,0,0
		c-0.6,0.9-0.4,2.2,0.5,2.8l175.8,120c0.3,0.2,0.7,0.3,1.1,0.4c0.2,0,0.3,0,0.5-0.1l256.5-69.8c0.5-0.1,1-0.5,1.3-1l82.6-161.8
		l13.5,6.9L591.7,90.3z"/>
	<path class="st3" d="M216.8,294.7l-1.4,5.3c-1.6,3-3.4,5.8-5.4,8.5c-3.3,4.4-15.1,16.6-15.1,16.6l-3.4,4.1l-0.4,3.6l2.7,1
		c0,0,1.4,0.5,2.5,1.1s4,1.1,4.9,0.4s3-6.1,3-6.1l0.8-4.2c0,0,14.1-11,17.3-14.4s6-6.4,6.9-8.3s0.2-7.9,0.2-7.9L216.8,294.7z"/>
	<path class="st5" d="M216.5,269.2l-2.5,26.6c2.4,0.8,4.8,1.5,7.2,2.1c3.9,0.8,12.2-1.3,12.2-1.3s-1.3-22.1-2.9-30.2
		s-6.3-14.1-9.2-15.1"/>
</g>
<g id="freepik--Floor--inject-2">
	<line class="st0" x1="533.2" y1="431.4" x2="714.2" y2="431.4"/>
	<line class="st0" x1="511.2" y1="431.4" x2="524.2" y2="431.4"/>
	<line class="st0" x1="184.2" y1="431.4" x2="500.2" y2="431.4"/>
	<line class="st0" x1="33.2" y1="431.4" x2="175.2" y2="431.4"/>
</g>
</svg>
