<?xml version="1.0" encoding="utf-8"?>
<!-- Generator: Adobe Illustrator 24.1.0, SVG Export Plug-In . SVG Version: 6.00 Build 0)  -->
<svg version="1.1" id="Layer_1" xmlns="http://www.w3.org/2000/svg" xmlns:xlink="http://www.w3.org/1999/xlink" x="0px" y="0px"
	 viewBox="0 0 1366 768" style="enable-background:new 0 0 1366 768;" xml:space="preserve">
<style type="text/css">
	.st0{fill:url(#SVGID_1_);}
	.st1{fill:url(#SVGID_2_);}
	.st2{fill:#E0E0E0;}
	.st3{fill:#F5F5F5;}
	.st4{fill:#FFFFFF;}
	.st5{fill:none;stroke:#FBFBFB;stroke-width:0.25;stroke-miterlimit:10;}
	.st6{fill:#EBEBEB;}
	.st7{fill:#263238;}
	.st8{fill:#455A64;}
	.st9{fill:#0F4C81;}
	.st10{fill:#FAFAFA;}
	.st11{fill:none;stroke:#87A5C0;stroke-miterlimit:10;}
	.st12{opacity:0.4;}
	.st13{opacity:0.2;}
	.st14{fill:#FFBE9D;}
	.st15{opacity:0.6;}
	.st16{fill:#EB996E;}
	.st17{fill:none;stroke:#4F595E;stroke-width:5.000000e-02;stroke-miterlimit:10;}
	.st18{opacity:0.3;}
</style>
<g>
	
		<radialGradient id="SVGID_1_" cx="523" cy="384" r="382.5082" gradientTransform="matrix(1 0 0 -1 0 768)" gradientUnits="userSpaceOnUse">
		<stop  offset="0" style="stop-color:#CCE0F4"/>
		<stop  offset="0" style="stop-color:#C4D7F4;stop-opacity:0.9559"/>
		<stop  offset="0" style="stop-color:#AEBDF3;stop-opacity:0.8824"/>
		<stop  offset="0" style="stop-color:#8B94F2;stop-opacity:0.7894"/>
		<stop  offset="0" style="stop-color:#6366F1;stop-opacity:0.7"/>
		<stop  offset="0.9944" style="stop-color:#4338CA;stop-opacity:0.7"/>
	</radialGradient>
	<path class="st0" d="M523,4C310.4,4,138,174.1,138,384s172.4,380,385,380s385-170.1,385-380S735.6,4,523,4z M524,640.3
		c-145.4,0-263.3-114.7-263.3-256.1S378.6,128,524,128s263.3,114.7,263.3,256.1S669.4,640.3,524,640.3z"/>
</g>
<g>
	
		<radialGradient id="SVGID_2_" cx="524" cy="383.9" r="259.7249" gradientTransform="matrix(1 0 0 -1 0 768)" gradientUnits="userSpaceOnUse">
		<stop  offset="1.118836e-07" style="stop-color:#FFFFFF"/>
		<stop  offset="0.9944" style="stop-color:#FFFFFF"/>
	</radialGradient>
	<path class="st1" d="M787.3,384.1c0,141.5-117.9,256.1-263.3,256.1S260.7,525.5,260.7,384.1S378.6,128,524,128
		S787.3,242.7,787.3,384.1z"/>
</g>
<g id="Background_Complete">
	<g>
		<g>
			<g>
				<g>
					<rect x="315.3" y="253" class="st2" width="70.2" height="101.7"/>
				</g>
			</g>
		</g>
		<g>
			<g>
				<g>
					<rect x="311.8" y="253" class="st3" width="70.2" height="101.7"/>
				</g>
			</g>
		</g>
		<g>
			<g>
				<g>
					<g>
						<rect x="320.5" y="264" class="st4" width="52.7" height="79.7"/>
					</g>
				</g>
			</g>
			<g>
				<g>
					<g>
						<g>
							<path class="st2" d="M373.3,343.7c0,0,0-0.1,0-0.4c0-0.3,0-0.6,0-1.1c0-1,0-2.5,0-4.4c0-3.8,0-9.4,0-16.4
								c0-14.1-0.1-33.9-0.1-57.4l0.2,0.2c-16.1,0-34,0-52.7,0h0l0.2-0.2c0,30.1,0,57.8,0,79.7l-0.2-0.2c16.1,0,29.2,0.1,38.4,0.1
								c4.6,0,8.2,0,10.6,0c1.2,0,2.1,0,2.8,0C372.9,343.7,373.3,343.7,373.3,343.7s-0.3,0-0.9,0c-0.6,0-1.6,0-2.8,0
								c-2.4,0-6,0-10.6,0c-9.2,0-22.4,0-38.5,0.1h-0.2v-0.2c0-21.9,0-49.6,0-79.7v-0.2h0.2h0c18.8,0,36.6,0,52.7,0h0.2v0.2
								c0,23.5-0.1,43.4-0.1,57.5c0,7,0,12.6,0,16.4c0,1.9,0,3.3,0,4.3c0,0.5,0,0.8,0,1.1C373.3,343.5,373.3,343.7,373.3,343.7z"/>
						</g>
					</g>
				</g>
			</g>
		</g>
		<g>
			<g>
				<g>
					<g>
						<path class="st5" d="M370.8,264.5"/>
					</g>
				</g>
			</g>
		</g>
		<g>
			<g>
				<g>
					<g>
						<path class="st2" d="M382.2,253c0,0-0.4,0.7-1.3,1.8s-2,2.6-3.3,4.2c-1.3,1.6-2.6,3-3.5,4c-0.9,1-1.5,1.6-1.5,1.6
							c0,0,0.5-0.7,1.3-1.8c0.9-1.1,2.1-2.5,3.4-4.1c1.3-1.6,2.4-3,3.4-4.1C381.6,253.6,382.1,252.9,382.2,253z"/>
					</g>
				</g>
			</g>
		</g>
		<g>
			<g>
				<g>
					<g>
						<path class="st4" d="M373.5,343.4c2.6,4.2,5.7,8,9.2,11.5"/>
					</g>
				</g>
			</g>
			<g>
				<g>
					<g>
						<g>
							<path class="st2" d="M382.7,354.9c0,0-0.7-0.5-1.6-1.5c-0.9-0.9-2.2-2.3-3.5-3.9c-1.3-1.6-2.3-3.1-3.1-4.2
								c-0.7-1.1-1.1-1.9-1.1-1.9c0,0,0.5,0.7,1.3,1.7c0.8,1.1,1.9,2.6,3.1,4.2c1.3,1.6,2.5,3,3.4,4
								C382.2,354.3,382.8,354.9,382.7,354.9z"/>
						</g>
					</g>
				</g>
			</g>
		</g>
		<g>
			<g>
				<g>
					<g>
						<path class="st4" d="M311.8,354.6c3.1-3.8,6.1-7.6,9.2-11.3"/>
					</g>
				</g>
			</g>
			<g>
				<g>
					<g>
						<g>
							<path class="st2" d="M321,343.3c0.1,0.1-1.9,2.7-4.4,5.8c-2.5,3.1-4.7,5.6-4.7,5.6c-0.1-0.1,1.9-2.7,4.5-5.8
								C318.8,345.7,320.9,343.2,321,343.3z"/>
						</g>
					</g>
				</g>
			</g>
		</g>
		<g>
			<g>
				<g>
					<g>
						<path class="st2" d="M311.8,253c0.1-0.1,2.1,2.3,4.5,5.3c2.4,3,4.2,5.5,4.2,5.6c-0.1,0.1-2.1-2.3-4.5-5.3
							C313.6,255.5,311.7,253,311.8,253z"/>
					</g>
				</g>
			</g>
		</g>
		<g>
			<g>
				<g>
					<rect x="339.2" y="280.2" class="st2" width="17.7" height="50.1"/>
				</g>
			</g>
		</g>
	</g>
	<g>
		<g>
			<g>
				<g>
					<polygon class="st2" points="480.1,238.1 480.1,282.7 416.1,282.7 413.8,238.4 					"/>
				</g>
			</g>
		</g>
		<g>
			<g>
				<g>
					<rect x="413.8" y="238.4" class="st4" width="64" height="44.1"/>
				</g>
			</g>
			<g>
				<g>
					<path class="st2" d="M478.1,282.9h-64.6v-44.8h64.6V282.9z M414.1,282.3h63.4v-43.5h-63.4V282.3z"/>
				</g>
			</g>
		</g>
		<g>
			<g>
				<g>
					<g>
						<rect x="420.8" y="243.9" class="st4" width="50.1" height="33.2"/>
					</g>
				</g>
			</g>
			<g>
				<g>
					<g>
						<g>
							<path class="st2" d="M470.9,243.9c0,0-0.1,0-0.2,0c-0.2,0-0.4,0-0.7,0c-0.6,0-1.6,0-2.8,0c-2.4,0-5.9,0-10.3,0
								c-8.8,0-21.4,0-36.1,0.1l0.1-0.1c0,10.1,0,21.4,0,33.2v0l-0.2-0.2c18.9,0,36.3,0,50.1,0l-0.1,0.1c0-10.1,0.1-18.4,0.1-24.1
								c0-2.9,0-5.1,0-6.7c0-0.8,0-1.3,0-1.8C470.9,244.1,470.9,243.9,470.9,243.9s0,0.2,0,0.6c0,0.4,0,1,0,1.7c0,1.5,0,3.8,0,6.6
								c0,5.8,0,14.1,0.1,24.2v0.1h-0.1c-13.8,0-31.2,0-50.1,0h-0.2v-0.2v0c0-11.8,0-23,0-33.2v-0.1h0.1c14.8,0,27.3,0.1,36.2,0.1
								c4.4,0,7.9,0,10.3,0c1.2,0,2.1,0,2.7,0c0.3,0,0.5,0,0.7,0C470.8,243.9,470.9,243.9,470.9,243.9z"/>
						</g>
					</g>
				</g>
			</g>
		</g>
		<g>
			<g>
				<g>
					<g>
						<path class="st2" d="M413.8,238.3c0,0,0.4,0.2,1.1,0.7c0.7,0.5,1.5,1.1,2.5,1.9c1,0.8,1.8,1.5,2.4,2c0.6,0.5,0.9,0.9,0.9,0.9
							c-0.1,0.1-1.6-1.2-3.5-2.7C415.3,239.7,413.8,238.4,413.8,238.3z"/>
					</g>
				</g>
			</g>
		</g>
		<g>
			<g>
				<g>
					<g>
						<path class="st2" d="M477.8,238.4c0.1,0.1-1.5,1.4-3.4,2.9c-1.9,1.5-3.5,2.7-3.6,2.6c-0.1-0.1,1.5-1.4,3.4-2.9
							S477.8,238.4,477.8,238.4z"/>
					</g>
				</g>
			</g>
		</g>
		<g>
			<g>
				<g>
					<g>
						<path class="st4" d="M477.8,282.6c-2.4-1.9-4.8-3.9-7.1-5.8"/>
					</g>
				</g>
			</g>
			<g>
				<g>
					<g>
						<g>
							<path class="st2" d="M470.6,276.8c0.1-0.1,1.7,1.2,3.7,2.8c2,1.6,3.5,2.9,3.5,3s-1.7-1.2-3.7-2.8
								C472.1,278.2,470.6,276.9,470.6,276.8z"/>
						</g>
					</g>
				</g>
			</g>
		</g>
		<g>
			<g>
				<g>
					<g>
						<path class="st2" d="M413.8,282.6c-0.1-0.1,1.4-1.3,3.3-2.8c1.9-1.5,3.5-2.7,3.5-2.6c0.1,0.1-1.4,1.3-3.3,2.8
							C415.5,281.5,413.9,282.7,413.8,282.6z"/>
					</g>
				</g>
			</g>
		</g>
		<g>
			<g>
				<g>
					<rect x="430.9" y="254.3" class="st2" width="31.5" height="11.1"/>
				</g>
			</g>
		</g>
	</g>
	<g>
		<g>
			<g>
				<path class="st6" d="M740.8,437.8c0,0-5.7-2.7-10.3,10.8c-4.5,13.5-5.8,21-5.8,21s-1.3,2.9-3.4,1.4c-2.1-1.4-5.2-5.9-8.2-4.6
					c-3,1.4-3.6,5.1-2.2,10.2s4,16.4,4.2,17.5c0.2,1-0.1,2.6-1.7,1.8c-1.6-0.8-11-8.6-14.5-3.9c-3.5,4.7,2.7,18.3,3.4,19.8
					c0.7,1.5,0.4,2.2-0.2,2.7c-0.7,0.5-3.6-2.4-6.4-4.6c-2.8-2.1-6.4-4.1-8.2-1.2c-1.8,2.9-0.9,13.7,11.9,29.5l6.4,6.9l9.3-1.9
					c19.6-5.3,26.7-13.5,26.9-16.9c0.3-3.4-3.8-3.9-7.3-3.8c-3.5,0.1-7.6,0.7-7.9-0.1c-0.3-0.8,0-1.5,1.4-2.3
					c1.4-0.8,14.4-8.2,14.4-14.1c0-5.9-12.3-5.1-14-5.4c-1.7-0.3-1.1-1.8-0.3-2.5c0.8-0.7,9.6-8.3,13.7-11.6s5.9-6.6,4.2-9.5
					c-1.6-2.8-6.8-1-9.3-1.1c-2.5,0-1.9-3.1-1.9-3.1s3.4-6.9,7.6-20.5s-2.1-14.8-2.1-14.8"/>
			</g>
		</g>
		<g>
			<g>
				<g>
					<path class="st2" d="M704.7,547.2c3.2-9.9,9.1-27.5,14.1-42.6c5-15.1,9.5-28.8,12.7-38.7c1.6-4.9,2.9-9,3.8-11.7
						c0.4-1.4,0.8-2.5,1-3.2c0.1-0.4,0.2-0.6,0.3-0.8c0.1-0.2,0.1-0.3,0.1-0.3s0,0.1-0.1,0.3c-0.1,0.2-0.1,0.5-0.2,0.8
						c-0.2,0.7-0.6,1.8-1,3.2c-0.9,2.8-2.1,6.8-3.7,11.8c-3.2,9.9-7.7,23.6-12.7,38.7c-5,15.1-11,32.7-14.2,42.6"/>
				</g>
			</g>
		</g>
		<g>
			<g>
				<g>
					<path class="st2" d="M717.4,472.9c0,0,0.1,0.2,0.3,0.6c0.2,0.4,0.5,1,0.8,1.7c0.6,1.4,1.5,3.4,2.4,5.6c0.9,2.2,1.7,4.2,2.3,5.7
						c0.3,0.7,0.5,1.3,0.7,1.7c0.2,0.4,0.3,0.6,0.2,0.6c0,0-0.1-0.2-0.3-0.6s-0.5-1-0.8-1.7c-0.6-1.4-1.4-3.4-2.3-5.7
						c-0.9-2.2-1.7-4.2-2.3-5.7c-0.3-0.7-0.5-1.3-0.7-1.7C717.4,473.1,717.4,472.9,717.4,472.9z"/>
				</g>
			</g>
		</g>
		<g>
			<g>
				<g>
					<path class="st2" d="M724.9,488.9c0-0.1,4-2,9-4.3c5-2.3,9.1-4.1,9.1-4c0,0.1-4,2-9,4.3C729.1,487.2,725,489,724.9,488.9z"/>
				</g>
			</g>
		</g>
		<g>
			<g>
				<g>
					<path class="st2" d="M716.2,511.7c0,0,0.2-0.1,0.7-0.1c0.5-0.1,1.1-0.2,1.9-0.3c1.6-0.2,3.8-0.6,6.2-1s4.6-0.9,6.1-1.3
						c0.7-0.2,1.4-0.3,1.8-0.4c0.4-0.1,0.7-0.1,0.7-0.1c0,0-0.2,0.1-0.7,0.2c-0.4,0.1-1,0.3-1.8,0.5c-1.5,0.4-3.7,0.9-6.1,1.4
						c-2.4,0.5-4.6,0.8-6.2,0.9c-0.8,0.1-1.4,0.2-1.9,0.2C716.5,511.7,716.2,511.8,716.2,511.7z"/>
				</g>
			</g>
		</g>
		<g>
			<g>
				<g>
					<path class="st2" d="M706.2,498.8c0,0,0.2,0.2,0.4,0.5c0.3,0.4,0.7,0.8,1.1,1.3c0.9,1.1,2.2,2.7,3.6,4.5
						c1.4,1.8,2.7,3.4,3.6,4.6c0.4,0.6,0.8,1,1,1.4c0.2,0.3,0.4,0.5,0.4,0.5c0,0-0.2-0.2-0.4-0.5c-0.3-0.4-0.7-0.8-1.1-1.3
						c-0.9-1.1-2.2-2.7-3.6-4.5c-1.4-1.8-2.7-3.4-3.6-4.6c-0.4-0.6-0.8-1-1-1.4C706.3,499,706.2,498.8,706.2,498.8z"/>
				</g>
			</g>
		</g>
		<g>
			<g>
				<g>
					<path class="st2" d="M695.9,518c0,0,0.2,0.2,0.6,0.6c0.4,0.4,0.9,1,1.4,1.7c1.2,1.5,2.9,3.5,4.7,5.7c1.8,2.2,3.5,4.3,4.6,5.8
						c0.6,0.7,1,1.3,1.4,1.8c0.3,0.4,0.5,0.7,0.5,0.7c0,0-0.2-0.2-0.6-0.6c-0.4-0.4-0.9-1-1.4-1.7c-1.2-1.5-2.9-3.5-4.7-5.7
						c-1.8-2.2-3.5-4.3-4.6-5.8c-0.6-0.7-1-1.3-1.4-1.8C696.1,518.2,695.9,518,695.9,518z"/>
				</g>
			</g>
		</g>
		<g>
			<g>
				<g>
					<path class="st2" d="M708.9,533.7c0,0,0.3-0.1,0.9-0.2c0.6-0.1,1.4-0.3,2.4-0.4c2-0.4,4.8-0.9,7.8-1.5c3-0.7,5.7-1.3,7.7-1.8
						c0.9-0.2,1.7-0.4,2.3-0.6c0.6-0.1,0.9-0.2,0.9-0.2c0,0-0.3,0.1-0.8,0.3c-0.5,0.2-1.3,0.4-2.3,0.7c-2,0.5-4.7,1.2-7.7,1.9
						c-3,0.7-5.8,1.1-7.8,1.5c-1,0.2-1.8,0.3-2.4,0.3C709.2,533.7,708.9,533.8,708.9,533.7z"/>
				</g>
			</g>
		</g>
	</g>
</g>
<g id="Floor">
	<g>
		<g>
			<path class="st7" d="M757.9,546.9c0,0.1-105.1,0.2-234.7,0.2c-129.7,0-234.7-0.1-234.7-0.2s105.1-0.2,234.7-0.2
				C652.8,546.7,757.9,546.8,757.9,546.9z"/>
		</g>
	</g>
</g>
<g id="Stopwatch">
	<g>
		<g>
			<g>
				<g>
					
						<rect x="610.3" y="281.1" transform="matrix(0.7582 -0.652 0.652 0.7582 -39.4324 470.7867)" class="st7" width="9.6" height="14.9"/>
				</g>
				<g>
					<path class="st8" d="M620.6,279.8l-15,12.9l-10.5-12.2c4.1-5.8,9.1-10.2,15-12.9L620.6,279.8z"/>
				</g>
			</g>
			<g>
				<g>
					<path class="st7" d="M608.2,290.5c-0.1,0.1-2.6-2.7-5.7-6.2c-3-3.5-5.4-6.4-5.4-6.5c0.1-0.1,2.6,2.7,5.7,6.2
						C605.8,287.5,608.2,290.4,608.2,290.5z"/>
				</g>
			</g>
			<g>
				<g>
					<path class="st7" d="M611,288.1c0,0-0.7-0.7-1.7-1.9c-1-1.2-2.4-2.8-3.9-4.7c-1.5-1.8-2.8-3.4-3.8-4.7c-0.4-0.5-0.8-1-1.2-1.4
						c-0.3-0.3-0.4-0.5-0.4-0.5c0.1-0.1,2.7,2.8,5.7,6.4c1.5,1.8,2.8,3.5,3.8,4.7C610.5,287.2,611,288,611,288.1z"/>
				</g>
			</g>
			<g>
				<g>
					<path class="st7" d="M614.8,284.8c0,0-0.7-0.7-1.7-1.9c-1-1.2-2.4-2.9-3.9-4.7c-1.5-1.8-2.8-3.5-3.8-4.8
						c-0.4-0.6-0.8-1-1.1-1.5c-0.3-0.4-0.4-0.5-0.4-0.6c0-0.1,0.7,0.7,1.8,1.8c1,1.2,2.4,2.9,3.9,4.7c1.5,1.9,2.9,3.6,3.8,4.8
						C614.3,284,614.8,284.8,614.8,284.8z"/>
				</g>
			</g>
			<g>
				<g>
					<path class="st7" d="M618.3,281.7c-0.1,0.1-2.6-2.7-5.6-6.3c-3-3.5-5.4-6.5-5.3-6.5c0.1-0.1,2.6,2.7,5.6,6.3
						C616,278.7,618.3,281.7,618.3,281.7z"/>
				</g>
			</g>
		</g>
		<g>
			<g>
				<g>
					
						<rect x="726.3" y="285.3" transform="matrix(0.723 -0.6909 0.6909 0.723 2.8357 587.3346)" class="st7" width="14.9" height="9.6"/>
				</g>
				<g>
					<path class="st8" d="M742.8,295.2L729.2,281l11.7-11.1c6,3.8,10.6,8.5,13.6,14.3L742.8,295.2z"/>
				</g>
			</g>
			<g>
				<g>
					<path class="st7" d="M731.5,283.4c-0.1-0.1,2.6-2.8,5.9-6c3.3-3.2,6.1-5.8,6.2-5.7c0.1,0.1-2.6,2.8-5.9,6
						C734.3,280.9,731.5,283.4,731.5,283.4z"/>
				</g>
			</g>
			<g>
				<g>
					<path class="st7" d="M734.1,286.1c0,0,0.6-0.7,1.8-1.8c1.1-1.1,2.7-2.5,4.5-4.1c1.7-1.6,3.3-3,4.5-4.1c0.5-0.5,1-0.9,1.4-1.2
						c0.3-0.3,0.5-0.4,0.5-0.4c0.2,0.1-2.6,2.8-6.1,6c-1.8,1.6-3.4,3-4.5,4C734.8,285.5,734.1,286.1,734.1,286.1z"/>
				</g>
			</g>
			<g>
				<g>
					<path class="st7" d="M737.5,289.7c0,0,0.7-0.7,1.8-1.8c1.1-1.1,2.7-2.5,4.5-4.2c1.7-1.6,3.3-3,4.6-4.1c0.5-0.5,1-0.9,1.4-1.2
						c0.3-0.3,0.5-0.4,0.5-0.4c0.1,0-0.6,0.8-1.7,1.9c-1.1,1.1-2.7,2.6-4.5,4.2c-1.8,1.6-3.4,3-4.6,4.1
						C738.3,289.1,737.6,289.7,737.5,289.7z"/>
				</g>
			</g>
			<g>
				<g>
					<path class="st7" d="M740.8,293c-0.1-0.1,2.6-2.7,6-5.9c3.4-3.2,6.2-5.7,6.2-5.7c0.1,0.1-2.6,2.7-6,5.9
						C743.6,290.5,740.8,293.1,740.8,293z"/>
				</g>
			</g>
		</g>
		<g>
			<g>
				<g>
					<rect x="670.1" y="255.4" class="st7" width="11.3" height="17.7"/>
				</g>
				<g>
					<path class="st9" d="M687.5,260.6h-23.4v-19.1c8.2-2,16-2.1,23.4,0V260.6z"/>
				</g>
			</g>
			<g>
				<g>
					<path class="st7" d="M687.8,241.7c0,0-0.3,0.2-0.9,0.4c-0.6,0.3-1.4,0.6-2.5,0.9c-1.1,0.3-2.3,0.7-3.8,0.9
						c-1.4,0.2-3.1,0.4-4.8,0.4c-1.7,0-3.3-0.1-4.8-0.4c-1.4-0.2-2.7-0.5-3.8-0.9c-1.1-0.3-1.9-0.6-2.5-0.9
						c-0.6-0.2-0.9-0.4-0.9-0.4c0-0.1,1.3,0.5,3.4,1c1.1,0.3,2.3,0.6,3.8,0.8c1.4,0.2,3,0.3,4.7,0.3c1.7,0,3.3-0.2,4.7-0.4
						c1.4-0.2,2.7-0.5,3.8-0.8C686.5,242.1,687.8,241.6,687.8,241.7z"/>
				</g>
			</g>
			<g>
				<g>
					<path class="st7" d="M671.9,260.6c-0.1,0-0.2-3.7-0.2-8.2s0.1-8.2,0.2-8.2c0.1,0,0.2,3.7,0.2,8.2S672,260.6,671.9,260.6z"/>
				</g>
			</g>
			<g>
				<g>
					<path class="st7" d="M676.3,260.7c-0.1,0-0.2-3.7-0.2-8.2s0.1-8.2,0.2-8.2c0.1,0,0.2,3.7,0.2,8.2S676.4,260.7,676.3,260.7z"/>
				</g>
			</g>
			<g>
				<g>
					<path class="st7" d="M680.8,260.6c-0.1,0-0.2-3.7-0.2-8.2s0.1-8.2,0.2-8.2c0.1,0,0.2,3.7,0.2,8.2S680.9,260.6,680.8,260.6z"/>
				</g>
			</g>
			<g>
				<g>
					<path class="st7" d="M684.5,260.6c-0.1,0-0.2-4-0.2-8.9c0-4.9,0.1-8.9,0.2-8.9c0.1,0,0.2,4,0.2,8.9
						C684.7,256.7,684.6,260.6,684.5,260.6z"/>
				</g>
			</g>
			<g>
				<g>
					<path class="st7" d="M667.7,260.5c-0.1,0-0.2-4-0.2-8.9c0-4.9,0.1-8.9,0.2-8.9c0.1,0,0.2,4,0.2,8.9
						C667.9,256.5,667.8,260.5,667.7,260.5z"/>
				</g>
			</g>
		</g>
		<g>
			
				<ellipse transform="matrix(0.7071 -0.7071 0.7071 0.7071 -50.0103 579.3911)" class="st9" cx="674.4" cy="350.1" rx="82.5" ry="82.5"/>
		</g>
		<g>
			<g>
				<circle class="st10" cx="674.4" cy="349.4" r="69.3"/>
			</g>
			<g>
				<g>
					<path class="st7" d="M743.7,349.4c0,0,0-0.4,0-1.1c0-0.7,0-1.9-0.1-3.3c-0.2-2.9-0.7-7.2-2-12.5c-0.7-2.7-1.6-5.6-2.8-8.7
						c-1.3-3.1-2.8-6.4-4.8-9.7c-4-6.7-9.8-13.7-17.6-19.7c-3.9-3-8.3-5.7-13.2-7.9c-4.9-2.2-10.2-4-15.9-5c-5.7-1-11.7-1.5-17.8-1
						c-3.1,0.2-6.2,0.7-9.3,1.3c-3.1,0.7-6.2,1.6-9.2,2.6c-12.2,4.4-23.8,12.7-32.1,24.1c-2.1,2.8-4,5.9-5.6,9.1
						c-0.8,1.6-1.6,3.2-2.3,4.9c-0.7,1.7-1.4,3.4-1.9,5.1c-1.1,3.5-2.1,7-2.6,10.7c-0.6,3.7-0.9,7.4-0.9,11.1
						c0,3.7,0.3,7.5,0.9,11.1c0.6,3.7,1.5,7.2,2.6,10.7c0.6,1.7,1.2,3.4,1.9,5.1c0.7,1.7,1.5,3.3,2.3,4.9c1.7,3.2,3.5,6.2,5.6,9.1
						c8.3,11.4,19.9,19.7,32.1,24.1c3.1,1.1,6.1,2,9.2,2.6c3.1,0.6,6.2,1.1,9.3,1.3c6.1,0.5,12.1,0.1,17.8-1c5.7-1,11-2.8,15.9-5
						c4.9-2.2,9.3-4.9,13.2-7.9c7.8-6,13.6-13,17.6-19.7c2-3.3,3.6-6.6,4.8-9.7c1.3-3.1,2.1-6,2.8-8.7c1.3-5.3,1.8-9.6,2-12.5
						c0.1-1.4,0.1-2.5,0.1-3.3C743.6,349.8,743.7,349.4,743.7,349.4s0,0.4,0,1.1c0,0.7,0,1.9-0.1,3.3c-0.1,2.9-0.6,7.2-1.9,12.5
						c-0.7,2.7-1.5,5.6-2.8,8.7c-1.2,3.1-2.8,6.4-4.8,9.8c-4,6.7-9.7,13.8-17.6,19.8c-3.9,3-8.4,5.7-13.3,7.9
						c-4.9,2.2-10.3,4-16,5.1c-5.7,1.1-11.7,1.5-17.9,1c-3.1-0.2-6.2-0.7-9.3-1.3c-3.1-0.7-6.2-1.6-9.3-2.6
						c-12.3-4.4-23.9-12.7-32.3-24.2c-2.1-2.8-4-5.9-5.7-9.1c-0.9-1.6-1.6-3.3-2.3-4.9c-0.7-1.7-1.4-3.4-1.9-5.1
						c-1.1-3.5-2.1-7.1-2.6-10.8c-0.6-3.7-0.9-7.4-0.9-11.2c0-3.8,0.3-7.5,0.9-11.2c0.6-3.7,1.5-7.3,2.6-10.7
						c0.6-1.8,1.2-3.4,1.9-5.1c0.7-1.7,1.5-3.3,2.3-4.9c1.7-3.2,3.5-6.3,5.7-9.1c8.4-11.5,20-19.8,32.3-24.2c3.1-1.1,6.2-2,9.3-2.6
						c3.1-0.6,6.2-1.1,9.3-1.3c6.2-0.5,12.2-0.1,17.9,1c5.7,1,11.1,2.8,16,5.1c4.9,2.2,9.3,4.9,13.3,7.9c7.8,6,13.6,13,17.6,19.8
						c2,3.4,3.6,6.7,4.8,9.8c1.3,3.1,2.1,6.1,2.8,8.7c1.3,5.4,1.8,9.6,1.9,12.5c0.1,1.4,0.1,2.6,0.1,3.3
						C743.7,349,743.7,349.4,743.7,349.4z"/>
				</g>
			</g>
		</g>
		<g>
			<g>
				<path class="st11" d="M759.6,355.5"/>
			</g>
		</g>
		<g>
			<g>
				<g>
					<path class="st7" d="M733.5,346.9c-2.2,0.1-4,0-4-0.2c0-0.2,1.8-0.5,4-0.6c2.2-0.1,4,0,4,0.2
						C737.5,346.5,735.7,346.8,733.5,346.9z"/>
				</g>
			</g>
			<g>
				<g>
					<path class="st7" d="M732,362.8c-2.1-0.5-3.8-1.1-3.8-1.2c0-0.2,1.8,0,4,0.5s3.8,1,3.8,1.2S734.2,363.3,732,362.8z"/>
				</g>
			</g>
			<g>
				<g>
					<path class="st7" d="M726.3,377.8c-1.9-1.1-3.4-2.1-3.3-2.2c0.1-0.2,1.7,0.5,3.7,1.6c1.9,1,3.4,2,3.3,2.2
						C729.9,379.6,728.2,378.9,726.3,377.8z"/>
				</g>
			</g>
			<g>
				<g>
					<path class="st7" d="M716.8,390.7c-1.6-1.5-2.7-2.9-2.6-3s1.5,1,3.1,2.5c1.6,1.5,2.8,2.9,2.6,3
						C719.8,393.3,718.4,392.2,716.8,390.7z"/>
				</g>
			</g>
			<g>
				<g>
					<path class="st7" d="M704.2,400.6c-1.1-1.9-1.9-3.5-1.7-3.6c0.2-0.1,1.2,1.3,2.4,3.2c1.1,1.9,1.9,3.5,1.7,3.6
						C706.3,403.9,705.3,402.5,704.2,400.6z"/>
				</g>
			</g>
			<g>
				<g>
					<path class="st7" d="M689.4,406.7c-0.6-2.1-0.8-3.9-0.7-3.9c0.2-0.1,0.8,1.6,1.4,3.7c0.6,2.1,0.9,3.9,0.7,3.9
						C690.5,410.5,689.9,408.8,689.4,406.7z"/>
				</g>
			</g>
			<g>
				<g>
					<path class="st7" d="M673.5,408.6c0-2.2,0.2-4,0.4-4c0.2,0,0.4,1.8,0.4,4c0,2.2-0.2,4-0.4,4
						C673.6,412.6,673.4,410.8,673.5,408.6z"/>
				</g>
			</g>
			<g>
				<g>
					<path class="st7" d="M657.6,406.2c0.6-2.1,1.3-3.8,1.5-3.7s-0.1,1.8-0.7,3.9c-0.6,2.1-1.3,3.8-1.5,3.7
						C656.7,410,657,408.3,657.6,406.2z"/>
				</g>
			</g>
			<g>
				<g>
					<path class="st7" d="M643,399.6c1.2-1.9,2.3-3.3,2.4-3.2c0.2,0.1-0.6,1.7-1.8,3.6s-2.2,3.3-2.4,3.2
						C641.1,403.1,641.8,401.4,643,399.6z"/>
				</g>
			</g>
			<g>
				<g>
					<path class="st7" d="M630.7,389.3c1.6-1.5,3.1-2.6,3.2-2.4s-1.1,1.5-2.7,3c-1.6,1.5-3,2.6-3.2,2.4
						C627.9,392.2,629.1,390.8,630.7,389.3z"/>
				</g>
			</g>
			<g>
				<g>
					<path class="st7" d="M621.6,376.2c2-1,3.6-1.7,3.7-1.5s-1.4,1.1-3.4,2.2s-3.6,1.7-3.7,1.5C618.1,378.1,619.6,377.2,621.6,376.2
						z"/>
				</g>
			</g>
			<g>
				<g>
					<path class="st7" d="M616.4,361c2.2-0.4,3.9-0.6,4-0.4c0,0.2-1.7,0.7-3.8,1.2c-2.1,0.5-3.9,0.7-4,0.4
						C612.5,362,614.2,361.5,616.4,361z"/>
				</g>
			</g>
			<g>
				<g>
					<path class="st7" d="M615.4,345c2.2,0.2,4,0.5,3.9,0.6c0,0.2-1.8,0.2-4,0.1c-2.2-0.1-4-0.4-3.9-0.6
						C611.4,344.9,613.2,344.9,615.4,345z"/>
				</g>
			</g>
			<g>
				<g>
					<path class="st7" d="M618.7,329.4c2.1,0.7,3.7,1.5,3.6,1.7c-0.1,0.2-1.8-0.3-3.9-1c-2.1-0.7-3.7-1.5-3.6-1.7
						C614.9,328.2,616.6,328.6,618.7,329.4z"/>
				</g>
			</g>
			<g>
				<g>
					<path class="st7" d="M626.1,315.2c1.8,1.3,3.2,2.4,3,2.6c-0.1,0.2-1.7-0.7-3.5-2c-1.8-1.2-3.2-2.4-3-2.6
						C622.8,313,624.3,313.9,626.1,315.2z"/>
				</g>
			</g>
			<g>
				<g>
					<path class="st7" d="M637.1,303.5c1.4,1.7,2.4,3.2,2.2,3.3c-0.2,0.1-1.4-1.1-2.8-2.8c-1.4-1.7-2.4-3.2-2.2-3.3
						C634.4,300.5,635.7,301.8,637.1,303.5z"/>
				</g>
			</g>
			<g>
				<g>
					<path class="st7" d="M650.8,295.1c0.9,2,1.4,3.7,1.3,3.8c-0.2,0.1-1.1-1.5-2-3.5c-0.9-2-1.5-3.7-1.3-3.8
						C649,291.6,649.9,293.1,650.8,295.1z"/>
				</g>
			</g>
			<g>
				<g>
					<path class="st7" d="M666.2,290.8c0.3,2.2,0.4,4,0.2,4c-0.2,0-0.6-1.7-1-3.9c-0.3-2.2-0.4-4-0.2-4
						C665.4,286.9,665.9,288.6,666.2,290.8z"/>
				</g>
			</g>
			<g>
				<g>
					<path class="st7" d="M682.2,290.7c-0.3,2.2-0.7,3.9-0.9,3.9s-0.1-1.8,0.1-4c0.3-2.2,0.7-3.9,0.9-3.9
						C682.5,286.8,682.5,288.6,682.2,290.7z"/>
				</g>
			</g>
			<g>
				<g>
					<path class="st7" d="M697.6,295c-0.9,2-1.7,3.6-1.9,3.5c-0.2-0.1,0.4-1.8,1.2-3.8c0.8-2,1.7-3.6,1.9-3.5
						C699,291.3,698.5,293,697.6,295z"/>
				</g>
			</g>
			<g>
				<g>
					<path class="st7" d="M711.4,303.2c-1.4,1.7-2.6,3-2.8,2.9c-0.2-0.1,0.8-1.6,2.2-3.4s2.6-3,2.8-2.9
						C713.7,300,712.8,301.5,711.4,303.2z"/>
				</g>
			</g>
			<g>
				<g>
					<path class="st7" d="M722.4,314.8c-1.8,1.3-3.3,2.2-3.4,2s1.2-1.3,3-2.7c1.8-1.3,3.3-2.2,3.4-2
						C725.5,312.4,724.2,313.6,722.4,314.8z"/>
				</g>
			</g>
			<g>
				<g>
					<path class="st7" d="M729.9,329c-2.1,0.8-3.8,1.2-3.9,1c-0.1-0.2,1.5-1,3.6-1.8c2.1-0.8,3.8-1.3,3.9-1
						C733.6,327.4,732,328.2,729.9,329z"/>
				</g>
			</g>
			<g>
				<g>
					<path class="st7" d="M733.4,344.6c-2.2,0.2-4,0.2-4,0c0-0.2,1.7-0.5,3.9-0.7c2.2-0.2,4-0.2,4,0
						C737.3,344.1,735.6,344.4,733.4,344.6z"/>
				</g>
			</g>
		</g>
		<g>
			<g>
				<path class="st4" d="M647.5,274.5c0,0-0.1,0-0.2,0.1c-0.2,0.1-0.4,0.2-0.7,0.3c-0.6,0.3-1.5,0.6-2.7,1.1c-2.3,1-5.7,2.5-9.6,4.8
					c-2,1.1-4,2.5-6.2,4c-2.1,1.6-4.4,3.3-6.6,5.3c-4.5,4-8.9,8.8-12.9,14.5c-3.9,5.7-6.8,11.6-8.9,17.3c-1.1,2.8-1.8,5.5-2.5,8.1
					c-0.6,2.6-1.1,5-1.5,7.2c-0.7,4.5-0.9,8.1-1,10.7c-0.1,1.3,0,2.2,0,2.9c0,0.3,0,0.6,0,0.8c0,0.2,0,0.3,0,0.3s0-0.1,0-0.3
					c0-0.2,0-0.4,0-0.8c0-0.7-0.1-1.7,0-2.9c0-2.5,0.2-6.2,0.8-10.7c0.3-2.2,0.8-4.7,1.4-7.3c0.7-2.6,1.4-5.3,2.5-8.1
					c2.1-5.6,5-11.6,8.9-17.3c3.9-5.7,8.4-10.6,12.9-14.6c2.2-2,4.5-3.7,6.7-5.3c2.2-1.5,4.3-2.9,6.3-4c3.9-2.2,7.3-3.8,9.7-4.7
					c1.2-0.5,2.1-0.8,2.7-1c0.3-0.1,0.5-0.2,0.7-0.2C647.4,274.5,647.5,274.5,647.5,274.5z"/>
			</g>
		</g>
		<g>
			<g>
				<path class="st4" d="M670.5,270c0,0.1-0.9,0.2-2.4,0.3c-1.5,0.2-3.5,0.4-5.8,0.7c-2.2,0.3-4.3,0.6-5.7,0.8
					c-1.5,0.2-2.4,0.4-2.4,0.3c0-0.1,0.9-0.3,2.3-0.6s3.5-0.7,5.7-0.9c2.3-0.3,4.3-0.5,5.8-0.6C669.6,269.9,670.5,269.9,670.5,270z"
					/>
			</g>
		</g>
		<g class="st12">
			<path d="M619,391c0,0,35.9,56.7,91.6,27.6c58.1-30.3,26-99.7,26-99.7s27.4,55.3-29.3,91.4c-14.1,9-29.5,9-41.2,7.8
				C636.2,415.2,619,391,619,391z"/>
		</g>
		<g>
			<path class="st2" d="M693.7,312.6c0.3,10.2,0,20.3-0.9,30.5c-0.3,3.7-0.8,7.4-2.2,10.8c-1.4,3.4-3.8,6.5-7.2,8
				c-3.4,1.4-7.7,0.8-10.1-2L693.7,312.6z"/>
		</g>
		<g>
			<g>
				<g>
					<polygon class="st9" points="672.9,343.9 698.1,301.5 682.9,349.4 675.1,351.7 					"/>
				</g>
				<g class="st12">
					<polygon points="698.1,301.5 679.4,344.9 682.9,349.4 					"/>
				</g>
			</g>
			<g>
				<g>
					<g>
						<circle class="st10" cx="675.1" cy="351.7" r="8.1"/>
					</g>
					<g>
						<g>
							<path class="st7" d="M683.2,351.7c-0.1,0,0-0.7-0.3-2c-0.3-1.2-1.1-3-3-4.4c-0.9-0.7-2-1.2-3.4-1.5c-1.3-0.2-2.8-0.2-4.2,0.4
								c-0.7,0.2-1.4,0.6-2,1.1c-0.6,0.5-1.2,1-1.7,1.7c-1,1.3-1.5,3-1.5,4.7c0,1.7,0.6,3.4,1.5,4.7c0.5,0.7,1,1.2,1.7,1.7
								c0.6,0.5,1.3,0.8,2,1.1c1.4,0.5,2.9,0.6,4.2,0.4c1.3-0.2,2.4-0.8,3.4-1.5c1.8-1.4,2.6-3.2,3-4.4
								C683.2,352.5,683.1,351.7,683.2,351.7c0,0,0.1,0.7-0.2,2c-0.3,1.2-1.1,3.1-2.9,4.6c-0.9,0.7-2.1,1.3-3.5,1.6
								c-1.4,0.2-2.9,0.2-4.4-0.3c-0.7-0.3-1.4-0.6-2.1-1.1c-0.7-0.5-1.3-1.1-1.8-1.8c-1-1.4-1.6-3.1-1.6-4.9c0-1.8,0.6-3.5,1.6-4.9
								c0.5-0.7,1.1-1.3,1.8-1.8c0.7-0.5,1.4-0.9,2.1-1.1c1.5-0.6,3-0.6,4.3-0.3c1.4,0.3,2.5,0.9,3.5,1.6c1.9,1.5,2.7,3.3,2.9,4.6
								C683.3,351,683.2,351.7,683.2,351.7z"/>
						</g>
					</g>
				</g>
				<g>
					<g>
						<ellipse class="st8" cx="675.1" cy="351.7" rx="6" ry="6"/>
					</g>
				</g>
			</g>
		</g>
	</g>
</g>
<g id="Calendar">
	<g>
		<g>
			<g>
				<polygon class="st2" points="611.2,546.2 651.1,546.2 632.5,386 				"/>
			</g>
			<g>
				<polygon class="st10" points="415.1,386 389.2,548.1 610.6,550.9 632.5,386 				"/>
			</g>
			<g>
				<polygon class="st6" points="622.6,460.3 403.2,460.3 408,430.4 626.6,430.4 				"/>
				<path class="st7" d="M622.7,460.3H403.2v0l4.8-29.9h218.6v0L622.7,460.3z M403.3,460.2h219.4l4-29.8H408L403.3,460.2z"/>
			</g>
			<g>
				<polygon class="st9" points="415.1,386 408,430.4 626.6,430.4 632.5,386 				"/>
			</g>
			<g>
				<g>
					<path class="st7" d="M415.1,386c1.6,0,88.6-0.1,217.4-0.2h0.2l0,0.2c-6.4,48.3-13.7,103-21.4,160.8l0,0.2h-0.2
						c-0.8,0-1.6,0-2.5,0c-81.8,0-157.5,0-219.3,0h-0.2l0-0.2C404.9,449.5,414.9,387.4,415.1,386c-0.2,1.3-10.1,63.5-25.6,160.9
						l-0.2-0.2c61.7,0,137.5,0,219.3,0c0.9,0,1.7,0,2.5,0l-0.2,0.2c7.7-57.8,15-112.6,21.4-160.8l0.2,0.2
						C503.7,386.1,416.7,386,415.1,386z"/>
				</g>
			</g>
			<g>
				<g>
					<path class="st7" d="M626.6,430.4c0,0.1-48.9,0.2-109.3,0.2c-60.4,0-109.3-0.1-109.3-0.2s48.9-0.2,109.3-0.2
						C577.7,430.2,626.6,430.3,626.6,430.4z"/>
				</g>
			</g>
			<g>
				<g>
					<path class="st7" d="M622.6,460.3c0,0.1-49.2,0.2-109.9,0.2c-60.7,0-109.9-0.1-109.9-0.2s49.2-0.2,109.9-0.2
						C573.4,460.1,622.6,460.1,622.6,460.3z"/>
				</g>
			</g>
			<g>
				<g>
					<path class="st7" d="M618.2,487.7c0,0.1-49.2,0.2-109.9,0.2c-60.7,0-109.9-0.1-109.9-0.2s49.2-0.2,109.9-0.2
						C569,487.5,618.2,487.6,618.2,487.7z"/>
				</g>
			</g>
			<g>
				<g>
					<path class="st7" d="M613.7,515.2c0,0.1-49.2,0.2-109.9,0.2c-60.7,0-109.9-0.1-109.9-0.2s49.2-0.2,109.9-0.2
						C564.5,515,613.7,515.1,613.7,515.2z"/>
				</g>
			</g>
			<g>
				<g>
					<path class="st7" d="M420.3,547.1c-0.1,0,3.9-26.2,9-58.4c5.1-32.2,9.3-58.3,9.4-58.3c0.1,0-3.9,26.2-9,58.4
						C424.6,521,420.4,547.1,420.3,547.1z"/>
				</g>
			</g>
			<g>
				<g>
					<path class="st7" d="M454.1,547.1c-0.1,0,3.9-26.2,9-58.4c5.1-32.2,9.3-58.3,9.4-58.3c0.1,0-3.9,26.2-9,58.4
						C458.4,521,454.2,547.1,454.1,547.1z"/>
				</g>
			</g>
			<g>
				<g>
					<path class="st7" d="M485.5,546c-0.1,0,3.9-25.9,8.9-57.8c5-31.9,9.2-57.8,9.3-57.7c0.1,0-3.9,25.9-8.9,57.8
						C489.8,520.1,485.6,546,485.5,546z"/>
				</g>
			</g>
			<g>
				<g>
					<path class="st7" d="M516.6,546.9c-0.1,0,3.9-26.1,9-58.3c5.1-32.2,9.2-58.2,9.3-58.2c0.1,0-3.9,26.1-9,58.3
						C520.9,520.8,516.7,546.9,516.6,546.9z"/>
				</g>
			</g>
			<g>
				<g>
					<path class="st7" d="M547.9,546.9c-0.1,0,3.9-26.1,9-58.3c5.1-32.2,9.2-58.2,9.3-58.2c0.1,0-3.9,26.1-9,58.3
						C552.2,520.8,548,546.9,547.9,546.9z"/>
				</g>
			</g>
			<g>
				<g>
					<path class="st7" d="M579.1,547c-0.1,0,3.9-26.1,9-58.3c5.1-32.2,9.3-58.3,9.4-58.3c0.1,0-3.9,26.1-9,58.4
						C583.4,521,579.2,547.1,579.1,547z"/>
				</g>
			</g>
		</g>
		<g class="st13">
			<g>
				<path d="M559.4,432.5c3.8-1.7,6.1-5.6,7.1-9.6c1-4,0.8-8.2,1-12.3c0.1-4.1,0.6-8.4,2.7-11.9c1.2-2.1,3-3.8,4.4-5.8
					c1.4-2,2.4-4.5,1.9-6.8l-23.5,0.1L559.4,432.5z"/>
			</g>
		</g>
		<g>
			<g>
				<path class="st7" d="M461.8,462.5c0,0-0.1,0.1-0.2,0.3c-0.2,0.2-0.4,0.4-0.7,0.7c-0.6,0.6-1.5,1.5-2.7,2.6
					c-2.3,2.2-5.5,5.2-9.1,8.4c-3.6,3.2-7,6-9.5,8c-1.2,1-2.2,1.8-3,2.3c-0.3,0.2-0.6,0.4-0.8,0.6c-0.2,0.1-0.3,0.2-0.3,0.2
					c0,0,0.1-0.1,0.3-0.3c0.2-0.2,0.5-0.4,0.8-0.7c0.7-0.6,1.7-1.4,2.9-2.4c2.4-2,5.8-4.9,9.4-8.1c3.6-3.2,6.9-6.2,9.2-8.3
					c1.1-1,2.1-1.9,2.8-2.5c0.3-0.3,0.6-0.5,0.8-0.7C461.7,462.5,461.8,462.5,461.8,462.5z"/>
			</g>
		</g>
		<g>
			<g>
				<path class="st7" d="M460.1,486c0,0-0.3-0.3-0.9-0.9c-0.6-0.7-1.4-1.5-2.4-2.5c-2.1-2.2-4.8-5.2-7.9-8.4c-3.1-3.2-5.9-6.2-8-8.3
					c-1-1-1.8-1.9-2.4-2.5c-0.6-0.6-0.9-0.9-0.8-1c0,0,0.4,0.3,1,0.9c0.6,0.6,1.5,1.4,2.5,2.4c2.1,2.1,5,5,8.1,8.3
					c3.1,3.3,5.8,6.3,7.8,8.5c1,1.1,1.8,2,2.3,2.6C459.8,485.6,460.1,486,460.1,486z"/>
			</g>
		</g>
		<g>
			<g>
				<path class="st9" d="M468.2,469.5c0,0,0.1-0.2,0.2-0.6c0.2-0.4,0.5-0.9,0.9-1.6c0.9-1.3,2.7-3.2,5.7-4.2
					c0.7-0.3,1.5-0.5,2.4-0.6c0.9-0.1,1.8-0.2,2.7-0.1c1.9,0.2,3.9,0.8,5.8,2c1.9,1.2,3.7,2.8,5,5c1.3,2.1,2.3,4.8,2.1,7.6
					c-0.1,1.4-0.5,2.8-1.3,4.1c-0.8,1.3-1.9,2.3-3.2,3.2c-2.6,1.7-5.8,2.5-9.1,2.4c-1.6-0.1-3.3-0.4-4.9-1.1
					c-1.6-0.6-3.1-1.6-4.3-2.9c-0.6-0.7-1.1-1.4-1.5-2.2c-0.4-0.8-0.6-1.7-0.8-2.6c-0.3-1.8-0.1-3.7,0.5-5.5
					c1.1-3.5,3.7-6.7,7.1-8.6c3.4-1.9,7.8-2.2,11.5-0.5c1.9,0.8,3.6,2.1,4.8,3.7c1.3,1.6,2,3.7,2.3,5.7c0.3,2.1-0.1,4.3-1,6.2
					c-0.5,1-1.1,1.9-1.8,2.6c-0.7,0.8-1.6,1.4-2.5,2c-3.7,2.1-8.3,2.4-12.3,1.2c-2-0.6-3.8-1.7-5.4-3.1c-1.5-1.4-2.6-3.3-3-5.3
					c-0.4-2-0.2-4.1,0.8-5.9c0.5-0.9,1.2-1.7,1.9-2.3c0.8-0.6,1.7-1.1,2.6-1.4c1.9-0.6,3.8-0.8,5.7-0.7c1.9,0,3.8,0.3,5.6,0.8
					c1.8,0.5,3.5,1.3,4.8,2.6c1.3,1.2,2.2,2.9,2.6,4.6c0.4,1.7,0.2,3.5-0.3,5.2c-0.5,1.6-1.5,3.1-2.7,4.2c-2.4,2.3-5.5,3.6-8.6,3.7
					c-1.5,0.1-3.1-0.1-4.4-0.7c-1.4-0.5-2.6-1.3-3.6-2.4c-1-1-1.7-2.3-2.1-3.5c-0.4-1.3-0.6-2.6-0.6-3.8c0.1-2.5,1.2-4.8,2.7-6.5
					c1.5-1.7,3.3-2.7,5.1-3.3c1.8-0.6,3.6-0.7,5.1-0.5c3.1,0.4,5.3,1.7,6.6,2.7c0.7,0.5,1.1,0.9,1.4,1.2c0.3,0.3,0.4,0.5,0.4,0.5
					s-0.2-0.1-0.5-0.4c-0.3-0.3-0.8-0.7-1.4-1.2c-1.3-0.9-3.5-2.2-6.6-2.6c-1.5-0.2-3.3-0.1-5.1,0.5c-1.8,0.6-3.6,1.7-5,3.3
					c-1.5,1.6-2.6,3.8-2.6,6.3c0,1.2,0.1,2.5,0.6,3.7c0.4,1.2,1.1,2.4,2,3.4c0.9,1,2.1,1.8,3.5,2.3c1.3,0.5,2.8,0.7,4.3,0.6
					c3-0.1,6.1-1.4,8.4-3.7c1.1-1.1,2.1-2.5,2.6-4.1c0.5-1.6,0.6-3.3,0.3-5c-0.3-1.7-1.2-3.3-2.5-4.4c-1.3-1.2-2.9-2-4.7-2.5
					c-1.7-0.5-3.6-0.7-5.5-0.8c-1.9,0-3.8,0.1-5.6,0.7c-1.8,0.6-3.4,1.8-4.3,3.5c-0.9,1.7-1.1,3.7-0.8,5.6c0.4,1.9,1.4,3.7,2.9,5.1
					c1.5,1.4,3.3,2.4,5.2,3c3.9,1.2,8.4,1,12-1.1c0.9-0.5,1.7-1.2,2.4-1.9c0.7-0.7,1.3-1.6,1.8-2.5c0.9-1.8,1.2-3.9,1-6
					c-0.2-2-1-4-2.2-5.5s-2.9-2.8-4.7-3.6c-3.6-1.6-7.9-1.4-11.2,0.5c-3.3,1.8-5.8,4.9-6.9,8.4c-0.5,1.7-0.7,3.5-0.5,5.3
					c0.1,0.9,0.4,1.7,0.7,2.5c0.4,0.8,0.8,1.5,1.4,2.1c1.1,1.3,2.6,2.2,4.2,2.8c1.5,0.6,3.2,1,4.8,1.1c3.2,0.2,6.4-0.7,8.9-2.3
					c2.5-1.6,4.2-4.3,4.4-7c0.2-2.7-0.7-5.3-2-7.4c-1.3-2.1-3.1-3.8-4.9-4.9c-1.9-1.1-3.8-1.8-5.7-2c-0.9-0.1-1.8-0.1-2.7,0.1
					c-0.8,0.1-1.6,0.3-2.4,0.6c-2.9,1-4.7,2.8-5.7,4.1c-0.5,0.7-0.8,1.2-0.9,1.6C468.3,469.3,468.2,469.5,468.2,469.5z"/>
			</g>
		</g>
		<g>
			<g>
				<path class="st7" d="M488.9,490.6c0.1,0.1-6,5.3-13.6,11.6s-13.7,11.4-13.8,11.3c-0.1-0.1,6-5.3,13.6-11.6
					C482.7,495.6,488.9,490.5,488.9,490.6z"/>
			</g>
		</g>
		<g>
			<g>
				<path class="st7" d="M490.3,512.8c0,0-0.4-0.2-1-0.7c-0.7-0.5-1.6-1.2-2.7-2.1c-2.3-1.8-5.4-4.3-8.8-7c-3.4-2.8-6.5-5.3-8.7-7.1
					c-1.1-0.9-1.9-1.6-2.6-2.2c-0.6-0.5-0.9-0.8-0.9-0.8c0,0,0.4,0.2,1,0.7c0.7,0.5,1.6,1.2,2.7,2.1c2.3,1.8,5.4,4.3,8.8,7
					s6.5,5.3,8.7,7.1c1.1,0.9,1.9,1.6,2.6,2.2C490,512.5,490.3,512.8,490.3,512.8z"/>
			</g>
		</g>
		<g>
			<g>
				<path class="st7" d="M552.8,490.9c0.1,0.1-5.7,4.5-13,9.9s-13.1,9.7-13.2,9.6c-0.1-0.1,5.7-4.5,13-9.9
					C546.8,495.1,552.7,490.8,552.8,490.9z"/>
			</g>
		</g>
		<g>
			<g>
				<path class="st7" d="M555.1,509.7c-0.1,0.1-6.2-3.7-13.8-8.5c-7.5-4.8-13.6-8.8-13.5-8.9c0.1-0.1,6.2,3.7,13.8,8.5
					S555.1,509.6,555.1,509.7z"/>
			</g>
		</g>
		<g>
			<g>
				<path class="st9" d="M489.9,546.9c-0.1-0.1,6-6.4,13.5-14.1c7.5-7.7,13.7-13.9,13.7-13.8c0.1,0.1-5.9,6.4-13.5,14.1
					C496.2,540.8,490,547,489.9,546.9z"/>
			</g>
		</g>
		<g>
			<g>
				<path class="st9" d="M515.4,546.9c0,0-0.1-0.1-0.2-0.3c-0.2-0.2-0.4-0.5-0.7-0.8c-0.6-0.7-1.4-1.7-2.4-3c-2-2.5-4.8-5.9-8.1-9.5
					c-3.3-3.6-6.4-6.7-8.7-9c-1.1-1.1-2-2-2.7-2.6c-0.3-0.3-0.5-0.5-0.7-0.7c-0.2-0.2-0.2-0.3-0.2-0.3c0,0,0.1,0.1,0.3,0.2
					c0.2,0.2,0.5,0.4,0.8,0.7c0.7,0.6,1.6,1.4,2.8,2.5c2.3,2.2,5.5,5.3,8.8,8.9c3.3,3.6,6.1,7,8,9.6c1,1.3,1.7,2.3,2.3,3
					c0.2,0.3,0.4,0.6,0.6,0.8C515.4,546.8,515.4,546.9,515.4,546.9z"/>
			</g>
		</g>
		<g>
			<g>
				<g>
					<path class="st6" d="M452.8,514.7c0,0,0.2,18.8-4.5,30l-28.9-4.9c0,0,8.7-17.8,6.3-27.7L452.8,514.7z"/>
				</g>
			</g>
			<g>
				<g>
					<g>
						<path class="st9" d="M452.8,514c0,0-3.6,23-5.8,29.9l-28.7-5.7c0,0,5.9-22.3,5.8-28.5L452.8,514z"/>
					</g>
				</g>
				<g>
					<g>
						<g>
							<path class="st4" d="M427,520.1c0,0.1,4.3,1.1,9.6,2.2c5.3,1.1,9.6,1.9,9.7,1.8c0-0.1-4.3-1.1-9.6-2.2S427,520,427,520.1z"/>
						</g>
					</g>
				</g>
				<g>
					<g>
						<g>
							<path class="st4" d="M426.2,525c0,0.1,4.3,1.1,9.6,2.2c5.3,1.1,9.6,1.9,9.7,1.8s-4.3-1.1-9.6-2.2
								C430.6,525.7,426.3,524.9,426.2,525z"/>
						</g>
					</g>
				</g>
				<g>
					<g>
						<g>
							<path class="st4" d="M430.4,530.5c0,0.1,0.6,0.2,1.6,0.5c1,0.2,2.3,0.6,3.9,0.9c1.5,0.3,2.9,0.6,3.9,0.8
								c1,0.2,1.6,0.3,1.6,0.2c0-0.1-0.6-0.2-1.6-0.5c-1-0.2-2.3-0.6-3.9-0.9s-2.9-0.6-3.9-0.8C431.1,530.5,430.4,530.4,430.4,530.5
								z"/>
						</g>
					</g>
				</g>
			</g>
		</g>
		<g>
			<g>
				<g>
					<path class="st6" d="M589.6,461.9c0,0,3,18.3,0,30l-28.9-0.6c0,0,5.9-18.6,2.2-28L589.6,461.9z"/>
				</g>
			</g>
			<g>
				<g>
					<g>
						<path class="st8" d="M589.4,461.2c0,0-0.2,23-1.4,30.1l-28.9-1.4c0,0,2.5-22.6,1.6-28.7L589.4,461.2L589.4,461.2z"/>
					</g>
				</g>
				<g>
					<g>
						<g>
							<path class="st4" d="M564.8,471.5c0,0.1,4.3,0.2,9.7,0.2c5.4,0,9.7-0.1,9.7-0.2s-4.3-0.2-9.7-0.2
								C569.2,471.3,564.8,471.4,564.8,471.5z"/>
						</g>
					</g>
				</g>
				<g>
					<g>
						<g>
							<path class="st4" d="M565.1,476.4c0,0.1,4.3,0.2,9.7,0.2c5.4,0,9.7-0.1,9.7-0.2c0-0.1-4.3-0.2-9.7-0.2
								C569.4,476.2,565.1,476.3,565.1,476.4z"/>
						</g>
					</g>
				</g>
				<g>
					<g>
						<g>
							<path class="st4" d="M570.3,480.9c0,0.1,0.6,0.1,1.6,0.1c1,0,2.4,0.1,3.9,0.1c1.5,0,2.9,0,3.9-0.1c1,0,1.6-0.1,1.6-0.1
								c0-0.1-0.6-0.1-1.6-0.1c-1,0-2.4-0.1-3.9-0.1c-1.5,0-2.9,0-3.9,0.1C570.9,480.8,570.3,480.8,570.3,480.9z"/>
						</g>
					</g>
				</g>
			</g>
		</g>
		<g>
			<path class="st7" d="M595.7,409.1c-5.4,0-10.8-3.4-13.7-8.7c-2.8-5.2-3.7-11.5-2.4-17.3c1.6-7.7,6.7-13.9,12.9-15.9
				c5.3-1.7,14.8-0.7,19.3,6.7c3.5,5.8,3.1,11.9,3.1,12.1c-0.1,1.3-1.2,2.2-2.4,2.1c-1.3-0.1-2.2-1.2-2.1-2.4c0-0.1,0.3-4.9-2.5-9.4
				c-3.5-5.8-11-5.7-14-4.7c-5.3,1.7-8.8,7.5-9.8,12.5c-1,4.8-0.3,10,2,14.2c2.3,4.2,6.8,6.8,10.9,6.2c1.2-0.2,2.4,0.7,2.6,1.9
				c0.2,1.3-0.7,2.4-1.9,2.6C597,409.1,596.4,409.1,595.7,409.1z"/>
		</g>
		<g>
			<path class="st7" d="M447.5,409.1c-5.4,0-10.8-3.4-13.7-8.7c-2.8-5.2-3.7-11.5-2.4-17.3c1.3-6.5,5.9-13.9,13-15.9
				c3.2-0.9,7.1-0.7,10.4,0.5l-1.7,4.3c-2.8-1.1-5.7-0.9-7.5-0.4c-5.3,1.5-8.7,7.4-9.8,12.5c-1,4.8-0.3,10,2,14.2
				c2.3,4.2,6.8,6.8,10.9,6.2l0.7,4.5C448.8,409.1,448.2,409.1,447.5,409.1z"/>
		</g>
		<g>
			<polygon class="st9" points="593.8,386.2 591.7,397.7 622.8,397.7 625.5,386.3 			"/>
		</g>
		<g>
			<path class="st7" d="M455.4,407.3c0,2.7-2.2,4.9-4.9,4.9s-4.9-2.2-4.9-4.9c0-2.7,2.2-4.9,4.9-4.9
				C453.2,402.4,455.4,404.6,455.4,407.3z"/>
		</g>
		<g>
			<path class="st7" d="M603.4,407.3c0,2.7-2.2,4.9-4.9,4.9s-4.9-2.2-4.9-4.9c0-2.7,2.2-4.9,4.9-4.9
				C601.2,402.4,603.4,404.6,603.4,407.3z"/>
		</g>
	</g>
</g>
<g id="Character">
	<g>
		<g>
			<g>
				<polygon class="st14" points="521.9,311.7 513.8,342.5 485.7,345.5 485.7,350.5 525.1,351.8 532.5,317.3 				"/>
			</g>
		</g>
	</g>
	<g>
		<g>
			<g>
				<path class="st7" d="M533.7,352.7c0,0-43.8-2.1-56.3,7.7C465,370.1,471,386,471,386l70.5-0.2l6.2-35.7L533.7,352.7z"/>
			</g>
			<g>
				<g>
					<path class="st8" d="M541.2,376.2c0,0-0.2,0-0.6,0c-0.4,0-1-0.1-1.8-0.2c-1.6-0.2-3.8-0.5-6.6-1c-5.5-0.9-13.1-2.5-21.4-4.9
						c-4.1-1.2-8-2.4-11.6-3.3c-3.6-0.9-6.9-1.4-9.7-1.5c-2.8-0.1-5.1,0.1-6.6,0.4c-0.8,0.1-1.4,0.3-1.8,0.4
						c-0.4,0.1-0.6,0.1-0.6,0.1c0,0,0.2-0.1,0.6-0.2c0.4-0.1,1-0.3,1.8-0.4c1.5-0.3,3.8-0.6,6.6-0.5c2.8,0.1,6.2,0.6,9.8,1.5
						c3.6,0.9,7.5,2.1,11.6,3.3c8.2,2.4,15.8,4,21.3,5c2.8,0.5,5,0.9,6.6,1.1c0.7,0.1,1.3,0.2,1.8,0.3
						C541,376.2,541.2,376.2,541.2,376.2z"/>
				</g>
			</g>
			<g>
				<g>
					<path class="st8" d="M500.5,366.5c-0.1,0.1-1.6-1.5-3.9-2.7c-2.3-1.2-4.5-1.5-4.4-1.7c0,0,0.6,0,1.4,0.1s2,0.5,3.2,1.2
						c1.2,0.6,2.1,1.4,2.8,2C500.2,366.1,500.5,366.5,500.5,366.5z"/>
				</g>
			</g>
		</g>
		<g>
			<g>
				<path class="st9" d="M538.4,447.9l0.6,18.4l-3.7,14.7c-0.3,1.1,0.4,2.1,1.5,2.3l0,0c0.6,0.1,1.2-0.1,1.7-0.5
					c2.8-2.7,13-12.8,12.9-14.1c-0.1-1.6,0.7-19.5,0.7-19.5L538.4,447.9z"/>
			</g>
			<g class="st15">
				<path class="st4" d="M536.7,483.3l14.5-15.9l0,0.8c0,0.7-0.2,1.3-0.7,1.9c-1.2,1.4-4.4,5.1-12.2,12.8
					C538,483.3,537.3,483.5,536.7,483.3L536.7,483.3z"/>
			</g>
			<g class="st15">
				<g>
					<path class="st4" d="M547.4,461.5c-0.5,0.3-0.6,1-0.3,1.5c0.3,0.5,1,0.6,1.5,0.3c0.5-0.3,0.7-1.1,0.3-1.6
						C548.5,461.3,547.7,461.2,547.4,461.5"/>
				</g>
			</g>
			<g>
				<g>
					<path class="st7" d="M540.9,475.2c-0.1,0.1-0.5-0.9-1.6-1.4c-1.1-0.5-2.1-0.3-2.1-0.4c0,0,0.2-0.2,0.6-0.3c0.4-0.1,1,0,1.7,0.3
						s1,0.7,1.2,1.1C540.9,475,540.9,475.2,540.9,475.2z"/>
				</g>
			</g>
			<g>
				<g>
					<path class="st7" d="M539.6,477.7c-0.1,0.1-0.7-0.5-1.6-0.8c-0.9-0.3-1.8-0.1-1.8-0.2c-0.1-0.1,0.8-0.5,1.9-0.2
						C539.1,476.9,539.7,477.7,539.6,477.7z"/>
				</g>
			</g>
			<g>
				<g>
					<path class="st7" d="M543.3,472.1c-0.1,0.1-1-0.8-2.4-1.4c-1.4-0.6-2.7-0.5-2.7-0.6c0-0.1,1.3-0.4,2.9,0.2
						C542.5,470.9,543.4,472,543.3,472.1z"/>
				</g>
			</g>
			<g>
				<g>
					<path class="st7" d="M543.6,466.5c0,0.1-1.1-0.3-2.4-0.3c-1.3-0.1-2.4,0.3-2.4,0.2c-0.1-0.1,1-0.6,2.4-0.6
						C542.6,465.7,543.6,466.4,543.6,466.5z"/>
				</g>
			</g>
			<g>
				<g>
					<path class="st7" d="M543.5,461c-0.1,0.1-1.1-0.5-2.5-0.4c-1.4,0-2.4,0.7-2.4,0.6c0,0,0.2-0.3,0.6-0.5s1.1-0.5,1.8-0.5
						c0.7,0,1.4,0.1,1.9,0.4C543.3,460.8,543.5,461,543.5,461z"/>
				</g>
			</g>
			<g>
				<g>
					<path class="st7" d="M541.1,459.6c0,0-0.1-0.2,0-0.7c0-0.4,0.2-1.1,0.5-1.8c0.2-0.3,0.4-0.8,0.9-1c0.3-0.1,0.6-0.1,0.9,0.2
						c0.2,0.2,0.3,0.5,0.3,0.8c0,1.2-1,2.3-2.3,2.5c-1.3,0.2-2.5-0.6-3.1-1.6c-0.1-0.3-0.2-0.6-0.1-0.9s0.5-0.4,0.8-0.4
						c0.6,0.1,0.9,0.4,1.2,0.6c0.6,0.5,1,1,1.3,1.4c0.2,0.4,0.3,0.6,0.3,0.6c-0.1,0-0.5-0.9-1.7-1.8c-0.3-0.2-0.7-0.5-1.1-0.5
						c-0.2,0-0.4,0.1-0.4,0.2c-0.1,0.2,0,0.4,0.1,0.6c0.5,0.8,1.6,1.5,2.7,1.3c1.1-0.1,2-1.1,2-2.1c0-0.2-0.1-0.5-0.2-0.6
						c-0.1-0.1-0.3-0.2-0.5-0.1c-0.4,0.1-0.6,0.5-0.8,0.9C541.1,458.6,541.1,459.6,541.1,459.6z"/>
				</g>
			</g>
		</g>
		<g>
			<path class="st7" d="M547.7,350.1c0,0-18.9,35.8-19.2,42.1c-0.3,6.2,0,63.9,0,63.9h29.3c0.8,0,5.2-26,4.3-31.9
				c-0.9-6-4.1-38.1-4.1-38.1h16.9c0,0,4.6-4.9,4.5-11.2c-0.1-3.5-2.4-10.5-4.6-14.3c-1.4-2.4-10.7-15-10.7-15L547.7,350.1z"/>
		</g>
		<g>
			<g>
				<path class="st8" d="M546.4,352.5c0,0,0,0.1-0.1,0.2c-0.1,0.2-0.2,0.3-0.3,0.6c-0.3,0.5-0.6,1.3-1.1,2.2c-0.5,1-1.1,2.2-1.8,3.5
					c-0.3,0.7-0.7,1.4-1.1,2.2c-0.4,0.8-0.7,1.6-1.2,2.5c-1.6,3.5-3.6,7.7-5.7,12.3c-1.1,2.3-2.2,4.7-3.4,7.3
					c-0.6,1.3-1.2,2.5-1.8,3.8c-0.6,1.3-1,2.7-1.3,4.1c-0.3,1.4-0.4,2.9-0.4,4.3c-0.1,1.4-0.1,2.8-0.1,4.2c0,2.8-0.1,5.5,0,8
					c0,5.1,0.1,9.7,0.1,13.6c0.1,3.8,0.1,7,0.1,9.1c0,1.1,0,1.9,0,2.5c0,0.3,0,0.5,0,0.7c0,0.1,0,0.2,0,0.2s0-0.1,0-0.2
					c0-0.2,0-0.4,0-0.7c0-0.6-0.1-1.4-0.1-2.5c-0.1-2.2-0.2-5.3-0.3-9.1c-0.1-3.9-0.2-8.5-0.2-13.6c0-2.6,0-5.2,0-8
					c0-1.4,0-2.8,0.1-4.2c0-1.4,0.1-2.9,0.5-4.4c0.3-1.5,0.7-2.9,1.3-4.2c0.6-1.3,1.2-2.6,1.8-3.8c1.2-2.5,2.3-4.9,3.4-7.3
					c2.2-4.6,4.1-8.8,5.8-12.3c0.4-0.9,0.8-1.7,1.2-2.5c0.4-0.8,0.8-1.5,1.1-2.2c0.7-1.4,1.3-2.5,1.8-3.5c0.5-0.9,0.9-1.7,1.2-2.2
					c0.1-0.2,0.2-0.4,0.3-0.6C546.4,352.6,546.4,352.5,546.4,352.5z"/>
			</g>
		</g>
		<g>
			<g>
				<path class="st8" d="M540.3,364.7c-0.1,0-0.7-2-1.5-4.5s-1.4-4.5-1.3-4.5c0.1,0,0.9,1.9,1.7,4.4
					C539.9,362.6,540.4,364.7,540.3,364.7z"/>
			</g>
		</g>
		<g>
			<g>
				<path class="st8" d="M562.2,423c0,0,0-0.1-0.1-0.4c0-0.3-0.1-0.7-0.2-1.2c-0.1-1.1-0.3-2.5-0.5-4.3c-0.4-3.7-1-8.7-1.6-14.3
					c-0.6-5.6-1.1-10.6-1.4-14.3c-0.2-1.8-0.3-3.3-0.4-4.3c0-0.5-0.1-0.9-0.1-1.2c0-0.3,0-0.4,0-0.4c0,0,0,0.1,0.1,0.4
					c0,0.3,0.1,0.7,0.2,1.2c0.1,1.1,0.3,2.5,0.5,4.3c0.4,3.7,1,8.7,1.6,14.3c0.6,5.6,1.1,10.6,1.5,14.3c0.2,1.8,0.3,3.3,0.4,4.3
					c0,0.5,0.1,0.9,0.1,1.2C562.2,422.8,562.2,423,562.2,423z"/>
			</g>
		</g>
	</g>
	<g>
		<g>
			<path class="st7" d="M554.7,254.2c-0.5-3,2.2-6,5.2-6.4c3-0.4,6.1,1.6,7.5,4.3s1.3,6,0.2,8.9c-0.7,1.9-2.2,3.9-4.2,4
				c-2,0.1-3.6-1.4-5-2.9"/>
		</g>
		<g>
			<path class="st7" d="M533.2,269.3c-6.1-13.4,8.4-20.1,16.3-17.9c7.4,2.1,10.6,5.8,11.8,10.8c1.2,5,1.2,10.4-0.8,15.1
				c-1,2.3-2.7,4.7-5.2,5"/>
		</g>
		<g>
			<g>
				<g>
					<g>
						<g>
							<g>
								<g>
									<g>
										<g>
											<g>
												<g>
													<g>
														<g>
															<g>
																<path class="st14" d="M554.2,258.9c1.3,0.1,2.3,1.3,2.3,2.6l0,0l-1.4,34.1c-0.1,4-5.9,6.3-10.3,6.2l0,0
																	c-4.4-0.1-4.5-2.2-4.6-6.1c-0.1-6.4-0.1-8.8-0.1-8.8c0,0-5.5-0.9-6.6-8.1c-0.6-3.6-0.4-9.4-0.1-14.2
																	c0.3-4.3,3.1-9.6,7.4-9.1L554.2,258.9z"/>
															</g>
														</g>
													</g>
												</g>
											</g>
										</g>
									</g>
									<g>
										<g>
											<g>
												<g>
													<g>
														<g>
															<g>
																<g>
																	<path class="st7" d="M536.2,268.7c0,0.5,0.4,0.9,0.9,0.9c0.5,0,0.9-0.3,0.9-0.8c0-0.5-0.4-0.9-0.9-0.9
																		C536.6,267.8,536.2,268.2,536.2,268.7z"/>
																</g>
															</g>
														</g>
													</g>
												</g>
											</g>
										</g>
										<g>
											<g>
												<g>
													<g>
														<g>
															<g>
																<g>
																	<g>
																		<path class="st7" d="M534.7,267.7c0.1,0.1,0.8-0.4,1.8-0.4c1,0,1.7,0.5,1.8,0.4c0.1-0.1-0.1-0.3-0.4-0.5
																			c-0.3-0.2-0.8-0.5-1.5-0.5s-1.1,0.2-1.4,0.5C534.7,267.4,534.6,267.6,534.7,267.7z"/>
																	</g>
																</g>
															</g>
														</g>
													</g>
												</g>
											</g>
										</g>
									</g>
									<g>
										<g>
											<g>
												<g>
													<g>
														<g>
															<g>
																<g>
																	<path class="st7" d="M545.9,268.7c0,0.5,0.4,0.9,0.9,0.9c0.5,0,0.9-0.3,0.9-0.8c0-0.5-0.4-0.9-0.9-0.9
																		C546.3,267.8,545.9,268.2,545.9,268.7z"/>
																</g>
															</g>
														</g>
													</g>
												</g>
											</g>
										</g>
										<g>
											<g>
												<g>
													<g>
														<g>
															<g>
																<g>
																	<g>
																		<path class="st7" d="M544.4,267.9c0.1,0.1,0.8-0.4,1.8-0.4c1,0,1.7,0.5,1.8,0.4c0.1-0.1-0.1-0.3-0.4-0.5
																			c-0.3-0.2-0.8-0.5-1.5-0.5c-0.6,0-1.1,0.2-1.4,0.5C544.5,267.6,544.4,267.8,544.4,267.9z"/>
																	</g>
																</g>
															</g>
														</g>
													</g>
												</g>
											</g>
										</g>
									</g>
									<g>
										<g>
											<g>
												<g>
													<g>
														<g>
															<g>
																<g>
																	<path class="st7" d="M540.8,275.2c0-0.1-0.6-0.2-1.6-0.3c-0.3,0-0.5-0.1-0.5-0.3c-0.1-0.2,0-0.5,0.2-0.7
																		c0.2-0.6,0.5-1.3,0.7-1.9c1-2.7,1.8-5,1.7-5c-0.1,0-1,2.1-2.1,4.9c-0.3,0.7-0.5,1.3-0.7,1.9
																		c-0.1,0.3-0.3,0.6-0.1,1c0.1,0.2,0.3,0.3,0.4,0.4c0.2,0,0.3,0.1,0.4,0.1C540.2,275.3,540.8,275.3,540.8,275.2z"/>
																</g>
															</g>
														</g>
													</g>
												</g>
											</g>
										</g>
									</g>
									<g>
										<g>
											<g>
												<g>
													<g>
														<g>
															<g>
																<path class="st16" d="M540.1,286.9c0,0,4.8,0.3,9.6-2.6c0,0-2.3,4.9-9.5,4.3L540.1,286.9z"/>
															</g>
														</g>
													</g>
												</g>
											</g>
										</g>
									</g>
									<g>
										<g>
											<g>
												<g>
													<g>
														<g>
															<g>
																<path class="st16" d="M541.2,277.6c0.4-0.5,1-0.7,1.6-0.7c0.4,0,0.9,0.3,1.1,0.6c0.3,0.4,0.3,0.8,0.1,1.2
																	c-0.3,0.4-0.8,0.5-1.3,0.3c-0.5-0.1-0.9-0.4-1.3-0.8c-0.1-0.1-0.2-0.2-0.3-0.3S541.1,277.7,541.2,277.6"/>
															</g>
														</g>
													</g>
												</g>
											</g>
										</g>
									</g>
									<g>
										<g>
											<g>
												<g>
													<g>
														<g>
															<g>
																<g>
																	<path class="st7" d="M543.7,275.9c-0.2,0-0.2,1.1-1.1,1.8c-0.9,0.8-2.1,0.6-2.1,0.8c0,0.1,0.3,0.2,0.7,0.2
																		c0.5,0,1.2-0.1,1.7-0.6c0.6-0.5,0.8-1.1,0.8-1.5C543.9,276.2,543.8,275.9,543.7,275.9z"/>
																</g>
															</g>
														</g>
													</g>
												</g>
											</g>
										</g>
									</g>
								</g>
							</g>
						</g>
						<g>
							<g>
								<g>
									<g>
										<g>
											<g>
												<g>
													<path class="st7" d="M544,266.1c0.1,0.3,1.1,0.1,2.2,0.3c1.2,0.1,2.1,0.5,2.3,0.2c0.1-0.1-0.1-0.4-0.5-0.6
														c-0.4-0.3-1-0.5-1.7-0.6c-0.7-0.1-1.3,0-1.8,0.2C544.1,265.8,543.9,266,544,266.1z"/>
												</g>
											</g>
										</g>
									</g>
								</g>
							</g>
						</g>
						<g>
							<g>
								<g>
									<g>
										<g>
											<g>
												<g>
													<path class="st7" d="M535,264.8c0.2,0.2,0.9,0,1.7,0c0.8,0,1.5,0.2,1.7-0.1c0.1-0.1,0-0.3-0.3-0.6
														c-0.3-0.2-0.8-0.4-1.4-0.4c-0.6,0-1.1,0.2-1.3,0.5C535,264.5,535,264.7,535,264.8z"/>
												</g>
											</g>
										</g>
									</g>
								</g>
							</g>
						</g>
					</g>
				</g>
				<g>
					<g>
						<g>
							<g>
								<path class="st7" d="M544.4,253.1c-2.6,0.1-4.6,0.9-6.9,2.1c-2.3,1.3-4.2,3.3-4.9,5.9c-0.2,0.5-0.2,1.1,0.1,1.6
									c0.4,0.6,1.3,0.7,2,0.4c0.7-0.3,1.1-0.9,1.6-1.5c0.3,1.3,1.6,2.3,3,2.3c1.4,0,2.6-1,3-2.4c0,1.4,1.4,2.5,2.8,2.5
									s2.6-1.1,3.1-2.4c0.3,1.2,0.5,2.5,1.3,3.5c0.7,1,2.1,1.7,3.3,1.3c-0.2,1.1-0.3,2.2,0,3.2c0.4,1,1.9,18.3,2.9,17.9
									c1-0.3,1-18,1.2-19c0.5-2,0.8-4,0.8-6c-0.1-2-0.6-4.1-1.9-5.7c-1.3-1.7-3.2-2.7-5.3-3.2s-4.2-0.6-6.2-0.6"/>
							</g>
						</g>
					</g>
				</g>
			</g>
		</g>
		<g>
			<g>
				<path class="st7" d="M558.8,284.6c0,0-0.1,0-0.2,0.1c-0.1,0.1-0.4,0.1-0.7,0.2c-0.6,0.1-1.5,0.1-2.5-0.3c-1-0.3-2.2-1.1-3-2.3
					c-0.8-1.2-1.1-2.9-0.9-4.5c0.1-1.6,0.5-3.1,0.7-4.5c0.2-1.4,0.3-2.6,0.3-3.7c0-1.1,0-1.9,0-2.5c0-0.6,0-0.9,0-0.9
					c0,0,0.1,0.3,0.1,0.9c0.1,0.6,0.1,1.5,0.1,2.5c0,1.1-0.1,2.3-0.2,3.7c-0.2,1.4-0.5,2.9-0.6,4.5c-0.1,1.6,0.1,3.1,0.9,4.3
					c0.7,1.2,1.8,1.9,2.7,2.2c1,0.4,1.8,0.4,2.4,0.4C558.5,284.6,558.8,284.5,558.8,284.6z"/>
			</g>
		</g>
		<g>
			<g>
				<path class="st8" d="M541.9,252.2c0,0,0.4,0.6,0.4,1.7c0,1.1-0.3,2.7-1.5,3.9c-1.2,1.2-2.8,1.7-3.8,1.7c-1.1,0-1.7-0.3-1.7-0.3
					c0-0.1,0.7,0.1,1.7,0c1-0.1,2.5-0.5,3.6-1.7c1.1-1.1,1.5-2.6,1.5-3.6C542,252.8,541.8,252.2,541.9,252.2z"/>
			</g>
		</g>
		<g>
			<g>
				<path class="st8" d="M542.9,260.6c0,0-0.1,0.5-0.6,1c-0.5,0.5-1.6,1-2.7,0.9c-1.1-0.1-2.1-0.6-2.7-0.9c-0.6-0.4-0.9-0.7-0.9-0.7
					c0,0,0.4,0.2,1.1,0.5c0.6,0.3,1.5,0.7,2.6,0.8c1,0.1,2-0.3,2.5-0.7C542.7,261,542.9,260.6,542.9,260.6z"/>
			</g>
		</g>
		<g>
			<g>
				<path class="st8" d="M560.2,258.4c0,0,0.1,0.8-0.1,2c-0.2,1.2-0.6,2.9-1.8,4.4c-1.2,1.5-2.9,2.3-4.1,2.3c-0.6,0-1.1,0-1.5-0.1
					c-0.3-0.1-0.5-0.2-0.5-0.2c0-0.1,0.7,0.2,1.9,0.1c1.2-0.1,2.7-0.9,3.8-2.3c1.1-1.4,1.5-3.1,1.8-4.2
					C560.1,259.2,560.2,258.4,560.2,258.4z"/>
			</g>
		</g>
		<g>
			<g>
				<path class="st8" d="M561.5,261.9c0,0,0.1,0.2,0.1,0.6c0,0.4,0.1,1,0,1.7c-0.1,1.4-0.4,3.5-1.9,5.2c-0.7,0.8-1.6,1.4-2.5,1.7
					c-0.9,0.3-1.8,0.3-2.5,0.2c-0.7-0.1-1.2-0.4-1.6-0.7c-0.3-0.2-0.5-0.4-0.5-0.4c0-0.1,0.7,0.6,2.1,0.8c0.7,0.1,1.5,0.1,2.3-0.2
					c0.8-0.3,1.7-0.9,2.4-1.7c1.4-1.6,1.8-3.5,1.9-4.9C561.5,262.8,561.5,261.9,561.5,261.9z"/>
			</g>
		</g>
	</g>
	<g>
		<g>
			<g>
				<polygon class="st8" points="460.7,354.4 446.8,386.1 466,386.1 479.6,354.1 				"/>
			</g>
		</g>
		<g>
			<g>
				<g>
					<g>
						<path class="st2" d="M450.6,320.6l15.7,30.8h49.4l-2-4l-14.3-0.4l-11.7-26c-0.7-1.6-2.3-2.7-4.1-2.7H452
							C450.8,318.3,450.1,319.6,450.6,320.6z"/>
					</g>
				</g>
			</g>
			<g>
				<g>
					<g>
						<path class="st7" d="M475.4,334.4c0,1-0.8,1.9-1.9,1.9s-1.9-0.8-1.9-1.9c0-1,0.8-1.9,1.9-1.9
							C474.5,332.5,475.4,333.3,475.4,334.4z"/>
					</g>
				</g>
			</g>
		</g>
		<g>
			<g>
				<rect x="460.6" y="351.4" class="st8" width="60.4" height="2.9"/>
			</g>
		</g>
		<g>
			<g>
				<polygon class="st8" points="502.3,352.9 520.7,386.1 529.5,386.1 531.4,382.3 533.2,378.3 520.9,354.4 				"/>
			</g>
		</g>
	</g>
	<g>
		<g>
			<path class="st9" d="M534.2,296c0,0-10.7,3.8-13,15.7l11.3,5.6L534.2,296z"/>
		</g>
		<g>
			<path class="st9" d="M534.2,296c0,0-7.5,16.7-7.2,25.8c0.1,3.2,2.2,11.5,2.2,11.5l3.9,20.6c0,0,29.7-4,30.3-4
				c0.7,0-1-16.9-1-16.9l4.8-32.4c0,0-2.2-4.4-12.2-5.9C549.1,293.7,534.2,296,534.2,296z"/>
		</g>
		<g>
			<g>
				<path class="st7" d="M531.5,305.7c0.1,0-0.7,1.3-1.7,3.4c-0.5,1.1-0.9,2.4-1.4,3.9c-0.4,1.5-0.8,3.2-1,4.9
					c-0.2,1.8-0.2,3.5-0.2,5c0.1,1.6,0.3,2.9,0.5,4.1c0.4,2.3,0.9,3.7,0.8,3.7c0,0-0.2-0.3-0.4-1c-0.1-0.3-0.2-0.7-0.4-1.2
					c-0.1-0.5-0.3-1-0.4-1.6c-0.3-1.2-0.5-2.6-0.6-4.1c-0.1-1.6-0.1-3.3,0.1-5.1c0.2-1.8,0.6-3.5,1-5c0.5-1.5,1-2.8,1.5-3.9
					c0.2-0.5,0.5-1,0.7-1.4c0.2-0.4,0.4-0.8,0.6-1C531.2,306,531.4,305.7,531.5,305.7z"/>
			</g>
		</g>
		<g>
			<g>
				<path class="st17" d="M550.8,329.4"/>
			</g>
		</g>
		<g>
			<g>
				<path class="st17" d="M540.7,322.5"/>
			</g>
		</g>
		<g>
			<path class="st9" d="M537.9,295.8l0.4-4.6c0.1-1,0.9-1.8,1.9-1.8l14.6-0.2c0.9,0,1.7,0.7,1.8,1.6l0.4,4.9c0,0-1.6,3.9-5.9,6
				c-4.3,2.1-11,2.2-11,2.2L537.9,295.8z"/>
		</g>
		<g>
			<g>
				<path class="st7" d="M541.7,289.5c0,0-0.2,0.3-0.3,0.8c-0.1,0.5,0,1.2,0,2c0.1,1.6,0.1,3,0,3c-0.1,0-0.3-1.3-0.4-2.9
					c-0.1-0.8-0.1-1.6,0.1-2.1C541.3,289.7,541.7,289.5,541.7,289.5z"/>
			</g>
		</g>
		<g>
			<g>
				<path class="st7" d="M545.2,295.2c-0.1,0-0.3-1.3-0.4-2.9c0-0.8-0.1-1.5,0-2.1c0.1-0.6,0.3-0.8,0.3-0.8c0.1,0-0.1,0.3-0.1,0.8
					c0,0.5,0.1,1.2,0.1,2C545.3,293.9,545.3,295.2,545.2,295.2z"/>
			</g>
		</g>
		<g>
			<g>
				<path class="st7" d="M549.6,295.1c-0.1,0-0.4-1.2-0.6-2.8c-0.2-1.6-0.3-2.8-0.2-2.9c0.1,0,0.4,1.2,0.6,2.8
					S549.7,295,549.6,295.1z"/>
			</g>
		</g>
		<g>
			<g>
				<path class="st7" d="M553.4,295.4c-0.1,0-0.4-1.4-0.6-3.1c-0.1-1.7,0-3.1,0.1-3.1c0.1,0,0.2,1.4,0.3,3.1
					C553.4,294,553.5,295.4,553.4,295.4z"/>
			</g>
		</g>
		<g class="st18">
			<g>
				<path d="M556.3,312.9c-0.6,5.2-0.2,14,1.6,18.9l8.6-14.1L556.3,312.9z"/>
			</g>
		</g>
		<g>
			<path class="st9" d="M566.5,299.5L566.5,299.5c2.5,2.6,4.2,5.7,5.2,9.1l1.6,7.2l-16.8,2.6c0,0-1.4-4-0.6-9.4
				C556.7,303.5,566.5,299.5,566.5,299.5z"/>
		</g>
		<g>
			<g>
				<path class="st7" d="M573.3,315.7c0,0-0.1,0-0.3,0.1c-0.3,0-0.6,0.1-1,0.2c-0.9,0.1-2.1,0.3-3.6,0.6c-3.1,0.5-7.4,1.1-12.2,1.9
					l-0.2,0l0-0.2c0-1-0.1-2.1-0.1-3.2c0-2.8,0-5.5,0.2-8c0.1-2.5,0.9-4.6,2-6.2c1-1.6,2.2-2.6,3.1-3.1c0.5-0.3,0.8-0.4,1.1-0.5
					c0.3-0.1,0.4-0.1,0.4-0.1c0,0-0.5,0.2-1.4,0.8c-0.9,0.5-2,1.5-3,3.1c-1,1.6-1.7,3.7-1.8,6.1c-0.2,2.4-0.2,5.1-0.1,7.9
					c0,1.1,0.1,2.1,0.1,3.1l-0.2-0.2c4.8-0.7,9.1-1.3,12.2-1.7c1.5-0.2,2.7-0.4,3.6-0.5c0.4,0,0.7-0.1,1-0.1
					C573.2,315.7,573.3,315.7,573.3,315.7z"/>
			</g>
		</g>
		<g>
			<g>
				<path class="st10" d="M537.8,305.2c-0.1,0.1-1.1-0.7-2.3-1.8c-1.2-1.1-2.1-2-2.1-2.1c0.1-0.1,1.1,0.7,2.3,1.8
					C536.9,304.2,537.8,305.1,537.8,305.2z"/>
			</g>
		</g>
		<g>
			<g>
				<path class="st10" d="M535.5,314c0.1,0.1-0.9,0.8-2.1,1.5c-1.2,0.7-2.2,1.3-2.3,1.2c-0.1-0.1,0.9-0.8,2.1-1.5
					C534.4,314.5,535.4,313.9,535.5,314z"/>
			</g>
		</g>
		<g>
			<g>
				<path class="st10" d="M544.9,316.2c-0.1,0-0.1-1.5,0-3.3c0.1-1.8,0.3-3.3,0.4-3.3c0.1,0,0.1,1.5,0,3.3
					C545.2,314.8,545,316.2,544.9,316.2z"/>
			</g>
		</g>
		<g>
			<g>
				<path class="st10" d="M554,325.1c-0.1,0.1-1-1-2.1-2.3c-1.2-1.3-2.2-2.2-2.1-2.3c0.1-0.1,1.2,0.8,2.4,2.1
					C553.4,323.8,554.1,325,554,325.1z"/>
			</g>
		</g>
		<g>
			<g>
				<path class="st10" d="M555.3,306.6c0.1,0.1-0.9,0.9-2.2,1.7c-1.3,0.9-2.4,1.5-2.5,1.4c-0.1-0.1,0.9-0.9,2.2-1.7
					C554.1,307.1,555.2,306.5,555.3,306.6z"/>
			</g>
		</g>
		<g>
			<g>
				<path class="st10" d="M547.1,299.9c0.1,0.1-1,0.9-2.4,1.8c-1.4,0.9-2.6,1.6-2.6,1.5c-0.1-0.1,1-0.9,2.4-1.8
					C545.8,300.4,547,299.8,547.1,299.9z"/>
			</g>
		</g>
		<g>
			<g>
				<path class="st10" d="M554.5,302.5c-0.1,0-0.6-1-1.2-2.4c-0.5-1.4-0.9-2.5-0.8-2.6c0.1,0,0.6,1,1.2,2.4
					C554.2,301.3,554.6,302.5,554.5,302.5z"/>
			</g>
		</g>
		<g>
			<g>
				<path class="st10" d="M564.7,305.9c-0.1,0.1-0.8-0.6-1.7-1.4c-0.9-0.9-1.5-1.6-1.4-1.7c0.1-0.1,0.8,0.6,1.7,1.4
					C564.2,305,564.8,305.8,564.7,305.9z"/>
			</g>
		</g>
		<g>
			<g>
				<path class="st10" d="M560.5,313.3c-0.1,0-0.3-1-0.3-2.3c-0.1-1.3,0-2.4,0.1-2.4c0.1,0,0.3,1,0.3,2.3S560.6,313.3,560.5,313.3z"
					/>
			</g>
		</g>
		<g>
			<g>
				<path class="st10" d="M569,311.8c0,0.1-1.2,0.1-2.7-0.1c-1.5-0.2-2.6-0.6-2.6-0.7c0-0.1,1.2,0.1,2.6,0.3
					C567.8,311.5,569,311.7,569,311.8z"/>
			</g>
		</g>
		<g>
			<g>
				<path class="st10" d="M534.7,327.2c-0.1,0-0.8-1.2-1.5-2.8c-0.7-1.6-1.3-2.9-1.2-3c0.1,0,0.8,1.2,1.5,2.8
					C534.3,325.8,534.8,327.2,534.7,327.2z"/>
			</g>
		</g>
		<g>
			<g>
				<path class="st10" d="M545.9,339.3c-0.1,0.1-0.9-0.9-1.9-2.2c-0.9-1.3-1.6-2.4-1.5-2.5c0.1-0.1,0.9,0.9,1.9,2.2
					C545.3,338.1,546,339.2,545.9,339.3z"/>
			</g>
		</g>
		<g>
			<g>
				<path class="st10" d="M555.3,334.2c0,0.1-1.1,0.6-2.5,1.2c-1.4,0.6-2.6,0.9-2.7,0.8c0-0.1,1.1-0.6,2.5-1.2
					C554,334.5,555.2,334.1,555.3,334.2z"/>
			</g>
		</g>
		<g>
			<g>
				<path class="st10" d="M532.4,344c-0.1,0,0.2-1,0.7-2.1c0.5-1.1,1-2,1.1-1.9c0.1,0-0.2,1-0.7,2.1S532.5,344,532.4,344z"/>
			</g>
		</g>
		<g>
			<g>
				<path class="st10" d="M525.2,309.4c-0.1,0-0.6-0.8-0.7-2c-0.2-1.2,0-2.1,0.1-2.1c0.1,0,0.1,0.9,0.3,2
					C525,308.5,525.3,309.4,525.2,309.4z"/>
			</g>
		</g>
		<g>
			<g>
				<path class="st10" d="M538,336.3c-0.1,0.1-1.1-0.4-2.3-1s-2.1-1.3-2.1-1.4c0.1-0.1,1.1,0.4,2.3,1
					C537.1,335.5,538,336.2,538,336.3z"/>
			</g>
		</g>
		<g>
			<g>
				<path class="st10" d="M545.3,323.5c0.1,0.1-0.8,1-2,2.1c-1.2,1.1-2.2,1.9-2.3,1.8c-0.1-0.1,0.8-1,2-2.1S545.3,323.4,545.3,323.5
					z"/>
			</g>
		</g>
		<g class="st18">
			<g>
				<path d="M540.8,323.3c0.5,2.6,1.5,5.3,3.4,7.1c1.9,1.9,4.9,2.8,7.4,1.8c0.5-0.2,1.1-0.6,1.2-1.1c0.1-0.6-0.4-1.3-1-1.5
					s-1.3-0.2-1.9-0.3c-3.7-0.2-7.2-2.5-8.9-5.8"/>
			</g>
		</g>
		<g>
			<g>
				<path class="st7" d="M550.8,329.4c0,0-0.2,0.1-0.5,0.1c-0.3,0-0.8,0-1.4,0c-0.6-0.1-1.3-0.2-2.1-0.5c-0.7-0.3-1.5-0.7-2.3-1.2
					c-0.8-0.5-1.4-1.1-1.9-1.7c-0.5-0.6-0.9-1.2-1.2-1.8c-0.3-0.5-0.4-1-0.5-1.3c-0.1-0.3-0.1-0.5-0.1-0.5c0.1,0,0.3,0.7,0.9,1.7
					c0.3,0.5,0.7,1.1,1.2,1.7c0.5,0.6,1.1,1.1,1.9,1.7c0.7,0.5,1.5,0.9,2.2,1.2c0.7,0.3,1.4,0.5,2,0.6
					C550,329.4,550.8,329.4,550.8,329.4z"/>
			</g>
		</g>
	</g>
	<g>
		<g>
			<g>
				<g>
					<path class="st14" d="M508.7,341.8l11.1-1.3l7.8,5.1l29.9-7.2l0.7-20.4l13.3-1.8V341c-0.1,6.3-5.4,11.3-11.7,11.1l-43.7-1.2
						l-1.9-3.7l-9.4-0.3L508.7,341.8z"/>
				</g>
			</g>
		</g>
		<g>
			<g>
				<g>
					<g>
						<path class="st16" d="M557,338.4c0,0-0.2,0.1-0.6,0.2c-0.4,0.1-0.9,0.2-1.6,0.4c-1.4,0.4-3.5,0.9-6,1.5
							c-5.1,1.2-12.1,2.9-19.8,4.8c-0.6,0.1-1.2,0.3-1.8,0.4l-0.1,0l-0.1,0c-2.8-1.8-5.4-3.5-7.8-5.1l0.1,0
							c-4.4,0.5-8.2,0.9-11.1,1.3l0.1,0c-1.2,1.6-2.2,2.8-2.9,3.7c-0.3,0.4-0.6,0.7-0.8,1c-0.2,0.2-0.3,0.3-0.3,0.3
							c0,0,0.1-0.1,0.2-0.4c0.2-0.3,0.4-0.6,0.7-1c0.7-0.9,1.6-2.2,2.8-3.8l0,0l0,0c2.9-0.4,6.7-0.8,11.1-1.4l0.1,0l0,0
							c2.4,1.6,5,3.3,7.8,5.1l-0.1,0c0.6-0.1,1.2-0.3,1.8-0.4c7.7-1.8,14.7-3.5,19.8-4.7c2.5-0.6,4.6-1,6-1.4
							c0.7-0.2,1.2-0.3,1.6-0.4C556.8,338.4,557,338.4,557,338.4z"/>
					</g>
				</g>
			</g>
		</g>
		<g>
			<g>
				<g>
					<g>
						<path class="st16" d="M514.7,344.9c0,0.1-1.9,0.2-4.3,0.2c-0.3,0-0.5,0-0.8,0l0.1,0c-1.5,1.3-2.7,2.2-2.8,2.1
							c-0.1-0.1,1.1-1.1,2.6-2.4l0,0h0.1c0.3,0,0.5,0,0.8,0C512.8,344.8,514.7,344.8,514.7,344.9z"/>
					</g>
				</g>
			</g>
		</g>
		<g>
			<g>
				<g>
					<g>
						<path class="st16" d="M562.5,341.7c-0.1,0.1-0.7-1.3-2.2-2.3c-1.5-1-3-0.9-3-1c0,0,0.4-0.1,1-0.1c0.6,0,1.4,0.3,2.2,0.8
							c0.8,0.5,1.3,1.1,1.6,1.7C562.5,341.4,562.6,341.7,562.5,341.7z"/>
					</g>
				</g>
			</g>
		</g>
	</g>
</g>
<g id="Plant">
	<g>
		<g>
			<g>
				<rect x="321.3" y="505.2" class="st7" width="50" height="6.9"/>
			</g>
			<g>
				<path class="st7" d="M371.3,512.1h-50.1v-7h50.1V512.1z M321.3,511.9h49.8v-6.7h-49.8V511.9z"/>
			</g>
		</g>
		<g>
			<g>
				<polygon class="st7" points="325.9,509.7 333.1,545.2 359.7,545.2 366.6,512 				"/>
			</g>
		</g>
		<g>
			<g>
				<polygon class="st8" points="325.9,541.8 329.7,547.1 362.1,547.1 366.6,541.8 				"/>
			</g>
		</g>
		<g>
			<g>
				<g>
					<path class="st7" d="M344.4,510.8c-0.1,0-0.2-16.4-0.3-36.7c-0.1-20.3,0-36.7,0.1-36.7c0.1,0,0.2,16.4,0.3,36.7
						C344.5,494.3,344.5,510.8,344.4,510.8z"/>
				</g>
			</g>
		</g>
		<g>
			<g>
				<g>
					<path class="st7" d="M355.5,469.6c0,0,0,0.1-0.1,0.4c-0.1,0.3-0.3,0.6-0.4,1.1c-0.1,0.2-0.2,0.5-0.3,0.8
						c-0.1,0.3-0.2,0.6-0.3,0.9c-0.1,0.3-0.3,0.7-0.4,1.1c-0.1,0.4-0.2,0.8-0.4,1.2c-0.5,1.7-1,3.8-1.4,6.1
						c-0.4,2.3-0.6,4.9-0.8,7.6c-0.2,5.5,0.1,10.4,0.4,14c0.2,1.8,0.3,3.2,0.4,4.2c0.1,0.5,0.1,0.8,0.1,1.1c0,0.3,0,0.4,0,0.4
						c0,0,0-0.1-0.1-0.4c-0.1-0.3-0.1-0.7-0.2-1.1c-0.2-1-0.4-2.4-0.6-4.2c-0.4-3.6-0.7-8.5-0.5-14c0.1-2.7,0.4-5.3,0.8-7.7
						c0.4-2.3,0.9-4.4,1.5-6.1c0.1-0.4,0.3-0.8,0.4-1.2c0.1-0.4,0.3-0.7,0.4-1.1c0.1-0.3,0.3-0.6,0.4-0.9c0.1-0.3,0.3-0.5,0.4-0.8
						c0.2-0.4,0.4-0.8,0.5-1C355.4,469.8,355.5,469.6,355.5,469.6z"/>
				</g>
			</g>
		</g>
		<g>
			<g>
				<g>
					<path class="st7" d="M354.2,456.4c0,0,0,0.2-0.2,0.5c-0.1,0.4-0.3,0.9-0.5,1.5c-0.1,0.3-0.2,0.7-0.4,1.1
						c-0.1,0.4-0.3,0.8-0.4,1.3c-0.3,0.9-0.6,2-0.9,3.3c-0.2,0.6-0.3,1.2-0.5,1.9c-0.2,0.7-0.3,1.4-0.5,2.1c-0.4,1.4-0.6,3-0.9,4.6
						c-0.6,3.3-1,6.9-1.4,10.7c-0.3,3.8-0.5,7.5-0.5,10.8c0,3.3,0,6.3,0.2,8.8c0,1.3,0.1,2.4,0.2,3.4c0.1,1,0.1,1.9,0.2,2.5
						c0.1,0.7,0.1,1.2,0.1,1.6c0,0.4,0,0.6,0,0.6c0,0,0-0.2-0.1-0.6c0-0.4-0.1-0.9-0.2-1.6c-0.1-0.7-0.2-1.6-0.2-2.5
						c-0.1-1-0.2-2.1-0.2-3.4c-0.2-2.5-0.2-5.5-0.2-8.8c0-3.3,0.2-7,0.5-10.8c0.3-3.8,0.8-7.4,1.4-10.7c0.3-1.6,0.6-3.2,1-4.6
						c0.2-0.7,0.3-1.4,0.5-2.1c0.2-0.7,0.4-1.3,0.5-1.9c0.3-1.2,0.7-2.3,1-3.2c0.2-0.5,0.3-0.9,0.4-1.3c0.2-0.4,0.3-0.8,0.4-1.1
						c0.2-0.6,0.4-1.1,0.6-1.5C354.1,456.5,354.2,456.3,354.2,456.4z"/>
				</g>
			</g>
		</g>
		<g>
			<g>
				<g>
					<path class="st7" d="M341.2,513.7c0,0,0-0.1,0-0.2c0-0.1,0-0.3,0-0.6c0-0.5-0.1-1.3-0.1-2.2c-0.1-1.9-0.3-4.6-0.5-8
						c-0.4-6.8-1.1-16.1-2.2-26.4c-0.6-5.1-1.3-10-2-14.4c-0.4-2.2-0.7-4.3-1.1-6.3c-0.4-2-0.7-3.8-1.1-5.4c-0.3-1.7-0.7-3.1-1-4.5
						c-0.3-1.3-0.6-2.4-0.8-3.4c-0.2-0.9-0.4-1.6-0.5-2.1c-0.1-0.2-0.1-0.4-0.1-0.6c0-0.1,0-0.2,0-0.2s0,0.1,0.1,0.2
						c0,0.1,0.1,0.3,0.2,0.5c0.1,0.5,0.3,1.2,0.6,2.1c0.3,0.9,0.6,2,0.9,3.3c0.3,1.3,0.7,2.8,1,4.5c0.4,1.7,0.8,3.5,1.1,5.4
						c0.4,2,0.7,4.1,1.1,6.3c0.7,4.4,1.4,9.3,2,14.4c1.1,10.3,1.7,19.6,2.1,26.4c0.2,3.4,0.3,6.1,0.4,8c0,0.9,0.1,1.7,0.1,2.2
						c0,0.2,0,0.4,0,0.6C341.2,513.6,341.2,513.7,341.2,513.7z"/>
				</g>
			</g>
		</g>
		<g>
			<g>
				<path class="st9" d="M344,445.3c-0.2-2.3-2.6-4.1-4.9-4.1c-2.3,0-4.5,1.4-5.9,3.2c-1.4,1.9-2.2,4.1-2.9,6.4
					c-1.6,5.5-2.4,11.2-1.8,16.9c0.7,5.7,3,11.2,7,15.2c0.7,0.7,1.5,1.3,2.4,1.1c0.5-0.1,0.9-0.5,1.3-0.8c8-7.2,12.6-18,12.3-28.8
					c-0.1-2.2-0.3-4.4-1.5-6.2C348.8,446.4,346,444.5,344,445.3"/>
			</g>
		</g>
		<g>
			<g>
				<g>
					<path class="st9" d="M326.5,426.6c-1.1,2-2.2,4-3.3,6c-0.1,0.1-0.2,0.3-0.3,0.3c-0.2,0-0.3-0.1-0.4-0.3
						c-2.9-4.5-5.8-8.9-8.7-13.4l2-1.1L326.5,426.6z"/>
				</g>
			</g>
			<g class="st13">
				<g>
					<g>
						<path d="M326.5,426.6c-1.1,2-2.2,4-3.3,6c-0.1,0.1-0.2,0.3-0.3,0.3c-0.2,0-0.3-0.1-0.4-0.3c-2.9-4.5-5.8-8.9-8.7-13.4l2-1.1
							L326.5,426.6z"/>
					</g>
				</g>
			</g>
			<g>
				<g>
					<path class="st9" d="M344.2,437.4c-9.9-5.8-19.8-11.7-29.7-17.5c-0.3-0.2-0.6-0.4-0.7-0.7c-0.1-0.4,0.2-0.9,0.5-1.2
						c4.1-4.2,10-6.7,15.9-6.2c5.9,0.4,11.5,3.8,14.4,8.9C347.3,425.7,347.4,432.5,344.2,437.4"/>
				</g>
			</g>
			<g>
				<g>
					<g>
						<path class="st7" d="M318.7,414.2c0,0,0.1,0,0.4,0c0.3,0,0.6-0.1,1.1-0.1c1,0,2.4,0,4.1,0.3c1.7,0.3,3.7,0.8,5.9,1.8
							c2.1,0.9,4.3,2.3,6.3,4.1c2,1.8,3.5,3.8,4.7,5.9c1.1,2,1.9,4,2.4,5.7c0.5,1.7,0.7,3.1,0.7,4.1c0.1,0.5,0,0.9,0.1,1.1
							c0,0.3,0,0.4,0,0.4c0,0-0.1-0.5-0.2-1.5c-0.1-1-0.4-2.3-0.8-4c-0.9-3.3-3.1-7.8-7.1-11.3c-3.9-3.6-8.6-5.3-12-5.9
							c-1.7-0.3-3.1-0.4-4.1-0.4C319.3,414.3,318.7,414.3,318.7,414.2z"/>
					</g>
				</g>
			</g>
			<g>
				<g>
					<g>
						<path class="st7" d="M340.1,425.3c0,0-0.6,0.3-1.5,0.7c-0.9,0.4-2.3,0.8-3.7,1.3c-1.5,0.5-2.8,0.8-3.8,1.1
							c-1,0.2-1.6,0.4-1.6,0.3c0,0,0.6-0.2,1.6-0.6c1.1-0.3,2.4-0.7,3.8-1.2c1.4-0.5,2.7-0.9,3.8-1.2
							C339.5,425.4,340.1,425.2,340.1,425.3z"/>
					</g>
				</g>
			</g>
			<g>
				<g>
					<g>
						<path class="st7" d="M335.5,412.7c0.1,0,0.3,1.5,0.4,3.3c0,1.8-0.1,3.3-0.2,3.3c-0.1,0-0.1-1.5-0.2-3.3
							C335.4,414.2,335.4,412.7,335.5,412.7z"/>
					</g>
				</g>
			</g>
			<g>
				<g>
					<g>
						<path class="st7" d="M314.2,419.5c0,0,0.8-0.3,2.2-0.8c1.3-0.4,3.2-0.9,5.3-1.4s4-0.9,5.4-1.1c1.4-0.2,2.3-0.4,2.3-0.3
							c0,0.1-0.8,0.2-2.2,0.6c-1.4,0.3-3.3,0.7-5.4,1.2c-2.1,0.5-4,1-5.3,1.3C315.1,419.3,314.2,419.6,314.2,419.5z"/>
					</g>
				</g>
			</g>
		</g>
		<g>
			<g>
				<g>
					<path class="st9" d="M330.5,439.8c-2.6-1.9-5.3-2.3-8.5-2.2c-3.2,0.1-6.3,1.1-9.3,2.4c-5,2.2-9.7,5.4-12.7,10
						c-3,4.6-4,10.6-1.8,15.6c0.2,0.5,0.5,1,1,1.2c0.5,0.2,1.1,0,1.7-0.1c5.7-1.9,11.4-3.7,16.7-6.6s10-7,12.8-12.2
						c0.7-1.3,1.2-2.6,1.3-4.1C331.9,442.3,331.5,440.8,330.5,439.8"/>
				</g>
			</g>
			<g>
				<g>
					<g>
						<path class="st7" d="M330.5,439.2c0,0-0.1,0.1-0.4,0.2c-0.3,0.1-0.7,0.2-1.2,0.4c-0.3,0.1-0.6,0.2-0.9,0.3
							c-0.3,0.1-0.7,0.3-1,0.4c-0.7,0.3-1.6,0.6-2.4,1c-0.4,0.2-0.9,0.4-1.4,0.6c-0.5,0.2-1,0.5-1.5,0.8c-1,0.5-2.1,1.2-3.2,1.8
							c-2.2,1.4-4.5,3-6.7,5c-2.2,2-4.2,4.1-5.8,6.1c-0.8,1-1.6,2-2.2,2.9c-0.3,0.5-0.7,0.9-0.9,1.4c-0.3,0.5-0.6,0.9-0.8,1.3
							c-0.5,0.8-0.9,1.6-1.3,2.3c-0.2,0.3-0.4,0.7-0.5,0.9c-0.1,0.3-0.3,0.6-0.4,0.8c-0.2,0.5-0.4,0.8-0.6,1.1
							c-0.1,0.3-0.2,0.4-0.2,0.4s0-0.1,0.2-0.4c0.1-0.3,0.3-0.7,0.5-1.2c0.1-0.3,0.2-0.5,0.4-0.8c0.1-0.3,0.3-0.6,0.5-1
							c0.4-0.7,0.7-1.5,1.3-2.3c0.3-0.4,0.5-0.9,0.8-1.3s0.6-0.9,0.9-1.4c0.6-1,1.4-1.9,2.2-3c1.6-2,3.6-4.1,5.8-6.1
							c2.3-2,4.6-3.6,6.8-5c1.1-0.7,2.2-1.3,3.2-1.8c0.5-0.3,1-0.5,1.5-0.7c0.5-0.2,1-0.4,1.4-0.6c0.9-0.4,1.7-0.7,2.5-1
							c0.4-0.1,0.7-0.3,1-0.4c0.3-0.1,0.6-0.2,0.9-0.3c0.5-0.1,0.9-0.3,1.2-0.3C330.4,439.2,330.5,439.1,330.5,439.2z"/>
					</g>
				</g>
			</g>
			<g>
				<g>
					<g>
						<path class="st7" d="M310.6,450c0,0.1-2.8,1-6.2,2s-6.3,1.8-6.3,1.7c0-0.1,2.8-1,6.2-2C307.7,450.6,310.5,449.9,310.6,450z"/>
					</g>
				</g>
			</g>
			<g>
				<g>
					<g>
						<path class="st7" d="M310.3,463.7c0,0-0.1-0.7-0.1-1.9c0-1.2,0-2.9,0-4.7c0.1-1.8,0.1-3.5,0.2-4.7c0.1-1.2,0.2-1.9,0.2-1.9
							c0.1,0,0,0.7,0,1.9c0,1.3-0.1,2.9-0.1,4.7c0,1.8-0.1,3.4-0.1,4.7C310.4,462.9,310.3,463.7,310.3,463.7z"/>
					</g>
				</g>
			</g>
			<g>
				<g>
					<g>
						<path class="st7" d="M322,457.7c-0.1,0-0.4-3.4-0.7-7.5c-0.3-4.2-0.4-7.5-0.3-7.5c0.1,0,0.4,3.4,0.7,7.5
							C322,454.3,322.1,457.7,322,457.7z"/>
					</g>
				</g>
			</g>
			<g>
				<g>
					<g>
						<path class="st7" d="M307.4,442.3c0,0,0.8-0.1,2-0.1c1.2,0,2.9,0,4.8,0.1c1.9,0.1,3.6,0.1,4.8,0.2c1.2,0.1,2,0.1,2,0.2
							s-0.8,0.1-2,0.1s-2.9,0-4.8-0.1c-1.9-0.1-3.6-0.1-4.8-0.2C308.2,442.4,307.4,442.4,307.4,442.3z"/>
					</g>
				</g>
			</g>
		</g>
		<g>
			<g>
				<g>
					<path class="st7" d="M336.8,484.5c0,0,0-0.1,0-0.4c0-0.3,0-0.7-0.1-1.2c0-1-0.1-2.5,0-4.3c0-1.8,0.2-4,0.4-6.4
						c0.2-2.4,0.6-5,1-7.7c0.5-2.7,1.1-5.3,1.7-7.6c0.6-2.3,1.3-4.4,1.9-6.1c0.6-1.7,1.1-3.1,1.5-4c0.2-0.4,0.3-0.8,0.5-1.1
						c0.1-0.2,0.2-0.4,0.2-0.4c0,0,0,0.1-0.1,0.4c-0.1,0.3-0.2,0.7-0.4,1.1c-0.4,0.9-0.8,2.3-1.4,4.1c-0.6,1.7-1.2,3.8-1.8,6.1
						c-0.6,2.3-1.2,4.9-1.7,7.6c-0.5,2.7-0.8,5.3-1.1,7.7c-0.2,2.4-0.4,4.5-0.4,6.3c-0.1,1.8-0.1,3.3-0.1,4.3c0,0.5,0,0.9,0,1.2
						C336.8,484.4,336.8,484.5,336.8,484.5z"/>
				</g>
			</g>
		</g>
		<g>
			<g>
				<g>
					<path class="st7" d="M338.3,464.2c0,0-0.4,0.5-1.2,1.3c-0.8,0.8-1.9,1.8-3.1,2.9c-1.2,1.1-2.4,2-3.3,2.7c-0.9,0.7-1.4,1-1.4,1
						c0,0,0.5-0.5,1.3-1.2c0.9-0.8,2-1.7,3.2-2.8c1.2-1,2.3-2,3.2-2.8C337.8,464.6,338.3,464.2,338.3,464.2z"/>
				</g>
			</g>
		</g>
		<g>
			<g>
				<g>
					<path class="st7" d="M347.7,471.8c0,0-0.5-0.7-1.3-1.7c-0.8-1.2-1.8-2.7-2.9-4.3c-1.1-1.6-2.2-3.1-3-4.2
						c-0.8-1.1-1.2-1.8-1.2-1.8c0,0,0.6,0.6,1.4,1.6c0.8,1,1.9,2.5,3.1,4.2c1.2,1.7,2.2,3.2,2.9,4.4
						C347.4,471.1,347.8,471.8,347.7,471.8z"/>
				</g>
			</g>
		</g>
		<g>
			<g>
				<g>
					<path class="st7" d="M342.8,448c0.1,0.1-3.1,2.2-7,4.7c-3.9,2.5-7.1,4.5-7.2,4.4c-0.1-0.1,3.1-2.2,7-4.7
						C339.6,449.9,342.8,447.9,342.8,448z"/>
				</g>
			</g>
		</g>
		<g>
			<g>
				<g>
					<path class="st7" d="M351.6,457.5c-0.1,0.1-2.2-1.9-4.7-4.4c-2.5-2.5-4.5-4.6-4.5-4.6c0.1-0.1,2.2,1.9,4.7,4.4
						C349.7,455.4,351.7,457.4,351.6,457.5z"/>
				</g>
			</g>
		</g>
		<g>
			<g>
				<g>
					<path class="st9" d="M353.8,457.3l2.7-0.2c1.9-0.2,3.7-0.7,5.4-1.7c0.8-0.5,1.7-0.9,2.5-1.3c3.3-1.3,7-1.1,10.6-1.3
						c5.8-0.3,11.6-1.8,16.8-4.3c0.3-0.1,0.6-0.4,0.7-0.7c0.6-1-0.5-1.9-1.4-2.4c-4.5-2.8-9.1-5.6-14.2-7s-10.9-1.1-15.3,1.9
						C356.6,443.9,354.7,451.1,353.8,457.3"/>
				</g>
			</g>
			<g>
				<g>
					<g>
						<path class="st7" d="M392.7,447.6c0,0-0.2-0.1-0.5-0.2c-0.3-0.2-0.7-0.4-1.3-0.7c-1.1-0.6-2.7-1.4-4.7-2.4
							c-2-0.9-4.4-2-7.3-2.8c-2.8-0.8-6.1-1.2-9.4-0.8c-3.3,0.4-6.4,1.7-8.6,3.7c-2.2,1.9-3.5,4.3-4.5,6.3c-0.9,2-1.5,3.7-1.9,4.9
							c-0.2,0.6-0.4,1-0.5,1.4c-0.1,0.3-0.2,0.5-0.2,0.5c0,0,0-0.2,0.1-0.5c0.1-0.3,0.2-0.8,0.4-1.4c0.4-1.2,0.9-2.9,1.9-4.9
							c0.9-2,2.2-4.4,4.5-6.4c2.2-2,5.4-3.4,8.8-3.8c3.4-0.4,6.7,0,9.5,0.8c2.9,0.8,5.3,1.9,7.3,2.9c2,1,3.6,1.9,4.7,2.5
							c0.5,0.3,0.9,0.5,1.2,0.7C392.5,447.5,392.7,447.6,392.7,447.6z"/>
					</g>
				</g>
			</g>
			<g>
				<g>
					<g>
						<path class="st7" d="M386.2,451.1c-0.1,0.1-3.6-2.2-7.8-5.1c-4.3-2.9-7.7-5.3-7.6-5.4c0.1-0.1,3.6,2.2,7.8,5.1
							C382.9,448.6,386.3,451,386.2,451.1z"/>
					</g>
				</g>
			</g>
			<g>
				<g>
					<g>
						<path class="st7" d="M382.9,440.3c0,0.1-1.2,0.4-2.7,0.6c-1.5,0.1-2.8,0.1-2.8,0c0-0.1,1.2-0.2,2.8-0.3
							C381.6,440.3,382.8,440.2,382.9,440.3z"/>
					</g>
				</g>
			</g>
			<g>
				<g>
					<g>
						<path class="st7" d="M367.1,437.5c0.1,0.1-0.4,1.1-1.1,2.3c-0.7,1.2-1.4,2.2-1.5,2.1s0.4-1.1,1.1-2.3
							C366.4,438.4,367.1,437.4,367.1,437.5z"/>
					</g>
				</g>
			</g>
			<g>
				<g>
					<g>
						<path class="st7" d="M370.3,453.1c0,0-0.7-0.3-1.7-0.9c-1-0.6-2.4-1.5-3.8-2.6c-1.5-1.1-2.8-2.1-3.7-2.8
							c-0.9-0.7-1.5-1.2-1.5-1.2s0.6,0.4,1.6,1c1,0.8,2.3,1.7,3.7,2.7c1.5,1.1,2.8,2,3.8,2.7C369.7,452.7,370.3,453.1,370.3,453.1z"
							/>
					</g>
				</g>
			</g>
		</g>
		<g>
			<g>
				<g>
					<path class="st9" d="M357.8,468.7c-2.6-0.7-5.6,1.8-6.1,4.4c-0.5,2.6,0.4,5.2,1.6,7.6c2.5,5.3,6,10.2,10.6,13.8
						c4.6,3.6,10.3,6,16.2,6c-1.1-5,0.3-10.3-0.3-15.4c-0.5-4.5-2.6-8.7-5.8-11.9c-3.2-3.2-7.5-5.2-11.9-5.7
						C360.3,467.4,358.4,467.2,357.8,468.7"/>
				</g>
			</g>
			<g>
				<g>
					<g>
						<path class="st7" d="M380,500.5c0,0-0.1,0-0.4-0.2c-0.2-0.1-0.6-0.3-1-0.6c-0.8-0.6-1.7-1.8-2.5-3.4c-0.4-0.8-0.9-1.7-1.3-2.6
							c-0.4-1-0.9-2-1.4-3c-0.5-1.1-1-2.2-1.7-3.3c-0.7-1.1-1.5-2.1-2.3-3.2c-1.8-2.1-3.6-3.8-5.3-5.5c-1.6-1.7-3-3.3-4-4.8
							c-1-1.5-1.6-2.8-2-3.7c-0.2-0.5-0.3-0.8-0.3-1.1s-0.1-0.4-0.1-0.4c0,0,0.2,0.5,0.6,1.4c0.4,0.9,1,2.2,2,3.6
							c1,1.5,2.4,3.1,4,4.7c1.6,1.7,3.5,3.5,5.3,5.5c0.9,1,1.7,2.1,2.3,3.2c0.7,1.1,1.2,2.2,1.7,3.3c0.5,1.1,0.9,2.1,1.3,3.1
							c0.4,0.9,0.9,1.8,1.3,2.6c0.8,1.6,1.6,2.8,2.4,3.4C379.5,500.2,380,500.5,380,500.5z"/>
					</g>
				</g>
			</g>
			<g>
				<g>
					<g>
						<path class="st7" d="M366.8,496.3c0,0,0-0.7,0.2-1.7c0.2-1.1,0.5-2.5,1-4.1c0.4-1.6,0.9-3,1.3-4c0.4-1,0.7-1.6,0.7-1.6
							c0,0-0.1,0.7-0.5,1.7c-0.3,1-0.7,2.4-1.2,4c-0.4,1.6-0.8,3-1.1,4C367,495.7,366.8,496.4,366.8,496.3z"/>
					</g>
				</g>
			</g>
			<g>
				<g>
					<g>
						<path class="st7" d="M379.5,484c0,0-0.7-0.1-1.8-0.4c-1.1-0.3-2.6-0.7-4.3-1.1s-3.2-0.7-4.4-0.9c-1.1-0.2-1.8-0.3-1.8-0.4
							c0,0,0.7,0,1.8,0.2c1.1,0.1,2.7,0.4,4.4,0.8c1.7,0.4,3.2,0.8,4.3,1.2C378.9,483.7,379.5,484,379.5,484z"/>
					</g>
				</g>
			</g>
			<g>
				<g>
					<g>
						<path class="st7" d="M357.3,487.6c0,0,0.1-0.8,0.3-2c0.2-1.2,0.6-2.9,1.1-4.7c0.5-1.8,1-3.5,1.4-4.7c0.4-1.2,0.7-1.9,0.7-1.9
							s-0.2,0.8-0.5,2s-0.8,2.8-1.3,4.7c-0.5,1.8-0.9,3.5-1.2,4.7C357.5,486.9,357.3,487.6,357.3,487.6z"/>
					</g>
				</g>
			</g>
			<g>
				<g>
					<g>
						<path class="st7" d="M373.6,473.3c0,0.1-3.2-0.2-7.1-0.6c-3.9-0.4-7.1-0.8-7.1-0.9c0-0.1,3.2,0.2,7.1,0.6
							S373.6,473.2,373.6,473.3z"/>
					</g>
				</g>
			</g>
		</g>
		<g>
			<g>
				<g>
					<path class="st8" d="M371.3,512c0,0.1-11.2,0.2-25.1,0.2c-13.8,0-25.1-0.1-25.1-0.2s11.2-0.2,25.1-0.2
						C360.1,511.8,371.3,511.9,371.3,512z"/>
				</g>
			</g>
		</g>
		<g>
			<g>
				<g>
					<path class="st8" d="M363.5,526.4c0,0.1-7.6,0.2-16.9,0.2c-9.3,0-16.9-0.1-16.9-0.2s7.6-0.2,16.9-0.2
						C355.9,526.3,363.5,526.3,363.5,526.4z"/>
				</g>
			</g>
		</g>
		<g>
			<g>
				<g>
					<path class="st8" d="M363.8,528.5c0,0.1-7.6,0.2-16.9,0.2c-9.3,0-16.9-0.1-16.9-0.2c0-0.1,7.6-0.2,16.9-0.2
						C356.2,528.3,363.8,528.4,363.8,528.5z"/>
				</g>
			</g>
		</g>
		<g>
			<g>
				<g>
					<path class="st8" d="M363.8,524.7c0,0.1-7.8,0.2-17.5,0.2c-9.6,0-17.5-0.1-17.5-0.2c0-0.1,7.8-0.2,17.5-0.2
						C356,524.6,363.8,524.6,363.8,524.7z"/>
				</g>
			</g>
		</g>
	</g>
</g>
<g id="Floor_1_">
	<g>
		<g>
			<path class="st7" d="M773.3,764c0,0.1-105.1,0.2-234.7,0.2c-129.7,0-234.7-0.1-234.7-0.2s105.1-0.2,234.7-0.2
				C668.2,763.8,773.3,763.9,773.3,764z"/>
		</g>
	</g>
</g>
</svg>
