<?xml version="1.0" encoding="utf-8"?>
<!-- Generator: Adobe Illustrator 24.1.0, SVG Export Plug-In . SVG Version: 6.00 Build 0)  -->
<svg version="1.1" id="Layer_1" xmlns="http://www.w3.org/2000/svg" xmlns:xlink="http://www.w3.org/1999/xlink" x="0px" y="0px"
	 viewBox="0 0 1920 1080" style="enable-background:new 0 0 1920 1080;" xml:space="preserve">
<style type="text/css">
	.st0{fill:#F2F2F2;}
</style>
<path class="st0" d="M647.6,582.3c4.6,0.4,8.7-3,9.1-7.6c0.2-2.5-0.6-4.9-2.4-6.7c-0.2-0.9-0.3-1.5-0.5-2.3c0.1-0.2,0.2-0.4,0.3-0.5
	c5.4-11.2,18.9-16,30.1-10.6c5.3,2.6,9.5,7.1,11.5,12.7c6,16.7,13.9,33.5,15.3,51c0.6,7.7-0.2,15.5-2.2,22.9
	c17.6-34.1,27.7-71.6,29.5-110c0.5-9.6,0.4-19.3-0.3-28.9c-0.5-7.9-1.4-15.7-2.6-23.5c-6.6-42.3-23.2-82.5-48.3-117.2
	c-12.6-7.7-22.5-19-28.5-32.5c-2.2-4.8-3.6-10-4.3-15.2c1.4,0.3,2.9,0.4,4.4,0.6c0.5,0,0.9,0.1,1.4,0.1l0.2,0c4.6,0.4,8.6-3,9.1-7.5
	c0.2-2-0.4-4.1-1.6-5.7c-0.6-0.8-1.2-1.6-1.8-2.4c-0.9-1.2-1.8-2.5-2.7-3.7c-0.1-0.1-0.2-0.2-0.3-0.4c-1-1.4-2.1-2.8-3.1-4.2
	c2.2-3,5-5.5,8.2-7.3c11.3-5.9,26.3-0.8,33.8,9.6c7.5,10.3,8.4,24.4,5,36.7c-3.2,10.5-8.2,20.3-14.7,29.1c0.6,0.8,1.1,1.6,1.7,2.4
	c10.3,14.6,19.1,30.1,26.3,46.4c-1.1-17.9,2-35.8,9.2-52.3c7.2-15.3,19.9-27.9,31.2-40.9c13.6-15.6,39.6-7.3,40.9,13.3
	c0,0.2,0,0.4,0,0.6c-1.6,0.8-3.2,1.7-4.8,2.6c-5.4,3.3-7.1,10.3-3.9,15.7c1.7,2.7,4.4,4.7,7.5,5.3l0.2,0c-0.8,5.7-2.1,11.3-3.8,16.8
	c-9.8,31-32.1,56.6-61.5,70.4c-1,0.4-1.9,0.9-2.8,1.3c7,23.1,10.9,47,11.7,71.1c0.4,14.2-0.3,28.5-2.2,42.6l0.1-0.5
	c3.8-15.6,12.9-29.4,25.7-39.1c19-14.2,45.1-18.5,65.4-29.7c6.3-3.6,14.3-1.5,17.9,4.8c1.6,2.7,2.1,5.8,1.6,8.9
	c0,0.2-0.1,0.3-0.1,0.5c-3,1.1-5.9,2.3-8.8,3.7c-1.6,0.8-3.2,1.7-4.8,2.6c-5.4,3.3-7.1,10.3-3.9,15.7c1.7,2.7,4.4,4.7,7.5,5.3l0.2,0
	c0.2,0,0.3,0.1,0.5,0.1c-5.6,11.8-13.2,22.5-22.4,31.7c-23,22.5-54.3,34.5-86.5,33.2l0,0c-5.2,18.6-12.3,36.5-21.2,53.6l-66.7-3.1
	c-0.2-0.8-0.4-1.5-0.6-2.3c6.2,0.7,12.4,0.6,18.5-0.2c-4.7-6.3-9.3-12.7-14-19c-0.1-0.1-0.2-0.2-0.3-0.4c-2.4-3.2-4.8-6.4-7.1-9.7
	l0,0C643.3,600.9,644.9,591.4,647.6,582.3L647.6,582.3z"/>
<path class="st0" d="M617.9,577.9c-4.5,0.7-8.8-2.4-9.5-7c-0.4-2.4,0.3-4.9,1.9-6.8c0.1-0.9,0.2-1.5,0.3-2.3
	c-0.1-0.2-0.2-0.3-0.3-0.5c-6-10.8-19.7-14.7-30.5-8.6c-5.1,2.9-8.9,7.6-10.6,13.3c-5,16.9-11.7,34-12,51.4
	c-0.1,7.7,1.1,15.3,3.6,22.5c-19.5-32.7-31.8-69.2-35.9-107c-1-9.5-1.5-19-1.5-28.6c0-7.8,0.4-15.6,1.1-23.4
	c4-42.3,17.9-83.1,40.6-118.9c12-8.3,21.1-20.2,26.2-33.9c1.8-4.9,3-10.1,3.3-15.3c-1.4,0.3-2.9,0.6-4.3,0.9
	c-0.4,0.1-0.9,0.1-1.4,0.2l-0.2,0c-4.5,0.7-8.7-2.4-9.4-6.9c-0.3-2,0.1-4,1.2-5.7c0.5-0.8,1.1-1.7,1.6-2.5c0.8-1.3,1.7-2.5,2.5-3.8
	c0.1-0.1,0.2-0.3,0.3-0.4c0.9-1.5,1.9-2.9,2.8-4.4c-2.3-2.9-5.3-5.1-8.6-6.7c-11.6-5.2-26.1,0.9-32.9,11.5
	c-6.8,10.7-6.8,24.7-2.7,36.6c3.8,10.2,9.4,19.6,16.4,27.9c-0.5,0.8-1,1.6-1.5,2.4c-9.3,15-17,30.9-23.2,47.5
	c0-17.8-4.2-35.3-12.3-51.2c-8.1-14.7-21.4-26.4-33.4-38.5c-14.4-14.6-39.6-4.8-39.6,15.7c0,0.2,0,0.4,0,0.6
	c1.7,0.7,3.3,1.5,4.9,2.3c5.5,2.9,7.7,9.7,4.8,15.3c-1.5,2.8-4,4.9-7.1,5.7l-0.2,0.1c1.2,5.6,2.8,11.1,4.8,16.4
	c11.6,30.1,35.2,54,65.2,65.9c1,0.4,1.9,0.7,2.9,1.1c-5.5,23.3-7.9,47.2-7.2,71.1c0.5,14.1,2,28.1,4.8,42l-0.1-0.5
	c-4.7-15.2-14.5-28.3-27.8-37.1c-19.7-12.9-45.8-15.6-66.6-25.4c-6.4-3.2-14.2-0.6-17.4,5.8c-1.4,2.7-1.7,5.9-1,8.9
	c0,0.2,0.1,0.3,0.1,0.5c3,0.9,6,1.9,8.9,3.2c1.7,0.7,3.3,1.5,4.9,2.3c5.5,2.9,7.7,9.7,4.8,15.3c-1.5,2.8-4,4.9-7.1,5.7l-0.2,0.1
	c-0.2,0-0.3,0.1-0.5,0.1c6.3,11.3,14.4,21.5,24.1,30c24.2,20.9,55.8,30.8,87.6,27.6l0,0c6.3,18.1,14.4,35.4,24.3,51.8l65.8-7.2
	c0.2-0.8,0.3-1.5,0.4-2.3c-6,1-12.2,1.3-18.3,0.9c4.2-6.5,8.5-13.1,12.7-19.6c0.1-0.1,0.2-0.3,0.3-0.4c2.1-3.3,4.3-6.6,6.5-10l0,0
	C623.2,596,621.1,586.8,617.9,577.9L617.9,577.9z"/>
</svg>
