<?xml version="1.0" encoding="utf-8"?>
<!-- Generator: Adobe Illustrator 24.1.0, SVG Export Plug-In . SVG Version: 6.00 Build 0)  -->
<svg version="1.1" id="Layer_1" xmlns="http://www.w3.org/2000/svg" xmlns:xlink="http://www.w3.org/1999/xlink" x="0px" y="0px"
	 viewBox="0 0 1366 768" style="enable-background:new 0 0 1366 768;" xml:space="preserve">
<style type="text/css">
	.st0{fill:url(#SVGID_1_);}
	.st1{fill:url(#SVGID_2_);}
	.st2{fill:#EBEBEB;}
	.st3{fill:#E6E6E6;}
	.st4{fill:#F5F5F5;}
	.st5{fill:#FAFAFA;}
	.st6{fill:#FFFFFF;}
	.st7{fill:#F0F0F0;}
	.st8{fill:#E0E0E0;}
	.st9{opacity:0.2;}
	.st10{fill:#407BFF;}
	.st11{fill:#FF8B7B;}
	.st12{fill:#263238;}
	.st13{opacity:0.2;enable-background:new    ;}
	.st14{opacity:0.3;enable-background:new    ;}
	.st15{fill:#FF5652;}
	.st16{opacity:0.6;fill:#FFFFFF;enable-background:new    ;}
</style>
<g>
	
		<radialGradient id="SVGID_1_" cx="523" cy="554" r="382.5082" gradientTransform="matrix(1 0 0 -1 0 938)" gradientUnits="userSpaceOnUse">
		<stop  offset="0" style="stop-color:#CCE0F4"/>
		<stop  offset="0" style="stop-color:#C4D7F4;stop-opacity:0.9559"/>
		<stop  offset="0" style="stop-color:#AEBDF3;stop-opacity:0.8824"/>
		<stop  offset="0" style="stop-color:#8B94F2;stop-opacity:0.7894"/>
		<stop  offset="0" style="stop-color:#6366F1;stop-opacity:0.7"/>
		<stop  offset="0.9944" style="stop-color:#4338CA;stop-opacity:0.7"/>
	</radialGradient>
	<path class="st0" d="M523,4C310.4,4,138,174.1,138,384s172.4,380,385,380s385-170.1,385-380S735.6,4,523,4z M524,640.3
		c-145.4,0-263.3-114.7-263.3-256.1S378.6,128,524,128s263.3,114.7,263.3,256.1S669.4,640.3,524,640.3z"/>
</g>
<g>
	
		<radialGradient id="SVGID_2_" cx="524" cy="553.9" r="259.7249" gradientTransform="matrix(1 0 0 -1 0 938)" gradientUnits="userSpaceOnUse">
		<stop  offset="1.118836e-07" style="stop-color:#FFFFFF"/>
		<stop  offset="0.9944" style="stop-color:#FFFFFF"/>
	</radialGradient>
	<path class="st1" d="M787.3,384.1c0,141.5-117.9,256.1-263.3,256.1S260.7,525.5,260.7,384.1S378.6,128,524,128
		S787.3,242.7,787.3,384.1z"/>
</g>
<g id="Background_Complete">
	<g>
		<rect x="297.9" y="516.4" class="st2" width="459.7" height="0.2"/>
		<rect x="681.2" y="531.2" class="st2" width="30.5" height="0.2"/>
		<rect x="594.5" y="533.7" class="st2" width="8" height="0.2"/>
		<rect x="662.6" y="522.6" class="st2" width="17.6" height="0.2"/>
		<rect x="346.2" y="524.2" class="st2" width="39.7" height="0.2"/>
		<rect x="394.1" y="524.2" class="st2" width="5.8" height="0.2"/>
		<rect x="418.8" y="528.1" class="st2" width="86.1" height="0.2"/>
		<path class="st2" d="M515.9,475.4H338.3c-2.9,0-5.3-2.4-5.3-5.3V220.6c0-2.9,2.4-5.3,5.3-5.3h177.5c2.9,0,5.3,2.4,5.3,5.3v249.6
			C521.1,473,518.8,475.4,515.9,475.4z M338.3,215.5c-2.8,0-5,2.3-5,5v249.6c0,2.8,2.3,5,5,5h177.5c2.8,0,5-2.3,5-5V220.6
			c0-2.8-2.3-5-5-5H338.3V215.5z"/>
		<path class="st2" d="M714.7,475.4H537.2c-2.9,0-5.3-2.4-5.3-5.3V220.6c0-2.9,2.4-5.3,5.3-5.3h177.5c2.9,0,5.3,2.4,5.3,5.3v249.6
			C720,473,717.6,475.4,714.7,475.4z M537.2,215.5c-2.8,0-5,2.3-5,5v249.6c0,2.8,2.3,5,5,5h177.5c2.8,0,5-2.3,5-5V220.6
			c0-2.8-2.3-5-5-5H537.2V215.5z"/>
	</g>
	<g>
		<g>
			<g>
				<g>
					<rect x="359.4" y="252.7" class="st3" width="124.8" height="263.7"/>
					<rect x="356.6" y="252.7" class="st4" width="124.8" height="263.7"/>
					<rect x="361.6" y="258.3" class="st5" width="114.8" height="252.5"/>
					<polygon class="st6" points="449.9,510.8 420.9,258.3 388,258.3 417.1,510.8 					"/>
					<rect x="361.6" y="258.3" class="st3" width="2.1" height="252.5"/>
					<rect x="358.7" y="280.2" class="st4" width="120.7" height="7.5"/>
				</g>
			</g>
		</g>
		<g>
			<rect x="499.7" y="363.4" class="st7" width="50.4" height="153"/>
			<rect x="502.5" y="367.8" class="st4" width="44.8" height="44.8"/>
			<rect x="502.5" y="416.7" class="st4" width="44.8" height="44.8"/>
			<rect x="502.5" y="465.6" class="st4" width="44.8" height="44.8"/>
			<path class="st3" d="M534.8,367.3L534.8,367.3H515l0,0c0,2.6,2.1,4.7,4.7,4.7h10.6C532.7,371.9,534.8,369.8,534.8,367.3z"/>
			<path class="st3" d="M534.8,416.1L534.8,416.1H515l0,0c0,2.6,2.1,4.7,4.7,4.7h10.6C532.7,420.8,534.8,418.7,534.8,416.1z"/>
			<path class="st3" d="M534.8,465L534.8,465H515l0,0c0,2.6,2.1,4.7,4.7,4.7h10.6C532.7,469.7,534.8,467.6,534.8,465z"/>
			<rect x="550.1" y="363.4" class="st4" width="25.2" height="153"/>
		</g>
		<g>
			<g>
				<rect x="684.6" y="397.4" class="st7" width="14" height="115.2"/>
				<rect x="562.5" y="512.6" class="st7" width="134.1" height="3.8"/>
				<rect x="560.6" y="397.4" class="st5" width="124" height="115.2"/>
				<path class="st7" d="M584.8,464.7h75.4c7.4,0,13.4-6,13.4-13.4s-6-13.4-13.4-13.4h-75.4c-7.4,0-13.4,6-13.4,13.4
					C571.4,458.7,577.4,464.7,584.8,464.7z M660.3,438.8c6.9,0,12.5,5.6,12.5,12.5s-5.6,12.5-12.5,12.5h-75.4
					c-6.9,0-12.5-5.6-12.5-12.5s5.6-12.5,12.5-12.5H660.3z"/>
				<path class="st7" d="M584.8,498.2h75.4c7.4,0,13.4-6,13.4-13.4s-6-13.4-13.4-13.4h-75.4c-7.4,0-13.4,6-13.4,13.4
					C571.4,492.1,577.4,498.2,584.8,498.2z M660.3,472.2c6.9,0,12.5,5.6,12.5,12.5s-5.6,12.5-12.5,12.5h-75.4
					c-6.9,0-12.5-5.6-12.5-12.5s5.6-12.5,12.5-12.5H660.3z"/>
				<path class="st2" d="M611.2,448.4H634c1.5,0,2.8-1.3,2.8-2.8l0,0c0-1.5-1.3-2.8-2.8-2.8h-22.8c-1.5,0-2.8,1.3-2.8,2.8l0,0
					C608.4,447.2,609.6,448.4,611.2,448.4z"/>
				<path class="st7" d="M584.8,431.3h75.4c7.4,0,13.4-6,13.4-13.4s-6-13.4-13.4-13.4h-75.4c-7.4,0-13.4,6-13.4,13.4
					S577.4,431.3,584.8,431.3z M660.3,405.4c6.9,0,12.5,5.6,12.5,12.5s-5.6,12.5-12.5,12.5h-75.4c-6.9,0-12.5-5.6-12.5-12.5
					s5.6-12.5,12.5-12.5H660.3z"/>
				<path class="st2" d="M611.2,415H634c1.5,0,2.8-1.3,2.8-2.8l0,0c0-1.5-1.3-2.8-2.8-2.8h-22.8c-1.5,0-2.8,1.3-2.8,2.8l0,0
					C608.4,413.7,609.6,415,611.2,415z"/>
				<path class="st2" d="M611.2,481.8H634c1.5,0,2.8-1.3,2.8-2.8l0,0c0-1.5-1.3-2.8-2.8-2.8h-22.8c-1.5,0-2.8,1.3-2.8,2.8l0,0
					C608.4,480.6,609.6,481.8,611.2,481.8z"/>
			</g>
			<rect x="558" y="391.6" class="st7" width="126.6" height="5.9"/>
			<rect x="684.6" y="391.6" class="st3" width="16.7" height="5.9"/>
		</g>
		<g>
			<path class="st8" d="M594,299.4c2.8,1.4,10.5-0.1,7.9,5.1c-1.2,2.4-3.2,5-5.2,7.6c-2.9,3.5-2.3,7.3,1.1,8.7
				c0.8,0.3,1.5,0.8,1.9,1.3c1.6,2.2-2.1,5.2-3.9,7.4c-1.7,2.2-2.5,4.4-1.2,6.1c1.5,1.8,4.5,1.2,6.9,1.7c5.8,1.3-0.2,9.4,0.5,13.5
				c0.4,2.8,2.7,3.6,5.8,4c2.5,0.3,5.9,0.6,6.1,3.2c0.1,2.3-2.8,4.8-3.6,7.2c-0.7,2.3-0.5,4.5,0.6,6.3c0.9,1.5,2.5,2.6,4.6,3
				c2.9,0.6,7.3,0,7.5,3.2c0.1,1.5-0.9,2.7-0.2,4.1c0.6,1.1,1.9,1.7,3.4,2c2.3,0.5,5.7,0.3,8.3-0.1c3.4-0.6,8.4-3.6,6.6-6.5
				c-0.5-0.8-1.5-1.3-2.6-1.5c-0.8-0.2-3.2,0.1-3.5-0.5s0.5-2.7,0.6-3.4c0.1-2.2-0.3-4.3-1-6.2c-0.9-2.6-2.4-5-4.4-6.9
				c-0.8-0.8-2.1-1.4-2.3-2.6c-0.2-1.1,0.6-2.5,1.4-3.7c1.3-1.8,3.3-3.6,4-5.5c1.1-3.1-1.6-4-4.2-4.7c-2.3-0.6-5.4-1.4-4.6-4.3
				c0.6-2,3.1-3.7,3.9-5.7c1-2.7-1.5-2.8-3.3-3.7c-2.3-1.2-2.9-3.4-2.1-6.2c1.4-4.6,9.8-11.1,5.5-14.1c-1.1-0.8-2.1-1-2.8-2.2
				s-0.8-2.7-1.7-3.9c-1.5-1.8-4.5-2.1-6-3.7c-3.2-3.3,3.7-9.3-2.6-10.7c-1.5-0.3-2.7-0.6-3.7-1.5c-0.6-0.5-1-3.2-1.7-3.3
				c-2.9-0.8-8.2,4.8-9.8,6.6C598.1,291.4,590.7,297.7,594,299.4z"/>
			<path class="st4" d="M644,377.4c-1.7-3.2-9.3-6.4-4.3-10.1c2.4-1.7,5.5-3.2,8.7-4.5c4.4-1.8,6-6.1,3.7-9.6
				c-0.5-0.9-0.9-1.7-0.9-2.5c-0.2-3.2,4.6-4,7.4-5.2c2.7-1.1,4.6-3,4.3-5.5c-0.3-2.8-3.4-4-5.2-6.1c-4.4-5,5.2-9.5,6.8-14.1
				c1.1-3.2-0.5-5.4-3-7.7c-2.1-1.9-4.9-4.3-3.7-7c1.1-2.4,5.1-3.2,7-5.1s2.9-4.3,2.9-6.7c0-2.2-0.8-4.2-2.4-5.9
				c-2.2-2.4-6.4-4.5-4.9-8c0.7-1.5,2.3-2.2,2.4-4c0.1-1.5-0.8-3-1.9-4.1c-1.8-1.9-4.8-3.9-7.4-5c-3.3-1.5-9.3-1.5-9.3,2.6
				c0,1.1,0.6,2.2,1.5,3.2c0.6,0.7,2.9,1.9,2.8,2.6c0,0.8-1.9,2.4-2.3,3.2c-1.3,2.2-2,4.6-2.5,7c-0.6,3.3-0.5,6.6,0.1,9.8
				c0.3,1.3,1.1,2.7,0.6,4.1c-0.5,1.3-1.8,2.2-3.2,2.9c-2.1,1.1-4.8,1.6-6.5,3.2c-2.7,2.4-0.7,5.2,1.2,7.5c1.7,2.1,4,4.8,1.8,7.2
				c-1.6,1.7-4.7,1.8-6.5,3.4c-2.3,2.1-0.2,3.8,0.9,5.8c1.4,2.7,0.7,5.3-1.5,7.7c-3.7,3.8-14.6,5.3-12.4,11c0.6,1.5,1.3,2.4,1.3,3.9
				c0,1.7-0.8,3.3-0.5,5c0.3,2.7,2.8,4.9,3.3,7.5c1,5.4-8.3,7.2-3.4,12.6c1.1,1.2,2.1,2.3,2.5,3.9c0.2,0.9-0.8,3.9-0.3,4.5
				c2.1,2.6,9.8,0.1,12.2-0.6C636.2,383,646.1,381.2,644,377.4z"/>
			<g>
				<path class="st7" d="M663.4,370.1c0,0-0.9,21.4-36,21.4s-36-21.4-36-21.4H663.4z"/>
			</g>
		</g>
	</g>
</g>
<g id="Shadow_1_">
	<ellipse id="_x3C_Path_x3E__188_" class="st4" cx="527.8" cy="547.5" rx="178.3" ry="10.4"/>
</g>
<g id="Hourglass">
	<g>
		<g class="st9">
			<polygon class="st10" points="629.6,539.8 571.1,431.6 512.5,539.8 			"/>
			<polygon class="st10" points="629.6,356.7 571.1,464.9 512.5,356.7 			"/>
		</g>
		<g>
			<path class="st10" d="M581.8,420.6l-8.6,15.8c-0.9,1.7-3.4,1.7-4.3,0l-8.6-15.8c-3.4-6.3,1.1-13.8,8.2-13.8h5
				C580.6,406.7,585.2,414.3,581.8,420.6z"/>
			<path class="st10" d="M572,512.5l26.6,10.9c2.5,1,1.8,4.7-0.9,4.7h-53.2c-2.7,0-3.4-3.7-0.9-4.7l26.6-10.9
				C570.7,512.2,571.4,512.2,572,512.5z"/>
			<circle class="st10" cx="571.1" cy="488.2" r="3.4"/>
			<circle class="st10" cx="571.1" cy="452.6" r="1.8"/>
			<circle class="st10" cx="571.1" cy="469.6" r="2"/>
		</g>
		<path class="st10" d="M629.3,534.5H512.8c-2.9,0-5.3,2.4-5.3,5.3l0,0c0,2.9,2.4,5.3,5.3,5.3h116.5c2.9,0,5.3-2.4,5.3-5.3l0,0
			C634.7,536.9,632.3,534.5,629.3,534.5z"/>
		<path class="st10" d="M629.3,351.4H512.8c-2.9,0-5.3,2.4-5.3,5.3l0,0c0,2.9,2.4,5.3,5.3,5.3h116.5c2.9,0,5.3-2.4,5.3-5.3l0,0
			C634.7,353.8,632.3,351.4,629.3,351.4z"/>
	</g>
</g>
<g id="Character_1_">
	<g>
		<g>
			<g>
				<polygon class="st11" points="476.9,537.8 470.4,535.7 474.4,520.4 480.9,522.5 				"/>
				<path class="st12" d="M470.3,534.8l7.3,2.4c0.3,0.1,0.4,0.3,0.3,0.6l-1.5,5.9c-0.2,0.6-0.9,1-1.5,0.8c-2.5-0.9-3.7-1.4-6.9-2.4
					c-2-0.6-8.5-2.3-11.2-3.2s-1.8-3.5-0.5-3.4c5.5,0.6,10.5,0.3,12.8-0.5C469.5,534.7,469.9,534.7,470.3,534.8z"/>
				<g>
					<polygon class="st13" points="480.9,522.5 474.4,520.4 472.4,528.3 478.9,530.4 					"/>
				</g>
				<path class="st10" d="M498.6,367.7c0,0-11.6,53.8-14.4,73.2c-3,21.2-14.2,84.8-14.2,84.8l12,3.3c0,0,16.7-61.7,21.5-82.3
					c5.3-22.4,19.3-79,19.3-79H498.6L498.6,367.7z"/>
				<path class="st14" d="M513,385.4c-4.6,10.4-6.9,33.1-5.1,43.5c3.3-13.4,7.2-29.3,10.2-41.5C517.1,383.8,515.4,379.9,513,385.4z"
					/>
				<polygon class="st12" points="482.4,529.3 469.5,525.8 469.8,520.5 484.3,525.5 				"/>
				<path class="st12" d="M467.7,535.2c0.6,0.2,1.3,0.3,1.8,0.3c0.1,0,0.1,0,0.2-0.1c0-0.1,0-0.1,0-0.2c-0.2-0.2-1.6-2.1-2.5-2
					c-0.2,0-0.4,0.1-0.5,0.3c-0.2,0.3-0.2,0.6-0.1,0.9C466.7,534.8,467.2,535,467.7,535.2z M469.1,535.2c-1.2-0.1-2.1-0.5-2.3-0.9
					c-0.1-0.2-0.1-0.3,0.1-0.6c0.1-0.1,0.1-0.2,0.2-0.2C467.6,533.6,468.5,534.5,469.1,535.2z"/>
				<path class="st12" d="M469.4,535.5C469.5,535.5,469.5,535.5,469.4,535.5c0.1,0,0.2,0,0.2-0.1s0.8-1.9,0.3-2.7
					c-0.1-0.2-0.3-0.4-0.6-0.4c-0.3-0.1-0.6,0-0.7,0.3C468.3,533.2,468.8,534.9,469.4,535.5L469.4,535.5z M469.4,532.6
					c0.1,0,0.2,0.1,0.3,0.2c0.3,0.5,0,1.6-0.2,2.2c-0.4-0.7-0.7-1.9-0.5-2.3C469,532.6,469.1,532.5,469.4,532.6
					C469.3,532.6,469.4,532.6,469.4,532.6z"/>
			</g>
			<path class="st12" d="M511,316.6c-0.3,0.8-0.6,1.4-1,2.2c-0.3,0.7-0.7,1.3-1,2c-0.7,1.3-1.4,2.6-2.1,3.9c-1.5,2.6-3.1,5.1-5,7.5
				c-1.8,2.4-3.8,4.8-6.1,7c-2.3,2.2-4.9,4.3-8,5.9l-0.2,0.1c-0.4,0.2-0.8,0.3-1.2,0.4c-2.2,0.5-4.5,0.3-6.3-0.3
				c-1.9-0.5-3.4-1.4-4.8-2.2c-2.7-1.8-4.8-3.9-6.7-6c-1.8-2.2-3.4-4.4-4.8-6.7c-1.4-2.3-2.7-4.6-3.8-7.2c-0.7-1.5,0-3.3,1.5-3.9
				c1.3-0.5,2.7-0.2,3.5,0.8l0.1,0.1c1.5,1.8,3.2,3.8,4.8,5.6c1.7,1.8,3.4,3.5,5.1,5s3.6,2.8,5.3,3.7c0.8,0.4,1.6,0.7,2.3,0.7
				s1,0,1.3-0.1l-1.4,0.6c1.8-1.1,3.5-2.7,5.2-4.5c1.6-1.8,3.2-3.8,4.6-5.9c1.5-2.1,2.8-4.3,4.1-6.6c0.7-1.1,1.3-2.3,1.9-3.4
				l0.9-1.7c0.3-0.6,0.6-1.2,0.8-1.7l0.1-0.1c1.4-3,5-4.3,8-2.9C511,310.2,512.3,313.7,511,316.6z"/>
			<path class="st14" d="M496,329.1c2.9-7.7,9-7.8,11.7-5.8c-0.2,0.4-0.4,0.7-0.6,1.1c-1.4,2.5-3,4.9-4.7,7.3
				c-1.7,2.3-3.6,4.6-5.8,6.8c-0.7,0.7-1.3,1.3-2.1,1.9C494.4,336.8,494.6,332.7,496,329.1z"/>
			<path class="st11" d="M459.8,323.7l-6,0.2l1.5-6.4c0,0,3.6,0.1,6.1,0.9c1.5,0.5,2.2,2.3,1.3,3.6l0,0
				C462,323,460.9,323.6,459.8,323.7z"/>
			<path class="st10" d="M463.1,318.3c-0.5-0.4-1.1-0.8-2-1c-0.5,2.6-3.6,7-3.6,7h2.5c0.7,0,1.3-0.3,1.7-0.8l1.7-2.1
				C464.2,320.4,464.1,319,463.1,318.3z"/>
			<polygon class="st11" points="449.2,320.9 450.9,316.4 455.3,317.5 453.8,323.9 			"/>
			<g>
				<polygon class="st11" points="524.4,540.8 517.5,540.8 517.3,525 524.1,525 				"/>
				<path class="st12" d="M517.2,540h7.7c0.3,0,0.5,0.2,0.5,0.5l0.4,6.1c0,0.6-0.6,1.2-1.2,1.2c-2.7,0-3.9-0.2-7.3-0.2
					c-2.1,0-9,0.2-11.9,0.2c-2.8,0-2.8-2.8-1.6-3.1c5.4-1.1,10.3-2.7,12.2-4.2C516.4,540.1,516.8,540,517.2,540z"/>
				<g>
					<polygon class="st13" points="524.1,525 517.3,525 517.4,533.1 524.3,533.1 					"/>
				</g>
				<path class="st10" d="M511.9,367.7c0,0-2.6,59.2-1.5,78.7c1.2,21.4,3.8,84.7,3.8,84.7h12.5c0,0,3.1-61.6,3.9-82.8
					c0.8-23,4.5-80.7,4.5-80.7L511.9,367.7L511.9,367.7z"/>
				<polygon class="st12" points="527.2,531.2 513.7,531.2 512.7,526.1 527.6,526.9 				"/>
				<path class="st12" d="M514.8,541.2c0.6,0,1.3-0.1,1.8-0.2c0.1,0,0.1-0.1,0.1-0.1s0-0.1-0.1-0.2c-0.2-0.1-2.2-1.5-3-1.1
					c-0.2,0.1-0.3,0.2-0.4,0.5c-0.1,0.4,0,0.7,0.2,0.9C513.8,541.1,514.2,541.2,514.8,541.2z M516.2,540.7c-1.2,0.2-2.1,0.2-2.4-0.1
					c-0.1-0.1-0.2-0.3-0.1-0.6c0-0.1,0.1-0.2,0.2-0.2C514.2,539.6,515.4,540.2,516.2,540.7z"/>
				<path class="st12" d="M516.6,540.9L516.6,540.9c0.1,0,0.2-0.1,0.2-0.1c0-0.1,0.2-2-0.5-2.7c-0.2-0.2-0.4-0.2-0.7-0.2
					s-0.5,0.2-0.6,0.5C514.8,539.1,515.8,540.5,516.6,540.9C516.5,540.9,516.5,540.9,516.6,540.9z M515.6,538.2c0.1,0,0.2,0,0.3,0.1
					c0.4,0.4,0.5,1.5,0.5,2.2c-0.6-0.5-1.3-1.6-1.2-2.1C515.3,538.3,515.3,538.2,515.6,538.2L515.6,538.2z"/>
			</g>
			<path class="st12" d="M538.5,312.8c0.4-2.4-1.2-4.7-3.6-5h-0.1c-2.2-0.3-5-0.7-7.7-0.8c-4.7-0.2-11.4-0.4-15.5,0
				c-2.4,0.2-4.7,0.6-6.6,1c0,0,0,0-0.1,0c-2.4,0.5-4.3,2.2-5,4.5c-2.2,7.5-4.9,22.8-1.4,55.3H535c0.3-3.3-0.5-13.8,0.1-27.3
				C535.6,330.1,537.4,319,538.5,312.8z"/>
			<path class="st14" d="M538.2,314.8c-0.8,4.4-1.7,10.3-2.3,16.5c0,0-3.3-6.5-3.9-12.1C531.3,313.6,536,313.2,538.2,314.8z"/>
			<g class="st9">
				<g>
					<path class="st6" d="M513.7,315.6c-0.1,0-0.2-0.1-0.3-0.2c-0.1-0.2,0-0.4,0.1-0.5l11.4-5.9c0.2-0.1,0.4,0,0.5,0.1
						c0.1,0.2,0,0.4-0.1,0.5l-11.4,5.9C513.8,315.6,513.8,315.6,513.7,315.6z"/>
					<path class="st6" d="M518.9,316.2c-0.1,0-0.2,0-0.2-0.1l-6.2-6.2c-0.1-0.1-0.1-0.3,0-0.5c0.1-0.1,0.3-0.1,0.5,0l6.2,6.2
						c0.1,0.1,0.1,0.3,0,0.5C519.1,316.1,519,316.2,518.9,316.2z"/>
				</g>
				<path class="st6" d="M527.1,306.9c-4.7-0.2-11.4-0.4-15.5,0c-0.1,0-0.2,0-0.3,0c-0.1,0.6-0.3,1.7,0.4,2.8
					c0.9,1.4,2.7,2.2,5.4,2.3c0.3,0,0.7,0,1,0c7.4,0,10.2-4.5,10.3-4.7l0.3-0.4C528.2,307,527.7,306.9,527.1,306.9z"/>
			</g>
			<path class="st11" d="M512.4,306.9c4.5-1.1,5.3-3.9,5-6.9c-0.1-0.7-0.2-1.5-0.4-2.3l5.6-4.7l4.1-3.4c-1.1,5-2.4,14.1,0.9,17.4
				c0,0-2.8,4.6-10.5,4.2C510.7,310.8,512.4,306.9,512.4,306.9z"/>
			<path class="st13" d="M517,297.7c0.2,0.8,0.3,1.5,0.4,2.3c2.1-0.4,4.9-2.7,5.2-4.8c0.1-0.8,0.1-1.6,0.1-2.2L517,297.7z"/>
			<path class="st12" d="M514,273.7c-3.1,1.8-2.6,6.4-3.4,9.7c2,0.2,5-3.3,5-3.3l1.8-5.3L514,273.7z"/>
			<path class="st11" d="M530.3,283c-2,6.5-2.8,10.4-6.9,13.1c-6.2,4.1-13.7-0.6-13.7-7.4c0-6.2,3.2-15.8,10.3-17.1
				C526.9,270.2,532.3,276.5,530.3,283z"/>
			<path class="st12" d="M524.2,288.5c4.6-5.3-1.1-8,3.5-11.7c-5.3,0.2-14-0.1-15.5-3.8c-1.6-3.6,3.2-8.5,7.2-9
				c4.6-0.5,3.6,5.2,3.6,5.2s17.6-1.1,12,6.4c4.2-0.3,3.1,6.6-4.3,12.4C528.9,288.7,524.2,288.5,524.2,288.5z"/>
			<path class="st12" d="M534,275.8c0,0,3.6-1.1,3.5-3.9C538.8,272.7,538.9,275.5,534,275.8z"/>
			<path class="st11" d="M531.4,289.8c-1.2,1.4-2.8,2.3-4.2,2.5c-2.1,0.4-2.6-1.6-1.5-3.4c0.9-1.7,3.2-3.9,5-3.5
				C532.5,285.9,532.7,288.1,531.4,289.8z"/>
			<path class="st12" d="M519.8,282.8c-0.1,0.5-0.5,0.9-0.9,0.8c-0.3-0.1-0.5-0.6-0.4-1.1s0.5-0.9,0.9-0.8S520,282.3,519.8,282.8z"
				/>
			<path class="st12" d="M513.7,281.6c-0.1,0.5-0.5,0.9-0.9,0.8c-0.3-0.1-0.5-0.6-0.4-1.1s0.5-0.9,0.9-0.8S513.9,281.1,513.7,281.6z
				"/>
			<path class="st15" d="M515.6,282.3c0,0-2,2.8-3.7,4.1c0.7,1.1,2.5,1,2.5,1L515.6,282.3z"/>
			<path class="st12" d="M516.3,289.2c2.2,0.2,3.5-1.1,3.5-1.1c0.1-0.1,0.1-0.2,0-0.2c-0.1-0.1-0.2-0.1-0.2,0c0,0-1.5,1.4-3.9,1
				c-0.1,0-0.2,0-0.2,0.1s0,0.2,0.1,0.2C515.9,289.1,516.1,289.2,516.3,289.2z"/>
			<path class="st12" d="M522.2,281.3c0.1,0,0.1,0,0.2,0c0.2-0.1,0.2-0.3,0.2-0.4c-0.7-1.6-2.2-1.8-2.3-1.8c-0.2,0-0.3,0.1-0.4,0.3
				c0,0.2,0.1,0.3,0.3,0.4c0.1,0,1.2,0.2,1.8,1.4C522,281.3,522.1,281.3,522.2,281.3z"/>
			<path class="st12" d="M512.2,277.9c0.1,0,0.2,0,0.3-0.1c1.2-0.9,2.3-0.6,2.3-0.6c0.2,0.1,0.3,0,0.4-0.2c0.1-0.2,0-0.3-0.2-0.4
				l0,0c-0.1,0-1.5-0.5-2.9,0.7c-0.1,0.1-0.2,0.3-0.1,0.5C512.1,277.9,512.2,277.9,512.2,277.9z"/>
			<path class="st12" d="M538.9,310.1l0.8,1l0.7,1c0.5,0.7,0.9,1.3,1.3,2c0.8,1.3,1.6,2.6,2.4,4c1.5,2.7,2.9,5.4,4.2,8.3
				c0.6,1.4,1.2,2.9,1.8,4.3c0.5,1.5,1.1,2.9,1.5,4.4c1,2.9,1.7,6,2.4,9l0.1,0.3c0.3,1.3,0,2.6-0.7,3.6c-1.2,1.8-2.6,3.5-4.2,5
				c-1.6,1.5-3.5,2.8-5.5,3.7c-2,0.9-4.2,1.5-6.3,1.7c-1.1,0.1-2.2,0.1-3.2,0.1c-0.5,0-1.1-0.1-1.6-0.2c-0.3,0-0.5-0.1-0.8-0.2
				l-0.9-0.2c-0.2-0.1-0.4-0.3-0.3-0.5l1.3-5.3c0,0,0.2-0.1,0.4-0.1l0.5-0.1c0.3-0.1,0.7-0.2,1-0.2c0.7-0.2,1.4-0.4,2-0.7
				c1.3-0.5,2.5-1.2,3.5-2.1c2.1-1.6,3.6-3.8,4.8-6.3l-0.6,4c-0.8-2.6-1.6-5.2-2.6-7.7s-2.1-5-3.3-7.5s-2.5-4.9-3.9-7.3
				c-0.7-1.2-1.4-2.4-2.1-3.5l-1.1-1.7l-0.5-0.8l-0.5-0.7l-0.2-0.3c-1.9-2.7-1.1-6.4,1.6-8.3C533.4,306.9,537,307.6,538.9,310.1z"/>
			<path class="st11" d="M526.7,357.4l-2,3.2l8.6-0.3c0,0,2.2-5.8-0.8-6.7l-1.2,0.3C529.4,354.5,527.7,355.7,526.7,357.4z"/>
			<path class="st10" d="M530.2,352.9c-0.5,0.3-1.1,0.9-1.6,1.6c2.3,1.3,5.6,5.6,5.6,5.6l0.8-2.4c0.2-0.6,0.1-1.3-0.2-1.8l-1.5-2.3
				C532.6,352.5,531.2,352.2,530.2,352.9z"/>
			<polygon class="st11" points="525.5,365.6 532.5,365 533.3,360.3 524.7,360.6 			"/>
		</g>
	</g>
</g>
<g id="Clock">
	<g>
		<path class="st10" d="M438.7,253.4l-0.5-0.8c1.3-0.8,2.8-1.5,4.2-2.1l0.3,0.9C441.4,251.9,440,252.6,438.7,253.4z"/>
		<path class="st10" d="M425.3,269.6l-0.9-0.3c2.2-6,6.1-11.2,11.3-15l0.5,0.7C431.1,258.7,427.4,263.7,425.3,269.6z"/>
		<circle class="st10" cx="454.4" cy="280.1" r="28.3"/>
		<path class="st16" d="M478.1,280.1c0,13.1-10.6,23.6-23.6,23.6c-6.2,0-11.8-2.4-16-6.3c-4.7-4.3-7.6-10.5-7.6-17.4
			c0-13.1,10.6-23.6,23.6-23.6c6.9,0,13.1,3,17.5,7.7l0,0C475.8,268.4,478.1,273.9,478.1,280.1z"/>
		<path class="st6" d="M478.1,280.1c0,13.1-10.6,23.6-23.6,23.6c-6.2,0-11.8-2.4-16-6.3c-3.9-4.2-6.3-9.9-6.3-16
			c0-13.1,10.6-23.6,23.6-23.6c6.3,0,11.9,2.4,16.1,6.4l0,0C475.8,268.4,478.1,273.9,478.1,280.1z"/>
		<path class="st12" d="M454.4,281.5c-0.3,0-0.7-0.1-1-0.4l-11.5-11.5c-0.5-0.5-0.5-1.4,0-1.9s1.4-0.5,1.9,0l10.6,10.6l6.1-6.1
			c0.5-0.5,1.4-0.5,1.9,0s0.5,1.4,0,1.9l-7.1,7.1C455.1,281.3,454.8,281.5,454.4,281.5z"/>
	</g>
</g>
<g id="Floor_1_">
	<g>
		<g>
			<path class="st12" d="M759.1,764c0,0.1-105.1,0.2-234.7,0.2c-129.7,0-234.7-0.1-234.7-0.2s105.1-0.2,234.7-0.2
				S759.1,763.9,759.1,764z"/>
		</g>
	</g>
</g>
</svg>
